<svg id="SvgjsSvg2592" width="1101" height="616" xmlns="http://www.w3.org/2000/svg" version="1.1" xmlns:xlink="http://www.w3.org/1999/xlink" xmlns:svgjs="http://svgjs.com/svgjs"><defs id="SvgjsDefs2593"><marker id="SvgjsMarker2672" markerWidth="16" markerHeight="12" refX="16" refY="6" viewBox="0 0 16 12" orient="auto" markerUnits="userSpaceOnUse" stroke-dasharray="0,0"><path id="SvgjsPath2673" d="M0,2 L14,6 L0,11 L0,2" fill="#323232" stroke="#323232" stroke-width="2"></path></marker><marker id="SvgjsMarker2676" markerWidth="16" markerHeight="12" refX="16" refY="6" viewBox="0 0 16 12" orient="auto" markerUnits="userSpaceOnUse" stroke-dasharray="0,0"><path id="SvgjsPath2677" d="M0,2 L14,6 L0,11 L0,2" fill="#323232" stroke="#323232" stroke-width="2"></path></marker><marker id="SvgjsMarker2680" markerWidth="14" markerHeight="12" refX="16" refY="6" viewBox="0 0 14 12" orient="auto" markerUnits="userSpaceOnUse" stroke-dasharray="0,0"><path id="SvgjsPath2681" d="M1,1 L14,6 L1,11L1,1" fill="#ffffff" stroke="#323232" stroke-width="2"></path></marker><marker id="SvgjsMarker2690" markerWidth="14" markerHeight="12" refX="16" refY="6" viewBox="0 0 14 12" orient="auto" markerUnits="userSpaceOnUse" stroke-dasharray="0,0"><path id="SvgjsPath2691" d="M1,1 L14,6 L1,11L1,1" fill="#ffffff" stroke="#323232" stroke-width="2"></path></marker><marker id="SvgjsMarker2694" markerWidth="14" markerHeight="12" refX="16" refY="6" viewBox="0 0 14 12" orient="auto" markerUnits="userSpaceOnUse" stroke-dasharray="0,0"><path id="SvgjsPath2695" d="M1,1 L14,6 L1,11L1,1" fill="#ffffff" stroke="#323232" stroke-width="2"></path></marker><marker id="SvgjsMarker2698" markerWidth="14" markerHeight="12" refX="16" refY="6" viewBox="0 0 14 12" orient="auto" markerUnits="userSpaceOnUse" stroke-dasharray="0,0"><path id="SvgjsPath2699" d="M1,1 L14,6 L1,11L1,1" fill="#ffffff" stroke="#323232" stroke-width="2"></path></marker><marker id="SvgjsMarker2816" markerWidth="16" markerHeight="12" refX="16" refY="6" viewBox="0 0 16 12" orient="auto" markerUnits="userSpaceOnUse" stroke-dasharray="0,0"><path id="SvgjsPath2817" d="M0,2 L14,6 L0,11 L0,2" fill="#323232" stroke="#323232" stroke-width="2"></path></marker><marker id="SvgjsMarker2868" markerWidth="16" markerHeight="12" refX="16" refY="6" viewBox="0 0 16 12" orient="auto" markerUnits="userSpaceOnUse" stroke-dasharray="0,0"><path id="SvgjsPath2869" d="M0,2 L14,6 L0,11 L0,2" fill="#323232" stroke="#323232" stroke-width="2"></path></marker><marker id="SvgjsMarker2872" markerWidth="16" markerHeight="12" refX="16" refY="6" viewBox="0 0 16 12" orient="auto" markerUnits="userSpaceOnUse" stroke-dasharray="0,0"><path id="SvgjsPath2873" d="M0,2 L14,6 L0,11 L0,2" fill="#323232" stroke="#323232" stroke-width="2"></path></marker></defs><g id="SvgjsG2594" transform="translate(155,65)"><path id="SvgjsPath2595" d="M 0 0L 169 0L 169 109L 0 109Z" stroke="rgba(50,50,50,1)" stroke-width="2" fill-opacity="1" fill="#616161"></path><g id="SvgjsG2596"><text id="SvgjsText2597" font-family="微软雅黑" text-anchor="middle" font-size="21px" width="149px" fill="#ffffff" font-weight="400" align="middle" lineHeight="125%" anchor="middle" family="微软雅黑" size="21px" weight="400" font-style="" opacity="1" y="36.875" transform="rotate(0)"><tspan id="SvgjsTspan2598" dy="26" x="84.5"><tspan id="SvgjsTspan2599" style="text-decoration:;">SqlSession</tspan></tspan></text></g></g><g id="SvgjsG2600" transform="translate(459,78)"><path id="SvgjsPath2601" d="M 0 0L 157 0L 157 99L 0 99Z" stroke="rgba(50,50,50,1)" stroke-width="2" fill-opacity="1" fill="#616161"></path><g id="SvgjsG2602"><text id="SvgjsText2603" font-family="微软雅黑" text-anchor="middle" font-size="21px" width="137px" fill="#ffffff" font-weight="400" align="middle" lineHeight="125%" anchor="middle" family="微软雅黑" size="21px" weight="400" font-style="" opacity="1" y="31.875" transform="rotate(0)"><tspan id="SvgjsTspan2604" dy="26" x="78.5"><tspan id="SvgjsTspan2605" style="text-decoration:;">Executor</tspan></tspan></text></g></g><g id="SvgjsG2606" transform="translate(452.5,269)"><path id="SvgjsPath2607" d="M 0 0L 170 0L 170 88L 0 88Z" stroke="rgba(50,50,50,1)" stroke-width="2" fill-opacity="1" fill="#616161"></path><g id="SvgjsG2608"><text id="SvgjsText2609" font-family="微软雅黑" text-anchor="middle" font-size="21px" width="150px" fill="#ff00ff" font-weight="400" align="middle" lineHeight="125%" anchor="middle" family="微软雅黑" size="21px" weight="400" font-style="" opacity="1" y="13.375" transform="rotate(0)"><tspan id="SvgjsTspan2610" dy="26" x="85"><tspan id="SvgjsTspan2611" style="text-decoration:;">Base</tspan></tspan><tspan id="SvgjsTspan2612" dy="26" x="85"><tspan id="SvgjsTspan2613" style="text-decoration:;">Executor</tspan></tspan></text></g></g><g id="SvgjsG2614" transform="translate(57.5,259)"><path id="SvgjsPath2615" d="M 0 0L 166.5 0L 166.5 102L 0 102Z" stroke="rgba(50,50,50,1)" stroke-width="2" fill-opacity="1" fill="#616161"></path><g id="SvgjsG2616"><text id="SvgjsText2617" font-family="微软雅黑" text-anchor="middle" font-size="21px" width="147px" fill="#00ff00" font-weight="400" align="middle" lineHeight="125%" anchor="middle" family="微软雅黑" size="21px" weight="400" font-style="" opacity="1" y="20.375" transform="rotate(0)"><tspan id="SvgjsTspan2618" dy="26" x="83.5"><tspan id="SvgjsTspan2619" style="text-decoration:;">Caching</tspan></tspan><tspan id="SvgjsTspan2620" dy="26" x="83.5"><tspan id="SvgjsTspan2621" style="text-decoration:;">Executor</tspan></tspan></text></g></g><g id="SvgjsG2622" transform="translate(162,480)"><path id="SvgjsPath2623" d="M 0 0L 181 0L 181 52L 0 52Z" stroke="rgba(50,50,50,1)" stroke-width="2" fill-opacity="1" fill="#616161"></path><g id="SvgjsG2624"><text id="SvgjsText2625" font-family="微软雅黑" text-anchor="middle" font-size="21px" width="161px" fill="#ff9800" font-weight="400" align="middle" lineHeight="125%" anchor="middle" family="微软雅黑" size="21px" weight="400" font-style="" opacity="1" y="-4.625" transform="rotate(0)"><tspan id="SvgjsTspan2626" dy="26" x="90.5"><tspan id="SvgjsTspan2627" style="text-decoration:;">Simple</tspan></tspan><tspan id="SvgjsTspan2628" dy="26" x="90.5"><tspan id="SvgjsTspan2629" style="text-decoration:;">Executor</tspan></tspan></text></g></g><g id="SvgjsG2630" transform="translate(447,480)"><path id="SvgjsPath2631" d="M 0 0L 181 0L 181 52L 0 52Z" stroke="rgba(50,50,50,1)" stroke-width="2" fill-opacity="1" fill="#616161"></path><g id="SvgjsG2632"><text id="SvgjsText2633" font-family="微软雅黑" text-anchor="middle" font-size="21px" width="161px" fill="#ff9800" font-weight="400" align="middle" lineHeight="125%" anchor="middle" family="微软雅黑" size="21px" weight="400" font-style="" opacity="1" y="-4.625" transform="rotate(0)"><tspan id="SvgjsTspan2634" dy="26" x="90.5"><tspan id="SvgjsTspan2635" style="text-decoration:;font-size: inherit;">Reuse</tspan></tspan><tspan id="SvgjsTspan2636" dy="26" x="90.5"><tspan id="SvgjsTspan2637" style="text-decoration:;font-size: inherit;">Executor</tspan></tspan></text></g></g><g id="SvgjsG2638" transform="translate(733,480)"><path id="SvgjsPath2639" d="M 0 0L 181 0L 181 52L 0 52Z" stroke="rgba(50,50,50,1)" stroke-width="2" fill-opacity="1" fill="#616161"></path><g id="SvgjsG2640"><text id="SvgjsText2641" font-family="微软雅黑" text-anchor="middle" font-size="21px" width="161px" fill="#ff9800" font-weight="400" align="middle" lineHeight="125%" anchor="middle" family="微软雅黑" size="21px" weight="400" font-style="" opacity="1" y="-4.625" transform="rotate(0)"><tspan id="SvgjsTspan2642" dy="26" x="90.5"><tspan id="SvgjsTspan2643" style="text-decoration:;">Batch</tspan></tspan><tspan id="SvgjsTspan2644" dy="26" x="90.5"><tspan id="SvgjsTspan2645" style="text-decoration:;">Executor</tspan></tspan></text></g></g><g id="SvgjsG2646" transform="translate(197,541)"><path id="SvgjsPath2647" d="M 0 0L 111 0L 111 26L 0 26Z" stroke="rgba(50,50,50,1)" stroke-width="2" fill-opacity="1" fill="#616161"></path><g id="SvgjsG2648"><text id="SvgjsText2649" font-family="微软雅黑" text-anchor="middle" font-size="13px" width="91px" fill="#ffffff" font-weight="400" align="middle" lineHeight="125%" anchor="middle" family="微软雅黑" size="13px" weight="400" font-style="" opacity="1" y="3.375" transform="rotate(0)"><tspan id="SvgjsTspan2650" dy="16" x="55.5"><tspan id="SvgjsTspan2651" style="text-decoration:;">简单执行器</tspan></tspan></text></g></g><g id="SvgjsG2652" transform="translate(773,541)"><path id="SvgjsPath2653" d="M 0 0L 111 0L 111 26L 0 26Z" stroke="rgba(50,50,50,1)" stroke-width="2" fill-opacity="1" fill="#616161"></path><g id="SvgjsG2654"><text id="SvgjsText2655" font-family="微软雅黑" text-anchor="middle" font-size="13px" width="91px" fill="#ffffff" font-weight="400" align="middle" lineHeight="125%" anchor="middle" family="微软雅黑" size="13px" weight="400" font-style="" opacity="1" y="3.375" transform="rotate(0)"><tspan id="SvgjsTspan2656" dy="16" x="55.5"><tspan id="SvgjsTspan2657" style="text-decoration:;">批处理执行器</tspan></tspan></text></g></g><g id="SvgjsG2658" transform="translate(476.5,541)"><path id="SvgjsPath2659" d="M 0 0L 111 0L 111 26L 0 26Z" stroke="rgba(50,50,50,1)" stroke-width="2" fill-opacity="1" fill="#616161"></path><g id="SvgjsG2660"><text id="SvgjsText2661" font-family="微软雅黑" text-anchor="middle" font-size="13px" width="91px" fill="#ffffff" font-weight="400" align="middle" lineHeight="125%" anchor="middle" family="微软雅黑" size="13px" weight="400" font-style="" opacity="1" y="3.375" transform="rotate(0)"><tspan id="SvgjsTspan2662" dy="16" x="55.5"><tspan id="SvgjsTspan2663" style="text-decoration:;">可重用执行器</tspan></tspan></text></g></g><g id="SvgjsG2664" transform="translate(221,144)"><path id="SvgjsPath2665" d="M 0 4Q 0 0 4 0L 89 0Q 93 0 93 4L 93 20Q 93 24 89 24L 4 24Q 0 24 0 20Z" stroke="rgba(50,50,50,1)" stroke-width="2" fill-opacity="1" fill="#4caf50"></path><g id="SvgjsG2666"><text id="SvgjsText2667" font-family="微软雅黑" text-anchor="middle" font-size="13px" width="73px" fill="#ffffff" font-weight="400" align="middle" lineHeight="125%" anchor="middle" family="微软雅黑" size="13px" weight="400" font-style="" opacity="1" y="2.375" transform="rotate(0)"><tspan id="SvgjsTspan2668" dy="16" x="46.5"><tspan id="SvgjsTspan2669" style="text-decoration:;">executor</tspan></tspan></text></g></g><g id="SvgjsG2670"><path id="SvgjsPath2671" d="M314 156L386.5 156L386.5 156L459 156" stroke="#323232" stroke-width="2" fill="none" marker-end="url(#SvgjsMarker2672)"></path></g><g id="SvgjsG2674"><path id="SvgjsPath2675" d="M537.5 269L537.5 223L537.5 223L537.5 177" stroke="#323232" stroke-width="2" fill="none" marker-end="url(#SvgjsMarker2676)"></path></g><g id="SvgjsG2678"><path id="SvgjsPath2679" d="M140.75 259L140.75 218L537.5 218L537.5 177" stroke="#323232" stroke-width="2" fill="none" marker-end="url(#SvgjsMarker2680)"></path></g><g id="SvgjsG2682" transform="translate(121,334)"><path id="SvgjsPath2683" d="M 0 4Q 0 0 4 0L 89 0Q 93 0 93 4L 93 20Q 93 24 89 24L 4 24Q 0 24 0 20Z" stroke="rgba(50,50,50,1)" stroke-width="2" fill-opacity="1" fill="#4caf50"></path><g id="SvgjsG2684"><text id="SvgjsText2685" font-family="微软雅黑" text-anchor="middle" font-size="13px" width="73px" fill="#ffffff" font-weight="400" align="middle" lineHeight="125%" anchor="middle" family="微软雅黑" size="13px" weight="400" font-style="" opacity="1" y="2.375" transform="rotate(0)"><tspan id="SvgjsTspan2686" dy="16" x="46.5"><tspan id="SvgjsTspan2687" style="text-decoration:;">delegate</tspan></tspan></text></g></g><g id="SvgjsG2688"><path id="SvgjsPath2689" d="M252.5 480L252.5 418.5L537.5 418.5L537.5 357" stroke="#323232" stroke-width="2" fill="none" marker-end="url(#SvgjsMarker2690)"></path></g><g id="SvgjsG2692"><path id="SvgjsPath2693" d="M537.5 480L537.5 418.5L537.5 418.5L537.5 357" stroke="#323232" stroke-width="2" fill="none" marker-end="url(#SvgjsMarker2694)"></path></g><g id="SvgjsG2696"><path id="SvgjsPath2697" d="M844 480L844 418.5L537.5 418.5L537.5 357" stroke="#323232" stroke-width="2" fill="none" marker-end="url(#SvgjsMarker2698)"></path></g><g id="SvgjsG2700" transform="translate(373,275.5)"><path id="SvgjsPath2701" d="M 0 0L 94 0L 94 26L 0 26Z" stroke="rgba(50,50,50,1)" stroke-width="2" fill-opacity="1" fill="#2196f3"></path><g id="SvgjsG2702"><text id="SvgjsText2703" font-family="微软雅黑" text-anchor="middle" font-size="13px" width="74px" fill="#ffffff" font-weight="400" align="middle" lineHeight="125%" anchor="middle" family="微软雅黑" size="13px" weight="400" font-style="" opacity="1" y="3.375" transform="rotate(0)"><tspan id="SvgjsTspan2704" dy="16" x="47"><tspan id="SvgjsTspan2705" style="text-decoration:;">一级缓存</tspan></tspan></text></g></g><g id="SvgjsG2706" transform="translate(373,307.5)"><path id="SvgjsPath2707" d="M 0 0L 94 0L 94 26L 0 26Z" stroke="rgba(50,50,50,1)" stroke-width="2" fill-opacity="1" fill="#2196f3"></path><g id="SvgjsG2708"><text id="SvgjsText2709" font-family="微软雅黑" text-anchor="middle" font-size="13px" width="74px" fill="#ffffff" font-weight="400" align="middle" lineHeight="125%" anchor="middle" family="微软雅黑" size="13px" weight="400" font-style="" opacity="1" y="3.375" transform="rotate(0)"><tspan id="SvgjsTspan2710" dy="16" x="47"><tspan id="SvgjsTspan2711" style="text-decoration:;">获取连接</tspan></tspan></text></g></g><g id="SvgjsG2712" transform="translate(199.5,271.75)"><path id="SvgjsPath2713" d="M 0 0L 94 0L 94 26L 0 26Z" stroke="rgba(50,50,50,1)" stroke-width="2" fill-opacity="1" fill="#2196f3"></path><g id="SvgjsG2714"><text id="SvgjsText2715" font-family="微软雅黑" text-anchor="middle" font-size="13px" width="74px" fill="#ffffff" font-weight="400" align="middle" lineHeight="125%" anchor="middle" family="微软雅黑" size="13px" weight="400" font-style="" opacity="1" y="3.375" transform="rotate(0)"><tspan id="SvgjsTspan2716" dy="16" x="47"><tspan id="SvgjsTspan2717" style="text-decoration:;">二级缓存</tspan></tspan></text></g></g><g id="SvgjsG2718" transform="translate(628,82)"><path id="SvgjsPath2719" d="M 0 0L 121 0L 121 23L 0 23Z" stroke="none" fill="none"></path><g id="SvgjsG2720"><text id="SvgjsText2721" font-family="微软雅黑" text-anchor="start" font-size="16px" width="121px" fill="#323232" font-weight="700" align="middle" lineHeight="125%" anchor="start" family="微软雅黑" size="16px" weight="700" font-style="" opacity="1" y="-0.5" transform="rotate(0)"><tspan id="SvgjsTspan2722" dy="20" x="0"><tspan id="SvgjsTspan2723" style="text-decoration:;">基本功能</tspan></tspan></text></g></g><g id="SvgjsG2724" transform="translate(627.5,105)"><path id="SvgjsPath2725" d="M 0 0L 122 0L 122 24L 0 24Z" stroke="none" fill="none"></path><g id="SvgjsG2726"><text id="SvgjsText2727" font-family="微软雅黑" text-anchor="start" font-size="13px" width="122px" fill="#e57373" font-weight="700" align="middle" lineHeight="125%" anchor="start" family="微软雅黑" size="13px" weight="700" font-style="" opacity="1" y="2.375" transform="rotate(0)"><tspan id="SvgjsTspan2728" dy="16" x="0"><tspan id="SvgjsTspan2729" style="text-decoration:;">改、查、缓存维护</tspan></tspan></text></g></g><g id="SvgjsG2730" transform="translate(26,73)"><path id="SvgjsPath2731" d="M 0 0L 121 0L 121 23L 0 23Z" stroke="none" fill="none"></path><g id="SvgjsG2732"><text id="SvgjsText2733" font-family="微软雅黑" text-anchor="end" font-size="16px" width="121px" fill="#323232" font-weight="700" align="middle" lineHeight="125%" anchor="end" family="微软雅黑" size="16px" weight="700" font-style="" opacity="1" y="-0.5" transform="rotate(0)"><tspan id="SvgjsTspan2734" dy="20" x="121"><tspan id="SvgjsTspan2735" style="text-decoration:;">基本API</tspan></tspan></text></g></g><g id="SvgjsG2736" transform="translate(25,93)"><path id="SvgjsPath2737" d="M 0 0L 122 0L 122 24L 0 24Z" stroke="none" fill="none"></path><g id="SvgjsG2738"><text id="SvgjsText2739" font-family="微软雅黑" text-anchor="end" font-size="13px" width="122px" fill="#e57373" font-weight="700" align="middle" lineHeight="125%" anchor="end" family="微软雅黑" size="13px" weight="700" font-style="" opacity="1" y="2.375" transform="rotate(0)"><tspan id="SvgjsTspan2740" dy="16" x="122"><tspan id="SvgjsTspan2741" style="text-decoration:;">增、删、改、查</tspan></tspan></text></g></g><g id="SvgjsG2742" transform="translate(628,132)"><path id="SvgjsPath2743" d="M 0 0L 121 0L 121 23L 0 23Z" stroke="none" fill="none"></path><g id="SvgjsG2744"><text id="SvgjsText2745" font-family="微软雅黑" text-anchor="start" font-size="16px" width="121px" fill="#323232" font-weight="700" align="middle" lineHeight="125%" anchor="start" family="微软雅黑" size="16px" weight="700" font-style="" opacity="1" y="-0.5" transform="rotate(0)"><tspan id="SvgjsTspan2746" dy="20" x="0"><tspan id="SvgjsTspan2747" style="text-decoration:;">辅助API</tspan></tspan></text></g></g><g id="SvgjsG2748" transform="translate(627.5,155)"><path id="SvgjsPath2749" d="M 0 0L 191.5 0L 191.5 24L 0 24Z" stroke="none" fill="none"></path><g id="SvgjsG2750"><text id="SvgjsText2751" font-family="微软雅黑" text-anchor="start" font-size="13px" width="192px" fill="#b71c1c" font-weight="700" align="middle" lineHeight="125%" anchor="start" family="微软雅黑" size="13px" weight="700" font-style="" opacity="1" y="2.375" transform="rotate(0)"><tspan id="SvgjsTspan2752" dy="16" x="0"><tspan id="SvgjsTspan2753" style="text-decoration:;">提交、关闭执行器、批处理刷新</tspan></tspan></text></g></g><g id="SvgjsG2754" transform="translate(26,133)"><path id="SvgjsPath2755" d="M 0 0L 121 0L 121 23L 0 23Z" stroke="none" fill="none"></path><g id="SvgjsG2756"><text id="SvgjsText2757" font-family="微软雅黑" text-anchor="end" font-size="16px" width="121px" fill="#323232" font-weight="700" align="middle" lineHeight="125%" anchor="end" family="微软雅黑" size="16px" weight="700" font-style="" opacity="1" y="-0.5" transform="rotate(0)"><tspan id="SvgjsTspan2758" dy="20" x="121"><tspan id="SvgjsTspan2759" style="text-decoration:;">辅助API</tspan></tspan></text></g></g><g id="SvgjsG2760" transform="translate(25,153)"><path id="SvgjsPath2761" d="M 0 0L 122 0L 122 24L 0 24Z" stroke="none" fill="none"></path><g id="SvgjsG2762"><text id="SvgjsText2763" font-family="微软雅黑" text-anchor="end" font-size="13px" width="122px" fill="#b71c1c" font-weight="700" align="middle" lineHeight="125%" anchor="end" family="微软雅黑" size="13px" weight="700" font-style="" opacity="1" y="2.375" transform="rotate(0)"><tspan id="SvgjsTspan2764" dy="16" x="122"><tspan id="SvgjsTspan2765" style="text-decoration:;">提交、关闭会话</tspan></tspan></text></g></g><g id="SvgjsG2766" transform="translate(445.5,567)"><path id="SvgjsPath2767" d="M 0 0L 173 0L 173 24L 0 24Z" stroke="none" fill="none"></path><g id="SvgjsG2768"><text id="SvgjsText2769" font-family="微软雅黑" text-anchor="middle" font-size="13px" width="173px" fill="#323232" font-weight="400" align="middle" lineHeight="125%" anchor="middle" family="微软雅黑" size="13px" weight="400" font-style="" opacity="1" y="2.375" transform="rotate(0)"><tspan id="SvgjsTspan2770" dy="16" x="86.5"><tspan id="SvgjsTspan2771" style="text-decoration:;">相同的sql只执行一次预处理</tspan></tspan></text></g></g><g id="SvgjsG2772" transform="translate(166,567)"><path id="SvgjsPath2773" d="M 0 0L 173 0L 173 24L 0 24Z" stroke="none" fill="none"></path><g id="SvgjsG2774"><text id="SvgjsText2775" font-family="微软雅黑" text-anchor="middle" font-size="13px" width="173px" fill="#323232" font-weight="400" align="middle" lineHeight="125%" anchor="middle" family="微软雅黑" size="13px" weight="400" font-style="" opacity="1" y="2.375" transform="rotate(0)"><tspan id="SvgjsTspan2776" dy="16" x="86.5"><tspan id="SvgjsTspan2777" style="text-decoration:;">每次都创建新的预处理器</tspan></tspan></text></g></g><g id="SvgjsG2778" transform="translate(699,567)"><path id="SvgjsPath2779" d="M 0 0L 377 0L 377 24L 0 24Z" stroke="none" fill="none"></path><g id="SvgjsG2780"><text id="SvgjsText2781" font-family="微软雅黑" text-anchor="middle" font-size="13px" width="377px" fill="#323232" font-weight="400" align="middle" lineHeight="125%" anchor="middle" family="微软雅黑" size="13px" weight="400" font-style="" opacity="1" y="2.375" transform="rotate(0)"><tspan id="SvgjsTspan2782" dy="16" x="188.5"><tspan id="SvgjsTspan2783" style="text-decoration:;">批处理提交修改（必须执行flushStatements）</tspan></tspan></text></g></g><g id="SvgjsG2784" transform="translate(179.5,25)"><path id="SvgjsPath2785" d="M 0 0L 120 0L 120 40L 0 40Z" stroke="none" fill="none"></path><g id="SvgjsG2786"><text id="SvgjsText2787" font-family="微软雅黑" text-anchor="middle" font-size="16px" width="120px" fill="#ff9800" font-weight="700" align="middle" lineHeight="125%" anchor="middle" family="微软雅黑" size="16px" weight="700" font-style="" opacity="1" y="8" transform="rotate(0)"><tspan id="SvgjsTspan2788" dy="20" x="60"><tspan id="SvgjsTspan2789" style="text-decoration:;">门面模式</tspan></tspan></text></g></g><g id="SvgjsG2790" transform="translate(36.5,219)"><path id="SvgjsPath2791" d="M 0 0L 120 0L 120 40L 0 40Z" stroke="none" fill="none"></path><g id="SvgjsG2792"><text id="SvgjsText2793" font-family="微软雅黑" text-anchor="middle" font-size="16px" width="120px" fill="#ff9800" font-weight="700" align="middle" lineHeight="125%" anchor="middle" family="微软雅黑" size="16px" weight="700" font-style="" opacity="1" y="8" transform="rotate(0)"><tspan id="SvgjsTspan2794" dy="20" x="60"><tspan id="SvgjsTspan2795" style="text-decoration:;">装饰者模式</tspan></tspan></text></g></g><g id="SvgjsG2796" transform="translate(767,276.5)"><path id="SvgjsPath2797" d="M 0 0L 147 0L 147 25L 0 25Z" stroke="rgba(50,50,50,1)" stroke-width="2" fill-opacity="1" fill="#ffffff"></path><g id="SvgjsG2798"><text id="SvgjsText2799" font-family="微软雅黑" text-anchor="middle" font-size="13px" width="127px" fill="#ff00ff" font-weight="400" align="middle" lineHeight="125%" anchor="middle" family="微软雅黑" size="13px" weight="400" font-style="" opacity="1" y="2.875" transform="rotate(0)"><tspan id="SvgjsTspan2800" dy="16" x="73.5"><tspan id="SvgjsTspan2801" style="text-decoration:;">abstract doUpdate</tspan></tspan></text></g></g><g id="SvgjsG2802" transform="translate(314,484)"><path id="SvgjsPath2803" d="M 0 0L 89 0L 89 20L 0 20Z" stroke="rgba(50,50,50,1)" stroke-width="2" fill-opacity="1" fill="#ffffff"></path><g id="SvgjsG2804"><text id="SvgjsText2805" font-family="微软雅黑" text-anchor="middle" font-size="13px" width="69px" fill="#2196f3" font-weight="400" align="middle" lineHeight="125%" anchor="middle" family="微软雅黑" size="13px" weight="400" font-style="" opacity="1" y="0.375" transform="rotate(0)"><tspan id="SvgjsTspan2806" dy="16" x="44.5"><tspan id="SvgjsTspan2807" style="text-decoration:;">doUpdate</tspan></tspan></text></g></g><g id="SvgjsG2808" transform="translate(767,308.5)"><path id="SvgjsPath2809" d="M 0 0L 147 0L 147 25L 0 25Z" stroke="rgba(50,50,50,1)" stroke-width="2" fill-opacity="1" fill="#ffffff"></path><g id="SvgjsG2810"><text id="SvgjsText2811" font-family="微软雅黑" text-anchor="middle" font-size="13px" width="127px" fill="#ff00ff" font-weight="400" align="middle" lineHeight="125%" anchor="middle" family="微软雅黑" size="13px" weight="400" font-style="" opacity="1" y="2.875" transform="rotate(0)"><tspan id="SvgjsTspan2812" dy="16" x="73.5"><tspan id="SvgjsTspan2813" style="text-decoration:;">abstract doQuery</tspan></tspan></text></g></g><g id="SvgjsG2814"><path id="SvgjsPath2815" d="M214 346L329.75 346L329.75 346L445.5 346" stroke="#323232" stroke-width="2" fill="none" marker-end="url(#SvgjsMarker2816)"></path></g><g id="SvgjsG2818" transform="translate(314,508)"><path id="SvgjsPath2819" d="M 0 0L 89 0L 89 20L 0 20Z" stroke="rgba(50,50,50,1)" stroke-width="2" fill-opacity="1" fill="#ffffff"></path><g id="SvgjsG2820"><text id="SvgjsText2821" font-family="微软雅黑" text-anchor="middle" font-size="13px" width="69px" fill="#2196f3" font-weight="400" align="middle" lineHeight="125%" anchor="middle" family="微软雅黑" size="13px" weight="400" font-style="" opacity="1" y="0.375" transform="rotate(0)"><tspan id="SvgjsTspan2822" dy="16" x="44.5"><tspan id="SvgjsTspan2823" style="text-decoration:;">doQuery</tspan></tspan></text></g></g><g id="SvgjsG2824" transform="translate(598,484)"><path id="SvgjsPath2825" d="M 0 0L 89 0L 89 20L 0 20Z" stroke="rgba(50,50,50,1)" stroke-width="2" fill-opacity="1" fill="#ffffff"></path><g id="SvgjsG2826"><text id="SvgjsText2827" font-family="微软雅黑" text-anchor="middle" font-size="13px" width="69px" fill="#2196f3" font-weight="400" align="middle" lineHeight="125%" anchor="middle" family="微软雅黑" size="13px" weight="400" font-style="" opacity="1" y="0.375" transform="rotate(0)"><tspan id="SvgjsTspan2828" dy="16" x="44.5"><tspan id="SvgjsTspan2829" style="text-decoration:;">doUpdate</tspan></tspan></text></g></g><g id="SvgjsG2830" transform="translate(598,508)"><path id="SvgjsPath2831" d="M 0 0L 89 0L 89 20L 0 20Z" stroke="rgba(50,50,50,1)" stroke-width="2" fill-opacity="1" fill="#ffffff"></path><g id="SvgjsG2832"><text id="SvgjsText2833" font-family="微软雅黑" text-anchor="middle" font-size="13px" width="69px" fill="#2196f3" font-weight="400" align="middle" lineHeight="125%" anchor="middle" family="微软雅黑" size="13px" weight="400" font-style="" opacity="1" y="0.375" transform="rotate(0)"><tspan id="SvgjsTspan2834" dy="16" x="44.5"><tspan id="SvgjsTspan2835" style="text-decoration:;">doQuery</tspan></tspan></text></g></g><g id="SvgjsG2836" transform="translate(884,484)"><path id="SvgjsPath2837" d="M 0 0L 89 0L 89 20L 0 20Z" stroke="rgba(50,50,50,1)" stroke-width="2" fill-opacity="1" fill="#ffffff"></path><g id="SvgjsG2838"><text id="SvgjsText2839" font-family="微软雅黑" text-anchor="middle" font-size="13px" width="69px" fill="#2196f3" font-weight="400" align="middle" lineHeight="125%" anchor="middle" family="微软雅黑" size="13px" weight="400" font-style="" opacity="1" y="0.375" transform="rotate(0)"><tspan id="SvgjsTspan2840" dy="16" x="44.5"><tspan id="SvgjsTspan2841" style="text-decoration:;">doUpdate</tspan></tspan></text></g></g><g id="SvgjsG2842" transform="translate(884,508)"><path id="SvgjsPath2843" d="M 0 0L 89 0L 89 20L 0 20Z" stroke="rgba(50,50,50,1)" stroke-width="2" fill-opacity="1" fill="#ffffff"></path><g id="SvgjsG2844"><text id="SvgjsText2845" font-family="微软雅黑" text-anchor="middle" font-size="13px" width="69px" fill="#2196f3" font-weight="400" align="middle" lineHeight="125%" anchor="middle" family="微软雅黑" size="13px" weight="400" font-style="" opacity="1" y="0.375" transform="rotate(0)"><tspan id="SvgjsTspan2846" dy="16" x="44.5"><tspan id="SvgjsTspan2847" style="text-decoration:;">doQuery</tspan></tspan></text></g></g><g id="SvgjsG2848" transform="translate(219,365)"><path id="SvgjsPath2849" d="M 0 0L 120 0L 120 40L 0 40Z" stroke="none" fill="none"></path><g id="SvgjsG2850"><text id="SvgjsText2851" font-family="微软雅黑" text-anchor="middle" font-size="13px" width="120px" fill="#cfcfcf" font-weight="400" align="middle" lineHeight="125%" anchor="middle" family="微软雅黑" size="13px" weight="400" font-style="" opacity="1" y="10.375" transform="rotate(0)"><tspan id="SvgjsTspan2852" dy="16" x="60"><tspan id="SvgjsTspan2853" style="text-decoration:;">@WindShadow</tspan></tspan></text></g></g><g id="SvgjsG2854" transform="translate(593,276)"><path id="SvgjsPath2855" d="M 0 0L 94 0L 94 26L 0 26Z" stroke="rgba(50,50,50,1)" stroke-width="2" fill-opacity="1" fill="#4caf50"></path><g id="SvgjsG2856"><text id="SvgjsText2857" font-family="微软雅黑" text-anchor="middle" font-size="13px" width="74px" fill="#ffffff" font-weight="400" align="middle" lineHeight="125%" anchor="middle" family="微软雅黑" size="13px" weight="400" font-style="" opacity="1" y="3.375" transform="rotate(0)"><tspan id="SvgjsTspan2858" dy="16" x="47"><tspan id="SvgjsTspan2859" style="text-decoration:;">update</tspan></tspan></text></g></g><g id="SvgjsG2860" transform="translate(593,308)"><path id="SvgjsPath2861" d="M 0 0L 94 0L 94 26L 0 26Z" stroke="rgba(50,50,50,1)" stroke-width="2" fill-opacity="1" fill="#4caf50"></path><g id="SvgjsG2862"><text id="SvgjsText2863" font-family="微软雅黑" text-anchor="middle" font-size="13px" width="74px" fill="#ffffff" font-weight="400" align="middle" lineHeight="125%" anchor="middle" family="微软雅黑" size="13px" weight="400" font-style="" opacity="1" y="3.375" transform="rotate(0)"><tspan id="SvgjsTspan2864" dy="16" x="47"><tspan id="SvgjsTspan2865" style="text-decoration:;">query</tspan></tspan></text></g></g><g id="SvgjsG2866"><path id="SvgjsPath2867" d="M687 289L727 289L727 289L767 289" stroke="#323232" stroke-width="2" fill="none" marker-end="url(#SvgjsMarker2868)"></path></g><g id="SvgjsG2870"><path id="SvgjsPath2871" d="M687 321L727 321L727 321L767 321" stroke="#323232" stroke-width="2" fill="none" marker-end="url(#SvgjsMarker2872)"></path></g></svg>