<svg id="SvgjsSvg1525" width="1161" height="431" xmlns="http://www.w3.org/2000/svg" version="1.1" xmlns:xlink="http://www.w3.org/1999/xlink" xmlns:svgjs="http://svgjs.com/svgjs"><defs id="SvgjsDefs1526"><marker id="SvgjsMarker1662" markerWidth="16" markerHeight="12" refX="0" refY="6" viewBox="0 0 16 12" orient="auto" markerUnits="userSpaceOnUse" stroke-dasharray="0,0"><path id="SvgjsPath1663" d="M15,1.5 L2,6 L15,10.5" fill="#323232" stroke="#323232" stroke-width="2"></path></marker><marker id="SvgjsMarker1678" markerWidth="16" markerHeight="12" refX="0" refY="6" viewBox="0 0 16 12" orient="auto" markerUnits="userSpaceOnUse" stroke-dasharray="0,0"><path id="SvgjsPath1679" d="M15,1.5 L2,6 L15,10.5" fill="#323232" stroke="#323232" stroke-width="2"></path></marker><marker id="SvgjsMarker1682" markerWidth="16" markerHeight="12" refX="0" refY="6" viewBox="0 0 16 12" orient="auto" markerUnits="userSpaceOnUse" stroke-dasharray="0,0"><path id="SvgjsPath1683" d="M15,1.5 L2,6 L15,10.5" fill="#323232" stroke="#323232" stroke-width="2"></path></marker><marker id="SvgjsMarker1686" markerWidth="16" markerHeight="12" refX="0" refY="6" viewBox="0 0 16 12" orient="auto" markerUnits="userSpaceOnUse" stroke-dasharray="0,0"><path id="SvgjsPath1687" d="M1,6 L15,1 L15,11L1,6" fill="#ffffff" stroke="#323232" stroke-width="2"></path></marker><marker id="SvgjsMarker1688" markerWidth="14" markerHeight="12" refX="16" refY="6" viewBox="0 0 14 12" orient="auto" markerUnits="userSpaceOnUse" stroke-dasharray="0,0"><path id="SvgjsPath1689" d="M1,1 L14,6 L1,11L1,1" fill="#ffffff" stroke="#323232" stroke-width="2"></path></marker><marker id="SvgjsMarker1696" markerWidth="20" markerHeight="12" refX="0" refY="6" viewBox="0 0 20 12" orient="auto" markerUnits="userSpaceOnUse" stroke-dasharray="0,0"><path id="SvgjsPath1697" d="M2,6 L10,2 L18,6 L10,10L2,6" fill="#ffffff" stroke="#323232" stroke-width="2"></path></marker><marker id="SvgjsMarker1698" markerWidth="20" markerHeight="12" refX="20" refY="6" viewBox="0 0 20 12" orient="auto" markerUnits="userSpaceOnUse" stroke-dasharray="0,0"><path id="SvgjsPath1699" d="M2,6 L10,2 L18,6 L10,10L2,6" fill="#ffffff" stroke="#323232" stroke-width="2"></path></marker></defs><g id="SvgjsG1527" transform="translate(50,25)"><path id="SvgjsPath1528" d="M 0 0L 1086 0L 1086 381L 0 381Z" stroke-dasharray="10,6,3,6" stroke="rgba(50,50,50,1)" stroke-width="2" fill-opacity="1" fill="#ffffff"></path><g id="SvgjsG1529"><text id="SvgjsText1530" font-family="微软雅黑" text-anchor="middle" font-size="13px" width="1066px" fill="#323232" font-weight="400" align="middle" lineHeight="125%" anchor="middle" family="微软雅黑" size="13px" weight="400" font-style="" opacity="1" y="180.875" transform="rotate(0)"></text></g></g><g id="SvgjsG1531" transform="translate(143,31.5)"><path id="SvgjsPath1532" d="M 0 0L 138 0L 138 368L 0 368Z" stroke="rgba(50,50,50,1)" stroke-width="2" fill-opacity="1" fill="#ffffff"></path><g id="SvgjsG1533"><text id="SvgjsText1534" font-family="微软雅黑" text-anchor="middle" font-size="13px" width="118px" fill="#323232" font-weight="400" align="middle" lineHeight="125%" anchor="middle" family="微软雅黑" size="13px" weight="400" font-style="" opacity="1" y="174.375" transform="rotate(0)"></text></g></g><g id="SvgjsG1535" transform="translate(166,100.5)"><path id="SvgjsPath1536" d="M 0 0L 92 0L 92 24.200000000000003L 0 24.200000000000003Z" stroke="rgba(50,50,50,1)" stroke-width="2" fill-opacity="1" fill="#ffffff"></path><g id="SvgjsG1537"><text id="SvgjsText1538" font-family="微软雅黑" text-anchor="middle" font-size="13px" width="72px" fill="#323232" font-weight="400" align="middle" lineHeight="125%" anchor="middle" family="微软雅黑" size="13px" weight="400" font-style="" opacity="1" y="2.4750000000000014" transform="rotate(0)"><tspan id="SvgjsTspan1539" dy="16" x="46"><tspan id="SvgjsTspan1540" style="text-decoration:;">10.0.0.1</tspan></tspan></text></g></g><g id="SvgjsG1541" transform="translate(166,124.69999999999999)"><path id="SvgjsPath1542" d="M 0 0L 92 0L 92 24.200000000000003L 0 24.200000000000003Z" stroke="rgba(50,50,50,1)" stroke-width="2" fill-opacity="1" fill="#ffffff"></path><g id="SvgjsG1543"><text id="SvgjsText1544" font-family="微软雅黑" text-anchor="middle" font-size="13px" width="72px" fill="#323232" font-weight="400" align="middle" lineHeight="125%" anchor="middle" family="微软雅黑" size="13px" weight="400" font-style="" opacity="1" y="2.4750000000000014" transform="rotate(0)"><tspan id="SvgjsTspan1545" dy="16" x="46"><tspan id="SvgjsTspan1546" style="text-decoration:;">10.0.0.2</tspan></tspan></text></g></g><g id="SvgjsG1547" transform="translate(166,148.9)"><path id="SvgjsPath1548" d="M 0 0L 92 0L 92 24.200000000000003L 0 24.200000000000003Z" stroke="rgba(50,50,50,1)" stroke-width="2" fill-opacity="1" fill="#ffffff"></path><g id="SvgjsG1549"><text id="SvgjsText1550" font-family="微软雅黑" text-anchor="middle" font-size="13px" width="72px" fill="#323232" font-weight="400" align="middle" lineHeight="125%" anchor="middle" family="微软雅黑" size="13px" weight="400" font-style="" opacity="1" y="2.4750000000000014" transform="rotate(0)"><tspan id="SvgjsTspan1551" dy="16" x="46"><tspan id="SvgjsTspan1552" style="text-decoration:;">10.0.0.3</tspan></tspan></text></g></g><g id="SvgjsG1553" transform="translate(166,173.1)"><path id="SvgjsPath1554" d="M 0 0L 92 0L 92 24.200000000000003L 0 24.200000000000003Z" stroke="rgba(50,50,50,1)" stroke-width="2" fill-opacity="1" fill="#ffffff"></path><g id="SvgjsG1555"><text id="SvgjsText1556" font-family="微软雅黑" text-anchor="middle" font-size="13px" width="72px" fill="#323232" font-weight="400" align="middle" lineHeight="125%" anchor="middle" family="微软雅黑" size="13px" weight="400" font-style="" opacity="1" y="2.4750000000000014" transform="rotate(0)"><tspan id="SvgjsTspan1557" dy="16" x="46"><tspan id="SvgjsTspan1558" style="text-decoration:;">.......</tspan></tspan></text></g></g><g id="SvgjsG1559" transform="translate(166,197.3)"><path id="SvgjsPath1560" d="M 0 0L 92 0L 92 24.200000000000003L 0 24.200000000000003Z" stroke="rgba(50,50,50,1)" stroke-width="2" fill-opacity="1" fill="#ffffff"></path><g id="SvgjsG1561"><text id="SvgjsText1562" font-family="微软雅黑" text-anchor="middle" font-size="13px" width="72px" fill="#323232" font-weight="400" align="middle" lineHeight="125%" anchor="middle" family="微软雅黑" size="13px" weight="400" font-style="" opacity="1" y="2.4750000000000014" transform="rotate(0)"><tspan id="SvgjsTspan1563" dy="16" x="46"><tspan id="SvgjsTspan1564" style="text-decoration:;">10.0.0.128</tspan></tspan></text></g></g><g id="SvgjsG1565" transform="translate(166,355.5)"><path id="SvgjsPath1566" d="M 0 0L 92 0L 92 24L 0 24Z" stroke="rgba(50,50,50,1)" stroke-width="2" fill-opacity="1" fill="#ffffff"></path><g id="SvgjsG1567"><text id="SvgjsText1568" font-family="微软雅黑" text-anchor="middle" font-size="13px" width="72px" fill="#323232" font-weight="400" align="middle" lineHeight="125%" anchor="middle" family="微软雅黑" size="13px" weight="400" font-style="" opacity="1" y="2.375" transform="rotate(0)"><tspan id="SvgjsTspan1569" dy="16" x="46"><tspan id="SvgjsTspan1570" style="text-decoration:;">10.0.0.254</tspan></tspan></text></g></g><g id="SvgjsG1571" transform="translate(152,34.5)"><path id="SvgjsPath1572" d="M 0 0L 120 0L 120 40L 0 40Z" stroke="none" fill="none"></path><g id="SvgjsG1573"><text id="SvgjsText1574" font-family="微软雅黑" text-anchor="middle" font-size="13px" width="120px" fill="#323232" font-weight="400" align="middle" lineHeight="125%" anchor="middle" family="微软雅黑" size="13px" weight="400" font-style="" opacity="1" y="10.375" transform="rotate(0)"><tspan id="SvgjsTspan1575" dy="16" x="60"><tspan id="SvgjsTspan1576" style="text-decoration:;">mynet</tspan></tspan></text></g></g><g id="SvgjsG1577" transform="translate(25,100.5)"><path id="SvgjsPath1578" d="M 111 0Q 102 0 102 9L 102 87.79999999999998Q 102 96.79999999999998 89 96.79999999999998Q 102 96.79999999999998 102 105.79999999999998L 102 184.59999999999997Q 102 193.59999999999997 111 193.59999999999997" stroke="rgba(50,50,50,1)" stroke-width="2" fill="none"></path><path id="SvgjsPath1579" d="M 0 0L 111 0L 111 193.59999999999997L 0 193.59999999999997Z" stroke="none" fill="none"></path><g id="SvgjsG1580"><text id="SvgjsText1581" font-family="微软雅黑" text-anchor="end" font-size="13px" width="84px" fill="#323232" font-weight="400" align="middle" lineHeight="125%" anchor="end" family="微软雅黑" size="13px" weight="400" font-style="" opacity="1" y="87.17499999999998" transform="rotate(0)"><tspan id="SvgjsTspan1582" dy="16" x="84"><tspan id="SvgjsTspan1583" style="text-decoration:;">IP全部IP</tspan></tspan></text></g></g><g id="SvgjsG1584" transform="translate(166,221.5)"><path id="SvgjsPath1585" d="M 0 0L 92 0L 92 24.200000000000003L 0 24.200000000000003Z" stroke="rgba(50,50,50,1)" stroke-width="2" fill-opacity="1" fill="#ffffff"></path><g id="SvgjsG1586"><text id="SvgjsText1587" font-family="微软雅黑" text-anchor="middle" font-size="13px" width="72px" fill="#323232" font-weight="400" align="middle" lineHeight="125%" anchor="middle" family="微软雅黑" size="13px" weight="400" font-style="" opacity="1" y="2.4750000000000014" transform="rotate(0)"><tspan id="SvgjsTspan1588" dy="16" x="46"><tspan id="SvgjsTspan1589" style="text-decoration:;">10.0.0.129</tspan></tspan></text></g></g><g id="SvgjsG1590" transform="translate(166,245.7)"><path id="SvgjsPath1591" d="M 0 0L 92 0L 92 24.200000000000003L 0 24.200000000000003Z" stroke="rgba(50,50,50,1)" stroke-width="2" fill-opacity="1" fill="#ffffff"></path><g id="SvgjsG1592"><text id="SvgjsText1593" font-family="微软雅黑" text-anchor="middle" font-size="13px" width="72px" fill="#323232" font-weight="400" align="middle" lineHeight="125%" anchor="middle" family="微软雅黑" size="13px" weight="400" font-style="" opacity="1" y="2.4750000000000014" transform="rotate(0)"><tspan id="SvgjsTspan1594" dy="16" x="46"><tspan id="SvgjsTspan1595" style="text-decoration:;">......</tspan></tspan></text></g></g><g id="SvgjsG1596" transform="translate(166,269.9)"><path id="SvgjsPath1597" d="M 0 0L 92 0L 92 24.200000000000003L 0 24.200000000000003Z" stroke="rgba(50,50,50,1)" stroke-width="2" fill-opacity="1" fill="#ffffff"></path><g id="SvgjsG1598"><text id="SvgjsText1599" font-family="微软雅黑" text-anchor="middle" font-size="13px" width="72px" fill="#323232" font-weight="400" align="middle" lineHeight="125%" anchor="middle" family="微软雅黑" size="13px" weight="400" font-style="" opacity="1" y="2.4750000000000014" transform="rotate(0)"><tspan id="SvgjsTspan1600" dy="16" x="46"><tspan id="SvgjsTspan1601" style="text-decoration:;">10.0.0.253</tspan></tspan></text></g></g><g id="SvgjsG1602" transform="translate(286,100.50000000000003)"><path id="SvgjsPath1603" d="M 0 121Q 9 121 9 112L 9 69.5Q 9 60.5 22 60.5Q 9 60.5 9 51.5L 9 9Q 9 0 0 0" stroke="rgba(50,50,50,1)" stroke-width="2" fill="none"></path><path id="SvgjsPath1604" d="M 0 0L 116 0L 116 121L 0 121Z" stroke="none" fill="none"></path><g id="SvgjsG1605"><text id="SvgjsText1606" font-family="微软雅黑" text-anchor="start" font-size="13px" width="89px" fill="#323232" font-weight="400" align="middle" lineHeight="125%" anchor="start" family="微软雅黑" size="13px" weight="400" font-style="" opacity="1" y="50.875" transform="rotate(0)"><tspan id="SvgjsTspan1607" dy="16" x="27"><tspan id="SvgjsTspan1608" style="text-decoration:;">可动态分配IP</tspan></tspan></text></g></g><g id="SvgjsG1609" transform="translate(152,322.5)"><path id="SvgjsPath1610" d="M 0 0L 120 0L 120 40L 0 40Z" stroke="none" fill="none"></path><g id="SvgjsG1611"><text id="SvgjsText1612" font-family="微软雅黑" text-anchor="middle" font-size="13px" width="120px" fill="#323232" font-weight="400" align="middle" lineHeight="125%" anchor="middle" family="微软雅黑" size="13px" weight="400" font-style="" opacity="1" y="10.375" transform="rotate(0)"><tspan id="SvgjsTspan1613" dy="16" x="60"><tspan id="SvgjsTspan1614" style="text-decoration:;">网关</tspan></tspan></text></g></g><g id="SvgjsG1615" transform="translate(354,274.40000000000003)"><path id="SvgjsPath1616" d="M 0 0L 120 0L 120 40L 0 40Z" stroke="none" fill="none"></path><g id="SvgjsG1617"><text id="SvgjsText1618" font-family="微软雅黑" text-anchor="middle" font-size="13px" width="120px" fill="#cfcfcf" font-weight="400" align="middle" lineHeight="125%" anchor="middle" family="微软雅黑" size="13px" weight="400" font-style="" opacity="1" y="10.375" transform="rotate(0)"><tspan id="SvgjsTspan1619" dy="16" x="60"><tspan id="SvgjsTspan1620" style="text-decoration:;">@WindShadow</tspan></tspan></text></g></g><g id="SvgjsG1621" transform="translate(901.5,221.8)"><path id="SvgjsPath1622" d="M 0 0L 195.5 0L 195.5 52L 0 52Z" stroke="rgba(50,50,50,1)" stroke-width="2" fill-opacity="1" fill="#ffffff"></path><g id="SvgjsG1623"><text id="SvgjsText1624" font-family="微软雅黑" text-anchor="middle" font-size="13px" width="176px" fill="#323232" font-weight="400" align="middle" lineHeight="125%" anchor="middle" family="微软雅黑" size="13px" weight="400" font-style="" opacity="1" y="8.375" transform="rotate(0)"><tspan id="SvgjsTspan1625" dy="16" x="98"><tspan id="SvgjsTspan1626" style="text-decoration:;">DNS：维护容器名（容器id）</tspan></tspan><tspan id="SvgjsTspan1627" dy="16" x="98"><tspan id="SvgjsTspan1628" style="text-decoration:;">与IP的关系</tspan></tspan></text></g></g><g id="SvgjsG1629" transform="translate(484,90.50000000000003)"><path id="SvgjsPath1630" d="M 0 0L 368 0L 368 189.39999999999992L 0 189.39999999999992Z" stroke-dasharray="10,6" stroke="rgba(50,50,50,1)" stroke-width="2" fill-opacity="1" fill="#ffffff"></path><g id="SvgjsG1631"><text id="SvgjsText1632" font-family="微软雅黑" text-anchor="middle" font-size="13px" width="348px" fill="#323232" font-weight="400" align="middle" lineHeight="125%" anchor="middle" family="微软雅黑" size="13px" weight="400" font-style="" opacity="1" y="85.07499999999996" transform="rotate(0)"></text></g></g><g id="SvgjsG1633" transform="translate(509,144.5)"><path id="SvgjsPath1634" d="M 0 4Q 0 0 4 0L 144 0Q 148 0 148 4L 148 27.200000000000017Q 148 31.200000000000017 144 31.200000000000017L 4 31.200000000000017Q 0 31.200000000000017 0 27.200000000000017Z" stroke="rgba(50,50,50,1)" stroke-width="2" fill-opacity="1" fill="#ffffff"></path><g id="SvgjsG1635"><text id="SvgjsText1636" font-family="微软雅黑" text-anchor="middle" font-size="13px" width="128px" fill="#323232" font-weight="400" align="middle" lineHeight="125%" anchor="middle" family="微软雅黑" size="13px" weight="400" font-style="" opacity="1" y="5.9750000000000085" transform="rotate(0)"><tspan id="SvgjsTspan1637" dy="16" x="74"><tspan id="SvgjsTspan1638" style="text-decoration:;">容器A IP：10.0.0.1</tspan></tspan></text></g></g><g id="SvgjsG1639" transform="translate(509,182.5)"><path id="SvgjsPath1640" d="M 0 4Q 0 0 4 0L 144 0Q 148 0 148 4L 148 25.00000000000003Q 148 29.00000000000003 144 29.00000000000003L 4 29.00000000000003Q 0 29.00000000000003 0 25.00000000000003Z" stroke="rgba(50,50,50,1)" stroke-width="2" fill-opacity="1" fill="#ffffff"></path><g id="SvgjsG1641"><text id="SvgjsText1642" font-family="微软雅黑" text-anchor="middle" font-size="13px" width="128px" fill="#323232" font-weight="400" align="middle" lineHeight="125%" anchor="middle" family="微软雅黑" size="13px" weight="400" font-style="" opacity="1" y="4.875000000000014" transform="rotate(0)"><tspan id="SvgjsTspan1643" dy="16" x="74"><tspan id="SvgjsTspan1644" style="text-decoration:;">容器B IP：10.0.0.2</tspan></tspan></text></g></g><g id="SvgjsG1645" transform="translate(664,146.70000000000002)"><path id="SvgjsPath1646" d="M 0 64.80000000000001Q 9 64.80000000000001 9 58.32000000000001L 9 38.88000000000001Q 9 32.400000000000006 22 32.400000000000006Q 9 32.400000000000006 9 25.920000000000005L 9 6.480000000000001Q 9 0 0 0" stroke="rgba(50,50,50,1)" stroke-width="2" fill="none"></path><path id="SvgjsPath1647" d="M 0 0L 151 0L 151 64.80000000000001L 0 64.80000000000001Z" stroke="none" fill="none"></path><g id="SvgjsG1648"><text id="SvgjsText1649" font-family="微软雅黑" text-anchor="start" font-size="13px" width="124px" fill="#323232" font-weight="400" align="middle" lineHeight="125%" anchor="start" family="微软雅黑" size="13px" weight="400" font-style="" opacity="1" y="14.775000000000006" transform="rotate(0)"><tspan id="SvgjsTspan1650" dy="16" x="27"><tspan id="SvgjsTspan1651" style="text-decoration:;">不指定IP，容器启动</tspan></tspan><tspan id="SvgjsTspan1652" dy="16" x="27"><tspan id="SvgjsTspan1653" style="text-decoration:;">动态获取</tspan></tspan></text></g></g><g id="SvgjsG1654" transform="translate(509,245.10000000000002)"><path id="SvgjsPath1655" d="M 0 4Q 0 0 4 0L 144 0Q 148 0 148 4L 148 20.199999999999932Q 148 24.199999999999932 144 24.199999999999932L 4 24.199999999999932Q 0 24.199999999999932 0 20.199999999999932Z" stroke="rgba(50,50,50,1)" stroke-width="2" fill-opacity="1" fill="#ffffff"></path><g id="SvgjsG1656"><text id="SvgjsText1657" font-family="微软雅黑" text-anchor="middle" font-size="13px" width="128px" fill="#323232" font-weight="400" align="middle" lineHeight="125%" anchor="middle" family="微软雅黑" size="13px" weight="400" font-style="" opacity="1" y="2.474999999999966" transform="rotate(0)"><tspan id="SvgjsTspan1658" dy="16" x="74"><tspan id="SvgjsTspan1659" style="text-decoration:;">容器C IP：10.0.0.200</tspan></tspan></text></g></g><g id="SvgjsG1660"><path id="SvgjsPath1661" d="M509 257.2L258 257.8" stroke="#323232" stroke-width="2" fill="none" marker-start="url(#SvgjsMarker1662)"></path></g><g id="SvgjsG1664" transform="translate(664,240.59999999999997)"><path id="SvgjsPath1665" d="M 0 0L 179 0L 179 33.200000000000045L 0 33.200000000000045Z" stroke="none" fill="none"></path><g id="SvgjsG1666"><text id="SvgjsText1667" font-family="微软雅黑" text-anchor="middle" font-size="13px" width="179px" fill="#323232" font-weight="400" align="middle" lineHeight="125%" anchor="middle" family="微软雅黑" size="13px" weight="400" font-style="" opacity="1" y="6.975000000000023" transform="rotate(0)"><tspan id="SvgjsTspan1668" dy="16" x="89.5"><tspan id="SvgjsTspan1669" style="text-decoration:;">指定IP，容器启动设置静态IP</tspan></tspan></text></g></g><g id="SvgjsG1670" transform="translate(603.5,87.5)"><path id="SvgjsPath1671" d="M 0 0L 120 0L 120 40L 0 40Z" stroke="none" fill="none"></path><g id="SvgjsG1672"><text id="SvgjsText1673" font-family="微软雅黑" text-anchor="middle" font-size="13px" width="120px" fill="#323232" font-weight="400" align="middle" lineHeight="125%" anchor="middle" family="微软雅黑" size="13px" weight="400" font-style="" opacity="1" y="10.375" transform="rotate(0)"><tspan id="SvgjsTspan1674" dy="16" x="60"><tspan id="SvgjsTspan1675" style="text-decoration:;">container</tspan></tspan></text></g></g><g id="SvgjsG1676"><path id="SvgjsPath1677" d="M509 160.10000000000002L454 160.10000000000002L454 160.10000000000002L399 160.10000000000002" stroke="#323232" stroke-width="2" fill="none" marker-start="url(#SvgjsMarker1678)"></path></g><g id="SvgjsG1680"><path id="SvgjsPath1681" d="M509 197L479 197L479 160.10000000000002L509 160.10000000000002" stroke="#323232" stroke-width="2" fill="none" marker-start="url(#SvgjsMarker1682)"></path></g><g id="SvgjsG1684"><path id="SvgjsPath1685" d="M258 367.5L668 367.5L668 279.9" stroke="#323232" stroke-width="2" fill="none" marker-start="url(#SvgjsMarker1686)" marker-end="url(#SvgjsMarker1688)"></path><rect id="SvgjsRect1690" width="130" height="16" x="441.8" y="359.5" fill="#ffffff"></rect><text id="SvgjsText1691" font-family="微软雅黑" text-anchor="middle" font-size="13px" width="130px" fill="#323232" font-weight="400" align="top" lineHeight="16px" anchor="middle" family="微软雅黑" size="13px" weight="400" font-style="" opacity="1" y="357.875" transform="rotate(0)"><tspan id="SvgjsTspan1692" dy="16" x="506.8"><tspan id="SvgjsTspan1693" style="text-decoration:;">容器都设置相同的网关</tspan></tspan></text></g><g id="SvgjsG1694"><path id="SvgjsPath1695" d="M852 185.2L999.25 185.2L999.25 221.8" stroke="#323232" stroke-width="2" fill="none" marker-start="url(#SvgjsMarker1696)" marker-end="url(#SvgjsMarker1698)"></path><rect id="SvgjsRect1700" width="93" height="16" x="897.425" y="177.2" fill="#ffffff"></rect><text id="SvgjsText1701" font-family="微软雅黑" text-anchor="middle" font-size="13px" width="93px" fill="#323232" font-weight="400" align="top" lineHeight="16px" anchor="middle" family="微软雅黑" size="13px" weight="400" font-style="" opacity="1" y="175.575" transform="rotate(0)"><tspan id="SvgjsTspan1702" dy="16" x="943.925"><tspan id="SvgjsTspan1703" style="text-decoration:;">容器都设置DNS</tspan></tspan></text></g></svg>