<svg id="SvgjsSvg1006" width="876" height="462" xmlns="http://www.w3.org/2000/svg" version="1.1" xmlns:xlink="http://www.w3.org/1999/xlink" xmlns:svgjs="http://svgjs.com/svgjs"><defs id="SvgjsDefs1007"><marker id="SvgjsMarker1046" markerWidth="14" markerHeight="10" refX="10" refY="5" viewBox="0 0 14 10" orient="auto" markerUnits="userSpaceOnUse" stroke-dasharray="0,0"><path id="SvgjsPath1047" d="M0,0 L14,5 L0,10 L0,0" fill="#323232" stroke="#323232" stroke-width="1"></path></marker><marker id="SvgjsMarker1054" markerWidth="14" markerHeight="10" refX="10" refY="5" viewBox="0 0 14 10" orient="auto" markerUnits="userSpaceOnUse" stroke-dasharray="0,0"><path id="SvgjsPath1055" d="M0,0 L14,5 L0,10 L0,0" fill="#323232" stroke="#323232" stroke-width="1"></path></marker><marker id="SvgjsMarker1062" markerWidth="14" markerHeight="10" refX="10" refY="5" viewBox="0 0 14 10" orient="auto" markerUnits="userSpaceOnUse" stroke-dasharray="0,0"><path id="SvgjsPath1063" d="M0,0 L14,5 L0,10 L0,0" fill="#323232" stroke="#323232" stroke-width="1"></path></marker><marker id="SvgjsMarker1082" markerWidth="14" markerHeight="10" refX="10" refY="5" viewBox="0 0 14 10" orient="auto" markerUnits="userSpaceOnUse" stroke-dasharray="0,0"><path id="SvgjsPath1083" d="M0,0 L14,5 L0,10 L0,0" fill="#323232" stroke="#323232" stroke-width="1"></path></marker><marker id="SvgjsMarker1092" markerWidth="14" markerHeight="10" refX="10" refY="5" viewBox="0 0 14 10" orient="auto" markerUnits="userSpaceOnUse" stroke-dasharray="0,0"><path id="SvgjsPath1093" d="M0,0 L14,5 L0,10 L0,0" fill="#323232" stroke="#323232" stroke-width="1"></path></marker><marker id="SvgjsMarker1102" markerWidth="14" markerHeight="10" refX="10" refY="5" viewBox="0 0 14 10" orient="auto" markerUnits="userSpaceOnUse" stroke-dasharray="0,0"><path id="SvgjsPath1103" d="M0,0 L14,5 L0,10 L0,0" fill="#323232" stroke="#323232" stroke-width="1"></path></marker><marker id="SvgjsMarker1128" markerWidth="14" markerHeight="10" refX="10" refY="5" viewBox="0 0 14 10" orient="auto" markerUnits="userSpaceOnUse" stroke-dasharray="0,0"><path id="SvgjsPath1129" d="M0,0 L14,5 L0,10 L0,0" fill="#323232" stroke="#323232" stroke-width="1"></path></marker><marker id="SvgjsMarker1132" markerWidth="14" markerHeight="10" refX="10" refY="5" viewBox="0 0 14 10" orient="auto" markerUnits="userSpaceOnUse" stroke-dasharray="0,0"><path id="SvgjsPath1133" d="M0,0 L14,5 L0,10 L0,0" fill="#323232" stroke="#323232" stroke-width="1"></path></marker><marker id="SvgjsMarker1142" markerWidth="14" markerHeight="10" refX="4" refY="5" viewBox="0 0 14 10" orient="auto" markerUnits="userSpaceOnUse" stroke-dasharray="0,0"><path id="SvgjsPath1143" d="M14,0 L0,5 L14,10 L14,0" fill="#323232" stroke="#323232" stroke-width="1"></path></marker><marker id="SvgjsMarker1144" markerWidth="14" markerHeight="10" refX="10" refY="5" viewBox="0 0 14 10" orient="auto" markerUnits="userSpaceOnUse" stroke-dasharray="0,0"><path id="SvgjsPath1145" d="M0,0 L14,5 L0,10 L0,0" fill="#323232" stroke="#323232" stroke-width="1"></path></marker></defs><g id="SvgjsG1008" transform="translate(25,251)"><path id="SvgjsPath1009" d="M 0 0L 619 0L 619 186L 0 186Z" stroke-dasharray="3,4" stroke="rgba(50,50,50,1)" stroke-width="2" fill-opacity="1" fill="#ffffff"></path><g id="SvgjsG1010"><text id="SvgjsText1011" font-family="微软雅黑" text-anchor="middle" font-size="17px" width="599px" fill="#323232" font-weight="700" align="top" lineHeight="125%" anchor="middle" family="微软雅黑" size="17px" weight="700" font-style="" opacity="1" y="-4.125" transform="rotate(0)"><tspan id="SvgjsTspan1012" dy="21" x="309.5"><tspan id="SvgjsTspan1013" style="text-decoration:;">私钥+证书-&gt;密钥库</tspan></tspan></text></g></g><g id="SvgjsG1014" transform="translate(674,25)"><path id="SvgjsPath1015" d="M 0 0L 177 0L 177 412L 0 412Z" stroke-dasharray="3,4" stroke="rgba(50,50,50,1)" stroke-width="2" fill-opacity="1" fill="#ffffff"></path><g id="SvgjsG1016"><text id="SvgjsText1017" font-family="微软雅黑" text-anchor="middle" font-size="17px" width="157px" fill="#323232" font-weight="700" align="top" lineHeight="125%" anchor="middle" family="微软雅黑" size="17px" weight="700" font-style="" opacity="1" y="-4.125" transform="rotate(0)"><tspan id="SvgjsTspan1018" dy="21" x="88.5"><tspan id="SvgjsTspan1019" style="text-decoration:;">根CA签发证书</tspan></tspan></text></g></g><g id="SvgjsG1020" transform="translate(25,25)"><path id="SvgjsPath1021" d="M 0 0L 406 0L 406 196L 0 196Z" stroke-dasharray="3,4" stroke="rgba(50,50,50,1)" stroke-width="2" fill-opacity="1" fill="#ffffff"></path><g id="SvgjsG1022"><text id="SvgjsText1023" font-family="微软雅黑" text-anchor="middle" font-size="17px" width="386px" fill="#323232" font-weight="700" align="top" lineHeight="125%" anchor="middle" family="微软雅黑" size="17px" weight="700" font-style="" opacity="1" y="-4.125" transform="rotate(0)"><tspan id="SvgjsTspan1024" dy="21" x="203"><tspan id="SvgjsTspan1025" style="text-decoration:;">自签根CA</tspan></tspan></text></g></g><g id="SvgjsG1026" transform="translate(72,167)"><path id="SvgjsPath1027" d="M 0 4Q 0 0 4 0L 123 0Q 127 0 127 4L 127 32Q 127 36 123 36L 4 36Q 0 36 0 32Z" stroke="rgba(50,50,50,1)" stroke-width="2" fill-opacity="1" fill="#ffb74d"></path><g id="SvgjsG1028"><text id="SvgjsText1029" font-family="微软雅黑" text-anchor="middle" font-size="13px" width="107px" fill="#000000" font-weight="400" align="middle" lineHeight="125%" anchor="middle" family="微软雅黑" size="13px" weight="400" font-style="" opacity="1" y="7.375" transform="rotate(0)"><tspan id="SvgjsTspan1030" dy="16" x="63.5"><tspan id="SvgjsTspan1031" style="text-decoration:;">根CA-签名请求</tspan></tspan></text></g></g><g id="SvgjsG1032" transform="translate(72,75)"><path id="SvgjsPath1033" d="M 0 4Q 0 0 4 0L 123 0Q 127 0 127 4L 127 32Q 127 36 123 36L 4 36Q 0 36 0 32Z" stroke="rgba(50,50,50,1)" stroke-width="2" fill-opacity="1" fill="#9c27b0"></path><g id="SvgjsG1034"><text id="SvgjsText1035" font-family="微软雅黑" text-anchor="middle" font-size="13px" width="107px" fill="#000000" font-weight="400" align="middle" lineHeight="125%" anchor="middle" family="微软雅黑" size="13px" weight="400" font-style="" opacity="1" y="7.375" transform="rotate(0)"><tspan id="SvgjsTspan1036" dy="16" x="63.5"><tspan id="SvgjsTspan1037" style="text-decoration:;">根CA-私钥</tspan></tspan></text></g></g><g id="SvgjsG1038" transform="translate(287,75)"><path id="SvgjsPath1039" d="M 0 4Q 0 0 4 0L 123 0Q 127 0 127 4L 127 32Q 127 36 123 36L 4 36Q 0 36 0 32Z" stroke="rgba(0,0,0,1)" stroke-width="2" fill-opacity="1" fill="#388e3c"></path><g id="SvgjsG1040"><text id="SvgjsText1041" font-family="微软雅黑" text-anchor="middle" font-size="13px" width="107px" fill="#000000" font-weight="400" align="middle" lineHeight="125%" anchor="middle" family="微软雅黑" size="13px" weight="400" font-style="" opacity="1" y="7.375" transform="rotate(0)"><tspan id="SvgjsTspan1042" dy="16" x="63.5"><tspan id="SvgjsTspan1043" style="text-decoration:;">根CA-自签证书</tspan></tspan></text></g></g><g id="SvgjsG1044"><path id="SvgjsPath1045" d="M135.5 112L135.5 139L135.5 139L135.5 163.39999999999998" stroke="#323232" stroke-width="2" fill="none" marker-end="url(#SvgjsMarker1046)"></path><rect id="SvgjsRect1048" width="8" height="16" x="131.5" y="129.7" fill="#ffffff"></rect><text id="SvgjsText1049" font-family="微软雅黑" text-anchor="middle" font-size="13px" width="8px" fill="#000000" font-weight="400" align="top" lineHeight="16px" anchor="middle" family="微软雅黑" size="13px" weight="400" font-style="" opacity="1" y="127.07499999999999" transform="rotate(0)"><tspan id="SvgjsTspan1050" dy="16" x="135.5"><tspan id="SvgjsTspan1051" style="text-decoration:;">1</tspan></tspan></text></g><g id="SvgjsG1052"><path id="SvgjsPath1053" d="M200 93L243 93L243 93L283.4 93" stroke="#323232" stroke-width="2" fill="none" marker-end="url(#SvgjsMarker1054)"></path><rect id="SvgjsRect1056" width="8" height="16" x="237.69999999999996" y="85" fill="#ffffff"></rect><text id="SvgjsText1057" font-family="微软雅黑" text-anchor="middle" font-size="13px" width="8px" fill="#000000" font-weight="400" align="top" lineHeight="16px" anchor="middle" family="微软雅黑" size="13px" weight="400" font-style="" opacity="1" y="82.375" transform="rotate(0)"><tspan id="SvgjsTspan1058" dy="16" x="241.69999999999996"><tspan id="SvgjsTspan1059" style="text-decoration:;">3</tspan></tspan></text></g><g id="SvgjsG1060"><path id="SvgjsPath1061" d="M71 185L42 185L42 93L68.4 93" stroke="#323232" stroke-width="2" fill="none" marker-end="url(#SvgjsMarker1062)"></path><rect id="SvgjsRect1064" width="8" height="16" x="38" y="132.3" fill="#ffffff"></rect><text id="SvgjsText1065" font-family="微软雅黑" text-anchor="middle" font-size="13px" width="8px" fill="#000000" font-weight="400" align="top" lineHeight="16px" anchor="middle" family="微软雅黑" size="13px" weight="400" font-style="" opacity="1" y="129.675" transform="rotate(0)"><tspan id="SvgjsTspan1066" dy="16" x="42"><tspan id="SvgjsTspan1067" style="text-decoration:;">2</tspan></tspan></text></g><g id="SvgjsG1068" transform="translate(699,190)"><path id="SvgjsPath1069" d="M 0 4Q 0 0 4 0L 123 0Q 127 0 127 4L 127 32Q 127 36 123 36L 4 36Q 0 36 0 32Z" stroke="rgba(50,50,50,1)" stroke-width="2" fill-opacity="1" fill="#ffe0b2"></path><g id="SvgjsG1070"><text id="SvgjsText1071" font-family="微软雅黑" text-anchor="middle" font-size="13px" width="107px" fill="#000000" font-weight="400" align="middle" lineHeight="125%" anchor="middle" family="微软雅黑" size="13px" weight="400" font-style="" opacity="1" y="7.375" transform="rotate(0)"><tspan id="SvgjsTspan1072" dy="16" x="63.5"><tspan id="SvgjsTspan1073" style="text-decoration:;">server-签名请求</tspan></tspan></text></g></g><g id="SvgjsG1074" transform="translate(699,98)"><path id="SvgjsPath1075" d="M 0 4Q 0 0 4 0L 123 0Q 127 0 127 4L 127 32Q 127 36 123 36L 4 36Q 0 36 0 32Z" stroke="rgba(50,50,50,1)" stroke-width="2" fill-opacity="1" fill="#e1bee7"></path><g id="SvgjsG1076"><text id="SvgjsText1077" font-family="微软雅黑" text-anchor="middle" font-size="13px" width="107px" fill="#000000" font-weight="400" align="middle" lineHeight="125%" anchor="middle" family="微软雅黑" size="13px" weight="400" font-style="" opacity="1" y="7.375" transform="rotate(0)"><tspan id="SvgjsTspan1078" dy="16" x="63.5"><tspan id="SvgjsTspan1079" style="text-decoration:;">server-私钥</tspan></tspan></text></g></g><g id="SvgjsG1080"><path id="SvgjsPath1081" d="M762.5 135L762.5 162L762.5 162L762.5 186.39999999999998" stroke="#323232" stroke-width="2" fill="none" marker-end="url(#SvgjsMarker1082)"></path></g><g id="SvgjsG1084" transform="translate(699,282)"><path id="SvgjsPath1085" d="M 0 4Q 0 0 4 0L 123 0Q 127 0 127 4L 127 32Q 127 36 123 36L 4 36Q 0 36 0 32Z" stroke="rgba(50,50,50,1)" stroke-width="2" fill-opacity="1" fill="#9c27b0"></path><g id="SvgjsG1086"><text id="SvgjsText1087" font-family="微软雅黑" text-anchor="middle" font-size="13px" width="107px" fill="#000000" font-weight="400" align="middle" lineHeight="125%" anchor="middle" family="微软雅黑" size="13px" weight="400" font-style="" opacity="1" y="7.375" transform="rotate(0)"><tspan id="SvgjsTspan1088" dy="16" x="63.5"><tspan id="SvgjsTspan1089" style="text-decoration:;">根CA-私钥</tspan></tspan></text></g></g><g id="SvgjsG1090"><path id="SvgjsPath1091" d="M762.5 227L762.5 254L762.5 254L762.5 278.4" stroke="#323232" stroke-width="2" fill="none" marker-end="url(#SvgjsMarker1092)"></path></g><g id="SvgjsG1094" transform="translate(699,382)"><path id="SvgjsPath1095" d="M 0 4Q 0 0 4 0L 123 0Q 127 0 127 4L 127 32Q 127 36 123 36L 4 36Q 0 36 0 32Z" stroke="rgba(0,0,0,1)" stroke-width="2" fill-opacity="1" fill="#81c784"></path><g id="SvgjsG1096"><text id="SvgjsText1097" font-family="微软雅黑" text-anchor="middle" font-size="13px" width="107px" fill="#000000" font-weight="400" align="middle" lineHeight="125%" anchor="middle" family="微软雅黑" size="13px" weight="400" font-style="" opacity="1" y="7.375" transform="rotate(0)"><tspan id="SvgjsTspan1098" dy="16" x="63.5"><tspan id="SvgjsTspan1099" style="text-decoration:;">server-自签证书</tspan></tspan></text></g></g><g id="SvgjsG1100"><path id="SvgjsPath1101" d="M762.5 319L762.5 350L762.5 350L762.5 378.4" stroke="#323232" stroke-width="2" fill="none" marker-end="url(#SvgjsMarker1102)"></path><rect id="SvgjsRect1104" width="26" height="16" x="749.5" y="340.7" fill="#ffffff"></rect><text id="SvgjsText1105" font-family="微软雅黑" text-anchor="middle" font-size="13px" width="26px" fill="#000000" font-weight="400" align="top" lineHeight="16px" anchor="middle" family="微软雅黑" size="13px" weight="400" font-style="" opacity="1" y="338.075" transform="rotate(0)"><tspan id="SvgjsTspan1106" dy="16" x="762.5"><tspan id="SvgjsTspan1107" style="text-decoration:;">签名</tspan></tspan></text></g><g id="SvgjsG1108" transform="translate(43,308)"><path id="SvgjsPath1109" d="M 0 4Q 0 0 4 0L 123 0Q 127 0 127 4L 127 32Q 127 36 123 36L 4 36Q 0 36 0 32Z" stroke="rgba(50,50,50,1)" stroke-width="2" fill-opacity="1" fill="#e1bee7"></path><g id="SvgjsG1110"><text id="SvgjsText1111" font-family="微软雅黑" text-anchor="middle" font-size="13px" width="107px" fill="#000000" font-weight="400" align="middle" lineHeight="125%" anchor="middle" family="微软雅黑" size="13px" weight="400" font-style="" opacity="1" y="7.375" transform="rotate(0)"><tspan id="SvgjsTspan1112" dy="16" x="63.5"><tspan id="SvgjsTspan1113" style="text-decoration:;">私钥(key)</tspan></tspan></text></g></g><g id="SvgjsG1114" transform="translate(43,380)"><path id="SvgjsPath1115" d="M 0 4Q 0 0 4 0L 123 0Q 127 0 127 4L 127 32Q 127 36 123 36L 4 36Q 0 36 0 32Z" stroke="rgba(0,0,0,1)" stroke-width="2" fill-opacity="1" fill="#81c784"></path><g id="SvgjsG1116"><text id="SvgjsText1117" font-family="微软雅黑" text-anchor="middle" font-size="13px" width="107px" fill="#000000" font-weight="400" align="middle" lineHeight="125%" anchor="middle" family="微软雅黑" size="13px" weight="400" font-style="" opacity="1" y="7.375" transform="rotate(0)"><tspan id="SvgjsTspan1118" dy="16" x="63.5"><tspan id="SvgjsTspan1119" style="text-decoration:;">证书(crt)</tspan></tspan></text></g></g><g id="SvgjsG1120" transform="translate(262,344)"><path id="SvgjsPath1121" d="M 0 4Q 0 0 4 0L 123 0Q 127 0 127 4L 127 32Q 127 36 123 36L 4 36Q 0 36 0 32Z" stroke="rgba(50,50,50,1)" stroke-width="2" fill-opacity="1" fill="#4dd0e1"></path><g id="SvgjsG1122"><text id="SvgjsText1123" font-family="微软雅黑" text-anchor="middle" font-size="13px" width="107px" fill="#000000" font-weight="400" align="middle" lineHeight="125%" anchor="middle" family="微软雅黑" size="13px" weight="400" font-style="" opacity="1" y="7.375" transform="rotate(0)"><tspan id="SvgjsTspan1124" dy="16" x="63.5"><tspan id="SvgjsTspan1125" style="text-decoration:;">通用密钥库(p12)</tspan></tspan></text></g></g><g id="SvgjsG1126"><path id="SvgjsPath1127" d="M171 326L216 326L216 362L258.4 362" stroke="#323232" stroke-width="2" fill="none" marker-end="url(#SvgjsMarker1128)"></path></g><g id="SvgjsG1130"><path id="SvgjsPath1131" d="M171 400L216 400L216 362L258.4 362" stroke="#323232" stroke-width="2" fill="none" marker-end="url(#SvgjsMarker1132)"></path></g><g id="SvgjsG1134" transform="translate(500,344)"><path id="SvgjsPath1135" d="M 0 4Q 0 0 4 0L 123 0Q 127 0 127 4L 127 32Q 127 36 123 36L 4 36Q 0 36 0 32Z" stroke="rgba(50,50,50,1)" stroke-width="2" fill-opacity="1" fill="#4dd0e1"></path><g id="SvgjsG1136"><text id="SvgjsText1137" font-family="微软雅黑" text-anchor="middle" font-size="13px" width="107px" fill="#000000" font-weight="400" align="middle" lineHeight="125%" anchor="middle" family="微软雅黑" size="13px" weight="400" font-style="" opacity="1" y="7.375" transform="rotate(0)"><tspan id="SvgjsTspan1138" dy="16" x="63.5"><tspan id="SvgjsTspan1139" style="text-decoration:;">java密钥库(jks)</tspan></tspan></text></g></g><g id="SvgjsG1140"><path id="SvgjsPath1141" d="M392.6 362L444.5 362L444.5 362L496.4 362" stroke="#323232" stroke-width="2" fill="none" marker-start="url(#SvgjsMarker1142)" marker-end="url(#SvgjsMarker1144)"></path><rect id="SvgjsRect1146" width="26" height="16" x="431.5" y="354" fill="#ffffff"></rect><text id="SvgjsText1147" font-family="微软雅黑" text-anchor="middle" font-size="13px" width="26px" fill="#323232" font-weight="400" align="top" lineHeight="16px" anchor="middle" family="微软雅黑" size="13px" weight="400" font-style="" opacity="1" y="351.375" transform="rotate(0)"><tspan id="SvgjsTspan1148" dy="16" x="444.5"><tspan id="SvgjsTspan1149" style="text-decoration:;">互转</tspan></tspan></text></g><g id="SvgjsG1150" transform="translate(492.5,111)"><path id="SvgjsPath1151" d="M 0 0L 120 0L 120 40L 0 40Z" stroke="none" fill="none"></path><g id="SvgjsG1152"><text id="SvgjsText1153" font-family="微软雅黑" text-anchor="middle" font-size="13px" width="120px" fill="#cfcfcf" font-weight="400" align="middle" lineHeight="125%" anchor="middle" family="微软雅黑" size="13px" weight="400" font-style="" opacity="1" y="9.375" transform="rotate(0)"><tspan id="SvgjsTspan1154" dy="16" x="60"><tspan id="SvgjsTspan1155" style="text-decoration:;">@WindShadow</tspan></tspan></text></g></g></svg>