<svg id="SvgjsSvg1471" width="1258" height="577" xmlns="http://www.w3.org/2000/svg" version="1.1" xmlns:xlink="http://www.w3.org/1999/xlink" xmlns:svgjs="http://svgjs.com/svgjs"><defs id="SvgjsDefs1472"><marker id="SvgjsMarker1497" markerWidth="16" markerHeight="12" refX="0" refY="6" viewBox="0 0 16 12" orient="auto" markerUnits="userSpaceOnUse" stroke-dasharray="0,0"><path id="SvgjsPath1498" d="M15,1.5 L2,6 L15,10.5" fill="#323232" stroke="#323232" stroke-width="2"></path></marker><marker id="SvgjsMarker1499" markerWidth="16" markerHeight="12" refX="16" refY="6" viewBox="0 0 16 12" orient="auto" markerUnits="userSpaceOnUse" stroke-dasharray="0,0"><path id="SvgjsPath1500" d="M0,2 L14,6 L0,11 L0,2" fill="#323232" stroke="#323232" stroke-width="2"></path></marker><marker id="SvgjsMarker1513" markerWidth="16" markerHeight="12" refX="0" refY="6" viewBox="0 0 16 12" orient="auto" markerUnits="userSpaceOnUse" stroke-dasharray="0,0"><path id="SvgjsPath1514" d="M15,1.5 L2,6 L15,10.5" fill="#323232" stroke="#323232" stroke-width="2"></path></marker><marker id="SvgjsMarker1515" markerWidth="16" markerHeight="12" refX="16" refY="6" viewBox="0 0 16 12" orient="auto" markerUnits="userSpaceOnUse" stroke-dasharray="0,0"><path id="SvgjsPath1516" d="M0,2 L14,6 L0,11 L0,2" fill="#323232" stroke="#323232" stroke-width="2"></path></marker><marker id="SvgjsMarker1543" markerWidth="16" markerHeight="12" refX="0" refY="6" viewBox="0 0 16 12" orient="auto" markerUnits="userSpaceOnUse" stroke-dasharray="0,0"><path id="SvgjsPath1544" d="M15,1.5 L2,6 L15,10.5" fill="#323232" stroke="#323232" stroke-width="2"></path></marker><marker id="SvgjsMarker1545" markerWidth="16" markerHeight="12" refX="16" refY="6" viewBox="0 0 16 12" orient="auto" markerUnits="userSpaceOnUse" stroke-dasharray="0,0"><path id="SvgjsPath1546" d="M0,2 L14,6 L0,11 L0,2" fill="#323232" stroke="#323232" stroke-width="2"></path></marker><marker id="SvgjsMarker1549" markerWidth="16" markerHeight="12" refX="0" refY="6" viewBox="0 0 16 12" orient="auto" markerUnits="userSpaceOnUse" stroke-dasharray="0,0"><path id="SvgjsPath1550" d="M15,1.5 L2,6 L15,10.5" fill="#323232" stroke="#323232" stroke-width="2"></path></marker><marker id="SvgjsMarker1551" markerWidth="16" markerHeight="12" refX="16" refY="6" viewBox="0 0 16 12" orient="auto" markerUnits="userSpaceOnUse" stroke-dasharray="0,0"><path id="SvgjsPath1552" d="M0,2 L14,6 L0,11 L0,2" fill="#323232" stroke="#323232" stroke-width="2"></path></marker><marker id="SvgjsMarker1573" markerWidth="16" markerHeight="12" refX="16" refY="6" viewBox="0 0 16 12" orient="auto" markerUnits="userSpaceOnUse" stroke-dasharray="0,0"><path id="SvgjsPath1574" d="M0,2 L14,6 L0,11 L0,2" fill="#323232" stroke="#323232" stroke-width="2"></path></marker></defs><g id="SvgjsG1473" transform="translate(25,72)"><path id="SvgjsPath1474" d="M 0 0L 1208 0L 1208 337L 0 337Z" stroke-dasharray="10,6" stroke="rgba(50,50,50,1)" stroke-width="2" fill-opacity="1" fill="#ffffff"></path><g id="SvgjsG1475"><text id="SvgjsText1476" font-family="微软雅黑" text-anchor="middle" font-size="13px" width="1188px" fill="#323232" font-weight="400" align="middle" lineHeight="125%" anchor="middle" family="微软雅黑" size="13px" weight="400" font-style="" opacity="1" y="158.875" transform="rotate(0)"></text></g></g><g id="SvgjsG1477" transform="translate(63.5,106)"><path id="SvgjsPath1478" d="M 0 4Q 0 0 4 0L 162.5 0Q 166.5 0 166.5 4L 166.5 64Q 166.5 68 162.5 68L 4 68Q 0 68 0 64Z" stroke="rgba(50,50,50,1)" stroke-width="2" fill-opacity="1" fill="#ffffff"></path><g id="SvgjsG1479"><text id="SvgjsText1480" font-family="微软雅黑" text-anchor="middle" font-size="13px" width="147px" fill="#323232" font-weight="400" align="middle" lineHeight="125%" anchor="middle" family="微软雅黑" size="13px" weight="400" font-style="" opacity="1" y="24.375" transform="rotate(0)"><tspan id="SvgjsTspan1481" dy="16" x="83.5"><tspan id="SvgjsTspan1482" style="text-decoration:;">容器A</tspan></tspan></text></g></g><g id="SvgjsG1483" transform="translate(557,390)"><path id="SvgjsPath1484" d="M 0 0L 144 0L 144 38L 0 38Z" stroke="rgba(50,50,50,1)" stroke-width="2" fill-opacity="1" fill="#ffffff"></path><g id="SvgjsG1485"><text id="SvgjsText1486" font-family="微软雅黑" text-anchor="middle" font-size="13px" width="124px" fill="#323232" font-weight="400" align="middle" lineHeight="125%" anchor="middle" family="微软雅黑" size="13px" weight="400" font-style="" opacity="1" y="9.375" transform="rotate(0)"><tspan id="SvgjsTspan1487" dy="16" x="72"><tspan id="SvgjsTspan1488" style="text-decoration:;">HOST-ens33</tspan></tspan></text></g></g><g id="SvgjsG1489" transform="translate(148.75,260)"><path id="SvgjsPath1490" d="M 0 0L 468.5 0L 468.5 52L 0 52Z" stroke="rgba(50,50,50,1)" stroke-width="2" fill-opacity="1" fill="#ffffff"></path><g id="SvgjsG1491"><text id="SvgjsText1492" font-family="微软雅黑" text-anchor="middle" font-size="13px" width="449px" fill="#323232" font-weight="400" align="middle" lineHeight="125%" anchor="middle" family="微软雅黑" size="13px" weight="400" font-style="" opacity="1" y="16.375" transform="rotate(0)"><tspan id="SvgjsTspan1493" dy="16" x="234.5"><tspan id="SvgjsTspan1494" style="text-decoration:;">docker0</tspan></tspan></text></g></g><g id="SvgjsG1495"><path id="SvgjsPath1496" d="M383 312L383 351L629 351L629 390" stroke="#323232" stroke-width="2" fill="none" marker-start="url(#SvgjsMarker1497)" marker-end="url(#SvgjsMarker1499)"></path><rect id="SvgjsRect1501" width="53" height="16" x="479.5" y="343" fill="#ffffff"></rect><text id="SvgjsText1502" font-family="微软雅黑" text-anchor="middle" font-size="13px" width="53px" fill="#323232" font-weight="400" align="top" lineHeight="16px" anchor="middle" family="微软雅黑" size="13px" weight="400" font-style="" opacity="1" y="341.375" transform="rotate(0)"><tspan id="SvgjsTspan1503" dy="16" x="506"><tspan id="SvgjsTspan1504" style="text-decoration:;">NAT直连</tspan></tspan></text></g><g id="SvgjsG1505" transform="translate(575,482)"><path id="SvgjsPath1506" d="M 10.799999999999999 49C -9 35 3.6 24.5 8.1 21C 6.300000000000001 3.5 28.8 0 37.8 7C 45 -3.5 67.5 0 67.5 10.5C 85.5 7 92.7 21 85.5 38.5C 91.8 52.5 85.5 70 64.8 63C 60.300000000000004 72.10000000000001 42.3 72.10000000000001 37.8 63C 28.8 70 10.799999999999999 66.5 10.799999999999999 49Z" stroke="rgba(50,50,50,1)" stroke-width="2" fill-opacity="1" fill="#ffffff"></path><g id="SvgjsG1507"><text id="SvgjsText1508" font-family="微软雅黑" text-anchor="middle" font-size="13px" width="70px" fill="#323232" font-weight="400" align="middle" lineHeight="125%" anchor="middle" family="微软雅黑" size="13px" weight="400" font-style="" opacity="1" y="25.375" transform="rotate(0)"><tspan id="SvgjsTspan1509" dy="16" x="45"><tspan id="SvgjsTspan1510" style="text-decoration:;">internet</tspan></tspan></text></g></g><g id="SvgjsG1511"><path id="SvgjsPath1512" d="M629 428L629 455.35L629 455.35L629 482.70000000000005" stroke="#323232" stroke-width="2" fill="none" marker-start="url(#SvgjsMarker1513)" marker-end="url(#SvgjsMarker1515)"></path></g><g id="SvgjsG1517" transform="translate(537.5,106)"><path id="SvgjsPath1518" d="M 0 4Q 0 0 4 0L 162.5 0Q 166.5 0 166.5 4L 166.5 64Q 166.5 68 162.5 68L 4 68Q 0 68 0 64Z" stroke="rgba(50,50,50,1)" stroke-width="2" fill-opacity="1" fill="#ffffff"></path><g id="SvgjsG1519"><text id="SvgjsText1520" font-family="微软雅黑" text-anchor="middle" font-size="13px" width="147px" fill="#323232" font-weight="400" align="middle" lineHeight="125%" anchor="middle" family="微软雅黑" size="13px" weight="400" font-style="" opacity="1" y="24.375" transform="rotate(0)"><tspan id="SvgjsTspan1521" dy="16" x="83.5"><tspan id="SvgjsTspan1522" style="text-decoration:;">容器B</tspan></tspan></text></g></g><g id="SvgjsG1523" transform="translate(98.875,158)"><path id="SvgjsPath1524" d="M 0 0L 95.75 0L 95.75 29L 0 29Z" stroke="rgba(50,50,50,1)" stroke-width="2" fill-opacity="1" fill="#ffffff"></path><g id="SvgjsG1525"><text id="SvgjsText1526" font-family="微软雅黑" text-anchor="middle" font-size="13px" width="76px" fill="#323232" font-weight="400" align="middle" lineHeight="125%" anchor="middle" family="微软雅黑" size="13px" weight="400" font-style="" opacity="1" y="4.875" transform="rotate(0)"><tspan id="SvgjsTspan1527" dy="16" x="48"><tspan id="SvgjsTspan1528" style="text-decoration:;">eth0@if207</tspan></tspan></text></g></g><g id="SvgjsG1529" transform="translate(572.875,158)"><path id="SvgjsPath1530" d="M 0 0L 95.75 0L 95.75 29L 0 29Z" stroke="rgba(50,50,50,1)" stroke-width="2" fill-opacity="1" fill="#ffffff"></path><g id="SvgjsG1531"><text id="SvgjsText1532" font-family="微软雅黑" text-anchor="middle" font-size="13px" width="76px" fill="#323232" font-weight="400" align="middle" lineHeight="125%" anchor="middle" family="微软雅黑" size="13px" weight="400" font-style="" opacity="1" y="4.875" transform="rotate(0)"><tspan id="SvgjsTspan1533" dy="16" x="48"><tspan id="SvgjsTspan1534" style="text-decoration:;">eth0@if209</tspan></tspan></text></g></g><g id="SvgjsG1535" transform="translate(165.875,248)"><path id="SvgjsPath1536" d="M 0 0L 153.125 0L 153.125 23L 0 23Z" stroke="rgba(50,50,50,1)" stroke-width="2" fill-opacity="1" fill="#ffffff"></path><g id="SvgjsG1537"><text id="SvgjsText1538" font-family="微软雅黑" text-anchor="middle" font-size="13px" width="134px" fill="#323232" font-weight="400" align="middle" lineHeight="125%" anchor="middle" family="微软雅黑" size="13px" weight="400" font-style="" opacity="1" y="1.875" transform="rotate(0)"><tspan id="SvgjsTspan1539" dy="16" x="77"><tspan id="SvgjsTspan1540" style="text-decoration:;">veth49dbe4@if206</tspan></tspan></text></g></g><g id="SvgjsG1541"><path id="SvgjsPath1542" d="M620.75 187L620.75 217.5L519.5625 217.5L519.5625 248" stroke="#323232" stroke-width="2" fill="none" marker-start="url(#SvgjsMarker1543)" marker-end="url(#SvgjsMarker1545)"></path></g><g id="SvgjsG1547"><path id="SvgjsPath1548" d="M146.75 187L146.75 217.5L242.4375 217.5L242.4375 248" stroke="#323232" stroke-width="2" fill="none" marker-start="url(#SvgjsMarker1549)" marker-end="url(#SvgjsMarker1551)"></path></g><g id="SvgjsG1553" transform="translate(443,248)"><path id="SvgjsPath1554" d="M 0 0L 153.125 0L 153.125 23L 0 23Z" stroke="rgba(50,50,50,1)" stroke-width="2" fill-opacity="1" fill="#ffffff"></path><g id="SvgjsG1555"><text id="SvgjsText1556" font-family="微软雅黑" text-anchor="middle" font-size="13px" width="134px" fill="#323232" font-weight="400" align="middle" lineHeight="125%" anchor="middle" family="微软雅黑" size="13px" weight="400" font-style="" opacity="1" y="1.875" transform="rotate(0)"><tspan id="SvgjsTspan1557" dy="16" x="77"><tspan id="SvgjsTspan1558" style="text-decoration:;">veth87692b6@if208</tspan></tspan></text></g></g><g id="SvgjsG1559" transform="translate(25,418)"><path id="SvgjsPath1560" d="M 0 0L 120 0L 120 40L 0 40Z" stroke="none" fill="none"></path><g id="SvgjsG1561"><text id="SvgjsText1562" font-family="微软雅黑" text-anchor="middle" font-size="13px" width="120px" fill="#cfcfcf" font-weight="400" align="middle" lineHeight="125%" anchor="middle" family="微软雅黑" size="13px" weight="400" font-style="" opacity="1" y="10.375" transform="rotate(0)"><tspan id="SvgjsTspan1563" dy="16" x="60"><tspan id="SvgjsTspan1564" style="text-decoration:;">@WindShadow</tspan></tspan></text></g></g><g id="SvgjsG1565" transform="translate(917.75,260)"><path id="SvgjsPath1566" d="M 0 0L 226.25 0L 226.25 52L 0 52Z" stroke="rgba(50,50,50,1)" stroke-width="2" fill-opacity="1" fill="#ffffff"></path><g id="SvgjsG1567"><text id="SvgjsText1568" font-family="微软雅黑" text-anchor="middle" font-size="13px" width="207px" fill="#323232" font-weight="400" align="middle" lineHeight="125%" anchor="middle" family="微软雅黑" size="13px" weight="400" font-style="" opacity="1" y="16.375" transform="rotate(0)"><tspan id="SvgjsTspan1569" dy="16" x="113.5"><tspan id="SvgjsTspan1570" style="text-decoration:;">mynet</tspan></tspan></text></g></g><g id="SvgjsG1571"><path id="SvgjsPath1572" d="M1039 312L1039 351L629 351L629 390" stroke="#323232" stroke-width="2" fill="none" marker-end="url(#SvgjsMarker1573)"></path><rect id="SvgjsRect1575" width="53" height="16" x="807.5" y="343" fill="#ffffff"></rect><text id="SvgjsText1576" font-family="微软雅黑" text-anchor="middle" font-size="13px" width="53px" fill="#323232" font-weight="400" align="top" lineHeight="16px" anchor="middle" family="微软雅黑" size="13px" weight="400" font-style="" opacity="1" y="341.375" transform="rotate(0)"><tspan id="SvgjsTspan1577" dy="16" x="834"><tspan id="SvgjsTspan1578" style="text-decoration:;">NAT直连</tspan></tspan></text></g><g id="SvgjsG1579" transform="translate(569,25)"><path id="SvgjsPath1580" d="M 0 0L 120 0L 120 40L 0 40Z" stroke="none" fill="none"></path><g id="SvgjsG1581"><text id="SvgjsText1582" font-family="微软雅黑" text-anchor="middle" font-size="17px" width="120px" fill="#323232" font-weight="700" align="middle" lineHeight="125%" anchor="middle" family="微软雅黑" size="17px" weight="700" font-style="" opacity="1" y="7.375" transform="rotate(0)"><tspan id="SvgjsTspan1583" dy="21" x="60"><tspan id="SvgjsTspan1584" style="text-decoration:;">Linux server</tspan></tspan></text></g></g></svg>