<svg id="SvgjsSvg2096" width="1082" height="412" xmlns="http://www.w3.org/2000/svg" version="1.1" xmlns:xlink="http://www.w3.org/1999/xlink" xmlns:svgjs="http://svgjs.com/svgjs"><defs id="SvgjsDefs2097"><marker id="SvgjsMarker2294" markerWidth="16" markerHeight="12" refX="16" refY="6" viewBox="0 0 16 12" orient="auto" markerUnits="userSpaceOnUse" stroke-dasharray="0,0"><path id="SvgjsPath2295" d="M0,2 L14,6 L0,11 L0,2" fill="#323232" stroke="#323232" stroke-width="2"></path></marker><marker id="SvgjsMarker2298" markerWidth="16" markerHeight="12" refX="16" refY="6" viewBox="0 0 16 12" orient="auto" markerUnits="userSpaceOnUse" stroke-dasharray="0,0"><path id="SvgjsPath2299" d="M0,2 L14,6 L0,11 L0,2" fill="#323232" stroke="#323232" stroke-width="2"></path></marker><marker id="SvgjsMarker2302" markerWidth="16" markerHeight="12" refX="16" refY="6" viewBox="0 0 16 12" orient="auto" markerUnits="userSpaceOnUse" stroke-dasharray="0,0"><path id="SvgjsPath2303" d="M0,2 L14,6 L0,11 L0,2" fill="#323232" stroke="#323232" stroke-width="2"></path></marker><marker id="SvgjsMarker2306" markerWidth="16" markerHeight="12" refX="16" refY="6" viewBox="0 0 16 12" orient="auto" markerUnits="userSpaceOnUse" stroke-dasharray="0,0"><path id="SvgjsPath2307" d="M0,2 L14,6 L0,11 L0,2" fill="#323232" stroke="#323232" stroke-width="2"></path></marker><marker id="SvgjsMarker2310" markerWidth="16" markerHeight="12" refX="16" refY="6" viewBox="0 0 16 12" orient="auto" markerUnits="userSpaceOnUse" stroke-dasharray="0,0"><path id="SvgjsPath2311" d="M0,2 L14,6 L0,11 L0,2" fill="#323232" stroke="#323232" stroke-width="2"></path></marker><marker id="SvgjsMarker2314" markerWidth="16" markerHeight="12" refX="16" refY="6" viewBox="0 0 16 12" orient="auto" markerUnits="userSpaceOnUse" stroke-dasharray="0,0"><path id="SvgjsPath2315" d="M0,2 L14,6 L0,11 L0,2" fill="#323232" stroke="#323232" stroke-width="2"></path></marker><marker id="SvgjsMarker2318" markerWidth="16" markerHeight="12" refX="16" refY="6" viewBox="0 0 16 12" orient="auto" markerUnits="userSpaceOnUse" stroke-dasharray="0,0"><path id="SvgjsPath2319" d="M0,2 L14,6 L0,11 L0,2" fill="#323232" stroke="#323232" stroke-width="2"></path></marker><marker id="SvgjsMarker2322" markerWidth="16" markerHeight="12" refX="16" refY="6" viewBox="0 0 16 12" orient="auto" markerUnits="userSpaceOnUse" stroke-dasharray="0,0"><path id="SvgjsPath2323" d="M0,2 L14,6 L0,11 L0,2" fill="#323232" stroke="#323232" stroke-width="2"></path></marker><marker id="SvgjsMarker2326" markerWidth="16" markerHeight="12" refX="16" refY="6" viewBox="0 0 16 12" orient="auto" markerUnits="userSpaceOnUse" stroke-dasharray="0,0"><path id="SvgjsPath2327" d="M0,2 L14,6 L0,11 L0,2" fill="#323232" stroke="#323232" stroke-width="2"></path></marker><marker id="SvgjsMarker2330" markerWidth="16" markerHeight="12" refX="16" refY="6" viewBox="0 0 16 12" orient="auto" markerUnits="userSpaceOnUse" stroke-dasharray="0,0"><path id="SvgjsPath2331" d="M0,2 L14,6 L0,11 L0,2" fill="#323232" stroke="#323232" stroke-width="2"></path></marker></defs><g id="SvgjsG2098" transform="translate(25,221)"><path id="SvgjsPath2099" d="M 0 4Q 0 0 4 0L 1028 0Q 1032 0 1032 4L 1032 162Q 1032 166 1028 166L 4 166Q 0 166 0 162Z" stroke-dasharray="10,6" stroke="rgba(50,50,50,1)" stroke-width="2" fill-opacity="1" fill="#ffffff"></path><g id="SvgjsG2100"><text id="SvgjsText2101" font-family="微软雅黑" text-anchor="middle" font-size="20px" width="1012px" fill="#323232" font-weight="700" align="bottom" lineHeight="125%" anchor="middle" family="微软雅黑" size="20px" weight="700" font-style="" opacity="1" y="138.5" transform="rotate(0)"><tspan id="SvgjsTspan2102" dy="25" x="516"><tspan id="SvgjsTspan2103" style="text-decoration:;">叶子节点存放主键值</tspan></tspan></text></g></g><g id="SvgjsG2104" transform="translate(791,244)"><path id="SvgjsPath2105" d="M 0 4Q 0 0 4 0L 64 0Q 68 0 68 4L 68 35.5Q 68 39.5 64 39.5L 4 39.5Q 0 39.5 0 35.5Z" stroke-dasharray="3,4" stroke="rgba(50,50,50,1)" stroke-width="2" fill-opacity="1" fill="#ffffff"></path><g id="SvgjsG2106"><text id="SvgjsText2107" font-family="微软雅黑" text-anchor="middle" font-size="13px" width="48px" fill="#323232" font-weight="400" align="middle" lineHeight="125%" anchor="middle" family="微软雅黑" size="13px" weight="400" font-style="" opacity="1" y="10.125" transform="rotate(0)"></text></g></g><g id="SvgjsG2108" transform="translate(610,244)"><path id="SvgjsPath2109" d="M 0 4Q 0 0 4 0L 64 0Q 68 0 68 4L 68 35.5Q 68 39.5 64 39.5L 4 39.5Q 0 39.5 0 35.5Z" stroke-dasharray="3,4" stroke="rgba(50,50,50,1)" stroke-width="2" fill-opacity="1" fill="#ffffff"></path><g id="SvgjsG2110"><text id="SvgjsText2111" font-family="微软雅黑" text-anchor="middle" font-size="13px" width="48px" fill="#323232" font-weight="400" align="middle" lineHeight="125%" anchor="middle" family="微软雅黑" size="13px" weight="400" font-style="" opacity="1" y="10.125" transform="rotate(0)"></text></g></g><g id="SvgjsG2112" transform="translate(488,244)"><path id="SvgjsPath2113" d="M 0 4Q 0 0 4 0L 64 0Q 68 0 68 4L 68 35.5Q 68 39.5 64 39.5L 4 39.5Q 0 39.5 0 35.5Z" stroke-dasharray="3,4" stroke="rgba(50,50,50,1)" stroke-width="2" fill-opacity="1" fill="#ffffff"></path><g id="SvgjsG2114"><text id="SvgjsText2115" font-family="微软雅黑" text-anchor="middle" font-size="13px" width="48px" fill="#323232" font-weight="400" align="middle" lineHeight="125%" anchor="middle" family="微软雅黑" size="13px" weight="400" font-style="" opacity="1" y="10.125" transform="rotate(0)"></text></g></g><g id="SvgjsG2116" transform="translate(351,244)"><path id="SvgjsPath2117" d="M 0 4Q 0 0 4 0L 64 0Q 68 0 68 4L 68 35.5Q 68 39.5 64 39.5L 4 39.5Q 0 39.5 0 35.5Z" stroke-dasharray="3,4" stroke="rgba(50,50,50,1)" stroke-width="2" fill-opacity="1" fill="#ffffff"></path><g id="SvgjsG2118"><text id="SvgjsText2119" font-family="微软雅黑" text-anchor="middle" font-size="13px" width="48px" fill="#323232" font-weight="400" align="middle" lineHeight="125%" anchor="middle" family="微软雅黑" size="13px" weight="400" font-style="" opacity="1" y="10.125" transform="rotate(0)"></text></g></g><g id="SvgjsG2120" transform="translate(220,244)"><path id="SvgjsPath2121" d="M 0 4Q 0 0 4 0L 64 0Q 68 0 68 4L 68 35.5Q 68 39.5 64 39.5L 4 39.5Q 0 39.5 0 35.5Z" stroke-dasharray="3,4" stroke="rgba(50,50,50,1)" stroke-width="2" fill-opacity="1" fill="#ffffff"></path><g id="SvgjsG2122"><text id="SvgjsText2123" font-family="微软雅黑" text-anchor="middle" font-size="13px" width="48px" fill="#323232" font-weight="400" align="middle" lineHeight="125%" anchor="middle" family="微软雅黑" size="13px" weight="400" font-style="" opacity="1" y="10.125" transform="rotate(0)"></text></g></g><g id="SvgjsG2124" transform="translate(41,244)"><path id="SvgjsPath2125" d="M 0 4Q 0 0 4 0L 64 0Q 68 0 68 4L 68 35.5Q 68 39.5 64 39.5L 4 39.5Q 0 39.5 0 35.5Z" stroke-dasharray="3,4" stroke="rgba(50,50,50,1)" stroke-width="2" fill-opacity="1" fill="#ffffff"></path><g id="SvgjsG2126"><text id="SvgjsText2127" font-family="微软雅黑" text-anchor="middle" font-size="13px" width="48px" fill="#323232" font-weight="400" align="middle" lineHeight="125%" anchor="middle" family="微软雅黑" size="13px" weight="400" font-style="" opacity="1" y="10.125" transform="rotate(0)"></text></g></g><g id="SvgjsG2128" transform="translate(917,244)"><path id="SvgjsPath2129" d="M 0 4Q 0 0 4 0L 118 0Q 122 0 122 4L 122 35.5Q 122 39.5 118 39.5L 4 39.5Q 0 39.5 0 35.5Z" stroke-dasharray="3,4" stroke="rgba(50,50,50,1)" stroke-width="2" fill-opacity="1" fill="#ffffff"></path><g id="SvgjsG2130"><text id="SvgjsText2131" font-family="微软雅黑" text-anchor="middle" font-size="13px" width="102px" fill="#323232" font-weight="400" align="middle" lineHeight="125%" anchor="middle" family="微软雅黑" size="13px" weight="400" font-style="" opacity="1" y="10.125" transform="rotate(0)"></text></g></g><g id="SvgjsG2132" transform="translate(290,25)"><path id="SvgjsPath2133" d="M 0 4Q 0 0 4 0L 282 0Q 286 0 286 4L 286 35.5Q 286 39.5 282 39.5L 4 39.5Q 0 39.5 0 35.5Z" stroke-dasharray="3,4" stroke="rgba(50,50,50,1)" stroke-width="2" fill-opacity="1" fill="#ffffff"></path><g id="SvgjsG2134"><text id="SvgjsText2135" font-family="微软雅黑" text-anchor="middle" font-size="13px" width="266px" fill="#323232" font-weight="400" align="middle" lineHeight="125%" anchor="middle" family="微软雅黑" size="13px" weight="400" font-style="" opacity="1" y="10.125" transform="rotate(0)"></text></g></g><g id="SvgjsG2136" transform="translate(298,32.25)"><path id="SvgjsPath2137" d="M 0 0L 54 0L 54 25L 0 25Z" stroke="rgba(50,50,50,1)" stroke-width="2" fill-opacity="1" fill="#4dd0e1"></path><g id="SvgjsG2138"><text id="SvgjsText2139" font-family="微软雅黑" text-anchor="middle" font-size="13px" width="34px" fill="#323232" font-weight="400" align="middle" lineHeight="125%" anchor="middle" family="微软雅黑" size="13px" weight="400" font-style="" opacity="1" y="2.875" transform="rotate(0)"><tspan id="SvgjsTspan2140" dy="16" x="27"><tspan id="SvgjsTspan2141" style="text-decoration:;">P</tspan></tspan></text></g></g><g id="SvgjsG2142" transform="translate(352,32.25)"><path id="SvgjsPath2143" d="M 0 0L 54 0L 54 25L 0 25Z" stroke="rgba(50,50,50,1)" stroke-width="2" fill-opacity="1" fill="#9c27b0"></path><g id="SvgjsG2144"><text id="SvgjsText2145" font-family="微软雅黑" text-anchor="middle" font-size="13px" width="34px" fill="#323232" font-weight="400" align="middle" lineHeight="125%" anchor="middle" family="微软雅黑" size="13px" weight="400" font-style="" opacity="1" y="2.875" transform="rotate(0)"><tspan id="SvgjsTspan2146" dy="16" x="27"><tspan id="SvgjsTspan2147" style="text-decoration:;">s1</tspan></tspan></text></g></g><g id="SvgjsG2148" transform="translate(406,32.25)"><path id="SvgjsPath2149" d="M 0 0L 54 0L 54 25L 0 25Z" stroke="rgba(50,50,50,1)" stroke-width="2" fill-opacity="1" fill="#4dd0e1"></path><g id="SvgjsG2150"><text id="SvgjsText2151" font-family="微软雅黑" text-anchor="middle" font-size="13px" width="34px" fill="#323232" font-weight="400" align="middle" lineHeight="125%" anchor="middle" family="微软雅黑" size="13px" weight="400" font-style="" opacity="1" y="2.875" transform="rotate(0)"><tspan id="SvgjsTspan2152" dy="16" x="27"><tspan id="SvgjsTspan2153" style="text-decoration:;">P</tspan></tspan></text></g></g><g id="SvgjsG2154" transform="translate(460,32.25)"><path id="SvgjsPath2155" d="M 0 0L 54 0L 54 25L 0 25Z" stroke="rgba(50,50,50,1)" stroke-width="2" fill-opacity="1" fill="#9c27b0"></path><g id="SvgjsG2156"><text id="SvgjsText2157" font-family="微软雅黑" text-anchor="middle" font-size="13px" width="34px" fill="#323232" font-weight="400" align="middle" lineHeight="125%" anchor="middle" family="微软雅黑" size="13px" weight="400" font-style="" opacity="1" y="2.875" transform="rotate(0)"><tspan id="SvgjsTspan2158" dy="16" x="27"><tspan id="SvgjsTspan2159" style="text-decoration:;">s15</tspan></tspan></text></g></g><g id="SvgjsG2160" transform="translate(514,32.25)"><path id="SvgjsPath2161" d="M 0 0L 54 0L 54 25L 0 25Z" stroke="rgba(50,50,50,1)" stroke-width="2" fill-opacity="1" fill="#4dd0e1"></path><g id="SvgjsG2162"><text id="SvgjsText2163" font-family="微软雅黑" text-anchor="middle" font-size="13px" width="34px" fill="#323232" font-weight="400" align="middle" lineHeight="125%" anchor="middle" family="微软雅黑" size="13px" weight="400" font-style="" opacity="1" y="2.875" transform="rotate(0)"><tspan id="SvgjsTspan2164" dy="16" x="27"><tspan id="SvgjsTspan2165" style="text-decoration:;">P</tspan></tspan></text></g></g><g id="SvgjsG2166" transform="translate(82,137)"><path id="SvgjsPath2167" d="M 0 4Q 0 0 4 0L 174 0Q 178 0 178 4L 178 35.5Q 178 39.5 174 39.5L 4 39.5Q 0 39.5 0 35.5Z" stroke-dasharray="3,4" stroke="rgba(50,50,50,1)" stroke-width="2" fill-opacity="1" fill="#ffffff"></path><g id="SvgjsG2168"><text id="SvgjsText2169" font-family="微软雅黑" text-anchor="middle" font-size="13px" width="158px" fill="#323232" font-weight="400" align="middle" lineHeight="125%" anchor="middle" family="微软雅黑" size="13px" weight="400" font-style="" opacity="1" y="10.125" transform="rotate(0)"></text></g></g><g id="SvgjsG2170" transform="translate(90,144.25)"><path id="SvgjsPath2171" d="M 0 0L 54 0L 54 25L 0 25Z" stroke="rgba(50,50,50,1)" stroke-width="2" fill-opacity="1" fill="#4dd0e1"></path><g id="SvgjsG2172"><text id="SvgjsText2173" font-family="微软雅黑" text-anchor="middle" font-size="13px" width="34px" fill="#323232" font-weight="400" align="middle" lineHeight="125%" anchor="middle" family="微软雅黑" size="13px" weight="400" font-style="" opacity="1" y="2.875" transform="rotate(0)"><tspan id="SvgjsTspan2174" dy="16" x="27"><tspan id="SvgjsTspan2175" style="text-decoration:;">P</tspan></tspan></text></g></g><g id="SvgjsG2176" transform="translate(144,144.25)"><path id="SvgjsPath2177" d="M 0 0L 54 0L 54 25L 0 25Z" stroke="rgba(50,50,50,1)" stroke-width="2" fill-opacity="1" fill="#9c27b0"></path><g id="SvgjsG2178"><text id="SvgjsText2179" font-family="微软雅黑" text-anchor="middle" font-size="13px" width="34px" fill="#323232" font-weight="400" align="middle" lineHeight="125%" anchor="middle" family="微软雅黑" size="13px" weight="400" font-style="" opacity="1" y="2.875" transform="rotate(0)"><tspan id="SvgjsTspan2180" dy="16" x="27"><tspan id="SvgjsTspan2181" style="text-decoration:;">s3</tspan></tspan></text></g></g><g id="SvgjsG2182" transform="translate(198,144.25)"><path id="SvgjsPath2183" d="M 0 0L 54 0L 54 25L 0 25Z" stroke="rgba(50,50,50,1)" stroke-width="2" fill-opacity="1" fill="#4dd0e1"></path><g id="SvgjsG2184"><text id="SvgjsText2185" font-family="微软雅黑" text-anchor="middle" font-size="13px" width="34px" fill="#323232" font-weight="400" align="middle" lineHeight="125%" anchor="middle" family="微软雅黑" size="13px" weight="400" font-style="" opacity="1" y="2.875" transform="rotate(0)"><tspan id="SvgjsTspan2186" dy="16" x="27"><tspan id="SvgjsTspan2187" style="text-decoration:;">P</tspan></tspan></text></g></g><g id="SvgjsG2188" transform="translate(363,137)"><path id="SvgjsPath2189" d="M 0 4Q 0 0 4 0L 174 0Q 178 0 178 4L 178 35.5Q 178 39.5 174 39.5L 4 39.5Q 0 39.5 0 35.5Z" stroke-dasharray="3,4" stroke="rgba(50,50,50,1)" stroke-width="2" fill-opacity="1" fill="#ffffff"></path><g id="SvgjsG2190"><text id="SvgjsText2191" font-family="微软雅黑" text-anchor="middle" font-size="13px" width="158px" fill="#323232" font-weight="400" align="middle" lineHeight="125%" anchor="middle" family="微软雅黑" size="13px" weight="400" font-style="" opacity="1" y="10.125" transform="rotate(0)"></text></g></g><g id="SvgjsG2192" transform="translate(371,144.25)"><path id="SvgjsPath2193" d="M 0 0L 54 0L 54 25L 0 25Z" stroke="rgba(50,50,50,1)" stroke-width="2" fill-opacity="1" fill="#4dd0e1"></path><g id="SvgjsG2194"><text id="SvgjsText2195" font-family="微软雅黑" text-anchor="middle" font-size="13px" width="34px" fill="#323232" font-weight="400" align="middle" lineHeight="125%" anchor="middle" family="微软雅黑" size="13px" weight="400" font-style="" opacity="1" y="2.875" transform="rotate(0)"><tspan id="SvgjsTspan2196" dy="16" x="27"><tspan id="SvgjsTspan2197" style="text-decoration:;">P</tspan></tspan></text></g></g><g id="SvgjsG2198" transform="translate(425,144.25)"><path id="SvgjsPath2199" d="M 0 0L 54 0L 54 25L 0 25Z" stroke="rgba(50,50,50,1)" stroke-width="2" fill-opacity="1" fill="#9c27b0"></path><g id="SvgjsG2200"><text id="SvgjsText2201" font-family="微软雅黑" text-anchor="middle" font-size="13px" width="34px" fill="#323232" font-weight="400" align="middle" lineHeight="125%" anchor="middle" family="微软雅黑" size="13px" weight="400" font-style="" opacity="1" y="2.875" transform="rotate(0)"><tspan id="SvgjsTspan2202" dy="16" x="27"><tspan id="SvgjsTspan2203" style="text-decoration:;">s10</tspan></tspan></text></g></g><g id="SvgjsG2204" transform="translate(479,144.25)"><path id="SvgjsPath2205" d="M 0 0L 54 0L 54 25L 0 25Z" stroke="rgba(50,50,50,1)" stroke-width="2" fill-opacity="1" fill="#4dd0e1"></path><g id="SvgjsG2206"><text id="SvgjsText2207" font-family="微软雅黑" text-anchor="middle" font-size="13px" width="34px" fill="#323232" font-weight="400" align="middle" lineHeight="125%" anchor="middle" family="微软雅黑" size="13px" weight="400" font-style="" opacity="1" y="2.875" transform="rotate(0)"><tspan id="SvgjsTspan2208" dy="16" x="27"><tspan id="SvgjsTspan2209" style="text-decoration:;">P</tspan></tspan></text></g></g><g id="SvgjsG2210" transform="translate(676,137)"><path id="SvgjsPath2211" d="M 0 4Q 0 0 4 0L 282 0Q 286 0 286 4L 286 35.5Q 286 39.5 282 39.5L 4 39.5Q 0 39.5 0 35.5Z" stroke-dasharray="3,4" stroke="rgba(50,50,50,1)" stroke-width="2" fill-opacity="1" fill="#ffffff"></path><g id="SvgjsG2212"><text id="SvgjsText2213" font-family="微软雅黑" text-anchor="middle" font-size="13px" width="266px" fill="#323232" font-weight="400" align="middle" lineHeight="125%" anchor="middle" family="微软雅黑" size="13px" weight="400" font-style="" opacity="1" y="10.125" transform="rotate(0)"></text></g></g><g id="SvgjsG2214" transform="translate(684,144.25)"><path id="SvgjsPath2215" d="M 0 0L 54 0L 54 25L 0 25Z" stroke="rgba(50,50,50,1)" stroke-width="2" fill-opacity="1" fill="#4dd0e1"></path><g id="SvgjsG2216"><text id="SvgjsText2217" font-family="微软雅黑" text-anchor="middle" font-size="13px" width="34px" fill="#323232" font-weight="400" align="middle" lineHeight="125%" anchor="middle" family="微软雅黑" size="13px" weight="400" font-style="" opacity="1" y="2.875" transform="rotate(0)"><tspan id="SvgjsTspan2218" dy="16" x="27"><tspan id="SvgjsTspan2219" style="text-decoration:;">P</tspan></tspan></text></g></g><g id="SvgjsG2220" transform="translate(738,144.25)"><path id="SvgjsPath2221" d="M 0 0L 54 0L 54 25L 0 25Z" stroke="rgba(50,50,50,1)" stroke-width="2" fill-opacity="1" fill="#9c27b0"></path><g id="SvgjsG2222"><text id="SvgjsText2223" font-family="微软雅黑" text-anchor="middle" font-size="13px" width="34px" fill="#323232" font-weight="400" align="middle" lineHeight="125%" anchor="middle" family="微软雅黑" size="13px" weight="400" font-style="" opacity="1" y="2.875" transform="rotate(0)"><tspan id="SvgjsTspan2224" dy="16" x="27"><tspan id="SvgjsTspan2225" style="text-decoration:;">s20</tspan></tspan></text></g></g><g id="SvgjsG2226" transform="translate(792,144.25)"><path id="SvgjsPath2227" d="M 0 0L 54 0L 54 25L 0 25Z" stroke="rgba(50,50,50,1)" stroke-width="2" fill-opacity="1" fill="#4dd0e1"></path><g id="SvgjsG2228"><text id="SvgjsText2229" font-family="微软雅黑" text-anchor="middle" font-size="13px" width="34px" fill="#323232" font-weight="400" align="middle" lineHeight="125%" anchor="middle" family="微软雅黑" size="13px" weight="400" font-style="" opacity="1" y="2.875" transform="rotate(0)"><tspan id="SvgjsTspan2230" dy="16" x="27"><tspan id="SvgjsTspan2231" style="text-decoration:;">P</tspan></tspan></text></g></g><g id="SvgjsG2232" transform="translate(846,144.25)"><path id="SvgjsPath2233" d="M 0 0L 54 0L 54 25L 0 25Z" stroke="rgba(50,50,50,1)" stroke-width="2" fill-opacity="1" fill="#9c27b0"></path><g id="SvgjsG2234"><text id="SvgjsText2235" font-family="微软雅黑" text-anchor="middle" font-size="13px" width="34px" fill="#323232" font-weight="400" align="middle" lineHeight="125%" anchor="middle" family="微软雅黑" size="13px" weight="400" font-style="" opacity="1" y="2.875" transform="rotate(0)"><tspan id="SvgjsTspan2236" dy="16" x="27"><tspan id="SvgjsTspan2237" style="text-decoration:;">s25</tspan></tspan></text></g></g><g id="SvgjsG2238" transform="translate(900,144.25)"><path id="SvgjsPath2239" d="M 0 0L 54 0L 54 25L 0 25Z" stroke="rgba(50,50,50,1)" stroke-width="2" fill-opacity="1" fill="#4dd0e1"></path><g id="SvgjsG2240"><text id="SvgjsText2241" font-family="微软雅黑" text-anchor="middle" font-size="13px" width="34px" fill="#323232" font-weight="400" align="middle" lineHeight="125%" anchor="middle" family="微软雅黑" size="13px" weight="400" font-style="" opacity="1" y="2.875" transform="rotate(0)"><tspan id="SvgjsTspan2242" dy="16" x="27"><tspan id="SvgjsTspan2243" style="text-decoration:;">P</tspan></tspan></text></g></g><g id="SvgjsG2244" transform="translate(48,251.25)"><path id="SvgjsPath2245" d="M 0 0L 54 0L 54 25L 0 25Z" stroke="rgba(50,50,50,1)" stroke-width="2" fill-opacity="1" fill="#9c27b0"></path><g id="SvgjsG2246"><text id="SvgjsText2247" font-family="微软雅黑" text-anchor="middle" font-size="13px" width="34px" fill="#323232" font-weight="400" align="middle" lineHeight="125%" anchor="middle" family="微软雅黑" size="13px" weight="400" font-style="" opacity="1" y="2.875" transform="rotate(0)"><tspan id="SvgjsTspan2248" dy="16" x="27"><tspan id="SvgjsTspan2249" style="text-decoration:;">s1</tspan></tspan></text></g></g><g id="SvgjsG2250" transform="translate(227,251.25)"><path id="SvgjsPath2251" d="M 0 0L 54 0L 54 25L 0 25Z" stroke="rgba(50,50,50,1)" stroke-width="2" fill-opacity="1" fill="#9c27b0"></path><g id="SvgjsG2252"><text id="SvgjsText2253" font-family="微软雅黑" text-anchor="middle" font-size="13px" width="34px" fill="#323232" font-weight="400" align="middle" lineHeight="125%" anchor="middle" family="微软雅黑" size="13px" weight="400" font-style="" opacity="1" y="2.875" transform="rotate(0)"><tspan id="SvgjsTspan2254" dy="16" x="27"><tspan id="SvgjsTspan2255" style="text-decoration:;">s3</tspan></tspan></text></g></g><g id="SvgjsG2256" transform="translate(358,251.25)"><path id="SvgjsPath2257" d="M 0 0L 54 0L 54 25L 0 25Z" stroke="rgba(50,50,50,1)" stroke-width="2" fill-opacity="1" fill="#9c27b0"></path><g id="SvgjsG2258"><text id="SvgjsText2259" font-family="微软雅黑" text-anchor="middle" font-size="13px" width="34px" fill="#323232" font-weight="400" align="middle" lineHeight="125%" anchor="middle" family="微软雅黑" size="13px" weight="400" font-style="" opacity="1" y="2.875" transform="rotate(0)"><tspan id="SvgjsTspan2260" dy="16" x="27"><tspan id="SvgjsTspan2261" style="text-decoration:;">s5</tspan></tspan></text></g></g><g id="SvgjsG2262" transform="translate(497,251.25)"><path id="SvgjsPath2263" d="M 0 0L 54 0L 54 25L 0 25Z" stroke="rgba(50,50,50,1)" stroke-width="2" fill-opacity="1" fill="#9c27b0"></path><g id="SvgjsG2264"><text id="SvgjsText2265" font-family="微软雅黑" text-anchor="middle" font-size="13px" width="34px" fill="#323232" font-weight="400" align="middle" lineHeight="125%" anchor="middle" family="微软雅黑" size="13px" weight="400" font-style="" opacity="1" y="2.875" transform="rotate(0)"><tspan id="SvgjsTspan2266" dy="16" x="27"><tspan id="SvgjsTspan2267" style="text-decoration:;">s10</tspan></tspan></text></g></g><g id="SvgjsG2268" transform="translate(617,251.25)"><path id="SvgjsPath2269" d="M 0 0L 54 0L 54 25L 0 25Z" stroke="rgba(50,50,50,1)" stroke-width="2" fill-opacity="1" fill="#9c27b0"></path><g id="SvgjsG2270"><text id="SvgjsText2271" font-family="微软雅黑" text-anchor="middle" font-size="13px" width="34px" fill="#323232" font-weight="400" align="middle" lineHeight="125%" anchor="middle" family="微软雅黑" size="13px" weight="400" font-style="" opacity="1" y="2.875" transform="rotate(0)"><tspan id="SvgjsTspan2272" dy="16" x="27"><tspan id="SvgjsTspan2273" style="text-decoration:;">s15</tspan></tspan></text></g></g><g id="SvgjsG2274" transform="translate(923,251.25)"><path id="SvgjsPath2275" d="M 0 0L 54 0L 54 25L 0 25Z" stroke="rgba(50,50,50,1)" stroke-width="2" fill-opacity="1" fill="#9c27b0"></path><g id="SvgjsG2276"><text id="SvgjsText2277" font-family="微软雅黑" text-anchor="middle" font-size="13px" width="34px" fill="#323232" font-weight="400" align="middle" lineHeight="125%" anchor="middle" family="微软雅黑" size="13px" weight="400" font-style="" opacity="1" y="2.875" transform="rotate(0)"><tspan id="SvgjsTspan2278" dy="16" x="27"><tspan id="SvgjsTspan2279" style="text-decoration:;">s25</tspan></tspan></text></g></g><g id="SvgjsG2280" transform="translate(977,251.25)"><path id="SvgjsPath2281" d="M 0 0L 54 0L 54 25L 0 25Z" stroke="rgba(50,50,50,1)" stroke-width="2" fill-opacity="1" fill="#9c27b0"></path><g id="SvgjsG2282"><text id="SvgjsText2283" font-family="微软雅黑" text-anchor="middle" font-size="13px" width="34px" fill="#323232" font-weight="400" align="middle" lineHeight="125%" anchor="middle" family="微软雅黑" size="13px" weight="400" font-style="" opacity="1" y="2.875" transform="rotate(0)"><tspan id="SvgjsTspan2284" dy="16" x="27"><tspan id="SvgjsTspan2285" style="text-decoration:;">s30</tspan></tspan></text></g></g><g id="SvgjsG2286" transform="translate(798,251.25)"><path id="SvgjsPath2287" d="M 0 0L 54 0L 54 25L 0 25Z" stroke="rgba(50,50,50,1)" stroke-width="2" fill-opacity="1" fill="#9c27b0"></path><g id="SvgjsG2288"><text id="SvgjsText2289" font-family="微软雅黑" text-anchor="middle" font-size="13px" width="34px" fill="#323232" font-weight="400" align="middle" lineHeight="125%" anchor="middle" family="微软雅黑" size="13px" weight="400" font-style="" opacity="1" y="2.875" transform="rotate(0)"><tspan id="SvgjsTspan2290" dy="16" x="27"><tspan id="SvgjsTspan2291" style="text-decoration:;">s20</tspan></tspan></text></g></g><g id="SvgjsG2292"><path id="SvgjsPath2293" d="M325 57.25L171 137" stroke="#323232" stroke-width="2" fill="none" marker-end="url(#SvgjsMarker2294)"></path></g><g id="SvgjsG2296"><path id="SvgjsPath2297" d="M433 57.25L452 137" stroke="#323232" stroke-width="2" fill="none" marker-end="url(#SvgjsMarker2298)"></path></g><g id="SvgjsG2300"><path id="SvgjsPath2301" d="M541 57.25L819 137" stroke="#323232" stroke-width="2" fill="none" marker-end="url(#SvgjsMarker2302)"></path></g><g id="SvgjsG2304"><path id="SvgjsPath2305" d="M927 169.25L978 244" stroke="#323232" stroke-width="2" fill="none" marker-end="url(#SvgjsMarker2306)"></path></g><g id="SvgjsG2308"><path id="SvgjsPath2309" d="M117 169.25L75 244" stroke="#323232" stroke-width="2" fill="none" marker-end="url(#SvgjsMarker2310)"></path></g><g id="SvgjsG2312"><path id="SvgjsPath2313" d="M225 169.25L254 244" stroke="#323232" stroke-width="2" fill="none" marker-end="url(#SvgjsMarker2314)"></path></g><g id="SvgjsG2316"><path id="SvgjsPath2317" d="M398 169.25L385 251.25" stroke="#323232" stroke-width="2" fill="none" marker-end="url(#SvgjsMarker2318)"></path></g><g id="SvgjsG2320"><path id="SvgjsPath2321" d="M506 169.25L522 244" stroke="#323232" stroke-width="2" fill="none" marker-end="url(#SvgjsMarker2322)"></path></g><g id="SvgjsG2324"><path id="SvgjsPath2325" d="M711 169.25L644 244" stroke="#323232" stroke-width="2" fill="none" marker-end="url(#SvgjsMarker2326)"></path></g><g id="SvgjsG2328"><path id="SvgjsPath2329" d="M819 169.25L825 244" stroke="#323232" stroke-width="2" fill="none" marker-end="url(#SvgjsMarker2330)"></path></g><g id="SvgjsG2332" transform="translate(497,149)"><path id="SvgjsPath2333" d="M 0 0L 120 0L 120 40L 0 40Z" stroke="none" fill="none"></path><g id="SvgjsG2334"><text id="SvgjsText2335" font-family="微软雅黑" text-anchor="middle" font-size="13px" width="120px" fill="#cfcfcf" font-weight="400" align="middle" lineHeight="125%" anchor="middle" family="微软雅黑" size="13px" weight="400" font-style="" opacity="1" y="10.375" transform="rotate(0)"><tspan id="SvgjsTspan2336" dy="16" x="60"><tspan id="SvgjsTspan2337" style="text-decoration:;">@WindShadow</tspan></tspan></text></g></g><g id="SvgjsG2338" transform="translate(48,307)"><path id="SvgjsPath2339" d="M 0 0L 54 0L 54 35L 0 35Z" stroke="rgba(50,50,50,1)" stroke-width="2" fill-opacity="1" fill="#388e3c"></path><g id="SvgjsG2340"><text id="SvgjsText2341" font-family="微软雅黑" text-anchor="middle" font-size="13px" width="34px" fill="#323232" font-weight="400" align="middle" lineHeight="125%" anchor="middle" family="微软雅黑" size="13px" weight="400" font-style="" opacity="1" y="7.875" transform="rotate(0)"><tspan id="SvgjsTspan2342" dy="16" x="27"><tspan id="SvgjsTspan2343" style="text-decoration:;">1</tspan></tspan></text></g></g><g id="SvgjsG2344" transform="translate(923,307)"><path id="SvgjsPath2345" d="M 0 0L 54 0L 54 35L 0 35Z" stroke="rgba(50,50,50,1)" stroke-width="2" fill-opacity="1" fill="#388e3c"></path><g id="SvgjsG2346"><text id="SvgjsText2347" font-family="微软雅黑" text-anchor="middle" font-size="13px" width="34px" fill="#323232" font-weight="400" align="middle" lineHeight="125%" anchor="middle" family="微软雅黑" size="13px" weight="400" font-style="" opacity="1" y="7.875" transform="rotate(0)"><tspan id="SvgjsTspan2348" dy="16" x="27"><tspan id="SvgjsTspan2349" style="text-decoration:;">25</tspan></tspan></text></g></g><g id="SvgjsG2350" transform="translate(798,307)"><path id="SvgjsPath2351" d="M 0 0L 54 0L 54 35L 0 35Z" stroke="rgba(50,50,50,1)" stroke-width="2" fill-opacity="1" fill="#388e3c"></path><g id="SvgjsG2352"><text id="SvgjsText2353" font-family="微软雅黑" text-anchor="middle" font-size="13px" width="34px" fill="#323232" font-weight="400" align="middle" lineHeight="125%" anchor="middle" family="微软雅黑" size="13px" weight="400" font-style="" opacity="1" y="7.875" transform="rotate(0)"><tspan id="SvgjsTspan2354" dy="16" x="27"><tspan id="SvgjsTspan2355" style="text-decoration:;">20</tspan></tspan></text></g></g><g id="SvgjsG2356" transform="translate(617,307)"><path id="SvgjsPath2357" d="M 0 0L 54 0L 54 35L 0 35Z" stroke="rgba(50,50,50,1)" stroke-width="2" fill-opacity="1" fill="#388e3c"></path><g id="SvgjsG2358"><text id="SvgjsText2359" font-family="微软雅黑" text-anchor="middle" font-size="13px" width="34px" fill="#323232" font-weight="400" align="middle" lineHeight="125%" anchor="middle" family="微软雅黑" size="13px" weight="400" font-style="" opacity="1" y="7.875" transform="rotate(0)"><tspan id="SvgjsTspan2360" dy="16" x="27"><tspan id="SvgjsTspan2361" style="text-decoration:;">15</tspan></tspan></text></g></g><g id="SvgjsG2362" transform="translate(497,307)"><path id="SvgjsPath2363" d="M 0 0L 54 0L 54 35L 0 35Z" stroke="rgba(50,50,50,1)" stroke-width="2" fill-opacity="1" fill="#388e3c"></path><g id="SvgjsG2364"><text id="SvgjsText2365" font-family="微软雅黑" text-anchor="middle" font-size="13px" width="34px" fill="#323232" font-weight="400" align="middle" lineHeight="125%" anchor="middle" family="微软雅黑" size="13px" weight="400" font-style="" opacity="1" y="7.875" transform="rotate(0)"><tspan id="SvgjsTspan2366" dy="16" x="27"><tspan id="SvgjsTspan2367" style="text-decoration:;">10</tspan></tspan></text></g></g><g id="SvgjsG2368" transform="translate(358,307)"><path id="SvgjsPath2369" d="M 0 0L 54 0L 54 35L 0 35Z" stroke="rgba(50,50,50,1)" stroke-width="2" fill-opacity="1" fill="#388e3c"></path><g id="SvgjsG2370"><text id="SvgjsText2371" font-family="微软雅黑" text-anchor="middle" font-size="13px" width="34px" fill="#323232" font-weight="400" align="middle" lineHeight="125%" anchor="middle" family="微软雅黑" size="13px" weight="400" font-style="" opacity="1" y="7.875" transform="rotate(0)"><tspan id="SvgjsTspan2372" dy="16" x="27"><tspan id="SvgjsTspan2373" style="text-decoration:;">5</tspan></tspan></text></g></g><g id="SvgjsG2374" transform="translate(227,307)"><path id="SvgjsPath2375" d="M 0 0L 54 0L 54 35L 0 35Z" stroke="rgba(50,50,50,1)" stroke-width="2" fill-opacity="1" fill="#388e3c"></path><g id="SvgjsG2376"><text id="SvgjsText2377" font-family="微软雅黑" text-anchor="middle" font-size="13px" width="34px" fill="#323232" font-weight="400" align="middle" lineHeight="125%" anchor="middle" family="微软雅黑" size="13px" weight="400" font-style="" opacity="1" y="7.875" transform="rotate(0)"><tspan id="SvgjsTspan2378" dy="16" x="27"><tspan id="SvgjsTspan2379" style="text-decoration:;">3</tspan></tspan></text></g></g><g id="SvgjsG2380" transform="translate(977,307)"><path id="SvgjsPath2381" d="M 0 0L 54 0L 54 35L 0 35Z" stroke="rgba(50,50,50,1)" stroke-width="2" fill-opacity="1" fill="#388e3c"></path><g id="SvgjsG2382"><text id="SvgjsText2383" font-family="微软雅黑" text-anchor="middle" font-size="13px" width="34px" fill="#323232" font-weight="400" align="middle" lineHeight="125%" anchor="middle" family="微软雅黑" size="13px" weight="400" font-style="" opacity="1" y="7.875" transform="rotate(0)"><tspan id="SvgjsTspan2384" dy="16" x="27"><tspan id="SvgjsTspan2385" style="text-decoration:;">30</tspan></tspan></text></g></g><g id="SvgjsG2386"><path id="SvgjsPath2387" d="M75 276.25L75 307" stroke="#323232" stroke-width="2" fill="none"></path></g><g id="SvgjsG2388"><path id="SvgjsPath2389" d="M254 276.25L254 307" stroke="#323232" stroke-width="2" fill="none"></path></g><g id="SvgjsG2390"><path id="SvgjsPath2391" d="M385 276.25L385 307" stroke="#323232" stroke-width="2" fill="none"></path></g><g id="SvgjsG2392"><path id="SvgjsPath2393" d="M524 276.25L524 307" stroke="#323232" stroke-width="2" fill="none"></path></g><g id="SvgjsG2394"><path id="SvgjsPath2395" d="M644 276.25L644 307" stroke="#323232" stroke-width="2" fill="none"></path></g><g id="SvgjsG2396"><path id="SvgjsPath2397" d="M825 276.25L825 307" stroke="#323232" stroke-width="2" fill="none"></path></g><g id="SvgjsG2398"><path id="SvgjsPath2399" d="M950 276.25L950 307" stroke="#323232" stroke-width="2" fill="none"></path></g><g id="SvgjsG2400"><path id="SvgjsPath2401" d="M1004 276.25L1004 307" stroke="#323232" stroke-width="2" fill="none"></path></g></svg>