<svg id="SvgjsSvg1484" width="1082" height="412" xmlns="http://www.w3.org/2000/svg" version="1.1" xmlns:xlink="http://www.w3.org/1999/xlink" xmlns:svgjs="http://svgjs.com/svgjs"><defs id="SvgjsDefs1485"><marker id="SvgjsMarker1682" markerWidth="16" markerHeight="12" refX="16" refY="6" viewBox="0 0 16 12" orient="auto" markerUnits="userSpaceOnUse" stroke-dasharray="0,0"><path id="SvgjsPath1683" d="M0,2 L14,6 L0,11 L0,2" fill="#323232" stroke="#323232" stroke-width="2"></path></marker><marker id="SvgjsMarker1686" markerWidth="16" markerHeight="12" refX="16" refY="6" viewBox="0 0 16 12" orient="auto" markerUnits="userSpaceOnUse" stroke-dasharray="0,0"><path id="SvgjsPath1687" d="M0,2 L14,6 L0,11 L0,2" fill="#323232" stroke="#323232" stroke-width="2"></path></marker><marker id="SvgjsMarker1690" markerWidth="16" markerHeight="12" refX="16" refY="6" viewBox="0 0 16 12" orient="auto" markerUnits="userSpaceOnUse" stroke-dasharray="0,0"><path id="SvgjsPath1691" d="M0,2 L14,6 L0,11 L0,2" fill="#323232" stroke="#323232" stroke-width="2"></path></marker><marker id="SvgjsMarker1694" markerWidth="16" markerHeight="12" refX="16" refY="6" viewBox="0 0 16 12" orient="auto" markerUnits="userSpaceOnUse" stroke-dasharray="0,0"><path id="SvgjsPath1695" d="M0,2 L14,6 L0,11 L0,2" fill="#323232" stroke="#323232" stroke-width="2"></path></marker><marker id="SvgjsMarker1698" markerWidth="16" markerHeight="12" refX="16" refY="6" viewBox="0 0 16 12" orient="auto" markerUnits="userSpaceOnUse" stroke-dasharray="0,0"><path id="SvgjsPath1699" d="M0,2 L14,6 L0,11 L0,2" fill="#323232" stroke="#323232" stroke-width="2"></path></marker><marker id="SvgjsMarker1702" markerWidth="16" markerHeight="12" refX="16" refY="6" viewBox="0 0 16 12" orient="auto" markerUnits="userSpaceOnUse" stroke-dasharray="0,0"><path id="SvgjsPath1703" d="M0,2 L14,6 L0,11 L0,2" fill="#323232" stroke="#323232" stroke-width="2"></path></marker><marker id="SvgjsMarker1706" markerWidth="16" markerHeight="12" refX="16" refY="6" viewBox="0 0 16 12" orient="auto" markerUnits="userSpaceOnUse" stroke-dasharray="0,0"><path id="SvgjsPath1707" d="M0,2 L14,6 L0,11 L0,2" fill="#323232" stroke="#323232" stroke-width="2"></path></marker><marker id="SvgjsMarker1710" markerWidth="16" markerHeight="12" refX="16" refY="6" viewBox="0 0 16 12" orient="auto" markerUnits="userSpaceOnUse" stroke-dasharray="0,0"><path id="SvgjsPath1711" d="M0,2 L14,6 L0,11 L0,2" fill="#323232" stroke="#323232" stroke-width="2"></path></marker><marker id="SvgjsMarker1714" markerWidth="16" markerHeight="12" refX="16" refY="6" viewBox="0 0 16 12" orient="auto" markerUnits="userSpaceOnUse" stroke-dasharray="0,0"><path id="SvgjsPath1715" d="M0,2 L14,6 L0,11 L0,2" fill="#323232" stroke="#323232" stroke-width="2"></path></marker><marker id="SvgjsMarker1718" markerWidth="16" markerHeight="12" refX="16" refY="6" viewBox="0 0 16 12" orient="auto" markerUnits="userSpaceOnUse" stroke-dasharray="0,0"><path id="SvgjsPath1719" d="M0,2 L14,6 L0,11 L0,2" fill="#323232" stroke="#323232" stroke-width="2"></path></marker></defs><g id="SvgjsG1486" transform="translate(25,221)"><path id="SvgjsPath1487" d="M 0 4Q 0 0 4 0L 1028 0Q 1032 0 1032 4L 1032 162Q 1032 166 1028 166L 4 166Q 0 166 0 162Z" stroke-dasharray="10,6" stroke="rgba(50,50,50,1)" stroke-width="2" fill-opacity="1" fill="#ffffff"></path><g id="SvgjsG1488"><text id="SvgjsText1489" font-family="微软雅黑" text-anchor="middle" font-size="20px" width="1012px" fill="#323232" font-weight="700" align="bottom" lineHeight="125%" anchor="middle" family="微软雅黑" size="20px" weight="700" font-style="" opacity="1" y="138.5" transform="rotate(0)"><tspan id="SvgjsTspan1490" dy="25" x="516"><tspan id="SvgjsTspan1491" style="text-decoration:;">叶子节点存放数据</tspan></tspan></text></g></g><g id="SvgjsG1492" transform="translate(791,244)"><path id="SvgjsPath1493" d="M 0 4Q 0 0 4 0L 64 0Q 68 0 68 4L 68 35.5Q 68 39.5 64 39.5L 4 39.5Q 0 39.5 0 35.5Z" stroke-dasharray="3,4" stroke="rgba(50,50,50,1)" stroke-width="2" fill-opacity="1" fill="#ffffff"></path><g id="SvgjsG1494"><text id="SvgjsText1495" font-family="微软雅黑" text-anchor="middle" font-size="13px" width="48px" fill="#323232" font-weight="400" align="middle" lineHeight="125%" anchor="middle" family="微软雅黑" size="13px" weight="400" font-style="" opacity="1" y="10.125" transform="rotate(0)"></text></g></g><g id="SvgjsG1496" transform="translate(610,244)"><path id="SvgjsPath1497" d="M 0 4Q 0 0 4 0L 64 0Q 68 0 68 4L 68 35.5Q 68 39.5 64 39.5L 4 39.5Q 0 39.5 0 35.5Z" stroke-dasharray="3,4" stroke="rgba(50,50,50,1)" stroke-width="2" fill-opacity="1" fill="#ffffff"></path><g id="SvgjsG1498"><text id="SvgjsText1499" font-family="微软雅黑" text-anchor="middle" font-size="13px" width="48px" fill="#323232" font-weight="400" align="middle" lineHeight="125%" anchor="middle" family="微软雅黑" size="13px" weight="400" font-style="" opacity="1" y="10.125" transform="rotate(0)"></text></g></g><g id="SvgjsG1500" transform="translate(488,244)"><path id="SvgjsPath1501" d="M 0 4Q 0 0 4 0L 64 0Q 68 0 68 4L 68 35.5Q 68 39.5 64 39.5L 4 39.5Q 0 39.5 0 35.5Z" stroke-dasharray="3,4" stroke="rgba(50,50,50,1)" stroke-width="2" fill-opacity="1" fill="#ffffff"></path><g id="SvgjsG1502"><text id="SvgjsText1503" font-family="微软雅黑" text-anchor="middle" font-size="13px" width="48px" fill="#323232" font-weight="400" align="middle" lineHeight="125%" anchor="middle" family="微软雅黑" size="13px" weight="400" font-style="" opacity="1" y="10.125" transform="rotate(0)"></text></g></g><g id="SvgjsG1504" transform="translate(351,244)"><path id="SvgjsPath1505" d="M 0 4Q 0 0 4 0L 64 0Q 68 0 68 4L 68 35.5Q 68 39.5 64 39.5L 4 39.5Q 0 39.5 0 35.5Z" stroke-dasharray="3,4" stroke="rgba(50,50,50,1)" stroke-width="2" fill-opacity="1" fill="#ffffff"></path><g id="SvgjsG1506"><text id="SvgjsText1507" font-family="微软雅黑" text-anchor="middle" font-size="13px" width="48px" fill="#323232" font-weight="400" align="middle" lineHeight="125%" anchor="middle" family="微软雅黑" size="13px" weight="400" font-style="" opacity="1" y="10.125" transform="rotate(0)"></text></g></g><g id="SvgjsG1508" transform="translate(220,244)"><path id="SvgjsPath1509" d="M 0 4Q 0 0 4 0L 64 0Q 68 0 68 4L 68 35.5Q 68 39.5 64 39.5L 4 39.5Q 0 39.5 0 35.5Z" stroke-dasharray="3,4" stroke="rgba(50,50,50,1)" stroke-width="2" fill-opacity="1" fill="#ffffff"></path><g id="SvgjsG1510"><text id="SvgjsText1511" font-family="微软雅黑" text-anchor="middle" font-size="13px" width="48px" fill="#323232" font-weight="400" align="middle" lineHeight="125%" anchor="middle" family="微软雅黑" size="13px" weight="400" font-style="" opacity="1" y="10.125" transform="rotate(0)"></text></g></g><g id="SvgjsG1512" transform="translate(41,244)"><path id="SvgjsPath1513" d="M 0 4Q 0 0 4 0L 64 0Q 68 0 68 4L 68 35.5Q 68 39.5 64 39.5L 4 39.5Q 0 39.5 0 35.5Z" stroke-dasharray="3,4" stroke="rgba(50,50,50,1)" stroke-width="2" fill-opacity="1" fill="#ffffff"></path><g id="SvgjsG1514"><text id="SvgjsText1515" font-family="微软雅黑" text-anchor="middle" font-size="13px" width="48px" fill="#323232" font-weight="400" align="middle" lineHeight="125%" anchor="middle" family="微软雅黑" size="13px" weight="400" font-style="" opacity="1" y="10.125" transform="rotate(0)"></text></g></g><g id="SvgjsG1516" transform="translate(917,244)"><path id="SvgjsPath1517" d="M 0 4Q 0 0 4 0L 118 0Q 122 0 122 4L 122 35.5Q 122 39.5 118 39.5L 4 39.5Q 0 39.5 0 35.5Z" stroke-dasharray="3,4" stroke="rgba(50,50,50,1)" stroke-width="2" fill-opacity="1" fill="#ffffff"></path><g id="SvgjsG1518"><text id="SvgjsText1519" font-family="微软雅黑" text-anchor="middle" font-size="13px" width="102px" fill="#323232" font-weight="400" align="middle" lineHeight="125%" anchor="middle" family="微软雅黑" size="13px" weight="400" font-style="" opacity="1" y="10.125" transform="rotate(0)"></text></g></g><g id="SvgjsG1520" transform="translate(290,25)"><path id="SvgjsPath1521" d="M 0 4Q 0 0 4 0L 282 0Q 286 0 286 4L 286 35.5Q 286 39.5 282 39.5L 4 39.5Q 0 39.5 0 35.5Z" stroke-dasharray="3,4" stroke="rgba(50,50,50,1)" stroke-width="2" fill-opacity="1" fill="#ffffff"></path><g id="SvgjsG1522"><text id="SvgjsText1523" font-family="微软雅黑" text-anchor="middle" font-size="13px" width="266px" fill="#323232" font-weight="400" align="middle" lineHeight="125%" anchor="middle" family="微软雅黑" size="13px" weight="400" font-style="" opacity="1" y="10.125" transform="rotate(0)"></text></g></g><g id="SvgjsG1524" transform="translate(298,32.25)"><path id="SvgjsPath1525" d="M 0 0L 54 0L 54 25L 0 25Z" stroke="rgba(50,50,50,1)" stroke-width="2" fill-opacity="1" fill="#4dd0e1"></path><g id="SvgjsG1526"><text id="SvgjsText1527" font-family="微软雅黑" text-anchor="middle" font-size="13px" width="34px" fill="#323232" font-weight="400" align="middle" lineHeight="125%" anchor="middle" family="微软雅黑" size="13px" weight="400" font-style="" opacity="1" y="2.875" transform="rotate(0)"><tspan id="SvgjsTspan1528" dy="16" x="27"><tspan id="SvgjsTspan1529" style="text-decoration:;">P</tspan></tspan></text></g></g><g id="SvgjsG1530" transform="translate(352,32.25)"><path id="SvgjsPath1531" d="M 0 0L 54 0L 54 25L 0 25Z" stroke="rgba(50,50,50,1)" stroke-width="2" fill-opacity="1" fill="#4caf50"></path><g id="SvgjsG1532"><text id="SvgjsText1533" font-family="微软雅黑" text-anchor="middle" font-size="13px" width="34px" fill="#323232" font-weight="400" align="middle" lineHeight="125%" anchor="middle" family="微软雅黑" size="13px" weight="400" font-style="" opacity="1" y="2.875" transform="rotate(0)"><tspan id="SvgjsTspan1534" dy="16" x="27"><tspan id="SvgjsTspan1535" style="text-decoration:;">5</tspan></tspan></text></g></g><g id="SvgjsG1536" transform="translate(406,32.25)"><path id="SvgjsPath1537" d="M 0 0L 54 0L 54 25L 0 25Z" stroke="rgba(50,50,50,1)" stroke-width="2" fill-opacity="1" fill="#4dd0e1"></path><g id="SvgjsG1538"><text id="SvgjsText1539" font-family="微软雅黑" text-anchor="middle" font-size="13px" width="34px" fill="#323232" font-weight="400" align="middle" lineHeight="125%" anchor="middle" family="微软雅黑" size="13px" weight="400" font-style="" opacity="1" y="2.875" transform="rotate(0)"><tspan id="SvgjsTspan1540" dy="16" x="27"><tspan id="SvgjsTspan1541" style="text-decoration:;">P</tspan></tspan></text></g></g><g id="SvgjsG1542" transform="translate(460,32.25)"><path id="SvgjsPath1543" d="M 0 0L 54 0L 54 25L 0 25Z" stroke="rgba(50,50,50,1)" stroke-width="2" fill-opacity="1" fill="#4caf50"></path><g id="SvgjsG1544"><text id="SvgjsText1545" font-family="微软雅黑" text-anchor="middle" font-size="13px" width="34px" fill="#323232" font-weight="400" align="middle" lineHeight="125%" anchor="middle" family="微软雅黑" size="13px" weight="400" font-style="" opacity="1" y="2.875" transform="rotate(0)"><tspan id="SvgjsTspan1546" dy="16" x="27"><tspan id="SvgjsTspan1547" style="text-decoration:;">15</tspan></tspan></text></g></g><g id="SvgjsG1548" transform="translate(514,32.25)"><path id="SvgjsPath1549" d="M 0 0L 54 0L 54 25L 0 25Z" stroke="rgba(50,50,50,1)" stroke-width="2" fill-opacity="1" fill="#4dd0e1"></path><g id="SvgjsG1550"><text id="SvgjsText1551" font-family="微软雅黑" text-anchor="middle" font-size="13px" width="34px" fill="#323232" font-weight="400" align="middle" lineHeight="125%" anchor="middle" family="微软雅黑" size="13px" weight="400" font-style="" opacity="1" y="2.875" transform="rotate(0)"><tspan id="SvgjsTspan1552" dy="16" x="27"><tspan id="SvgjsTspan1553" style="text-decoration:;">P</tspan></tspan></text></g></g><g id="SvgjsG1554" transform="translate(82,137)"><path id="SvgjsPath1555" d="M 0 4Q 0 0 4 0L 174 0Q 178 0 178 4L 178 35.5Q 178 39.5 174 39.5L 4 39.5Q 0 39.5 0 35.5Z" stroke-dasharray="3,4" stroke="rgba(50,50,50,1)" stroke-width="2" fill-opacity="1" fill="#ffffff"></path><g id="SvgjsG1556"><text id="SvgjsText1557" font-family="微软雅黑" text-anchor="middle" font-size="13px" width="158px" fill="#323232" font-weight="400" align="middle" lineHeight="125%" anchor="middle" family="微软雅黑" size="13px" weight="400" font-style="" opacity="1" y="10.125" transform="rotate(0)"></text></g></g><g id="SvgjsG1558" transform="translate(90,144.25)"><path id="SvgjsPath1559" d="M 0 0L 54 0L 54 25L 0 25Z" stroke="rgba(50,50,50,1)" stroke-width="2" fill-opacity="1" fill="#4dd0e1"></path><g id="SvgjsG1560"><text id="SvgjsText1561" font-family="微软雅黑" text-anchor="middle" font-size="13px" width="34px" fill="#323232" font-weight="400" align="middle" lineHeight="125%" anchor="middle" family="微软雅黑" size="13px" weight="400" font-style="" opacity="1" y="2.875" transform="rotate(0)"><tspan id="SvgjsTspan1562" dy="16" x="27"><tspan id="SvgjsTspan1563" style="text-decoration:;">P</tspan></tspan></text></g></g><g id="SvgjsG1564" transform="translate(144,144.25)"><path id="SvgjsPath1565" d="M 0 0L 54 0L 54 25L 0 25Z" stroke="rgba(50,50,50,1)" stroke-width="2" fill-opacity="1" fill="#4caf50"></path><g id="SvgjsG1566"><text id="SvgjsText1567" font-family="微软雅黑" text-anchor="middle" font-size="13px" width="34px" fill="#323232" font-weight="400" align="middle" lineHeight="125%" anchor="middle" family="微软雅黑" size="13px" weight="400" font-style="" opacity="1" y="2.875" transform="rotate(0)"><tspan id="SvgjsTspan1568" dy="16" x="27"><tspan id="SvgjsTspan1569" style="text-decoration:;">3</tspan></tspan></text></g></g><g id="SvgjsG1570" transform="translate(198,144.25)"><path id="SvgjsPath1571" d="M 0 0L 54 0L 54 25L 0 25Z" stroke="rgba(50,50,50,1)" stroke-width="2" fill-opacity="1" fill="#4dd0e1"></path><g id="SvgjsG1572"><text id="SvgjsText1573" font-family="微软雅黑" text-anchor="middle" font-size="13px" width="34px" fill="#323232" font-weight="400" align="middle" lineHeight="125%" anchor="middle" family="微软雅黑" size="13px" weight="400" font-style="" opacity="1" y="2.875" transform="rotate(0)"><tspan id="SvgjsTspan1574" dy="16" x="27"><tspan id="SvgjsTspan1575" style="text-decoration:;">P</tspan></tspan></text></g></g><g id="SvgjsG1576" transform="translate(363,137)"><path id="SvgjsPath1577" d="M 0 4Q 0 0 4 0L 174 0Q 178 0 178 4L 178 35.5Q 178 39.5 174 39.5L 4 39.5Q 0 39.5 0 35.5Z" stroke-dasharray="3,4" stroke="rgba(50,50,50,1)" stroke-width="2" fill-opacity="1" fill="#ffffff"></path><g id="SvgjsG1578"><text id="SvgjsText1579" font-family="微软雅黑" text-anchor="middle" font-size="13px" width="158px" fill="#323232" font-weight="400" align="middle" lineHeight="125%" anchor="middle" family="微软雅黑" size="13px" weight="400" font-style="" opacity="1" y="10.125" transform="rotate(0)"></text></g></g><g id="SvgjsG1580" transform="translate(371,144.25)"><path id="SvgjsPath1581" d="M 0 0L 54 0L 54 25L 0 25Z" stroke="rgba(50,50,50,1)" stroke-width="2" fill-opacity="1" fill="#4dd0e1"></path><g id="SvgjsG1582"><text id="SvgjsText1583" font-family="微软雅黑" text-anchor="middle" font-size="13px" width="34px" fill="#323232" font-weight="400" align="middle" lineHeight="125%" anchor="middle" family="微软雅黑" size="13px" weight="400" font-style="" opacity="1" y="2.875" transform="rotate(0)"><tspan id="SvgjsTspan1584" dy="16" x="27"><tspan id="SvgjsTspan1585" style="text-decoration:;">P</tspan></tspan></text></g></g><g id="SvgjsG1586" transform="translate(425,144.25)"><path id="SvgjsPath1587" d="M 0 0L 54 0L 54 25L 0 25Z" stroke="rgba(50,50,50,1)" stroke-width="2" fill-opacity="1" fill="#4caf50"></path><g id="SvgjsG1588"><text id="SvgjsText1589" font-family="微软雅黑" text-anchor="middle" font-size="13px" width="34px" fill="#323232" font-weight="400" align="middle" lineHeight="125%" anchor="middle" family="微软雅黑" size="13px" weight="400" font-style="" opacity="1" y="2.875" transform="rotate(0)"><tspan id="SvgjsTspan1590" dy="16" x="27"><tspan id="SvgjsTspan1591" style="text-decoration:;">10</tspan></tspan></text></g></g><g id="SvgjsG1592" transform="translate(479,144.25)"><path id="SvgjsPath1593" d="M 0 0L 54 0L 54 25L 0 25Z" stroke="rgba(50,50,50,1)" stroke-width="2" fill-opacity="1" fill="#4dd0e1"></path><g id="SvgjsG1594"><text id="SvgjsText1595" font-family="微软雅黑" text-anchor="middle" font-size="13px" width="34px" fill="#323232" font-weight="400" align="middle" lineHeight="125%" anchor="middle" family="微软雅黑" size="13px" weight="400" font-style="" opacity="1" y="2.875" transform="rotate(0)"><tspan id="SvgjsTspan1596" dy="16" x="27"><tspan id="SvgjsTspan1597" style="text-decoration:;">P</tspan></tspan></text></g></g><g id="SvgjsG1598" transform="translate(676,137)"><path id="SvgjsPath1599" d="M 0 4Q 0 0 4 0L 282 0Q 286 0 286 4L 286 35.5Q 286 39.5 282 39.5L 4 39.5Q 0 39.5 0 35.5Z" stroke-dasharray="3,4" stroke="rgba(50,50,50,1)" stroke-width="2" fill-opacity="1" fill="#ffffff"></path><g id="SvgjsG1600"><text id="SvgjsText1601" font-family="微软雅黑" text-anchor="middle" font-size="13px" width="266px" fill="#323232" font-weight="400" align="middle" lineHeight="125%" anchor="middle" family="微软雅黑" size="13px" weight="400" font-style="" opacity="1" y="10.125" transform="rotate(0)"></text></g></g><g id="SvgjsG1602" transform="translate(684,144.25)"><path id="SvgjsPath1603" d="M 0 0L 54 0L 54 25L 0 25Z" stroke="rgba(50,50,50,1)" stroke-width="2" fill-opacity="1" fill="#4dd0e1"></path><g id="SvgjsG1604"><text id="SvgjsText1605" font-family="微软雅黑" text-anchor="middle" font-size="13px" width="34px" fill="#323232" font-weight="400" align="middle" lineHeight="125%" anchor="middle" family="微软雅黑" size="13px" weight="400" font-style="" opacity="1" y="2.875" transform="rotate(0)"><tspan id="SvgjsTspan1606" dy="16" x="27"><tspan id="SvgjsTspan1607" style="text-decoration:;">P</tspan></tspan></text></g></g><g id="SvgjsG1608" transform="translate(738,144.25)"><path id="SvgjsPath1609" d="M 0 0L 54 0L 54 25L 0 25Z" stroke="rgba(50,50,50,1)" stroke-width="2" fill-opacity="1" fill="#4caf50"></path><g id="SvgjsG1610"><text id="SvgjsText1611" font-family="微软雅黑" text-anchor="middle" font-size="13px" width="34px" fill="#323232" font-weight="400" align="middle" lineHeight="125%" anchor="middle" family="微软雅黑" size="13px" weight="400" font-style="" opacity="1" y="2.875" transform="rotate(0)"><tspan id="SvgjsTspan1612" dy="16" x="27"><tspan id="SvgjsTspan1613" style="text-decoration:;">20</tspan></tspan></text></g></g><g id="SvgjsG1614" transform="translate(792,144.25)"><path id="SvgjsPath1615" d="M 0 0L 54 0L 54 25L 0 25Z" stroke="rgba(50,50,50,1)" stroke-width="2" fill-opacity="1" fill="#4dd0e1"></path><g id="SvgjsG1616"><text id="SvgjsText1617" font-family="微软雅黑" text-anchor="middle" font-size="13px" width="34px" fill="#323232" font-weight="400" align="middle" lineHeight="125%" anchor="middle" family="微软雅黑" size="13px" weight="400" font-style="" opacity="1" y="2.875" transform="rotate(0)"><tspan id="SvgjsTspan1618" dy="16" x="27"><tspan id="SvgjsTspan1619" style="text-decoration:;">P</tspan></tspan></text></g></g><g id="SvgjsG1620" transform="translate(846,144.25)"><path id="SvgjsPath1621" d="M 0 0L 54 0L 54 25L 0 25Z" stroke="rgba(50,50,50,1)" stroke-width="2" fill-opacity="1" fill="#4caf50"></path><g id="SvgjsG1622"><text id="SvgjsText1623" font-family="微软雅黑" text-anchor="middle" font-size="13px" width="34px" fill="#323232" font-weight="400" align="middle" lineHeight="125%" anchor="middle" family="微软雅黑" size="13px" weight="400" font-style="" opacity="1" y="2.875" transform="rotate(0)"><tspan id="SvgjsTspan1624" dy="16" x="27"><tspan id="SvgjsTspan1625" style="text-decoration:;">25</tspan></tspan></text></g></g><g id="SvgjsG1626" transform="translate(900,144.25)"><path id="SvgjsPath1627" d="M 0 0L 54 0L 54 25L 0 25Z" stroke="rgba(50,50,50,1)" stroke-width="2" fill-opacity="1" fill="#4dd0e1"></path><g id="SvgjsG1628"><text id="SvgjsText1629" font-family="微软雅黑" text-anchor="middle" font-size="13px" width="34px" fill="#323232" font-weight="400" align="middle" lineHeight="125%" anchor="middle" family="微软雅黑" size="13px" weight="400" font-style="" opacity="1" y="2.875" transform="rotate(0)"><tspan id="SvgjsTspan1630" dy="16" x="27"><tspan id="SvgjsTspan1631" style="text-decoration:;">P</tspan></tspan></text></g></g><g id="SvgjsG1632" transform="translate(48,251.25)"><path id="SvgjsPath1633" d="M 0 0L 54 0L 54 25L 0 25Z" stroke="rgba(50,50,50,1)" stroke-width="2" fill-opacity="1" fill="#4caf50"></path><g id="SvgjsG1634"><text id="SvgjsText1635" font-family="微软雅黑" text-anchor="middle" font-size="13px" width="34px" fill="#323232" font-weight="400" align="middle" lineHeight="125%" anchor="middle" family="微软雅黑" size="13px" weight="400" font-style="" opacity="1" y="2.875" transform="rotate(0)"><tspan id="SvgjsTspan1636" dy="16" x="27"><tspan id="SvgjsTspan1637" style="text-decoration:;">1</tspan></tspan></text></g></g><g id="SvgjsG1638" transform="translate(227,251.25)"><path id="SvgjsPath1639" d="M 0 0L 54 0L 54 25L 0 25Z" stroke="rgba(50,50,50,1)" stroke-width="2" fill-opacity="1" fill="#4caf50"></path><g id="SvgjsG1640"><text id="SvgjsText1641" font-family="微软雅黑" text-anchor="middle" font-size="13px" width="34px" fill="#323232" font-weight="400" align="middle" lineHeight="125%" anchor="middle" family="微软雅黑" size="13px" weight="400" font-style="" opacity="1" y="2.875" transform="rotate(0)"><tspan id="SvgjsTspan1642" dy="16" x="27"><tspan id="SvgjsTspan1643" style="text-decoration:;">3</tspan></tspan></text></g></g><g id="SvgjsG1644" transform="translate(358,251.25)"><path id="SvgjsPath1645" d="M 0 0L 54 0L 54 25L 0 25Z" stroke="rgba(50,50,50,1)" stroke-width="2" fill-opacity="1" fill="#4caf50"></path><g id="SvgjsG1646"><text id="SvgjsText1647" font-family="微软雅黑" text-anchor="middle" font-size="13px" width="34px" fill="#323232" font-weight="400" align="middle" lineHeight="125%" anchor="middle" family="微软雅黑" size="13px" weight="400" font-style="" opacity="1" y="2.875" transform="rotate(0)"><tspan id="SvgjsTspan1648" dy="16" x="27"><tspan id="SvgjsTspan1649" style="text-decoration:;">5</tspan></tspan></text></g></g><g id="SvgjsG1650" transform="translate(495,251.25)"><path id="SvgjsPath1651" d="M 0 0L 54 0L 54 25L 0 25Z" stroke="rgba(50,50,50,1)" stroke-width="2" fill-opacity="1" fill="#4caf50"></path><g id="SvgjsG1652"><text id="SvgjsText1653" font-family="微软雅黑" text-anchor="middle" font-size="13px" width="34px" fill="#323232" font-weight="400" align="middle" lineHeight="125%" anchor="middle" family="微软雅黑" size="13px" weight="400" font-style="" opacity="1" y="2.875" transform="rotate(0)"><tspan id="SvgjsTspan1654" dy="16" x="27"><tspan id="SvgjsTspan1655" style="text-decoration:;">10</tspan></tspan></text></g></g><g id="SvgjsG1656" transform="translate(617,251.25)"><path id="SvgjsPath1657" d="M 0 0L 54 0L 54 25L 0 25Z" stroke="rgba(50,50,50,1)" stroke-width="2" fill-opacity="1" fill="#4caf50"></path><g id="SvgjsG1658"><text id="SvgjsText1659" font-family="微软雅黑" text-anchor="middle" font-size="13px" width="34px" fill="#323232" font-weight="400" align="middle" lineHeight="125%" anchor="middle" family="微软雅黑" size="13px" weight="400" font-style="" opacity="1" y="2.875" transform="rotate(0)"><tspan id="SvgjsTspan1660" dy="16" x="27"><tspan id="SvgjsTspan1661" style="text-decoration:;">15</tspan></tspan></text></g></g><g id="SvgjsG1662" transform="translate(923,251.25)"><path id="SvgjsPath1663" d="M 0 0L 54 0L 54 25L 0 25Z" stroke="rgba(50,50,50,1)" stroke-width="2" fill-opacity="1" fill="#4caf50"></path><g id="SvgjsG1664"><text id="SvgjsText1665" font-family="微软雅黑" text-anchor="middle" font-size="13px" width="34px" fill="#323232" font-weight="400" align="middle" lineHeight="125%" anchor="middle" family="微软雅黑" size="13px" weight="400" font-style="" opacity="1" y="2.875" transform="rotate(0)"><tspan id="SvgjsTspan1666" dy="16" x="27"><tspan id="SvgjsTspan1667" style="text-decoration:;">25</tspan></tspan></text></g></g><g id="SvgjsG1668" transform="translate(977,251.25)"><path id="SvgjsPath1669" d="M 0 0L 54 0L 54 25L 0 25Z" stroke="rgba(50,50,50,1)" stroke-width="2" fill-opacity="1" fill="#4caf50"></path><g id="SvgjsG1670"><text id="SvgjsText1671" font-family="微软雅黑" text-anchor="middle" font-size="13px" width="34px" fill="#323232" font-weight="400" align="middle" lineHeight="125%" anchor="middle" family="微软雅黑" size="13px" weight="400" font-style="" opacity="1" y="2.875" transform="rotate(0)"><tspan id="SvgjsTspan1672" dy="16" x="27"><tspan id="SvgjsTspan1673" style="text-decoration:;">30</tspan></tspan></text></g></g><g id="SvgjsG1674" transform="translate(798,251.25)"><path id="SvgjsPath1675" d="M 0 0L 54 0L 54 25L 0 25Z" stroke="rgba(50,50,50,1)" stroke-width="2" fill-opacity="1" fill="#4caf50"></path><g id="SvgjsG1676"><text id="SvgjsText1677" font-family="微软雅黑" text-anchor="middle" font-size="13px" width="34px" fill="#323232" font-weight="400" align="middle" lineHeight="125%" anchor="middle" family="微软雅黑" size="13px" weight="400" font-style="" opacity="1" y="2.875" transform="rotate(0)"><tspan id="SvgjsTspan1678" dy="16" x="27"><tspan id="SvgjsTspan1679" style="text-decoration:;">20</tspan></tspan></text></g></g><g id="SvgjsG1680"><path id="SvgjsPath1681" d="M325 57.25L171 137" stroke="#323232" stroke-width="2" fill="none" marker-end="url(#SvgjsMarker1682)"></path></g><g id="SvgjsG1684"><path id="SvgjsPath1685" d="M433 57.25L452 137" stroke="#323232" stroke-width="2" fill="none" marker-end="url(#SvgjsMarker1686)"></path></g><g id="SvgjsG1688"><path id="SvgjsPath1689" d="M541 57.25L819 137" stroke="#323232" stroke-width="2" fill="none" marker-end="url(#SvgjsMarker1690)"></path></g><g id="SvgjsG1692"><path id="SvgjsPath1693" d="M927 169.25L978 244" stroke="#323232" stroke-width="2" fill="none" marker-end="url(#SvgjsMarker1694)"></path></g><g id="SvgjsG1696"><path id="SvgjsPath1697" d="M117 169.25L75 244" stroke="#323232" stroke-width="2" fill="none" marker-end="url(#SvgjsMarker1698)"></path></g><g id="SvgjsG1700"><path id="SvgjsPath1701" d="M225 169.25L254 244" stroke="#323232" stroke-width="2" fill="none" marker-end="url(#SvgjsMarker1702)"></path></g><g id="SvgjsG1704"><path id="SvgjsPath1705" d="M398 169.25L385 251.25" stroke="#323232" stroke-width="2" fill="none" marker-end="url(#SvgjsMarker1706)"></path></g><g id="SvgjsG1708"><path id="SvgjsPath1709" d="M506 169.25L522 244" stroke="#323232" stroke-width="2" fill="none" marker-end="url(#SvgjsMarker1710)"></path></g><g id="SvgjsG1712"><path id="SvgjsPath1713" d="M711 169.25L644 244" stroke="#323232" stroke-width="2" fill="none" marker-end="url(#SvgjsMarker1714)"></path></g><g id="SvgjsG1716"><path id="SvgjsPath1717" d="M819 169.25L825 244" stroke="#323232" stroke-width="2" fill="none" marker-end="url(#SvgjsMarker1718)"></path></g><g id="SvgjsG1720" transform="translate(497,149)"><path id="SvgjsPath1721" d="M 0 0L 120 0L 120 40L 0 40Z" stroke="none" fill="none"></path><g id="SvgjsG1722"><text id="SvgjsText1723" font-family="微软雅黑" text-anchor="middle" font-size="13px" width="120px" fill="#cfcfcf" font-weight="400" align="middle" lineHeight="125%" anchor="middle" family="微软雅黑" size="13px" weight="400" font-style="" opacity="1" y="10.375" transform="rotate(0)"><tspan id="SvgjsTspan1724" dy="16" x="60"><tspan id="SvgjsTspan1725" style="text-decoration:;">@WindShadow</tspan></tspan></text></g></g><g id="SvgjsG1726" transform="translate(48,307)"><path id="SvgjsPath1727" d="M 0 0L 54 0L 54 35L 0 35Z" stroke="rgba(50,50,50,1)" stroke-width="2" fill-opacity="1" fill="#f57c00"></path><g id="SvgjsG1728"><text id="SvgjsText1729" font-family="微软雅黑" text-anchor="middle" font-size="13px" width="34px" fill="#323232" font-weight="400" align="middle" lineHeight="125%" anchor="middle" family="微软雅黑" size="13px" weight="400" font-style="" opacity="1" y="7.875" transform="rotate(0)"><tspan id="SvgjsTspan1730" dy="16" x="27"><tspan id="SvgjsTspan1731" style="text-decoration:;">d1</tspan></tspan></text></g></g><g id="SvgjsG1732" transform="translate(923,307)"><path id="SvgjsPath1733" d="M 0 0L 54 0L 54 35L 0 35Z" stroke="rgba(50,50,50,1)" stroke-width="2" fill-opacity="1" fill="#f57c00"></path><g id="SvgjsG1734"><text id="SvgjsText1735" font-family="微软雅黑" text-anchor="middle" font-size="13px" width="34px" fill="#323232" font-weight="400" align="middle" lineHeight="125%" anchor="middle" family="微软雅黑" size="13px" weight="400" font-style="" opacity="1" y="7.875" transform="rotate(0)"><tspan id="SvgjsTspan1736" dy="16" x="27"><tspan id="SvgjsTspan1737" style="text-decoration:;">d25</tspan></tspan></text></g></g><g id="SvgjsG1738" transform="translate(798,307)"><path id="SvgjsPath1739" d="M 0 0L 54 0L 54 35L 0 35Z" stroke="rgba(50,50,50,1)" stroke-width="2" fill-opacity="1" fill="#f57c00"></path><g id="SvgjsG1740"><text id="SvgjsText1741" font-family="微软雅黑" text-anchor="middle" font-size="13px" width="34px" fill="#323232" font-weight="400" align="middle" lineHeight="125%" anchor="middle" family="微软雅黑" size="13px" weight="400" font-style="" opacity="1" y="7.875" transform="rotate(0)"><tspan id="SvgjsTspan1742" dy="16" x="27"><tspan id="SvgjsTspan1743" style="text-decoration:;">d20</tspan></tspan></text></g></g><g id="SvgjsG1744" transform="translate(617,307)"><path id="SvgjsPath1745" d="M 0 0L 54 0L 54 35L 0 35Z" stroke="rgba(50,50,50,1)" stroke-width="2" fill-opacity="1" fill="#f57c00"></path><g id="SvgjsG1746"><text id="SvgjsText1747" font-family="微软雅黑" text-anchor="middle" font-size="13px" width="34px" fill="#323232" font-weight="400" align="middle" lineHeight="125%" anchor="middle" family="微软雅黑" size="13px" weight="400" font-style="" opacity="1" y="7.875" transform="rotate(0)"><tspan id="SvgjsTspan1748" dy="16" x="27"><tspan id="SvgjsTspan1749" style="text-decoration:;">d15</tspan></tspan></text></g></g><g id="SvgjsG1750" transform="translate(495,307)"><path id="SvgjsPath1751" d="M 0 0L 54 0L 54 35L 0 35Z" stroke="rgba(50,50,50,1)" stroke-width="2" fill-opacity="1" fill="#f57c00"></path><g id="SvgjsG1752"><text id="SvgjsText1753" font-family="微软雅黑" text-anchor="middle" font-size="13px" width="34px" fill="#323232" font-weight="400" align="middle" lineHeight="125%" anchor="middle" family="微软雅黑" size="13px" weight="400" font-style="" opacity="1" y="7.875" transform="rotate(0)"><tspan id="SvgjsTspan1754" dy="16" x="27"><tspan id="SvgjsTspan1755" style="text-decoration:;">d10</tspan></tspan></text></g></g><g id="SvgjsG1756" transform="translate(358,307)"><path id="SvgjsPath1757" d="M 0 0L 54 0L 54 35L 0 35Z" stroke="rgba(50,50,50,1)" stroke-width="2" fill-opacity="1" fill="#f57c00"></path><g id="SvgjsG1758"><text id="SvgjsText1759" font-family="微软雅黑" text-anchor="middle" font-size="13px" width="34px" fill="#323232" font-weight="400" align="middle" lineHeight="125%" anchor="middle" family="微软雅黑" size="13px" weight="400" font-style="" opacity="1" y="7.875" transform="rotate(0)"><tspan id="SvgjsTspan1760" dy="16" x="27"><tspan id="SvgjsTspan1761" style="text-decoration:;">d5</tspan></tspan></text></g></g><g id="SvgjsG1762" transform="translate(227,307)"><path id="SvgjsPath1763" d="M 0 0L 54 0L 54 35L 0 35Z" stroke="rgba(50,50,50,1)" stroke-width="2" fill-opacity="1" fill="#f57c00"></path><g id="SvgjsG1764"><text id="SvgjsText1765" font-family="微软雅黑" text-anchor="middle" font-size="13px" width="34px" fill="#323232" font-weight="400" align="middle" lineHeight="125%" anchor="middle" family="微软雅黑" size="13px" weight="400" font-style="" opacity="1" y="7.875" transform="rotate(0)"><tspan id="SvgjsTspan1766" dy="16" x="27"><tspan id="SvgjsTspan1767" style="text-decoration:;">d3</tspan></tspan></text></g></g><g id="SvgjsG1768" transform="translate(977,307)"><path id="SvgjsPath1769" d="M 0 0L 54 0L 54 35L 0 35Z" stroke="rgba(50,50,50,1)" stroke-width="2" fill-opacity="1" fill="#f57c00"></path><g id="SvgjsG1770"><text id="SvgjsText1771" font-family="微软雅黑" text-anchor="middle" font-size="13px" width="34px" fill="#323232" font-weight="400" align="middle" lineHeight="125%" anchor="middle" family="微软雅黑" size="13px" weight="400" font-style="" opacity="1" y="7.875" transform="rotate(0)"><tspan id="SvgjsTspan1772" dy="16" x="27"><tspan id="SvgjsTspan1773" style="text-decoration:;">d30</tspan></tspan></text></g></g><g id="SvgjsG1774"><path id="SvgjsPath1775" d="M75 276.25L75 307" stroke="#323232" stroke-width="2" fill="none"></path></g><g id="SvgjsG1776"><path id="SvgjsPath1777" d="M254 276.25L254 307" stroke="#323232" stroke-width="2" fill="none"></path></g><g id="SvgjsG1778"><path id="SvgjsPath1779" d="M385 276.25L385 307" stroke="#323232" stroke-width="2" fill="none"></path></g><g id="SvgjsG1780"><path id="SvgjsPath1781" d="M522 276.25L522 307" stroke="#323232" stroke-width="2" fill="none"></path></g><g id="SvgjsG1782"><path id="SvgjsPath1783" d="M644 276.25L644 307" stroke="#323232" stroke-width="2" fill="none"></path></g><g id="SvgjsG1784"><path id="SvgjsPath1785" d="M825 276.25L825 307" stroke="#323232" stroke-width="2" fill="none"></path></g><g id="SvgjsG1786"><path id="SvgjsPath1787" d="M950 276.25L950 307" stroke="#323232" stroke-width="2" fill="none"></path></g><g id="SvgjsG1788"><path id="SvgjsPath1789" d="M1004 276.25L1004 307" stroke="#323232" stroke-width="2" fill="none"></path></g></svg>