<svg id="SvgjsSvg1420" width="556" height="631" xmlns="http://www.w3.org/2000/svg" version="1.1" xmlns:xlink="http://www.w3.org/1999/xlink" xmlns:svgjs="http://svgjs.com/svgjs"><defs id="SvgjsDefs1421"><marker id="SvgjsMarker1436" markerWidth="16" markerHeight="12" refX="16" refY="6" viewBox="0 0 16 12" orient="auto" markerUnits="userSpaceOnUse" stroke-dasharray="0,0"><path id="SvgjsPath1437" d="M0,2 L14,6 L0,11 L0,2" fill="#323232" stroke="#323232" stroke-width="2"></path></marker><marker id="SvgjsMarker1446" markerWidth="16" markerHeight="12" refX="16" refY="6" viewBox="0 0 16 12" orient="auto" markerUnits="userSpaceOnUse" stroke-dasharray="0,0"><path id="SvgjsPath1447" d="M0,2 L14,6 L0,11 L0,2" fill="#323232" stroke="#323232" stroke-width="2"></path></marker><marker id="SvgjsMarker1462" markerWidth="16" markerHeight="12" refX="16" refY="6" viewBox="0 0 16 12" orient="auto" markerUnits="userSpaceOnUse" stroke-dasharray="0,0"><path id="SvgjsPath1463" d="M0,2 L14,6 L0,11 L0,2" fill="#323232" stroke="#323232" stroke-width="2"></path></marker><marker id="SvgjsMarker1470" markerWidth="16" markerHeight="12" refX="16" refY="6" viewBox="0 0 16 12" orient="auto" markerUnits="userSpaceOnUse" stroke-dasharray="0,0"><path id="SvgjsPath1471" d="M0,2 L14,6 L0,11 L0,2" fill="#323232" stroke="#323232" stroke-width="2"></path></marker><marker id="SvgjsMarker1490" markerWidth="16" markerHeight="12" refX="16" refY="6" viewBox="0 0 16 12" orient="auto" markerUnits="userSpaceOnUse" stroke-dasharray="0,0"><path id="SvgjsPath1491" d="M0,2 L14,6 L0,11 L0,2" fill="#323232" stroke="#323232" stroke-width="2"></path></marker><marker id="SvgjsMarker1498" markerWidth="16" markerHeight="12" refX="16" refY="6" viewBox="0 0 16 12" orient="auto" markerUnits="userSpaceOnUse" stroke-dasharray="0,0"><path id="SvgjsPath1499" d="M0,2 L14,6 L0,11 L0,2" fill="#323232" stroke="#323232" stroke-width="2"></path></marker><marker id="SvgjsMarker1508" markerWidth="16" markerHeight="12" refX="16" refY="6" viewBox="0 0 16 12" orient="auto" markerUnits="userSpaceOnUse" stroke-dasharray="0,0"><path id="SvgjsPath1509" d="M0,2 L14,6 L0,11 L0,2" fill="#323232" stroke="#323232" stroke-width="2"></path></marker><marker id="SvgjsMarker1522" markerWidth="16" markerHeight="12" refX="16" refY="6" viewBox="0 0 16 12" orient="auto" markerUnits="userSpaceOnUse" stroke-dasharray="0,0"><path id="SvgjsPath1523" d="M0,2 L14,6 L0,11 L0,2" fill="#323232" stroke="#323232" stroke-width="2"></path></marker><marker id="SvgjsMarker1536" markerWidth="16" markerHeight="12" refX="16" refY="6" viewBox="0 0 16 12" orient="auto" markerUnits="userSpaceOnUse" stroke-dasharray="0,0"><path id="SvgjsPath1537" d="M0,2 L14,6 L0,11 L0,2" fill="#323232" stroke="#323232" stroke-width="2"></path></marker><marker id="SvgjsMarker1544" markerWidth="16" markerHeight="12" refX="16" refY="6" viewBox="0 0 16 12" orient="auto" markerUnits="userSpaceOnUse" stroke-dasharray="0,0"><path id="SvgjsPath1545" d="M0,2 L14,6 L0,11 L0,2" fill="#323232" stroke="#323232" stroke-width="2"></path></marker><marker id="SvgjsMarker1548" markerWidth="16" markerHeight="12" refX="16" refY="6" viewBox="0 0 16 12" orient="auto" markerUnits="userSpaceOnUse" stroke-dasharray="0,0"><path id="SvgjsPath1549" d="M0,2 L14,6 L0,11 L0,2" fill="#323232" stroke="#323232" stroke-width="2"></path></marker><marker id="SvgjsMarker1552" markerWidth="16" markerHeight="12" refX="16" refY="6" viewBox="0 0 16 12" orient="auto" markerUnits="userSpaceOnUse" stroke-dasharray="0,0"><path id="SvgjsPath1553" d="M0,2 L14,6 L0,11 L0,2" fill="#323232" stroke="#323232" stroke-width="2"></path></marker></defs><g id="SvgjsG1422" transform="translate(75.5,25)"><path id="SvgjsPath1423" d="M 8 0L 89 0C 99.66666666666667 0 99.66666666666667 24 89 24L 8 24C -2.6666666666666665 24 -2.6666666666666665 0 8 0Z" stroke="rgba(50,50,50,1)" stroke-width="2" fill-opacity="1" fill="#ffffff"></path><g id="SvgjsG1424"><text id="SvgjsText1425" font-family="微软雅黑" text-anchor="middle" font-size="13px" width="77px" fill="#323232" font-weight="400" align="middle" lineHeight="125%" anchor="middle" family="微软雅黑" size="13px" weight="400" font-style="" opacity="1" y="2.375" transform="rotate(0)"><tspan id="SvgjsTspan1426" dy="16" x="48.5"><tspan id="SvgjsTspan1427" style="text-decoration:;">开始</tspan></tspan></text></g></g><g id="SvgjsG1428" transform="translate(75.5,582)"><path id="SvgjsPath1429" d="M 8 0L 89 0C 99.66666666666667 0 99.66666666666667 24 89 24L 8 24C -2.6666666666666665 24 -2.6666666666666665 0 8 0Z" stroke="rgba(50,50,50,1)" stroke-width="2" fill-opacity="1" fill="#ffffff"></path><g id="SvgjsG1430"><text id="SvgjsText1431" font-family="微软雅黑" text-anchor="middle" font-size="13px" width="77px" fill="#323232" font-weight="400" align="middle" lineHeight="125%" anchor="middle" family="微软雅黑" size="13px" weight="400" font-style="" opacity="1" y="2.375" transform="rotate(0)"><tspan id="SvgjsTspan1432" dy="16" x="48.5"><tspan id="SvgjsTspan1433" style="text-decoration:;">结束</tspan></tspan></text></g></g><g id="SvgjsG1434"><path id="SvgjsPath1435" d="M124 49L124 67L124 67L124 85" stroke="#323232" stroke-width="2" fill="none" marker-end="url(#SvgjsMarker1436)"></path></g><g id="SvgjsG1438" transform="translate(25,149)"><path id="SvgjsPath1439" d="M 0 25L 99 0L 198 25L 99 50Z" stroke="rgba(50,50,50,1)" stroke-width="2" fill-opacity="1" fill="#ffffff"></path><g id="SvgjsG1440"><text id="SvgjsText1441" font-family="微软雅黑" text-anchor="middle" font-size="13px" width="178px" fill="#323232" font-weight="400" align="middle" lineHeight="125%" anchor="middle" family="微软雅黑" size="13px" weight="400" font-style="" opacity="1" y="15.625" transform="rotate(0)"><tspan id="SvgjsTspan1442" dy="16" x="99"><tspan id="SvgjsTspan1443" style="text-decoration:;">核心线程是否已满</tspan></tspan></text></g></g><g id="SvgjsG1444"><path id="SvgjsPath1445" d="M124 115L124 132L124 132L124 149" stroke="#323232" stroke-width="2" fill="none" marker-end="url(#SvgjsMarker1446)"></path></g><g id="SvgjsG1448" transform="translate(25,378)"><path id="SvgjsPath1449" d="M 0 25L 99 0L 198 25L 99 50Z" stroke="rgba(50,50,50,1)" stroke-width="2" fill-opacity="1" fill="#ffffff"></path><g id="SvgjsG1450"><text id="SvgjsText1451" font-family="微软雅黑" text-anchor="middle" font-size="13px" width="178px" fill="#323232" font-weight="400" align="middle" lineHeight="125%" anchor="middle" family="微软雅黑" size="13px" weight="400" font-style="" opacity="1" y="15.625" transform="rotate(0)"><tspan id="SvgjsTspan1452" dy="16" x="99"><tspan id="SvgjsTspan1453" style="text-decoration:;">非核心线程是否已满</tspan></tspan></text></g></g><g id="SvgjsG1454" transform="translate(25,263.5)"><path id="SvgjsPath1455" d="M 0 25L 99 0L 198 25L 99 50Z" stroke="rgba(50,50,50,1)" stroke-width="2" fill-opacity="1" fill="#ffffff"></path><g id="SvgjsG1456"><text id="SvgjsText1457" font-family="微软雅黑" text-anchor="middle" font-size="13px" width="178px" fill="#323232" font-weight="400" align="middle" lineHeight="125%" anchor="middle" family="微软雅黑" size="13px" weight="400" font-style="" opacity="1" y="15.625" transform="rotate(0)"><tspan id="SvgjsTspan1458" dy="16" x="99"><tspan id="SvgjsTspan1459" style="text-decoration:;">工作队列是否已满</tspan></tspan></text></g></g><g id="SvgjsG1460"><path id="SvgjsPath1461" d="M124 199L124 231.25L124 231.25L124 263.5" stroke="#323232" stroke-width="2" fill="none" marker-end="url(#SvgjsMarker1462)"></path><rect id="SvgjsRect1464" width="13" height="16" x="117.5" y="223.25" fill="#ffffff"></rect><text id="SvgjsText1465" font-family="微软雅黑" text-anchor="middle" font-size="13px" width="13px" fill="#323232" font-weight="400" align="top" lineHeight="16px" anchor="middle" family="微软雅黑" size="13px" weight="400" font-style="" opacity="1" y="221.625" transform="rotate(0)"><tspan id="SvgjsTspan1466" dy="16" x="124"><tspan id="SvgjsTspan1467" style="text-decoration:;">是</tspan></tspan></text></g><g id="SvgjsG1468"><path id="SvgjsPath1469" d="M124 313.5L124 345.75L124 345.75L124 378" stroke="#323232" stroke-width="2" fill="none" marker-end="url(#SvgjsMarker1470)"></path><rect id="SvgjsRect1472" width="13" height="16" x="117.5" y="337.75" fill="#ffffff"></rect><text id="SvgjsText1473" font-family="微软雅黑" text-anchor="middle" font-size="13px" width="13px" fill="#323232" font-weight="400" align="top" lineHeight="16px" anchor="middle" family="微软雅黑" size="13px" weight="400" font-style="" opacity="1" y="336.125" transform="rotate(0)"><tspan id="SvgjsTspan1474" dy="16" x="124"><tspan id="SvgjsTspan1475" style="text-decoration:;">是</tspan></tspan></text></g><g id="SvgjsG1476" transform="translate(58.5,492.5)"><path id="SvgjsPath1477" d="M 0 0L 131 0L 131 35L 0 35Z" stroke="rgba(50,50,50,1)" stroke-width="2" fill-opacity="1" fill="#ffffff"></path><g id="SvgjsG1478"><text id="SvgjsText1479" font-family="微软雅黑" text-anchor="middle" font-size="13px" width="111px" fill="#323232" font-weight="400" align="middle" lineHeight="125%" anchor="middle" family="微软雅黑" size="13px" weight="400" font-style="" opacity="1" y="7.875" transform="rotate(0)"><tspan id="SvgjsTspan1480" dy="16" x="65.5"><tspan id="SvgjsTspan1481" style="text-decoration:;">执行拒绝策略</tspan></tspan></text></g></g><g id="SvgjsG1482" transform="translate(52,85)"><path id="SvgjsPath1483" d="M 10 0L 144 0L 134 30L 0 30L 10 0Z" stroke="rgba(50,50,50,1)" stroke-width="2" fill-opacity="1" fill="#ffffff"></path><g id="SvgjsG1484"><text id="SvgjsText1485" font-family="微软雅黑" text-anchor="middle" font-size="13px" width="101px" fill="#323232" font-weight="400" align="middle" lineHeight="125%" anchor="middle" family="微软雅黑" size="13px" weight="400" font-style="" opacity="1" y="5.375" transform="rotate(0)"><tspan id="SvgjsTspan1486" dy="16" x="72.1"><tspan id="SvgjsTspan1487" style="text-decoration:;">提交任务</tspan></tspan></text></g></g><g id="SvgjsG1488"><path id="SvgjsPath1489" d="M124 428L124 460.25L124 460.25L124 492.5" stroke="#323232" stroke-width="2" fill="none" marker-end="url(#SvgjsMarker1490)"></path><rect id="SvgjsRect1492" width="13" height="16" x="117.5" y="452.25" fill="#ffffff"></rect><text id="SvgjsText1493" font-family="微软雅黑" text-anchor="middle" font-size="13px" width="13px" fill="#323232" font-weight="400" align="top" lineHeight="16px" anchor="middle" family="微软雅黑" size="13px" weight="400" font-style="" opacity="1" y="450.625" transform="rotate(0)"><tspan id="SvgjsTspan1494" dy="16" x="124"><tspan id="SvgjsTspan1495" style="text-decoration:;">是</tspan></tspan></text></g><g id="SvgjsG1496"><path id="SvgjsPath1497" d="M124 527.5L124 554.75L124 554.75L124 582" stroke="#323232" stroke-width="2" fill="none" marker-end="url(#SvgjsMarker1498)"></path></g><g id="SvgjsG1500" transform="translate(330.5,159.75)"><path id="SvgjsPath1501" d="M 0 0L 171 0L 171 28.5L 0 28.5Z" stroke="rgba(50,50,50,1)" stroke-width="2" fill-opacity="1" fill="#ffffff"></path><g id="SvgjsG1502"><text id="SvgjsText1503" font-family="微软雅黑" text-anchor="middle" font-size="13px" width="151px" fill="#323232" font-weight="400" align="middle" lineHeight="125%" anchor="middle" family="微软雅黑" size="13px" weight="400" font-style="" opacity="1" y="4.625" transform="rotate(0)"><tspan id="SvgjsTspan1504" dy="16" x="85.5"><tspan id="SvgjsTspan1505" style="text-decoration:;">新建核心线程执行任务</tspan></tspan></text></g></g><g id="SvgjsG1506"><path id="SvgjsPath1507" d="M223 174L276.75 174L276.75 174L330.5 174" stroke="#323232" stroke-width="2" fill="none" marker-end="url(#SvgjsMarker1508)"></path><rect id="SvgjsRect1510" width="13" height="16" x="270.25" y="166" fill="#ffffff"></rect><text id="SvgjsText1511" font-family="微软雅黑" text-anchor="middle" font-size="13px" width="13px" fill="#323232" font-weight="400" align="top" lineHeight="16px" anchor="middle" family="微软雅黑" size="13px" weight="400" font-style="" opacity="1" y="164.375" transform="rotate(0)"><tspan id="SvgjsTspan1512" dy="16" x="276.75"><tspan id="SvgjsTspan1513" style="text-decoration:;">否</tspan></tspan></text></g><g id="SvgjsG1514" transform="translate(330.5,274.5)"><path id="SvgjsPath1515" d="M 0 0L 171 0L 171 28L 0 28Z" stroke="rgba(50,50,50,1)" stroke-width="2" fill-opacity="1" fill="#ffffff"></path><g id="SvgjsG1516"><text id="SvgjsText1517" font-family="微软雅黑" text-anchor="middle" font-size="13px" width="151px" fill="#323232" font-weight="400" align="middle" lineHeight="125%" anchor="middle" family="微软雅黑" size="13px" weight="400" font-style="" opacity="1" y="4.375" transform="rotate(0)"><tspan id="SvgjsTspan1518" dy="16" x="85.5"><tspan id="SvgjsTspan1519" style="text-decoration:;">将任务存到工作队列</tspan></tspan></text></g></g><g id="SvgjsG1520"><path id="SvgjsPath1521" d="M223 288.5L276.75 288.5L276.75 288.5L330.5 288.5" stroke="#323232" stroke-width="2" fill="none" marker-end="url(#SvgjsMarker1522)"></path><rect id="SvgjsRect1524" width="13" height="16" x="270.25" y="280.5" fill="#ffffff"></rect><text id="SvgjsText1525" font-family="微软雅黑" text-anchor="middle" font-size="13px" width="13px" fill="#323232" font-weight="400" align="top" lineHeight="16px" anchor="middle" family="微软雅黑" size="13px" weight="400" font-style="" opacity="1" y="278.875" transform="rotate(0)"><tspan id="SvgjsTspan1526" dy="16" x="276.75"><tspan id="SvgjsTspan1527" style="text-decoration:;">否</tspan></tspan></text></g><g id="SvgjsG1528" transform="translate(330.5,387.75)"><path id="SvgjsPath1529" d="M 0 0L 171 0L 171 30.5L 0 30.5Z" stroke="rgba(50,50,50,1)" stroke-width="2" fill-opacity="1" fill="#ffffff"></path><g id="SvgjsG1530"><text id="SvgjsText1531" font-family="微软雅黑" text-anchor="middle" font-size="13px" width="151px" fill="#323232" font-weight="400" align="middle" lineHeight="125%" anchor="middle" family="微软雅黑" size="13px" weight="400" font-style="" opacity="1" y="5.625" transform="rotate(0)"><tspan id="SvgjsTspan1532" dy="16" x="85.5"><tspan id="SvgjsTspan1533" style="text-decoration:;">新建非核心线程执行任务</tspan></tspan></text></g></g><g id="SvgjsG1534"><path id="SvgjsPath1535" d="M223 403L276.75 403L276.75 403L330.5 403" stroke="#323232" stroke-width="2" fill="none" marker-end="url(#SvgjsMarker1536)"></path><rect id="SvgjsRect1538" width="13" height="16" x="270.25" y="395" fill="#ffffff"></rect><text id="SvgjsText1539" font-family="微软雅黑" text-anchor="middle" font-size="13px" width="13px" fill="#323232" font-weight="400" align="top" lineHeight="16px" anchor="middle" family="微软雅黑" size="13px" weight="400" font-style="" opacity="1" y="393.375" transform="rotate(0)"><tspan id="SvgjsTspan1540" dy="16" x="276.75"><tspan id="SvgjsTspan1541" style="text-decoration:;">否</tspan></tspan></text></g><g id="SvgjsG1542"><path id="SvgjsPath1543" d="M501.5 403L531.5 403L531.5 552L124 552L124 582" stroke="#323232" stroke-width="2" fill="none" marker-end="url(#SvgjsMarker1544)"></path></g><g id="SvgjsG1546"><path id="SvgjsPath1547" d="M501.5 288.5L531.5 288.5L531.5 552L124 552L124 582" stroke="#323232" stroke-width="2" fill="none" marker-end="url(#SvgjsMarker1548)"></path></g><g id="SvgjsG1550"><path id="SvgjsPath1551" d="M501.5 174L531.5 174L531.5 552L124 552L124 582" stroke="#323232" stroke-width="2" fill="none" marker-end="url(#SvgjsMarker1552)"></path></g><g id="SvgjsG1554" transform="translate(167,231.25)"><path id="SvgjsPath1555" d="M 0 0L 120 0L 120 40L 0 40Z" stroke="none" fill="none"></path><g id="SvgjsG1556"><text id="SvgjsText1557" font-family="微软雅黑" text-anchor="middle" font-size="13px" width="120px" fill="#cfcfcf" font-weight="400" align="middle" lineHeight="125%" anchor="middle" family="微软雅黑" size="13px" weight="400" font-style="" opacity="1" y="10.375" transform="rotate(0)"><tspan id="SvgjsTspan1558" dy="16" x="60"><tspan id="SvgjsTspan1559" style="text-decoration:;">@WindShadow</tspan></tspan></text></g></g></svg>