<svg id="SvgjsSvg1006" width="1040" height="383" xmlns="http://www.w3.org/2000/svg" version="1.1" xmlns:xlink="http://www.w3.org/1999/xlink" xmlns:svgjs="http://svgjs.com/svgjs"><defs id="SvgjsDefs1007"><marker id="SvgjsMarker1244" markerWidth="16" markerHeight="12" refX="16" refY="6" viewBox="0 0 16 12" orient="auto" markerUnits="userSpaceOnUse" stroke-dasharray="0,0"><path id="SvgjsPath1245" d="M0,2 L14,6 L0,11 L0,2" fill="#323232" stroke="#323232" stroke-width="2"></path></marker><marker id="SvgjsMarker1248" markerWidth="16" markerHeight="12" refX="16" refY="6" viewBox="0 0 16 12" orient="auto" markerUnits="userSpaceOnUse" stroke-dasharray="0,0"><path id="SvgjsPath1249" d="M0,2 L14,6 L0,11 L0,2" fill="#323232" stroke="#323232" stroke-width="2"></path></marker><marker id="SvgjsMarker1252" markerWidth="16" markerHeight="12" refX="16" refY="6" viewBox="0 0 16 12" orient="auto" markerUnits="userSpaceOnUse" stroke-dasharray="0,0"><path id="SvgjsPath1253" d="M0,2 L14,6 L0,11 L0,2" fill="#323232" stroke="#323232" stroke-width="2"></path></marker></defs><g id="SvgjsG1008" transform="translate(25,25)"><path id="SvgjsPath1009" d="M 0 4Q 0 0 4 0L 986 0Q 990 0 990 4L 990 329Q 990 333 986 333L 4 333Q 0 333 0 329Z" stroke="rgba(50,50,50,1)" stroke-width="2" fill-opacity="1" fill="#ffffff"></path><g id="SvgjsG1010"><text id="SvgjsText1011" font-family="微软雅黑" text-anchor="middle" font-size="13px" width="970px" fill="#323232" font-weight="400" align="middle" lineHeight="125%" anchor="middle" family="微软雅黑" size="13px" weight="400" font-style="" opacity="1" y="156.875" transform="rotate(0)"></text></g></g><g id="SvgjsG1012" transform="translate(44,129)"><path id="SvgjsPath1013" d="M 0 4Q 0 0 4 0L 339 0Q 343 0 343 4L 343 150Q 343 154 339 154L 4 154Q 0 154 0 150Z" stroke-dasharray="10,6" stroke="rgba(50,50,50,1)" stroke-width="2" fill-opacity="1" fill="#4caf50"></path><g id="SvgjsG1014"><text id="SvgjsText1015" font-family="微软雅黑" text-anchor="middle" font-size="13px" width="323px" fill="#323232" font-weight="400" align="middle" lineHeight="125%" anchor="middle" family="微软雅黑" size="13px" weight="400" font-style="" opacity="1" y="67.375" transform="rotate(0)"></text></g></g><g id="SvgjsG1016" transform="translate(119,135)"><path id="SvgjsPath1017" d="M 0 0L 193 0L 193 35L 0 35Z" stroke="none" fill="none"></path><g id="SvgjsG1018"><text id="SvgjsText1019" font-family="微软雅黑" text-anchor="middle" font-size="13px" width="193px" fill="#323232" font-weight="700" align="middle" lineHeight="125%" anchor="middle" family="微软雅黑" size="13px" weight="700" font-style="" opacity="1" y="-0.125" transform="rotate(0)"><tspan id="SvgjsTspan1020" dy="16" x="96.5"><tspan id="SvgjsTspan1021" style="text-decoration:;">核心线程</tspan></tspan><tspan id="SvgjsTspan1022" dy="16" x="96.5"><tspan id="SvgjsTspan1023" style="text-decoration:;">（corePoolSize）</tspan></tspan></text></g></g><g id="SvgjsG1024" transform="translate(59.5,179)"><path id="SvgjsPath1025" d="M 0 0L 98 0L 98 68L 0 68Z" stroke="rgba(50,50,50,1)" stroke-width="2" fill-opacity="1" fill="#4dd0e1"></path><g id="SvgjsG1026"><text id="SvgjsText1027" font-family="微软雅黑" text-anchor="middle" font-size="13px" width="78px" fill="#323232" font-weight="400" align="middle" lineHeight="125%" anchor="middle" family="微软雅黑" size="13px" weight="400" font-style="" opacity="1" y="24.375" transform="rotate(0)"></text></g></g><g id="SvgjsG1028" transform="translate(70.5,213)"><path id="SvgjsPath1029" d="M 0 4Q 0 0 4 0L 72 0Q 76 0 76 4L 76 24Q 76 28 72 28L 4 28Q 0 28 0 24Z" stroke="rgba(50,50,50,1)" stroke-width="2" fill-opacity="1" fill="#e1bee7"></path><g id="SvgjsG1030"><text id="SvgjsText1031" font-family="微软雅黑" text-anchor="middle" font-size="13px" width="56px" fill="#323232" font-weight="400" align="middle" lineHeight="125%" anchor="middle" family="微软雅黑" size="13px" weight="400" font-style="" opacity="1" y="4.375" transform="rotate(0)"><tspan id="SvgjsTspan1032" dy="16" x="38"><tspan id="SvgjsTspan1033" style="text-decoration:;">Task</tspan></tspan></text></g></g><g id="SvgjsG1034" transform="translate(78,185)"><path id="SvgjsPath1035" d="M 0 0L 61 0L 61 21L 0 21Z" stroke="none" fill="none"></path><g id="SvgjsG1036"><text id="SvgjsText1037" font-family="微软雅黑" text-anchor="middle" font-size="13px" width="61px" fill="#323232" font-weight="700" align="middle" lineHeight="125%" anchor="middle" family="微软雅黑" size="13px" weight="700" font-style="" opacity="1" y="0.875" transform="rotate(0)"><tspan id="SvgjsTspan1038" dy="16" x="30.5"><tspan id="SvgjsTspan1039" style="text-decoration:;">Worker</tspan></tspan></text></g></g><g id="SvgjsG1040" transform="translate(166.5,179)"><path id="SvgjsPath1041" d="M 0 0L 98 0L 98 68L 0 68Z" stroke="rgba(50,50,50,1)" stroke-width="2" fill-opacity="1" fill="#4dd0e1"></path><g id="SvgjsG1042"><text id="SvgjsText1043" font-family="微软雅黑" text-anchor="middle" font-size="13px" width="78px" fill="#323232" font-weight="400" align="middle" lineHeight="125%" anchor="middle" family="微软雅黑" size="13px" weight="400" font-style="" opacity="1" y="24.375" transform="rotate(0)"></text></g></g><g id="SvgjsG1044" transform="translate(177.5,213)"><path id="SvgjsPath1045" d="M 0 4Q 0 0 4 0L 72 0Q 76 0 76 4L 76 24Q 76 28 72 28L 4 28Q 0 28 0 24Z" stroke="rgba(50,50,50,1)" stroke-width="2" fill-opacity="1" fill="#e1bee7"></path><g id="SvgjsG1046"><text id="SvgjsText1047" font-family="微软雅黑" text-anchor="middle" font-size="13px" width="56px" fill="#323232" font-weight="400" align="middle" lineHeight="125%" anchor="middle" family="微软雅黑" size="13px" weight="400" font-style="" opacity="1" y="4.375" transform="rotate(0)"><tspan id="SvgjsTspan1048" dy="16" x="38"><tspan id="SvgjsTspan1049" style="text-decoration:;">Task</tspan></tspan></text></g></g><g id="SvgjsG1050" transform="translate(185,185)"><path id="SvgjsPath1051" d="M 0 0L 61 0L 61 21L 0 21Z" stroke="none" fill="none"></path><g id="SvgjsG1052"><text id="SvgjsText1053" font-family="微软雅黑" text-anchor="middle" font-size="13px" width="61px" fill="#323232" font-weight="700" align="middle" lineHeight="125%" anchor="middle" family="微软雅黑" size="13px" weight="700" font-style="" opacity="1" y="0.875" transform="rotate(0)"><tspan id="SvgjsTspan1054" dy="16" x="30.5"><tspan id="SvgjsTspan1055" style="text-decoration:;">Worker</tspan></tspan></text></g></g><g id="SvgjsG1056" transform="translate(273.5,179)"><path id="SvgjsPath1057" d="M 0 0L 98 0L 98 68L 0 68Z" stroke="rgba(50,50,50,1)" stroke-width="2" fill-opacity="1" fill="#4dd0e1"></path><g id="SvgjsG1058"><text id="SvgjsText1059" font-family="微软雅黑" text-anchor="middle" font-size="13px" width="78px" fill="#323232" font-weight="400" align="middle" lineHeight="125%" anchor="middle" family="微软雅黑" size="13px" weight="400" font-style="" opacity="1" y="24.375" transform="rotate(0)"></text></g></g><g id="SvgjsG1060" transform="translate(284.5,213)"><path id="SvgjsPath1061" d="M 0 4Q 0 0 4 0L 72 0Q 76 0 76 4L 76 24Q 76 28 72 28L 4 28Q 0 28 0 24Z" stroke="rgba(50,50,50,1)" stroke-width="2" fill-opacity="1" fill="#e1bee7"></path><g id="SvgjsG1062"><text id="SvgjsText1063" font-family="微软雅黑" text-anchor="middle" font-size="13px" width="56px" fill="#323232" font-weight="400" align="middle" lineHeight="125%" anchor="middle" family="微软雅黑" size="13px" weight="400" font-style="" opacity="1" y="4.375" transform="rotate(0)"><tspan id="SvgjsTspan1064" dy="16" x="38"><tspan id="SvgjsTspan1065" style="text-decoration:;">Task</tspan></tspan></text></g></g><g id="SvgjsG1066" transform="translate(292,185)"><path id="SvgjsPath1067" d="M 0 0L 61 0L 61 21L 0 21Z" stroke="none" fill="none"></path><g id="SvgjsG1068"><text id="SvgjsText1069" font-family="微软雅黑" text-anchor="middle" font-size="13px" width="61px" fill="#323232" font-weight="700" align="middle" lineHeight="125%" anchor="middle" family="微软雅黑" size="13px" weight="700" font-style="" opacity="1" y="0.875" transform="rotate(0)"><tspan id="SvgjsTspan1070" dy="16" x="30.5"><tspan id="SvgjsTspan1071" style="text-decoration:;">Worker</tspan></tspan></text></g></g><g id="SvgjsG1072" transform="translate(44,297)"><path id="SvgjsPath1073" d="M 0 0L 745.25 0L 745.25 47L 0 47Z" stroke="rgba(50,50,50,1)" stroke-width="2" fill-opacity="1" fill="#ba68c8"></path><g id="SvgjsG1074"><text id="SvgjsText1075" font-family="微软雅黑" text-anchor="middle" font-size="13px" width="726px" fill="#323232" font-weight="400" align="middle" lineHeight="125%" anchor="middle" family="微软雅黑" size="13px" weight="400" font-style="" opacity="1" y="13.875" transform="rotate(0)"></text></g></g><g id="SvgjsG1076" transform="translate(59,308)"><path id="SvgjsPath1077" d="M 0 4Q 0 0 4 0L 72 0Q 76 0 76 4L 76 24Q 76 28 72 28L 4 28Q 0 28 0 24Z" stroke="rgba(50,50,50,1)" stroke-width="2" fill-opacity="1" fill="#e1bee7"></path><g id="SvgjsG1078"><text id="SvgjsText1079" font-family="微软雅黑" text-anchor="middle" font-size="13px" width="56px" fill="#323232" font-weight="400" align="middle" lineHeight="125%" anchor="middle" family="微软雅黑" size="13px" weight="400" font-style="" opacity="1" y="4.375" transform="rotate(0)"><tspan id="SvgjsTspan1080" dy="16" x="38"><tspan id="SvgjsTspan1081" style="text-decoration:;">Task</tspan></tspan></text></g></g><g id="SvgjsG1082" transform="translate(143.5,308)"><path id="SvgjsPath1083" d="M 0 4Q 0 0 4 0L 72 0Q 76 0 76 4L 76 24Q 76 28 72 28L 4 28Q 0 28 0 24Z" stroke="rgba(50,50,50,1)" stroke-width="2" fill-opacity="1" fill="#e1bee7"></path><g id="SvgjsG1084"><text id="SvgjsText1085" font-family="微软雅黑" text-anchor="middle" font-size="13px" width="56px" fill="#323232" font-weight="400" align="middle" lineHeight="125%" anchor="middle" family="微软雅黑" size="13px" weight="400" font-style="" opacity="1" y="4.375" transform="rotate(0)"><tspan id="SvgjsTspan1086" dy="16" x="38"><tspan id="SvgjsTspan1087" style="text-decoration:;">Task</tspan></tspan></text></g></g><g id="SvgjsG1088" transform="translate(697,308)"><path id="SvgjsPath1089" d="M 0 4Q 0 0 4 0L 72 0Q 76 0 76 4L 76 24Q 76 28 72 28L 4 28Q 0 28 0 24Z" stroke="rgba(50,50,50,1)" stroke-width="2" fill-opacity="1" fill="#e1bee7"></path><g id="SvgjsG1090"><text id="SvgjsText1091" font-family="微软雅黑" text-anchor="middle" font-size="13px" width="56px" fill="#323232" font-weight="400" align="middle" lineHeight="125%" anchor="middle" family="微软雅黑" size="13px" weight="400" font-style="" opacity="1" y="4.375" transform="rotate(0)"><tspan id="SvgjsTspan1092" dy="16" x="38"><tspan id="SvgjsTspan1093" style="text-decoration:;">Task</tspan></tspan></text></g></g><g id="SvgjsG1094" transform="translate(387.5,129)"><path id="SvgjsPath1095" d="M 0 4Q 0 0 4 0L 393.5 0Q 397.5 0 397.5 4L 397.5 150Q 397.5 154 393.5 154L 4 154Q 0 154 0 150Z" stroke-dasharray="10,6" stroke="rgba(50,50,50,1)" stroke-width="2" fill-opacity="1" fill="#ffe0b2"></path><g id="SvgjsG1096"><text id="SvgjsText1097" font-family="微软雅黑" text-anchor="middle" font-size="13px" width="378px" fill="#323232" font-weight="400" align="middle" lineHeight="125%" anchor="middle" family="微软雅黑" size="13px" weight="400" font-style="" opacity="1" y="67.375" transform="rotate(0)"></text></g></g><g id="SvgjsG1098" transform="translate(418.5,132)"><path id="SvgjsPath1099" d="M 0 0L 283 0L 283 36L 0 36Z" stroke="none" fill="none"></path><g id="SvgjsG1100"><text id="SvgjsText1101" font-family="微软雅黑" text-anchor="middle" font-size="13px" width="283px" fill="#323232" font-weight="700" align="middle" lineHeight="125%" anchor="middle" family="微软雅黑" size="13px" weight="700" font-style="" opacity="1" y="0.375" transform="rotate(0)"><tspan id="SvgjsTspan1102" dy="16" x="141.5"><tspan id="SvgjsTspan1103" style="text-decoration:;">非核心线程</tspan></tspan><tspan id="SvgjsTspan1104" dy="16" x="141.5"><tspan id="SvgjsTspan1105" style="text-decoration:;">(maximumPoolSize - corePoolSize)</tspan></tspan></text></g></g><g id="SvgjsG1106" transform="translate(403.5,179)"><path id="SvgjsPath1107" d="M 0 0L 98 0L 98 68L 0 68Z" stroke="rgba(50,50,50,1)" stroke-width="2" fill-opacity="1" fill="#b2ebf2"></path><g id="SvgjsG1108"><text id="SvgjsText1109" font-family="微软雅黑" text-anchor="middle" font-size="13px" width="78px" fill="#323232" font-weight="400" align="middle" lineHeight="125%" anchor="middle" family="微软雅黑" size="13px" weight="400" font-style="" opacity="1" y="24.375" transform="rotate(0)"></text></g></g><g id="SvgjsG1110" transform="translate(414.5,213)"><path id="SvgjsPath1111" d="M 0 4Q 0 0 4 0L 72 0Q 76 0 76 4L 76 24Q 76 28 72 28L 4 28Q 0 28 0 24Z" stroke="rgba(50,50,50,1)" stroke-width="2" fill-opacity="1" fill="#e1bee7"></path><g id="SvgjsG1112"><text id="SvgjsText1113" font-family="微软雅黑" text-anchor="middle" font-size="13px" width="56px" fill="#323232" font-weight="400" align="middle" lineHeight="125%" anchor="middle" family="微软雅黑" size="13px" weight="400" font-style="" opacity="1" y="4.375" transform="rotate(0)"><tspan id="SvgjsTspan1114" dy="16" x="38"><tspan id="SvgjsTspan1115" style="text-decoration:;">Task</tspan></tspan></text></g></g><g id="SvgjsG1116" transform="translate(422,185)"><path id="SvgjsPath1117" d="M 0 0L 61 0L 61 21L 0 21Z" stroke="none" fill="none"></path><g id="SvgjsG1118"><text id="SvgjsText1119" font-family="微软雅黑" text-anchor="middle" font-size="13px" width="61px" fill="#323232" font-weight="700" align="middle" lineHeight="125%" anchor="middle" family="微软雅黑" size="13px" weight="700" font-style="" opacity="1" y="0.875" transform="rotate(0)"><tspan id="SvgjsTspan1120" dy="16" x="30.5"><tspan id="SvgjsTspan1121" style="text-decoration:;">Worker</tspan></tspan></text></g></g><g id="SvgjsG1122" transform="translate(510.5,179)"><path id="SvgjsPath1123" d="M 0 0L 98 0L 98 68L 0 68Z" stroke="rgba(50,50,50,1)" stroke-width="2" fill-opacity="1" fill="#b2ebf2"></path><g id="SvgjsG1124"><text id="SvgjsText1125" font-family="微软雅黑" text-anchor="middle" font-size="13px" width="78px" fill="#323232" font-weight="400" align="middle" lineHeight="125%" anchor="middle" family="微软雅黑" size="13px" weight="400" font-style="" opacity="1" y="24.375" transform="rotate(0)"></text></g></g><g id="SvgjsG1126" transform="translate(521.5,213)"><path id="SvgjsPath1127" d="M 0 4Q 0 0 4 0L 72 0Q 76 0 76 4L 76 24Q 76 28 72 28L 4 28Q 0 28 0 24Z" stroke="rgba(50,50,50,1)" stroke-width="2" fill-opacity="1" fill="#e1bee7"></path><g id="SvgjsG1128"><text id="SvgjsText1129" font-family="微软雅黑" text-anchor="middle" font-size="13px" width="56px" fill="#323232" font-weight="400" align="middle" lineHeight="125%" anchor="middle" family="微软雅黑" size="13px" weight="400" font-style="" opacity="1" y="4.375" transform="rotate(0)"><tspan id="SvgjsTspan1130" dy="16" x="38"><tspan id="SvgjsTspan1131" style="text-decoration:;">Task</tspan></tspan></text></g></g><g id="SvgjsG1132" transform="translate(529,185)"><path id="SvgjsPath1133" d="M 0 0L 61 0L 61 21L 0 21Z" stroke="none" fill="none"></path><g id="SvgjsG1134"><text id="SvgjsText1135" font-family="微软雅黑" text-anchor="middle" font-size="13px" width="61px" fill="#323232" font-weight="700" align="middle" lineHeight="125%" anchor="middle" family="微软雅黑" size="13px" weight="700" font-style="" opacity="1" y="0.875" transform="rotate(0)"><tspan id="SvgjsTspan1136" dy="16" x="30.5"><tspan id="SvgjsTspan1137" style="text-decoration:;">Worker</tspan></tspan></text></g></g><g id="SvgjsG1138" transform="translate(617.5,179)"><path id="SvgjsPath1139" d="M 0 0L 98 0L 98 68L 0 68Z" stroke="rgba(50,50,50,1)" stroke-width="2" fill-opacity="1" fill="#b2ebf2"></path><g id="SvgjsG1140"><text id="SvgjsText1141" font-family="微软雅黑" text-anchor="middle" font-size="13px" width="78px" fill="#323232" font-weight="400" align="middle" lineHeight="125%" anchor="middle" family="微软雅黑" size="13px" weight="400" font-style="" opacity="1" y="24.375" transform="rotate(0)"></text></g></g><g id="SvgjsG1142" transform="translate(628.5,213)"><path id="SvgjsPath1143" d="M 0 4Q 0 0 4 0L 72 0Q 76 0 76 4L 76 24Q 76 28 72 28L 4 28Q 0 28 0 24Z" stroke="rgba(50,50,50,1)" stroke-width="2" fill-opacity="1" fill="#e1bee7"></path><g id="SvgjsG1144"><text id="SvgjsText1145" font-family="微软雅黑" text-anchor="middle" font-size="13px" width="56px" fill="#323232" font-weight="400" align="middle" lineHeight="125%" anchor="middle" family="微软雅黑" size="13px" weight="400" font-style="" opacity="1" y="4.375" transform="rotate(0)"><tspan id="SvgjsTspan1146" dy="16" x="38"><tspan id="SvgjsTspan1147" style="text-decoration:;">Task</tspan></tspan></text></g></g><g id="SvgjsG1148" transform="translate(636,185)"><path id="SvgjsPath1149" d="M 0 0L 61 0L 61 21L 0 21Z" stroke="none" fill="none"></path><g id="SvgjsG1150"><text id="SvgjsText1151" font-family="微软雅黑" text-anchor="middle" font-size="13px" width="61px" fill="#323232" font-weight="700" align="middle" lineHeight="125%" anchor="middle" family="微软雅黑" size="13px" weight="700" font-style="" opacity="1" y="0.875" transform="rotate(0)"><tspan id="SvgjsTspan1152" dy="16" x="30.5"><tspan id="SvgjsTspan1153" style="text-decoration:;">Worker</tspan></tspan></text></g></g><g id="SvgjsG1154" transform="translate(801,74)"><path id="SvgjsPath1155" d="M 0 4Q 0 0 4 0L 193 0Q 197 0 197 4L 197 266Q 197 270 193 270L 4 270Q 0 270 0 266Z" stroke="rgba(50,50,50,1)" stroke-width="2" fill-opacity="1" fill="#e57373"></path><g id="SvgjsG1156"><text id="SvgjsText1157" font-family="微软雅黑" text-anchor="middle" font-size="13px" width="177px" fill="#323232" font-weight="400" align="middle" lineHeight="125%" anchor="middle" family="微软雅黑" size="13px" weight="400" font-style="" opacity="1" y="125.375" transform="rotate(0)"></text></g></g><g id="SvgjsG1158" transform="translate(859,71.5)"><path id="SvgjsPath1159" d="M 0 0L 82 0L 82 26.5L 0 26.5Z" stroke="none" fill="none"></path><g id="SvgjsG1160"><text id="SvgjsText1161" font-family="微软雅黑" text-anchor="middle" font-size="13px" width="82px" fill="#323232" font-weight="700" align="middle" lineHeight="125%" anchor="middle" family="微软雅黑" size="13px" weight="700" font-style="" opacity="1" y="3.625" transform="rotate(0)"><tspan id="SvgjsTspan1162" dy="16" x="41"><tspan id="SvgjsTspan1163" style="text-decoration:;">拒绝策略</tspan></tspan></text></g></g><g id="SvgjsG1164" transform="translate(813,102)"><path id="SvgjsPath1165" d="M 0 0L 171 0L 171 55L 0 55Z" stroke="rgba(50,50,50,1)" stroke-width="2" fill-opacity="1" fill="#7b1fa2"></path><g id="SvgjsG1166"><text id="SvgjsText1167" font-family="微软雅黑" text-anchor="middle" font-size="13px" width="151px" fill="#ffffff" font-weight="700" align="middle" lineHeight="125%" anchor="middle" family="微软雅黑" size="13px" weight="700" font-style="" opacity="1" y="9.875" transform="rotate(0)"><tspan id="SvgjsTspan1168" dy="16" x="85.5"><tspan id="SvgjsTspan1169" style="text-decoration:;">AbortPolicy</tspan></tspan><tspan id="SvgjsTspan1170" dy="16" x="85.5"><tspan id="SvgjsTspan1171" style="text-decoration:;">抛出拒绝执行异常</tspan></tspan></text></g></g><g id="SvgjsG1172" transform="translate(813,161)"><path id="SvgjsPath1173" d="M 0 0L 171 0L 171 56L 0 56Z" stroke="rgba(50,50,50,1)" stroke-width="2" fill-opacity="1" fill="#7b1fa2"></path><g id="SvgjsG1174"><text id="SvgjsText1175" font-family="微软雅黑" text-anchor="middle" font-size="13px" width="151px" fill="#ffffff" font-weight="700" align="middle" lineHeight="125%" anchor="middle" family="微软雅黑" size="13px" weight="700" font-style="" opacity="1" y="10.375" transform="rotate(0)"><tspan id="SvgjsTspan1176" dy="16" x="85.5"><tspan id="SvgjsTspan1177" style="text-decoration:;">CallerRunsPolicy</tspan></tspan><tspan id="SvgjsTspan1178" dy="16" x="85.5"><tspan id="SvgjsTspan1179" style="text-decoration:;">转由当前线程执行任务</tspan></tspan></text></g></g><g id="SvgjsG1180" transform="translate(813,221)"><path id="SvgjsPath1181" d="M 0 0L 171 0L 171 55L 0 55Z" stroke="rgba(50,50,50,1)" stroke-width="2" fill-opacity="1" fill="#7b1fa2"></path><g id="SvgjsG1182"><text id="SvgjsText1183" font-family="微软雅黑" text-anchor="middle" font-size="13px" width="151px" fill="#ffffff" font-weight="700" align="middle" lineHeight="125%" anchor="middle" family="微软雅黑" size="13px" weight="700" font-style="" opacity="1" y="9.875" transform="rotate(0)"><tspan id="SvgjsTspan1184" dy="16" x="85.5"><tspan id="SvgjsTspan1185" style="text-decoration:;">DiscardPolicy</tspan></tspan><tspan id="SvgjsTspan1186" dy="16" x="85.5"><tspan id="SvgjsTspan1187" style="text-decoration:;">丢弃该任务</tspan></tspan></text></g></g><g id="SvgjsG1188" transform="translate(813.5,280)"><path id="SvgjsPath1189" d="M 0 0L 171 0L 171 55L 0 55Z" stroke="rgba(50,50,50,1)" stroke-width="2" fill-opacity="1" fill="#7b1fa2"></path><g id="SvgjsG1190"><text id="SvgjsText1191" font-family="微软雅黑" text-anchor="middle" font-size="13px" width="151px" fill="#ffffff" font-weight="700" align="middle" lineHeight="125%" anchor="middle" family="微软雅黑" size="13px" weight="700" font-style="" opacity="1" y="9.875" transform="rotate(0)"><tspan id="SvgjsTspan1192" dy="16" x="85.5"><tspan id="SvgjsTspan1193" style="text-decoration:;">DiscardOldestPolicy</tspan></tspan><tspan id="SvgjsTspan1194" dy="16" x="85.5"><tspan id="SvgjsTspan1195" style="text-decoration:;">丢弃最早的未处理的任务</tspan></tspan></text></g></g><g id="SvgjsG1196" transform="translate(228,308)"><path id="SvgjsPath1197" d="M 0 4Q 0 0 4 0L 72 0Q 76 0 76 4L 76 24Q 76 28 72 28L 4 28Q 0 28 0 24Z" stroke="rgba(50,50,50,1)" stroke-width="2" fill-opacity="1" fill="#e1bee7"></path><g id="SvgjsG1198"><text id="SvgjsText1199" font-family="微软雅黑" text-anchor="middle" font-size="13px" width="56px" fill="#323232" font-weight="400" align="middle" lineHeight="125%" anchor="middle" family="微软雅黑" size="13px" weight="400" font-style="" opacity="1" y="4.375" transform="rotate(0)"><tspan id="SvgjsTspan1200" dy="16" x="38"><tspan id="SvgjsTspan1201" style="text-decoration:;">……</tspan></tspan></text></g></g><g id="SvgjsG1202"><path id="SvgjsPath1203" d="M315 324L501.5 324L501.5 324L688 324" stroke-dasharray="3,3" stroke="#323232" stroke-width="2" fill="none"></path></g><g id="SvgjsG1204" transform="translate(349,297.5)"><path id="SvgjsPath1205" d="M 0 0L 120 0L 120 21.5L 0 21.5Z" stroke="none" fill="none"></path><g id="SvgjsG1206"><text id="SvgjsText1207" font-family="微软雅黑" text-anchor="middle" font-size="15px" width="120px" fill="#323232" font-weight="700" align="middle" lineHeight="125%" anchor="middle" family="微软雅黑" size="15px" weight="700" font-style="" opacity="1" y="-0.125" transform="rotate(0)"><tspan id="SvgjsTspan1208" dy="18" x="60"><tspan id="SvgjsTspan1209" style="text-decoration:;">工作队列</tspan></tspan></text></g></g><g id="SvgjsG1210" transform="translate(44,77)"><path id="SvgjsPath1211" d="M 0 0L 741 0L 741 37.5L 0 37.5Z" stroke="rgba(50,50,50,1)" stroke-width="2" fill-opacity="1" fill="#9e9e9e"></path><g id="SvgjsG1212"><text id="SvgjsText1213" font-family="微软雅黑" text-anchor="middle" font-size="15px" width="721px" fill="#323232" font-weight="700" align="middle" lineHeight="125%" anchor="middle" family="微软雅黑" size="15px" weight="700" font-style="" opacity="1" y="7.875" transform="rotate(0)"><tspan id="SvgjsTspan1214" dy="18" x="370.5"><tspan id="SvgjsTspan1215" style="text-decoration:;">线程工厂</tspan></tspan></text></g></g><g id="SvgjsG1216" transform="translate(254.5,129)"><path id="SvgjsPath1217" d="M 0 0L 121.5 0L 121.5 40L 0 40Z" stroke="none" fill="none"></path><g id="SvgjsG1218"><text id="SvgjsText1219" font-family="微软雅黑" text-anchor="middle" font-size="13px" width="122px" fill="#cfcfcf" font-weight="400" align="middle" lineHeight="125%" anchor="middle" family="微软雅黑" size="13px" weight="400" font-style="" opacity="1" y="10.375" transform="rotate(0)"><tspan id="SvgjsTspan1220" dy="16" x="61"><tspan id="SvgjsTspan1221" style="text-decoration:;">@WindShadow</tspan></tspan></text></g></g><g id="SvgjsG1222" transform="translate(735.5,139)"><path id="SvgjsPath1223" d="M 0 0L 37.5 0L 37.5 134L 0 134Z" stroke="rgba(50,50,50,1)" stroke-width="2" fill-opacity="1" fill="#006064"></path><g id="SvgjsG1224"><text id="SvgjsText1225" font-family="微软雅黑" text-anchor="middle" font-size="13px" width="18px" fill="#ffffff" font-weight="700" align="middle" lineHeight="125%" anchor="middle" family="微软雅黑" size="13px" weight="700" font-style="" opacity="1" y="1.375" transform="rotate(0)"><tspan id="SvgjsTspan1226" dy="16" x="19"><tspan id="SvgjsTspan1227" style="text-decoration:;">空</tspan></tspan><tspan id="SvgjsTspan1228" dy="16" x="19"><tspan id="SvgjsTspan1229" style="text-decoration:;">闲</tspan></tspan><tspan id="SvgjsTspan1230" dy="16" x="19"><tspan id="SvgjsTspan1231" style="text-decoration:;">后</tspan></tspan><tspan id="SvgjsTspan1232" dy="16" x="19"><tspan id="SvgjsTspan1233" style="text-decoration:;">的</tspan></tspan><tspan id="SvgjsTspan1234" dy="16" x="19"><tspan id="SvgjsTspan1235" style="text-decoration:;">存</tspan></tspan><tspan id="SvgjsTspan1236" dy="16" x="19"><tspan id="SvgjsTspan1237" style="text-decoration:;">活</tspan></tspan><tspan id="SvgjsTspan1238" dy="16" x="19"><tspan id="SvgjsTspan1239" style="text-decoration:;">时</tspan></tspan><tspan id="SvgjsTspan1240" dy="16" x="19"><tspan id="SvgjsTspan1241" style="text-decoration:;">间</tspan></tspan></text></g></g><g id="SvgjsG1242"><path id="SvgjsPath1243" d="M666.5 247L666.5 264.6319194266973L735.7587704831436 264.6319194266973" stroke="#323232" stroke-width="2" fill="none" marker-end="url(#SvgjsMarker1244)"></path></g><g id="SvgjsG1246"><path id="SvgjsPath1247" d="M559.5 247L559.5 265.3899098007664L735.9733628866422 265.3899098007664" stroke="#323232" stroke-width="2" fill="none" marker-end="url(#SvgjsMarker1248)"></path></g><g id="SvgjsG1250"><path id="SvgjsPath1251" d="M452.5 247L452.5 265.04167216781514L736.3441545092566 265.04167216781514" stroke="#323232" stroke-width="2" fill="none" marker-end="url(#SvgjsMarker1252)"></path></g><g id="SvgjsG1254" transform="translate(384,31)"><path id="SvgjsPath1255" d="M 0 0L 273 0L 273 20L 0 20Z" stroke="none" fill="none"></path><g id="SvgjsG1256"><text id="SvgjsText1257" font-family="微软雅黑" text-anchor="middle" font-size="16px" width="273px" fill="#323232" font-weight="700" align="middle" lineHeight="125%" anchor="middle" family="微软雅黑" size="16px" weight="700" font-style="" opacity="1" y="-2" transform="rotate(0)"><tspan id="SvgjsTspan1258" dy="20" x="136.5"><tspan id="SvgjsTspan1259" style="text-decoration:;">Java 线程池 ThreadPoolExecutor</tspan></tspan></text></g></g></svg>