<svg id="SvgjsSvg1006" width="1282.71875" height="1380" xmlns="http://www.w3.org/2000/svg" version="1.1" xmlns:xlink="http://www.w3.org/1999/xlink" xmlns:svgjs="http://svgjs.com/svgjs"><defs id="SvgjsDefs1007"><marker id="SvgjsMarker1010" markerWidth="16" markerHeight="12" refX="16" refY="6" viewBox="0 0 16 12" orient="auto" markerUnits="userSpaceOnUse" stroke-dasharray="0,0"><path id="SvgjsPath1011" d="M0,2 L14,6 L0,11 L0,2" fill="#323232" stroke="#323232" stroke-width="2"></path></marker><marker id="SvgjsMarker1044" markerWidth="16" markerHeight="12" refX="16" refY="6" viewBox="0 0 16 12" orient="auto" markerUnits="userSpaceOnUse" stroke-dasharray="0,0"><path id="SvgjsPath1045" d="M0,2 L14,6 L0,11 L0,2" fill="#323232" stroke="#323232" stroke-width="2"></path></marker><marker id="SvgjsMarker1056" markerWidth="16" markerHeight="12" refX="16" refY="6" viewBox="0 0 16 12" orient="auto" markerUnits="userSpaceOnUse" stroke-dasharray="0,0"><path id="SvgjsPath1057" d="M0,2 L14,6 L0,11 L0,2" fill="#323232" stroke="#323232" stroke-width="2"></path></marker><marker id="SvgjsMarker1066" markerWidth="16" markerHeight="12" refX="16" refY="6" viewBox="0 0 16 12" orient="auto" markerUnits="userSpaceOnUse" stroke-dasharray="0,0"><path id="SvgjsPath1067" d="M0,2 L14,6 L0,11 L0,2" fill="#323232" stroke="#323232" stroke-width="2"></path></marker><marker id="SvgjsMarker1074" markerWidth="16" markerHeight="12" refX="16" refY="6" viewBox="0 0 16 12" orient="auto" markerUnits="userSpaceOnUse" stroke-dasharray="0,0"><path id="SvgjsPath1075" d="M0,2 L14,6 L0,11 L0,2" fill="#323232" stroke="#323232" stroke-width="2"></path></marker><marker id="SvgjsMarker1086" markerWidth="16" markerHeight="12" refX="16" refY="6" viewBox="0 0 16 12" orient="auto" markerUnits="userSpaceOnUse" stroke-dasharray="0,0"><path id="SvgjsPath1087" d="M0,2 L14,6 L0,11 L0,2" fill="#323232" stroke="#323232" stroke-width="2"></path></marker><marker id="SvgjsMarker1100" markerWidth="16" markerHeight="12" refX="16" refY="6" viewBox="0 0 16 12" orient="auto" markerUnits="userSpaceOnUse" stroke-dasharray="0,0"><path id="SvgjsPath1101" d="M0,2 L14,6 L0,11 L0,2" fill="#323232" stroke="#323232" stroke-width="2"></path></marker><marker id="SvgjsMarker1116" markerWidth="16" markerHeight="12" refX="16" refY="6" viewBox="0 0 16 12" orient="auto" markerUnits="userSpaceOnUse" stroke-dasharray="0,0"><path id="SvgjsPath1117" d="M0,2 L14,6 L0,11 L0,2" fill="#323232" stroke="#323232" stroke-width="2"></path></marker><marker id="SvgjsMarker1148" markerWidth="16" markerHeight="12" refX="16" refY="6" viewBox="0 0 16 12" orient="auto" markerUnits="userSpaceOnUse" stroke-dasharray="0,0"><path id="SvgjsPath1149" d="M0,2 L14,6 L0,11 L0,2" fill="#323232" stroke="#323232" stroke-width="2"></path></marker><marker id="SvgjsMarker1152" markerWidth="16" markerHeight="12" refX="16" refY="6" viewBox="0 0 16 12" orient="auto" markerUnits="userSpaceOnUse" stroke-dasharray="0,0"><path id="SvgjsPath1153" d="M0,2 L14,6 L0,11 L0,2" fill="#323232" stroke="#323232" stroke-width="2"></path></marker><marker id="SvgjsMarker1160" markerWidth="16" markerHeight="12" refX="16" refY="6" viewBox="0 0 16 12" orient="auto" markerUnits="userSpaceOnUse" stroke-dasharray="0,0"><path id="SvgjsPath1161" d="M0,2 L14,6 L0,11 L0,2" fill="#323232" stroke="#323232" stroke-width="2"></path></marker><marker id="SvgjsMarker1168" markerWidth="16" markerHeight="12" refX="16" refY="6" viewBox="0 0 16 12" orient="auto" markerUnits="userSpaceOnUse" stroke-dasharray="0,0"><path id="SvgjsPath1169" d="M0,2 L14,6 L0,11 L0,2" fill="#323232" stroke="#323232" stroke-width="2"></path></marker><marker id="SvgjsMarker1176" markerWidth="16" markerHeight="12" refX="16" refY="6" viewBox="0 0 16 12" orient="auto" markerUnits="userSpaceOnUse" stroke-dasharray="0,0"><path id="SvgjsPath1177" d="M0,2 L14,6 L0,11 L0,2" fill="#323232" stroke="#323232" stroke-width="2"></path></marker><marker id="SvgjsMarker1184" markerWidth="16" markerHeight="12" refX="16" refY="6" viewBox="0 0 16 12" orient="auto" markerUnits="userSpaceOnUse" stroke-dasharray="0,0"><path id="SvgjsPath1185" d="M0,2 L14,6 L0,11 L0,2" fill="#323232" stroke="#323232" stroke-width="2"></path></marker><marker id="SvgjsMarker1224" markerWidth="16" markerHeight="12" refX="16" refY="6" viewBox="0 0 16 12" orient="auto" markerUnits="userSpaceOnUse" stroke-dasharray="0,0"><path id="SvgjsPath1225" d="M0,2 L14,6 L0,11 L0,2" fill="#323232" stroke="#323232" stroke-width="2"></path></marker><marker id="SvgjsMarker1232" markerWidth="16" markerHeight="12" refX="16" refY="6" viewBox="0 0 16 12" orient="auto" markerUnits="userSpaceOnUse" stroke-dasharray="0,0"><path id="SvgjsPath1233" d="M0,2 L14,6 L0,11 L0,2" fill="#323232" stroke="#323232" stroke-width="2"></path></marker><marker id="SvgjsMarker1248" markerWidth="16" markerHeight="12" refX="16" refY="6" viewBox="0 0 16 12" orient="auto" markerUnits="userSpaceOnUse" stroke-dasharray="0,0"><path id="SvgjsPath1249" d="M0,2 L14,6 L0,11 L0,2" fill="#323232" stroke="#323232" stroke-width="2"></path></marker><marker id="SvgjsMarker1256" markerWidth="16" markerHeight="12" refX="16" refY="6" viewBox="0 0 16 12" orient="auto" markerUnits="userSpaceOnUse" stroke-dasharray="0,0"><path id="SvgjsPath1257" d="M0,2 L14,6 L0,11 L0,2" fill="#323232" stroke="#323232" stroke-width="2"></path></marker><marker id="SvgjsMarker1260" markerWidth="16" markerHeight="12" refX="16" refY="6" viewBox="0 0 16 12" orient="auto" markerUnits="userSpaceOnUse" stroke-dasharray="0,0"><path id="SvgjsPath1261" d="M0,2 L14,6 L0,11 L0,2" fill="#323232" stroke="#323232" stroke-width="2"></path></marker><marker id="SvgjsMarker1268" markerWidth="16" markerHeight="12" refX="16" refY="6" viewBox="0 0 16 12" orient="auto" markerUnits="userSpaceOnUse" stroke-dasharray="0,0"><path id="SvgjsPath1269" d="M0,2 L14,6 L0,11 L0,2" fill="#323232" stroke="#323232" stroke-width="2"></path></marker><marker id="SvgjsMarker1298" markerWidth="16" markerHeight="12" refX="16" refY="6" viewBox="0 0 16 12" orient="auto" markerUnits="userSpaceOnUse" stroke-dasharray="0,0"><path id="SvgjsPath1299" d="M0,2 L14,6 L0,11 L0,2" fill="#323232" stroke="#323232" stroke-width="2"></path></marker><marker id="SvgjsMarker1306" markerWidth="16" markerHeight="12" refX="16" refY="6" viewBox="0 0 16 12" orient="auto" markerUnits="userSpaceOnUse" stroke-dasharray="0,0"><path id="SvgjsPath1307" d="M0,2 L14,6 L0,11 L0,2" fill="#323232" stroke="#323232" stroke-width="2"></path></marker><marker id="SvgjsMarker1326" markerWidth="16" markerHeight="12" refX="16" refY="6" viewBox="0 0 16 12" orient="auto" markerUnits="userSpaceOnUse" stroke-dasharray="0,0"><path id="SvgjsPath1327" d="M0,2 L14,6 L0,11 L0,2" fill="#323232" stroke="#323232" stroke-width="2"></path></marker><marker id="SvgjsMarker1330" markerWidth="16" markerHeight="12" refX="16" refY="6" viewBox="0 0 16 12" orient="auto" markerUnits="userSpaceOnUse" stroke-dasharray="0,0"><path id="SvgjsPath1331" d="M0,2 L14,6 L0,11 L0,2" fill="#323232" stroke="#323232" stroke-width="2"></path></marker><marker id="SvgjsMarker1358" markerWidth="16" markerHeight="12" refX="16" refY="6" viewBox="0 0 16 12" orient="auto" markerUnits="userSpaceOnUse" stroke-dasharray="0,0"><path id="SvgjsPath1359" d="M0,2 L14,6 L0,11 L0,2" fill="#323232" stroke="#323232" stroke-width="2"></path></marker><marker id="SvgjsMarker1366" markerWidth="16" markerHeight="12" refX="16" refY="6" viewBox="0 0 16 12" orient="auto" markerUnits="userSpaceOnUse" stroke-dasharray="0,0"><path id="SvgjsPath1367" d="M0,2 L14,6 L0,11 L0,2" fill="#323232" stroke="#323232" stroke-width="2"></path></marker><marker id="SvgjsMarker1382" markerWidth="16" markerHeight="12" refX="16" refY="6" viewBox="0 0 16 12" orient="auto" markerUnits="userSpaceOnUse" stroke-dasharray="0,0"><path id="SvgjsPath1383" d="M0,2 L14,6 L0,11 L0,2" fill="#323232" stroke="#323232" stroke-width="2"></path></marker><marker id="SvgjsMarker1386" markerWidth="16" markerHeight="12" refX="16" refY="6" viewBox="0 0 16 12" orient="auto" markerUnits="userSpaceOnUse" stroke-dasharray="0,0"><path id="SvgjsPath1387" d="M0,2 L14,6 L0,11 L0,2" fill="#323232" stroke="#323232" stroke-width="2"></path></marker><marker id="SvgjsMarker1390" markerWidth="16" markerHeight="12" refX="16" refY="6" viewBox="0 0 16 12" orient="auto" markerUnits="userSpaceOnUse" stroke-dasharray="0,0"><path id="SvgjsPath1391" d="M0,2 L14,6 L0,11 L0,2" fill="#323232" stroke="#323232" stroke-width="2"></path></marker><marker id="SvgjsMarker1398" markerWidth="16" markerHeight="12" refX="16" refY="6" viewBox="0 0 16 12" orient="auto" markerUnits="userSpaceOnUse" stroke-dasharray="0,0"><path id="SvgjsPath1399" d="M0,2 L14,6 L0,11 L0,2" fill="#323232" stroke="#323232" stroke-width="2"></path></marker></defs><g id="SvgjsG1008"><path id="SvgjsPath1009" d="M734.578125 1024.5L1116.21875 1024.5L1116.21875 59L660.71875 59L660.71875 83" stroke="#323232" stroke-width="2" fill="none" marker-end="url(#SvgjsMarker1010)"></path><rect id="SvgjsRect1012" width="13" height="16" x="1109.71875" y="484.82031250000006" fill="#ffffff"></rect><text id="SvgjsText1013" font-family="微软雅黑" text-anchor="middle" font-size="13px" width="13px" fill="#323232" font-weight="400" align="top" lineHeight="16px" anchor="middle" family="微软雅黑" size="13px" weight="400" font-style="" opacity="1" y="483.19531250000006" transform="rotate(0)"><tspan id="SvgjsTspan1014" dy="16" x="1116.21875"><tspan id="SvgjsTspan1015" style="text-decoration:;">是</tspan></tspan></text></g><g id="SvgjsG1016" transform="matrix(-1.8369701987210297e-16,-1,1,-1.8369701987210297e-16,502.71875,726)"><path id="SvgjsPath1017" d="M 23.5 0L 47 157L 0 157Z" stroke="none" fill-opacity="1" fill="#81c784"></path><g id="SvgjsG1018"><text id="SvgjsText1019" font-family="微软雅黑" text-anchor="middle" font-size="13px" width="27px" fill="#323232" font-weight="400" align="middle" lineHeight="125%" anchor="middle" family="微软雅黑" size="13px" weight="400" font-style="" opacity="1" y="88.5" transform="rotate(0)"></text></g></g><g id="SvgjsG1020" transform="matrix(6.123233995736766e-17,1,-1,6.123233995736766e-17,815.71875,679)"><path id="SvgjsPath1021" d="M 23.5 0L 47 157L 0 157Z" stroke="none" fill-opacity="1" fill="#4dd0e1"></path><g id="SvgjsG1022"><text id="SvgjsText1023" font-family="微软雅黑" text-anchor="middle" font-size="13px" width="27px" fill="#323232" font-weight="400" align="middle" lineHeight="125%" anchor="middle" family="微软雅黑" size="13px" weight="400" font-style="" opacity="1" y="88.5" transform="rotate(0)"></text></g></g><g id="SvgjsG1024" transform="translate(619.71875,25)"><path id="SvgjsPath1025" d="M 8 0L 74 0C 84.66666666666667 0 84.66666666666667 24 74 24L 8 24C -2.6666666666666665 24 -2.6666666666666665 0 8 0Z" stroke="rgba(50,50,50,1)" stroke-width="2" fill-opacity="1" fill="#fff9c4"></path><g id="SvgjsG1026"><text id="SvgjsText1027" font-family="微软雅黑" text-anchor="middle" font-size="13px" width="62px" fill="#323232" font-weight="400" align="middle" lineHeight="125%" anchor="middle" family="微软雅黑" size="13px" weight="400" font-style="" opacity="1" y="2.375" transform="rotate(0)"><tspan id="SvgjsTspan1028" dy="16" x="41"><tspan id="SvgjsTspan1029" style="text-decoration:;">开始</tspan></tspan></text></g></g><g id="SvgjsG1030" transform="translate(619.71875,1331)"><path id="SvgjsPath1031" d="M 8 0L 74 0C 84.66666666666667 0 84.66666666666667 24 74 24L 8 24C -2.6666666666666665 24 -2.6666666666666665 0 8 0Z" stroke="rgba(50,50,50,1)" stroke-width="2" fill-opacity="1" fill="#fff9c4"></path><g id="SvgjsG1032"><text id="SvgjsText1033" font-family="微软雅黑" text-anchor="middle" font-size="13px" width="62px" fill="#323232" font-weight="400" align="middle" lineHeight="125%" anchor="middle" family="微软雅黑" size="13px" weight="400" font-style="" opacity="1" y="2.375" transform="rotate(0)"><tspan id="SvgjsTspan1034" dy="16" x="41"><tspan id="SvgjsTspan1035" style="text-decoration:;">结束</tspan></tspan></text></g></g><g id="SvgjsG1036" transform="translate(565.21875,83)"><path id="SvgjsPath1037" d="M 0 0L 191 0L 191 35L 0 35Z" stroke="rgba(50,50,50,1)" stroke-width="2" fill-opacity="1" fill="#4dd0e1"></path><g id="SvgjsG1038"><text id="SvgjsText1039" font-family="微软雅黑" text-anchor="middle" font-size="13px" width="171px" fill="#ffffff" font-weight="700" align="middle" lineHeight="125%" anchor="middle" family="微软雅黑" size="13px" weight="700" font-style="" opacity="1" y="7.875" transform="rotate(0)"><tspan id="SvgjsTspan1040" dy="16" x="95.5"><tspan id="SvgjsTspan1041" style="text-decoration:;">超时标记 timedOut = false</tspan></tspan></text></g></g><g id="SvgjsG1042"><path id="SvgjsPath1043" d="M660.71875 49L660.71875 66L660.71875 66L660.71875 83" stroke="#323232" stroke-width="2" fill="none" marker-end="url(#SvgjsMarker1044)"></path></g><g id="SvgjsG1046" transform="translate(465.96875,167)"><path id="SvgjsPath1047" d="M 0 30.5L 194.75 0L 389.5 30.5L 194.75 61Z" stroke="rgba(50,50,50,1)" stroke-width="2" fill-opacity="1" fill="#fff9c4"></path><g id="SvgjsG1048"><text id="SvgjsText1049" font-family="微软雅黑" text-anchor="middle" font-size="13px" width="370px" fill="#323232" font-weight="400" align="middle" lineHeight="125%" anchor="middle" family="微软雅黑" size="13px" weight="400" font-style="" opacity="1" y="13.18" transform="rotate(0)"><tspan id="SvgjsTspan1050" dy="16" x="195"><tspan id="SvgjsTspan1051" style="text-decoration:;">线程池不允许继续执行未完成的任务？</tspan></tspan><tspan id="SvgjsTspan1052" dy="16" x="195"><tspan id="SvgjsTspan1053" style="text-decoration:;">即使允许，队列是否为空？</tspan></tspan></text></g></g><g id="SvgjsG1054"><path id="SvgjsPath1055" d="M660.71875 118L660.71875 142.5L660.71875 142.5L660.71875 167" stroke="#323232" stroke-width="2" fill="none" marker-end="url(#SvgjsMarker1056)"></path></g><g id="SvgjsG1058" transform="translate(823.59375,1237)"><path id="SvgjsPath1059" d="M 0 0L 107 0L 107 30L 0 30Z" stroke="rgba(50,50,50,1)" stroke-width="2" fill-opacity="1" fill="#ffb74d"></path><g id="SvgjsG1060"><text id="SvgjsText1061" font-family="微软雅黑" text-anchor="middle" font-size="13px" width="87px" fill="#323232" font-weight="400" align="middle" lineHeight="125%" anchor="middle" family="微软雅黑" size="13px" weight="400" font-style="" opacity="1" y="5.375" transform="rotate(0)"><tspan id="SvgjsTspan1062" dy="16" x="53.5"><tspan id="SvgjsTspan1063" style="text-decoration:;">返回null</tspan></tspan></text></g></g><g id="SvgjsG1064"><path id="SvgjsPath1065" d="M855.46875 197.5L877.09375 197.5L877.09375 1237" stroke="#323232" stroke-width="2" fill="none" marker-end="url(#SvgjsMarker1066)"></path><rect id="SvgjsRect1068" width="13" height="16" x="870.59375" y="698.4375" fill="#ffffff"></rect><text id="SvgjsText1069" font-family="微软雅黑" text-anchor="middle" font-size="13px" width="13px" fill="#323232" font-weight="400" align="top" lineHeight="16px" anchor="middle" family="微软雅黑" size="13px" weight="400" font-style="" opacity="1" y="696.8125" transform="rotate(0)"><tspan id="SvgjsTspan1070" dy="16" x="877.09375"><tspan id="SvgjsTspan1071" style="text-decoration:;">是</tspan></tspan></text></g><g id="SvgjsG1072"><path id="SvgjsPath1073" d="M877.09375 1267L877.09375 1299L660.71875 1299L660.71875 1331" stroke="#323232" stroke-width="2" fill="none" marker-end="url(#SvgjsMarker1074)"></path></g><g id="SvgjsG1076" transform="translate(483.84375,292)"><path id="SvgjsPath1077" d="M 0 33L 176.875 0L 353.75 33L 176.875 66Z" stroke="rgba(50,50,50,1)" stroke-width="2" fill-opacity="1" fill="#fff9c4"></path><g id="SvgjsG1078"><text id="SvgjsText1079" font-family="微软雅黑" text-anchor="middle" font-size="13px" width="334px" fill="#323232" font-weight="400" align="middle" lineHeight="125%" anchor="middle" family="微软雅黑" size="13px" weight="400" font-style="" opacity="1" y="15.704999999999998" transform="rotate(0)"><tspan id="SvgjsTspan1080" dy="16" x="177"><tspan id="SvgjsTspan1081" style="text-decoration:;">允许核心线程超时？</tspan></tspan><tspan id="SvgjsTspan1082" dy="16" x="177"><tspan id="SvgjsTspan1083" style="text-decoration:;">即无任务可执行时核心线程不再常驻</tspan></tspan></text></g></g><g id="SvgjsG1084"><path id="SvgjsPath1085" d="M660.71875 228L660.71875 260L660.71875 260L660.71875 292" stroke="#323232" stroke-width="2" fill="none" marker-end="url(#SvgjsMarker1086)"></path><rect id="SvgjsRect1088" width="13" height="16" x="654.21875" y="252" fill="#ffffff"></rect><text id="SvgjsText1089" font-family="微软雅黑" text-anchor="middle" font-size="13px" width="13px" fill="#323232" font-weight="400" align="top" lineHeight="16px" anchor="middle" family="微软雅黑" size="13px" weight="400" font-style="" opacity="1" y="250.375" transform="rotate(0)"><tspan id="SvgjsTspan1090" dy="16" x="660.71875"><tspan id="SvgjsTspan1091" style="text-decoration:;">否</tspan></tspan></text></g><g id="SvgjsG1092" transform="translate(487.84375,422)"><path id="SvgjsPath1093" d="M 0 23L 172.875 0L 345.75 23L 172.875 46Z" stroke="rgba(50,50,50,1)" stroke-width="2" fill-opacity="1" fill="#fff9c4"></path><g id="SvgjsG1094"><text id="SvgjsText1095" font-family="微软雅黑" text-anchor="middle" font-size="13px" width="326px" fill="#323232" font-weight="400" align="middle" lineHeight="125%" anchor="middle" family="微软雅黑" size="13px" weight="400" font-style="" opacity="1" y="13.605" transform="rotate(0)"><tspan id="SvgjsTspan1096" dy="16" x="173"><tspan id="SvgjsTspan1097" style="text-decoration:;">当前worker数量大于核心线程数？</tspan></tspan></text></g></g><g id="SvgjsG1098"><path id="SvgjsPath1099" d="M660.71875 358L660.71875 390L660.71875 390L660.71875 422" stroke="#323232" stroke-width="2" fill="none" marker-end="url(#SvgjsMarker1100)"></path><rect id="SvgjsRect1102" width="13" height="16" x="654.21875" y="382" fill="#ffffff"></rect><text id="SvgjsText1103" font-family="微软雅黑" text-anchor="middle" font-size="13px" width="13px" fill="#323232" font-weight="400" align="top" lineHeight="16px" anchor="middle" family="微软雅黑" size="13px" weight="400" font-style="" opacity="1" y="380.375" transform="rotate(0)"><tspan id="SvgjsTspan1104" dy="16" x="660.71875"><tspan id="SvgjsTspan1105" style="text-decoration:;">否</tspan></tspan></text></g><g id="SvgjsG1106" transform="translate(130.96875,522)"><path id="SvgjsPath1107" d="M 0 0L 219.5 0L 219.5 33L 0 33Z" stroke="rgba(50,50,50,1)" stroke-width="2" fill-opacity="1" fill="#81c784"></path><g id="SvgjsG1108"><text id="SvgjsText1109" font-family="微软雅黑" text-anchor="middle" font-size="13px" width="200px" fill="#990808" font-weight="700" align="middle" lineHeight="125%" anchor="middle" family="微软雅黑" size="13px" weight="700" font-style="" opacity="1" y="6.875" transform="rotate(0)"><tspan id="SvgjsTspan1110" dy="16" x="110"><tspan id="SvgjsTspan1111" style="text-decoration:;">worker回收标记 timed = true</tspan></tspan></text></g></g><g id="SvgjsG1112"><path id="SvgjsPath1113" d="M837.59375 325L981.4848436430116 290.9535285732393" stroke-dasharray="3,3" stroke="#323232" stroke-width="3" fill="none"></path></g><g id="SvgjsG1114"><path id="SvgjsPath1115" d="M483.84375 325L240.71875 325L240.71875 522" stroke="#323232" stroke-width="2" fill="none" marker-end="url(#SvgjsMarker1116)"></path><rect id="SvgjsRect1118" width="13" height="16" x="257.28125" y="317" fill="#ffffff"></rect><text id="SvgjsText1119" font-family="微软雅黑" text-anchor="middle" font-size="13px" width="13px" fill="#323232" font-weight="400" align="top" lineHeight="16px" anchor="middle" family="微软雅黑" size="13px" weight="400" font-style="" opacity="1" y="315.375" transform="rotate(0)"><tspan id="SvgjsTspan1120" dy="16" x="263.78125"><tspan id="SvgjsTspan1121" style="text-decoration:;">是</tspan></tspan></text></g><g id="SvgjsG1122" transform="translate(112.75,615)"><path id="SvgjsPath1123" d="M 0 27.5L 127.96875 0L 255.9375 27.5L 127.96875 55Z" stroke="rgba(50,50,50,1)" stroke-width="2" fill-opacity="1" fill="#fff9c4"></path><g id="SvgjsG1124"><text id="SvgjsText1125" font-family="微软雅黑" text-anchor="middle" font-size="13px" width="236px" fill="#323232" font-weight="400" align="middle" lineHeight="125%" anchor="middle" family="微软雅黑" size="13px" weight="400" font-style="" opacity="1" y="18.15" transform="rotate(0)"><tspan id="SvgjsTspan1126" dy="16" x="128"><tspan id="SvgjsTspan1127" style="text-decoration:;">当前worker数量大于最大线程数？</tspan></tspan></text></g></g><g id="SvgjsG1128" transform="translate(499.21875,678.0000000000001)"><path id="SvgjsPath1129" d="M 0 24.5L 161.5 0L 323 24.5L 161.5 49Z" stroke="rgba(50,50,50,1)" stroke-width="2" fill="none"></path><g id="SvgjsG1130"><text id="SvgjsText1131" font-family="微软雅黑" text-anchor="middle" font-size="13px" width="303px" fill="#990808" font-weight="700" align="middle" lineHeight="125%" anchor="middle" family="微软雅黑" size="13px" weight="700" font-style="" opacity="1" y="15.120000000000001" transform="rotate(0)"><tspan id="SvgjsTspan1132" dy="16" x="161.5"><tspan id="SvgjsTspan1133" style="text-decoration:;"> timed == true &amp;&amp; timedOut == true ？</tspan></tspan></text></g></g><g id="SvgjsG1134" transform="translate(126.28125,738)"><path id="SvgjsPath1135" d="M 0 27.5L 114.4375 0L 228.875 27.5L 114.4375 55Z" stroke="rgba(50,50,50,1)" stroke-width="2" fill-opacity="1" fill="#fff9c4"></path><g id="SvgjsG1136"><text id="SvgjsText1137" font-family="微软雅黑" text-anchor="middle" font-size="13px" width="209px" fill="#323232" font-weight="400" align="middle" lineHeight="125%" anchor="middle" family="微软雅黑" size="13px" weight="400" font-style="" opacity="1" y="18.15" transform="rotate(0)"><tspan id="SvgjsTspan1138" dy="16" x="114.5"><tspan id="SvgjsTspan1139" style="text-decoration:;">当前worker数量大于1？</tspan></tspan></text></g></g><g id="SvgjsG1140" transform="translate(124,849)"><path id="SvgjsPath1141" d="M 0 26L 116.71875 0L 233.4375 26L 116.71875 52Z" stroke="rgba(50,50,50,1)" stroke-width="2" fill-opacity="1" fill="#fff9c4"></path><g id="SvgjsG1142"><text id="SvgjsText1143" font-family="微软雅黑" text-anchor="middle" font-size="13px" width="214px" fill="#323232" font-weight="400" align="middle" lineHeight="125%" anchor="middle" family="微软雅黑" size="13px" weight="400" font-style="" opacity="1" y="16.634999999999998" transform="rotate(0)"><tspan id="SvgjsTspan1144" dy="16" x="117"><tspan id="SvgjsTspan1145" style="text-decoration:;">工作队列为空？</tspan></tspan></text></g></g><g id="SvgjsG1146"><path id="SvgjsPath1147" d="M240.71875 555L240.71875 585L240.71875 585L240.71875 615" stroke="#323232" stroke-width="2" fill="none" marker-end="url(#SvgjsMarker1148)"></path></g><g id="SvgjsG1150"><path id="SvgjsPath1151" d="M368.6875 642.5000000000001L660.71875 642.5000000000001L660.71875 678.0000000000001" stroke="#323232" stroke-width="2" fill="none" marker-end="url(#SvgjsMarker1152)"></path><rect id="SvgjsRect1154" width="13" height="16" x="525.953125" y="634.5000000000001" fill="#ffffff"></rect><text id="SvgjsText1155" font-family="微软雅黑" text-anchor="middle" font-size="13px" width="13px" fill="#323232" font-weight="400" align="top" lineHeight="16px" anchor="middle" family="微软雅黑" size="13px" weight="400" font-style="" opacity="1" y="632.8750000000001" transform="rotate(0)"><tspan id="SvgjsTspan1156" dy="16" x="532.453125"><tspan id="SvgjsTspan1157" style="text-decoration:;">否</tspan></tspan></text></g><g id="SvgjsG1158"><path id="SvgjsPath1159" d="M499.21875 702.5000000000001L240.71875 702.5000000000001L240.71875 738" stroke="#323232" stroke-width="2" fill="none" marker-end="url(#SvgjsMarker1160)"></path><rect id="SvgjsRect1162" width="13" height="16" x="345.71875" y="694.5000000000001" fill="#ffffff"></rect><text id="SvgjsText1163" font-family="微软雅黑" text-anchor="middle" font-size="13px" width="13px" fill="#323232" font-weight="400" align="top" lineHeight="16px" anchor="middle" family="微软雅黑" size="13px" weight="400" font-style="" opacity="1" y="692.8750000000001" transform="rotate(0)"><tspan id="SvgjsTspan1164" dy="16" x="352.21875"><tspan id="SvgjsTspan1165" style="text-decoration:;">是</tspan></tspan></text></g><g id="SvgjsG1166"><path id="SvgjsPath1167" d="M240.71875 670L240.71875 704L240.71875 704L240.71875 738" stroke="#323232" stroke-width="2" fill="none" marker-end="url(#SvgjsMarker1168)"></path><rect id="SvgjsRect1170" width="13" height="16" x="234.21875" y="696" fill="#ffffff"></rect><text id="SvgjsText1171" font-family="微软雅黑" text-anchor="middle" font-size="13px" width="13px" fill="#323232" font-weight="400" align="top" lineHeight="16px" anchor="middle" family="微软雅黑" size="13px" weight="400" font-style="" opacity="1" y="694.375" transform="rotate(0)"><tspan id="SvgjsTspan1172" dy="16" x="240.71875"><tspan id="SvgjsTspan1173" style="text-decoration:;">是</tspan></tspan></text></g><g id="SvgjsG1174"><path id="SvgjsPath1175" d="M240.71875 793L240.71875 821L240.71875 821L240.71875 849" stroke="#323232" stroke-width="2" fill="none" marker-end="url(#SvgjsMarker1176)"></path><rect id="SvgjsRect1178" width="13" height="16" x="234.21875" y="813" fill="#ffffff"></rect><text id="SvgjsText1179" font-family="微软雅黑" text-anchor="middle" font-size="13px" width="13px" fill="#323232" font-weight="400" align="top" lineHeight="16px" anchor="middle" family="微软雅黑" size="13px" weight="400" font-style="" opacity="1" y="811.375" transform="rotate(0)"><tspan id="SvgjsTspan1180" dy="16" x="240.71875"><tspan id="SvgjsTspan1181" style="text-decoration:;">否</tspan></tspan></text></g><g id="SvgjsG1182"><path id="SvgjsPath1183" d="M487.84375 445L240.71875 445L240.71875 522" stroke="#323232" stroke-width="2" fill="none" marker-end="url(#SvgjsMarker1184)"></path><rect id="SvgjsRect1186" width="13" height="16" x="319.28125" y="437" fill="#ffffff"></rect><text id="SvgjsText1187" font-family="微软雅黑" text-anchor="middle" font-size="13px" width="13px" fill="#323232" font-weight="400" align="top" lineHeight="16px" anchor="middle" family="微软雅黑" size="13px" weight="400" font-style="" opacity="1" y="435.375" transform="rotate(0)"><tspan id="SvgjsTspan1188" dy="16" x="325.78125"><tspan id="SvgjsTspan1189" style="text-decoration:;">是</tspan></tspan></text></g><g id="SvgjsG1190" transform="translate(487.84375,786)"><path id="SvgjsPath1191" d="M 0 23L 172.875 0L 345.75 23L 172.875 46Z" stroke="rgba(50,50,50,1)" stroke-width="2" fill-opacity="1" fill="#81c784"></path><g id="SvgjsG1192"><text id="SvgjsText1193" font-family="微软雅黑" text-anchor="middle" font-size="13px" width="326px" fill="#990808" font-weight="700" align="middle" lineHeight="125%" anchor="middle" family="微软雅黑" size="13px" weight="700" font-style="" opacity="1" y="13.605" transform="rotate(0)"><tspan id="SvgjsTspan1194" dy="16" x="173"><tspan id="SvgjsTspan1195" style="text-decoration:;"> worker回收标记 timed == true ？</tspan></tspan></text></g></g><g id="SvgjsG1196"><path id="SvgjsPath1197" d="M357.4375 875L432.4375 875L432.4375 765.5L355.15625 765.5" stroke="#323232" stroke-width="2" fill="none"></path><rect id="SvgjsRect1198" width="13" height="16" x="425.9375" y="811.109375" fill="#ffffff"></rect><text id="SvgjsText1199" font-family="微软雅黑" text-anchor="middle" font-size="13px" width="13px" fill="#323232" font-weight="400" align="top" lineHeight="16px" anchor="middle" family="微软雅黑" size="13px" weight="400" font-style="" opacity="1" y="809.484375" transform="rotate(0)"><tspan id="SvgjsTspan1200" dy="16" x="432.4375"><tspan id="SvgjsTspan1201" style="text-decoration:;">否</tspan></tspan></text></g><g id="SvgjsG1202"><path id="SvgjsPath1203" d="M660.71875 727.0000000000001L660.71875 756.5L660.71875 756.5L660.71875 786" stroke="#323232" stroke-width="2" fill="none"></path><rect id="SvgjsRect1204" width="13" height="16" x="654.21875" y="748.5" fill="#ffffff"></rect><text id="SvgjsText1205" font-family="微软雅黑" text-anchor="middle" font-size="13px" width="13px" fill="#323232" font-weight="400" align="top" lineHeight="16px" anchor="middle" family="微软雅黑" size="13px" weight="400" font-style="" opacity="1" y="746.875" transform="rotate(0)"><tspan id="SvgjsTspan1206" dy="16" x="660.71875"><tspan id="SvgjsTspan1207" style="text-decoration:;">否</tspan></tspan></text></g><g id="SvgjsG1208" transform="translate(817.71875,30)"><path id="SvgjsPath1209" d="M 0 19C 0 -6.333333333333333 207 -6.333333333333333 207 19Q 202.85999999999999 37.24 103.5 38Q 69 38 34.5 34.2L 0 38L 24.219 32.566Q 0 26.599999999999998 0 19" stroke="rgba(50,50,50,1)" stroke-width="2" fill-opacity="1" fill="#ffffff"></path><g id="SvgjsG1210"><text id="SvgjsText1211" font-family="微软雅黑" text-anchor="middle" font-size="13px" width="187px" fill="#323232" font-weight="400" align="middle" lineHeight="125%" anchor="middle" family="微软雅黑" size="13px" weight="400" font-style="" opacity="1" y="9.375" transform="rotate(0)"><tspan id="SvgjsTspan1212" dy="16" x="103.5"><tspan id="SvgjsTspan1213" style="text-decoration:;">上次从工作队列拿任务时超时？</tspan></tspan></text></g></g><g id="SvgjsG1214"><path id="SvgjsPath1215" d="M758.71875 80L831.4290229090041 66.00835733897688" stroke-dasharray="3,3" stroke="#323232" stroke-width="3" fill="none"></path></g><g id="SvgjsG1216" transform="translate(550.96875,522)"><path id="SvgjsPath1217" d="M 0 0L 219.5 0L 219.5 33L 0 33Z" stroke="rgba(50,50,50,1)" stroke-width="2" fill-opacity="1" fill="#81c784"></path><g id="SvgjsG1218"><text id="SvgjsText1219" font-family="微软雅黑" text-anchor="middle" font-size="13px" width="200px" fill="#ffffff" font-weight="700" align="middle" lineHeight="125%" anchor="middle" family="微软雅黑" size="13px" weight="700" font-style="" opacity="1" y="6.875" transform="rotate(0)"><tspan id="SvgjsTspan1220" dy="16" x="110"><tspan id="SvgjsTspan1221" style="text-decoration:;">worker回收标记 timed = false</tspan></tspan></text></g></g><g id="SvgjsG1222"><path id="SvgjsPath1223" d="M660.71875 468L660.71875 495L660.71875 495L660.71875 522" stroke="#323232" stroke-width="2" fill="none" marker-end="url(#SvgjsMarker1224)"></path><rect id="SvgjsRect1226" width="13" height="16" x="654.21875" y="487" fill="#ffffff"></rect><text id="SvgjsText1227" font-family="微软雅黑" text-anchor="middle" font-size="13px" width="13px" fill="#323232" font-weight="400" align="top" lineHeight="16px" anchor="middle" family="微软雅黑" size="13px" weight="400" font-style="" opacity="1" y="485.375" transform="rotate(0)"><tspan id="SvgjsTspan1228" dy="16" x="660.71875"><tspan id="SvgjsTspan1229" style="text-decoration:;">否</tspan></tspan></text></g><g id="SvgjsG1230"><path id="SvgjsPath1231" d="M660.71875 555L660.71875 585L240.71875 585L240.71875 615" stroke="#323232" stroke-width="2" fill="none" marker-end="url(#SvgjsMarker1232)"></path></g><g id="SvgjsG1234" transform="translate(124,1014)"><path id="SvgjsPath1235" d="M 0 26L 116.71875 0L 233.4375 26L 116.71875 52Z" stroke="rgba(50,50,50,1)" stroke-width="2" fill-opacity="1" fill="#fff9c4"></path><g id="SvgjsG1236"><text id="SvgjsText1237" font-family="微软雅黑" text-anchor="middle" font-size="13px" width="214px" fill="#323232" font-weight="400" align="middle" lineHeight="125%" anchor="middle" family="微软雅黑" size="13px" weight="400" font-style="" opacity="1" y="16.634999999999998" transform="rotate(0)"><tspan id="SvgjsTspan1238" dy="16" x="117"><tspan id="SvgjsTspan1239" style="text-decoration:;">worker总记录数减1成功？</tspan></tspan></text></g></g><g id="SvgjsG1240" transform="translate(141.3125,953.5)"><path id="SvgjsPath1241" d="M 0 0L 198.8125 0L 198.8125 28L 0 28Z" stroke="rgba(50,50,50,1)" stroke-width="2" fill-opacity="1" fill="#ffb74d"></path><g id="SvgjsG1242"><text id="SvgjsText1243" font-family="微软雅黑" text-anchor="middle" font-size="13px" width="179px" fill="#323232" font-weight="400" align="middle" lineHeight="125%" anchor="middle" family="微软雅黑" size="13px" weight="400" font-style="" opacity="1" y="4.375" transform="rotate(0)"><tspan id="SvgjsTspan1244" dy="16" x="99.5"><tspan id="SvgjsTspan1245" style="text-decoration:;">比较并将worker总记录数减1</tspan></tspan></text></g></g><g id="SvgjsG1246"><path id="SvgjsPath1247" d="M240.71875 901L240.71875 927.25L240.71875 927.25L240.71875 953.5" stroke="#323232" stroke-width="2" fill="none" marker-end="url(#SvgjsMarker1248)"></path><rect id="SvgjsRect1250" width="13" height="16" x="234.21875" y="919.25" fill="#ffffff"></rect><text id="SvgjsText1251" font-family="微软雅黑" text-anchor="middle" font-size="13px" width="13px" fill="#323232" font-weight="400" align="top" lineHeight="16px" anchor="middle" family="微软雅黑" size="13px" weight="400" font-style="" opacity="1" y="917.625" transform="rotate(0)"><tspan id="SvgjsTspan1252" dy="16" x="240.71875"><tspan id="SvgjsTspan1253" style="text-decoration:;">是</tspan></tspan></text></g><g id="SvgjsG1254"><path id="SvgjsPath1255" d="M240.71875 981.5L240.71875 997.75L240.71875 997.75L240.71875 1014" stroke="#323232" stroke-width="2" fill="none" marker-end="url(#SvgjsMarker1256)"></path></g><g id="SvgjsG1258"><path id="SvgjsPath1259" d="M240.71875 1066L240.71875 1176.5L877.09375 1176.5L877.09375 1237" stroke="#323232" stroke-width="2" fill="none" marker-end="url(#SvgjsMarker1260)"></path><rect id="SvgjsRect1262" width="13" height="16" x="527.40625" y="1168.5" fill="#ffffff"></rect><text id="SvgjsText1263" font-family="微软雅黑" text-anchor="middle" font-size="13px" width="13px" fill="#323232" font-weight="400" align="top" lineHeight="16px" anchor="middle" family="微软雅黑" size="13px" weight="400" font-style="" opacity="1" y="1166.875" transform="rotate(0)"><tspan id="SvgjsTspan1264" dy="16" x="533.90625"><tspan id="SvgjsTspan1265" style="text-decoration:;">是</tspan></tspan></text></g><g id="SvgjsG1266"><path id="SvgjsPath1267" d="M124 1040L94 1040L94 137L660.71875 137L660.71875 167" stroke="#323232" stroke-width="2" fill="none" marker-end="url(#SvgjsMarker1268)"></path><rect id="SvgjsRect1270" width="159" height="32" x="14.5" y="289.140625" fill="#ffffff"></rect><text id="SvgjsText1271" font-family="微软雅黑" text-anchor="middle" font-size="13px" width="159px" fill="#323232" font-weight="400" align="top" lineHeight="16px" anchor="middle" family="微软雅黑" size="13px" weight="400" font-style="" opacity="1" y="287.515625" transform="rotate(0)"><tspan id="SvgjsTspan1272" dy="16" x="94"><tspan id="SvgjsTspan1273" style="text-decoration:;">否</tspan></tspan><tspan id="SvgjsTspan1274" dy="16" x="94"><tspan id="SvgjsTspan1275" style="text-decoration:;">（continue到下一个循环）</tspan></tspan></text></g><g id="SvgjsG1276" transform="translate(666.65625,870)"><path id="SvgjsPath1277" d="M 0 0L 198.8125 0L 198.8125 63L 0 63Z" stroke="rgba(50,50,50,1)" stroke-width="2" fill-opacity="1" fill="#ba68c8"></path><g id="SvgjsG1278"><text id="SvgjsText1279" font-family="微软雅黑" text-anchor="middle" font-size="13px" width="179px" fill="#323232" font-weight="400" align="middle" lineHeight="125%" anchor="middle" family="微软雅黑" size="13px" weight="400" font-style="" opacity="1" y="5.875" transform="rotate(0)"><tspan id="SvgjsTspan1280" dy="16" x="99.5"><tspan id="SvgjsTspan1281" style="text-decoration:;">取工作队列队头任务</tspan></tspan><tspan id="SvgjsTspan1282" dy="16" x="99.5"><tspan id="SvgjsTspan1283" style="text-decoration:;">等待时间为keepAliveTime</tspan></tspan><tspan id="SvgjsTspan1284" dy="16" x="99.5"><tspan id="SvgjsTspan1285" style="text-decoration:;">（非核心线程）</tspan></tspan></text></g></g><g id="SvgjsG1286" transform="translate(457.4375,870)"><path id="SvgjsPath1287" d="M 0 0L 200.28125 0L 200.28125 63L 0 63Z" stroke="rgba(50,50,50,1)" stroke-width="2" fill-opacity="1" fill="#ba68c8"></path><g id="SvgjsG1288"><text id="SvgjsText1289" font-family="微软雅黑" text-anchor="middle" font-size="13px" width="181px" fill="#323232" font-weight="400" align="middle" lineHeight="125%" anchor="middle" family="微软雅黑" size="13px" weight="400" font-style="" opacity="1" y="5.875" transform="rotate(0)"><tspan id="SvgjsTspan1290" dy="16" x="100.5"><tspan id="SvgjsTspan1291" style="text-decoration:;">取工作队列队头任务</tspan></tspan><tspan id="SvgjsTspan1292" dy="16" x="100.5"><tspan id="SvgjsTspan1293" style="text-decoration:;">一直等待直到有任务为止</tspan></tspan><tspan id="SvgjsTspan1294" dy="16" x="100.5"><tspan id="SvgjsTspan1295" style="text-decoration:;">（核心线程）</tspan></tspan></text></g></g><g id="SvgjsG1296"><path id="SvgjsPath1297" d="M833.59375 809L863.59375 809L863.59375 851L766.0625 851L766.0625 870" stroke="#323232" stroke-width="2" fill="none" marker-end="url(#SvgjsMarker1298)"></path><rect id="SvgjsRect1300" width="13" height="16" x="834.828125" y="843" fill="#ffffff"></rect><text id="SvgjsText1301" font-family="微软雅黑" text-anchor="middle" font-size="13px" width="13px" fill="#323232" font-weight="400" align="top" lineHeight="16px" anchor="middle" family="微软雅黑" size="13px" weight="400" font-style="" opacity="1" y="841.375" transform="rotate(0)"><tspan id="SvgjsTspan1302" dy="16" x="841.328125"><tspan id="SvgjsTspan1303" style="text-decoration:;">是</tspan></tspan></text></g><g id="SvgjsG1304"><path id="SvgjsPath1305" d="M487.84375 809L457.84375 809L457.84375 851L557.578125 851L557.578125 870" stroke="#323232" stroke-width="2" fill="none" marker-end="url(#SvgjsMarker1306)"></path><rect id="SvgjsRect1308" width="13" height="16" x="474.7109375" y="843" fill="#ffffff"></rect><text id="SvgjsText1309" font-family="微软雅黑" text-anchor="middle" font-size="13px" width="13px" fill="#323232" font-weight="400" align="top" lineHeight="16px" anchor="middle" family="微软雅黑" size="13px" weight="400" font-style="" opacity="1" y="841.375" transform="rotate(0)"><tspan id="SvgjsTspan1310" dy="16" x="481.2109375"><tspan id="SvgjsTspan1311" style="text-decoration:;">否</tspan></tspan></text></g><g id="SvgjsG1312" transform="translate(586.859375,1114)"><path id="SvgjsPath1313" d="M 0 22.5L 73.859375 0L 147.71875 22.5L 73.859375 45Z" stroke="rgba(50,50,50,1)" stroke-width="2" fill-opacity="1" fill="#fff9c4"></path><g id="SvgjsG1314"><text id="SvgjsText1315" font-family="微软雅黑" text-anchor="middle" font-size="13px" width="128px" fill="#323232" font-weight="400" align="middle" lineHeight="125%" anchor="middle" family="微软雅黑" size="13px" weight="400" font-style="" opacity="1" y="13.100000000000001" transform="rotate(0)"><tspan id="SvgjsTspan1316" dy="16" x="74"><tspan id="SvgjsTspan1317" style="text-decoration:;">是否获取到任务？</tspan></tspan></text></g></g><g id="SvgjsG1318" transform="translate(848.21875,83)"><path id="SvgjsPath1319" d="M 0 0L 191 0L 191 35L 0 35Z" stroke="rgba(50,50,50,1)" stroke-width="2" fill-opacity="1" fill="#4dd0e1"></path><g id="SvgjsG1320"><text id="SvgjsText1321" font-family="微软雅黑" text-anchor="middle" font-size="13px" width="171px" fill="#990808" font-weight="700" align="middle" lineHeight="125%" anchor="middle" family="微软雅黑" size="13px" weight="700" font-style="" opacity="1" y="7.875" transform="rotate(0)"><tspan id="SvgjsTspan1322" dy="16" x="95.5"><tspan id="SvgjsTspan1323" style="text-decoration:;">超时标记 timedOut =true</tspan></tspan></text></g></g><g id="SvgjsG1324"><path id="SvgjsPath1325" d="M943.71875 118L943.71875 136.5L660.71875 136.5L660.71875 167" stroke="#323232" stroke-width="2" fill="none" marker-end="url(#SvgjsMarker1326)"></path></g><g id="SvgjsG1328"><path id="SvgjsPath1329" d="M734.578125 1136.5L1069.21875 1136.5L1069.21875 100.5L1039.21875 100.5" stroke="#323232" stroke-width="2" fill="none" marker-end="url(#SvgjsMarker1330)"></path><rect id="SvgjsRect1332" width="13" height="16" x="1062.71875" y="762.8203125" fill="#ffffff"></rect><text id="SvgjsText1333" font-family="微软雅黑" text-anchor="middle" font-size="13px" width="13px" fill="#323232" font-weight="400" align="top" lineHeight="16px" anchor="middle" family="微软雅黑" size="13px" weight="400" font-style="" opacity="1" y="761.1953125" transform="rotate(0)"><tspan id="SvgjsTspan1334" dy="16" x="1069.21875"><tspan id="SvgjsTspan1335" style="text-decoration:;">否</tspan></tspan></text></g><g id="SvgjsG1336" transform="translate(979.71875,139)"><path id="SvgjsPath1337" d="M 0 76.5C 0 -25.5 278 -25.5 278 76.5Q 272.44 149.94 139 153Q 92.66666666666667 153 46.333333333333336 137.70000000000002L 0 153L 32.526 131.121Q 0 107.1 0 76.5" stroke="rgba(50,50,50,1)" stroke-width="2" fill-opacity="1" fill="#ffffff"></path><g id="SvgjsG1338"><text id="SvgjsText1339" font-family="微软雅黑" text-anchor="middle" font-size="13px" width="258px" fill="#323232" font-weight="400" align="middle" lineHeight="125%" anchor="middle" family="微软雅黑" size="13px" weight="400" font-style="" opacity="1" y="34.875" transform="rotate(0)"><tspan id="SvgjsTspan1340" dy="16" x="139"><tspan id="SvgjsTspan1341" style="text-decoration:;">ThreadPoolExecutor的</tspan></tspan><tspan id="SvgjsTspan1342" dy="16" x="139"><tspan id="SvgjsTspan1343" style="text-decoration:;">allowCoreThreadTimeOut属性代表允许核</tspan></tspan><tspan id="SvgjsTspan1344" dy="16" x="139"><tspan id="SvgjsTspan1345" style="text-decoration:;">心线程超时与否，默认不允许（false），除</tspan></tspan><tspan id="SvgjsTspan1346" dy="16" x="139"><tspan id="SvgjsTspan1347" style="text-decoration:;">非调用对应方法设置为true，不调用的情况</tspan></tspan><tspan id="SvgjsTspan1348" dy="16" x="139"><tspan id="SvgjsTspan1349" style="text-decoration:;">下默认为false</tspan></tspan></text></g></g><g id="SvgjsG1350" transform="translate(607.21875,1237)"><path id="SvgjsPath1351" d="M 0 0L 107 0L 107 30L 0 30Z" stroke="rgba(50,50,50,1)" stroke-width="2" fill-opacity="1" fill="#ffb74d"></path><g id="SvgjsG1352"><text id="SvgjsText1353" font-family="微软雅黑" text-anchor="middle" font-size="13px" width="87px" fill="#323232" font-weight="400" align="middle" lineHeight="125%" anchor="middle" family="微软雅黑" size="13px" weight="400" font-style="" opacity="1" y="5.375" transform="rotate(0)"><tspan id="SvgjsTspan1354" dy="16" x="53.5"><tspan id="SvgjsTspan1355" style="text-decoration:;">返回任务</tspan></tspan></text></g></g><g id="SvgjsG1356"><path id="SvgjsPath1357" d="M660.71875 1159L660.71875 1198L660.71875 1198L660.71875 1237" stroke="#323232" stroke-width="2" fill="none" marker-end="url(#SvgjsMarker1358)"></path><rect id="SvgjsRect1360" width="13" height="16" x="654.21875" y="1190" fill="#ffffff"></rect><text id="SvgjsText1361" font-family="微软雅黑" text-anchor="middle" font-size="13px" width="13px" fill="#323232" font-weight="400" align="top" lineHeight="16px" anchor="middle" family="微软雅黑" size="13px" weight="400" font-style="" opacity="1" y="1188.375" transform="rotate(0)"><tspan id="SvgjsTspan1362" dy="16" x="660.71875"><tspan id="SvgjsTspan1363" style="text-decoration:;">是</tspan></tspan></text></g><g id="SvgjsG1364"><path id="SvgjsPath1365" d="M660.71875 1267L660.71875 1299L660.71875 1299L660.71875 1331" stroke="#323232" stroke-width="2" fill="none" marker-end="url(#SvgjsMarker1366)"></path></g><g id="SvgjsG1368" transform="translate(556.71875,594)"><path id="SvgjsPath1369" d="M 0 0L 192.65625 0L 192.65625 40L 0 40Z" stroke="none" fill="none"></path><g id="SvgjsG1370"><text id="SvgjsText1371" font-family="微软雅黑" text-anchor="middle" font-size="22px" width="193px" fill="#cfcfcf" font-weight="400" align="middle" lineHeight="125%" anchor="middle" family="微软雅黑" size="22px" weight="400" font-style="" opacity="1" y="1.75" transform="rotate(0)"><tspan id="SvgjsTspan1372" dy="27" x="96.5"><tspan id="SvgjsTspan1373" style="text-decoration:;">@WindShadow</tspan></tspan></text></g></g><g id="SvgjsG1374" transform="translate(586.859375,1002)"><path id="SvgjsPath1375" d="M 0 22.5L 73.859375 0L 147.71875 22.5L 73.859375 45Z" stroke="rgba(50,50,50,1)" stroke-width="2" fill-opacity="1" fill="#990808"></path><g id="SvgjsG1376"><text id="SvgjsText1377" font-family="微软雅黑" text-anchor="middle" font-size="13px" width="128px" fill="#ffffff" font-weight="400" align="middle" lineHeight="125%" anchor="middle" family="微软雅黑" size="13px" weight="400" font-style="" opacity="1" y="13.100000000000001" transform="rotate(0)"><tspan id="SvgjsTspan1378" dy="16" x="74"><tspan id="SvgjsTspan1379" style="text-decoration:;">是否发生中断异常？</tspan></tspan></text></g></g><g id="SvgjsG1380"><path id="SvgjsPath1381" d="M766.0625 933L766.0625 967.5L660.71875 967.5L660.71875 1002" stroke="#323232" stroke-width="2" fill="none" marker-end="url(#SvgjsMarker1382)"></path></g><g id="SvgjsG1384"><path id="SvgjsPath1385" d="M557.578125 933L557.578125 967.5L660.71875 967.5L660.71875 1002" stroke="#323232" stroke-width="2" fill="none" marker-end="url(#SvgjsMarker1386)"></path></g><g id="SvgjsG1388"><path id="SvgjsPath1389" d="M660.71875 1047L660.71875 1080.5L660.71875 1080.5L660.71875 1114" stroke="#323232" stroke-width="2" fill="none" marker-end="url(#SvgjsMarker1390)"></path><rect id="SvgjsRect1392" width="13" height="16" x="654.21875" y="1072.5" fill="#ffffff"></rect><text id="SvgjsText1393" font-family="微软雅黑" text-anchor="middle" font-size="13px" width="13px" fill="#323232" font-weight="400" align="top" lineHeight="16px" anchor="middle" family="微软雅黑" size="13px" weight="400" font-style="" opacity="1" y="1070.875" transform="rotate(0)"><tspan id="SvgjsTspan1394" dy="16" x="660.71875"><tspan id="SvgjsTspan1395" style="text-decoration:;">否</tspan></tspan></text></g><g id="SvgjsG1396"><path id="SvgjsPath1397" d="M355.15625 765.5L660.71875 765.5L660.71875 786" stroke="#323232" stroke-width="2" fill="none" marker-end="url(#SvgjsMarker1398)"></path><rect id="SvgjsRect1400" width="13" height="16" x="511.6875" y="757.5" fill="#ffffff"></rect><text id="SvgjsText1401" font-family="微软雅黑" text-anchor="middle" font-size="13px" width="13px" fill="#323232" font-weight="400" align="top" lineHeight="16px" anchor="middle" family="微软雅黑" size="13px" weight="400" font-style="" opacity="1" y="755.875" transform="rotate(0)"><tspan id="SvgjsTspan1402" dy="16" x="518.1875"><tspan id="SvgjsTspan1403" style="text-decoration:;">是</tspan></tspan></text></g><g id="SvgjsG1404" transform="translate(955.96875,585)"><path id="SvgjsPath1405" d="M 0 19.5C 0 -6.5 271.75 -6.5 271.75 19.5Q 266.315 38.22 135.875 39Q 90.58333333333333 39 45.291666666666664 35.1L 0 39L 31.79475 33.423Q 0 27.299999999999997 0 19.5" stroke="rgba(50,50,50,1)" stroke-width="2" fill-opacity="1" fill="#ffffff"></path><g id="SvgjsG1406"><text id="SvgjsText1407" font-family="微软雅黑" text-anchor="middle" font-size="13px" width="252px" fill="#323232" font-weight="400" align="middle" lineHeight="125%" anchor="middle" family="微软雅黑" size="13px" weight="400" font-style="" opacity="1" y="9.875" transform="rotate(0)"><tspan id="SvgjsTspan1408" dy="16" x="136"><tspan id="SvgjsTspan1409" style="text-decoration:;">上次获取任务超时过且此次可回收worker？</tspan></tspan></text></g></g><g id="SvgjsG1410"><path id="SvgjsPath1411" d="M822.21875 702.5000000000001L959.0043252193732 623.467911113762" stroke-dasharray="3,3" stroke="#323232" stroke-width="3" fill="none"></path></g><g id="SvgjsG1412" transform="translate(930.21875,1197)"><path id="SvgjsPath1413" d="M 0 20C 0 -6.666666666666667 184.5 -6.666666666666667 184.5 20Q 180.81 39.2 92.25 40Q 61.5 40 30.75 36L 0 40L 21.5865 34.28Q 0 28 0 20" stroke="rgba(50,50,50,1)" stroke-width="2" fill-opacity="1" fill="#ffffff"></path><g id="SvgjsG1414"><text id="SvgjsText1415" font-family="微软雅黑" text-anchor="middle" font-size="13px" width="165px" fill="#323232" font-weight="400" align="middle" lineHeight="125%" anchor="middle" family="微软雅黑" size="13px" weight="400" font-style="" opacity="1" y="10.375" transform="rotate(0)"><tspan id="SvgjsTspan1416" dy="16" x="92.5"><tspan id="SvgjsTspan1417" style="text-decoration:;">返回null，worker要被回收</tspan></tspan></text></g></g></svg>