<svg id="SvgjsSvg1350" width="996" height="523.25" xmlns="http://www.w3.org/2000/svg" version="1.1" xmlns:xlink="http://www.w3.org/1999/xlink" xmlns:svgjs="http://svgjs.com/svgjs"><defs id="SvgjsDefs1351"><marker id="SvgjsMarker1374" markerWidth="14" markerHeight="10" refX="10" refY="5" viewBox="0 0 14 10" orient="auto" markerUnits="userSpaceOnUse" stroke-dasharray="0,0"><path id="SvgjsPath1375" d="M0,0 L14,5 L0,10 L0,0" fill="#323232" stroke="#323232" stroke-width="1"></path></marker><marker id="SvgjsMarker1378" markerWidth="14" markerHeight="10" refX="10" refY="5" viewBox="0 0 14 10" orient="auto" markerUnits="userSpaceOnUse" stroke-dasharray="0,0"><path id="SvgjsPath1379" d="M0,0 L14,5 L0,10 L0,0" fill="#323232" stroke="#323232" stroke-width="1"></path></marker><marker id="SvgjsMarker1408" markerWidth="14" markerHeight="10" refX="10" refY="5" viewBox="0 0 14 10" orient="auto" markerUnits="userSpaceOnUse" stroke-dasharray="0,0"><path id="SvgjsPath1409" d="M0,0 L14,5 L0,10 L0,0" fill="#323232" stroke="#323232" stroke-width="1"></path></marker><marker id="SvgjsMarker1422" markerWidth="14" markerHeight="10" refX="10" refY="5" viewBox="0 0 14 10" orient="auto" markerUnits="userSpaceOnUse" stroke-dasharray="0,0"><path id="SvgjsPath1423" d="M0,0 L14,5 L0,10 L0,0" fill="#323232" stroke="#323232" stroke-width="1"></path></marker><marker id="SvgjsMarker1430" markerWidth="20" markerHeight="12" refX="20" refY="6" viewBox="0 0 20 12" orient="auto" markerUnits="userSpaceOnUse" stroke-dasharray="0,0"><path id="SvgjsPath1431" d="M2,6 L10,2 L18,6 L10,10L2,6" fill="#ffffff" stroke="#323232" stroke-width="2"></path></marker><marker id="SvgjsMarker1440" markerWidth="14" markerHeight="10" refX="10" refY="5" viewBox="0 0 14 10" orient="auto" markerUnits="userSpaceOnUse" stroke-dasharray="0,0"><path id="SvgjsPath1441" d="M0,0 L14,5 L0,10 L0,0" fill="#323232" stroke="#323232" stroke-width="1"></path></marker><marker id="SvgjsMarker1448" markerWidth="20" markerHeight="12" refX="20" refY="6" viewBox="0 0 20 12" orient="auto" markerUnits="userSpaceOnUse" stroke-dasharray="0,0"><path id="SvgjsPath1449" d="M2,6 L10,2 L18,6 L10,10L2,6" fill="#ffffff" stroke="#323232" stroke-width="2"></path></marker></defs><g id="SvgjsG1352" transform="translate(25,177)"><path id="SvgjsPath1353" d="M 0 4Q 0 0 4 0L 214 0Q 218 0 218 4L 218 49Q 218 53 214 53L 4 53Q 0 53 0 49Z" stroke="rgba(50,50,50,1)" stroke-width="2" fill-opacity="1" fill="#ffffff"></path><g id="SvgjsG1354"><text id="SvgjsText1355" font-family="微软雅黑" text-anchor="middle" font-size="13px" width="198px" fill="#323232" font-weight="400" align="middle" lineHeight="125%" anchor="middle" family="微软雅黑" size="13px" weight="400" font-style="" opacity="1" y="7.375" transform="rotate(0)"><tspan id="SvgjsTspan1356" dy="16" x="109"><tspan id="SvgjsTspan1357" style="text-decoration:;">自动装配配置</tspan></tspan><tspan id="SvgjsTspan1358" dy="16" x="109"><tspan id="SvgjsTspan1359" style="text-decoration:;">WebMvcAutoConfiguration</tspan></tspan></text></g></g><g id="SvgjsG1360" transform="translate(340,230)"><path id="SvgjsPath1361" d="M 0 4Q 0 0 4 0L 249 0Q 253 0 253 4L 253 49Q 253 53 249 53L 4 53Q 0 53 0 49Z" stroke="rgba(50,50,50,1)" stroke-width="2" fill-opacity="1" fill="#ffffff"></path><g id="SvgjsG1362"><text id="SvgjsText1363" font-family="微软雅黑" text-anchor="middle" font-size="13px" width="233px" fill="#323232" font-weight="400" align="middle" lineHeight="125%" anchor="middle" family="微软雅黑" size="13px" weight="400" font-style="" opacity="1" y="15.875" transform="rotate(0)"><tspan id="SvgjsTspan1364" dy="16" x="126.5"><tspan id="SvgjsTspan1365" style="text-decoration:;">EnableWebMvcConfiguration</tspan></tspan></text></g></g><g id="SvgjsG1366" transform="translate(340,133)"><path id="SvgjsPath1367" d="M 0 4Q 0 0 4 0L 249 0Q 253 0 253 4L 253 46Q 253 50 249 50L 4 50Q 0 50 0 46Z" stroke="rgba(50,50,50,1)" stroke-width="2" fill-opacity="1" fill="#ffffff"></path><g id="SvgjsG1368"><text id="SvgjsText1369" font-family="微软雅黑" text-anchor="middle" font-size="13px" width="233px" fill="#323232" font-weight="400" align="middle" lineHeight="125%" anchor="middle" family="微软雅黑" size="13px" weight="400" font-style="" opacity="1" y="14.375" transform="rotate(0)"><tspan id="SvgjsTspan1370" dy="16" x="126.5"><tspan id="SvgjsTspan1371" style="text-decoration:;">WebMvcAutoConfigurationAdapter</tspan></tspan></text></g></g><g id="SvgjsG1372"><path id="SvgjsPath1373" d="M244 203.5L291.5 203.5L291.5 256.5L336.4 256.5" stroke="#323232" stroke-width="2" fill="none" marker-end="url(#SvgjsMarker1374)"></path></g><g id="SvgjsG1376"><path id="SvgjsPath1377" d="M244 203.5L291.5 203.5L291.5 158L336.4 158" stroke="#323232" stroke-width="2" fill="none" marker-end="url(#SvgjsMarker1378)"></path></g><g id="SvgjsG1380" transform="translate(743.25,25)"><path id="SvgjsPath1381" d="M 0 0L 213.5 0L 213.5 60.5L 0 60.5Z" stroke="rgba(50,50,50,1)" stroke-width="2" fill-opacity="1" fill="#ffffff"></path><g id="SvgjsG1382"><text id="SvgjsText1383" font-family="微软雅黑" text-anchor="middle" font-size="13px" width="194px" fill="#323232" font-weight="400" align="middle" lineHeight="125%" anchor="middle" family="微软雅黑" size="13px" weight="400" font-style="" opacity="1" y="11.125" transform="rotate(0)"><tspan id="SvgjsTspan1384" dy="16" x="107"><tspan id="SvgjsTspan1385" style="text-decoration:;">从beanFactory中获取Converter </tspan></tspan><tspan id="SvgjsTspan1386" dy="16" x="107"><tspan id="SvgjsTspan1387" style="text-decoration:;">bean注册到FormatterRegistry</tspan></tspan></text></g></g><g id="SvgjsG1388" transform="translate(761,460.25)"><path id="SvgjsPath1389" d="M 0 0L 178 0L 178 37.75L 0 37.75Z" stroke="rgba(50,50,50,1)" stroke-width="2" fill-opacity="1" fill="#ffffff"></path><g id="SvgjsG1390"><text id="SvgjsText1391" font-family="微软雅黑" text-anchor="middle" font-size="13px" width="158px" fill="#323232" font-weight="400" align="middle" lineHeight="125%" anchor="middle" family="微软雅黑" size="13px" weight="400" font-style="" opacity="1" y="8.25" transform="rotate(0)"><tspan id="SvgjsTspan1392" dy="16" x="89"><tspan id="SvgjsTspan1393" style="text-decoration:;">注册框架自带的Converter</tspan></tspan></text></g></g><g id="SvgjsG1394" transform="translate(422,161.5)"><path id="SvgjsPath1395" d="M 0 0L 202 0L 202 84L 0 84Z" stroke="none" fill="none"></path><g id="SvgjsG1396"><text id="SvgjsText1397" font-family="微软雅黑" text-anchor="middle" font-size="13px" width="202px" fill="#cfcfcf" font-weight="400" align="middle" lineHeight="125%" anchor="middle" family="微软雅黑" size="13px" weight="400" font-style="" opacity="1" y="31.375" transform="rotate(0)"><tspan id="SvgjsTspan1398" dy="16" x="101"><tspan id="SvgjsTspan1399" style="text-decoration:;">@WindShadow</tspan></tspan></text></g></g><g id="SvgjsG1400" transform="translate(729,230.5)"><path id="SvgjsPath1401" d="M 0 4Q 0 0 4 0L 238 0Q 242 0 242 4L 242 48Q 242 52 238 52L 4 52Q 0 52 0 48Z" stroke="rgba(50,50,50,1)" stroke-width="2" fill-opacity="1" fill="#ffffff"></path><g id="SvgjsG1402"><text id="SvgjsText1403" font-family="微软雅黑" text-anchor="middle" font-size="13px" width="222px" fill="#323232" font-weight="400" align="middle" lineHeight="125%" anchor="middle" family="微软雅黑" size="13px" weight="400" font-style="" opacity="1" y="15.375" transform="rotate(0)"><tspan id="SvgjsTspan1404" dy="16" x="121"><tspan id="SvgjsTspan1405" style="text-decoration:;">RequestMappingHandlerMapping</tspan></tspan></text></g></g><g id="SvgjsG1406"><path id="SvgjsPath1407" d="M594 256.5L661 256.5L661 256.5L725.4 256.5" stroke="#323232" stroke-width="2" fill="none" marker-end="url(#SvgjsMarker1408)"></path><rect id="SvgjsRect1410" width="26" height="16" x="646.7" y="248.5" fill="#ffffff"></rect><text id="SvgjsText1411" font-family="微软雅黑" text-anchor="middle" font-size="13px" width="26px" fill="#323232" font-weight="400" align="top" lineHeight="16px" anchor="middle" family="微软雅黑" size="13px" weight="400" font-style="" opacity="1" y="245.875" transform="rotate(0)"><tspan id="SvgjsTspan1412" dy="16" x="659.7"><tspan id="SvgjsTspan1413" style="text-decoration:;">配置</tspan></tspan></text></g><g id="SvgjsG1414" transform="translate(767,364)"><path id="SvgjsPath1415" d="M 0 4Q 0 0 4 0L 162 0Q 166 0 166 4L 166 41.75Q 166 45.75 162 45.75L 4 45.75Q 0 45.75 0 41.75Z" stroke="rgba(50,50,50,1)" stroke-width="2" fill-opacity="1" fill="#ffffff"></path><g id="SvgjsG1416"><text id="SvgjsText1417" font-family="微软雅黑" text-anchor="middle" font-size="13px" width="146px" fill="#323232" font-weight="400" align="middle" lineHeight="125%" anchor="middle" family="微软雅黑" size="13px" weight="400" font-style="" opacity="1" y="12.25" transform="rotate(0)"><tspan id="SvgjsTspan1418" dy="16" x="83"><tspan id="SvgjsTspan1419" style="text-decoration:;">mvcConversionService</tspan></tspan></text></g></g><g id="SvgjsG1420"><path id="SvgjsPath1421" d="M850 283.5L850 323.25L850 323.25L850 360.4" stroke="#323232" stroke-width="2" fill="none" marker-end="url(#SvgjsMarker1422)"></path><rect id="SvgjsRect1424" width="26" height="16" x="837" y="313.95" fill="#ffffff"></rect><text id="SvgjsText1425" font-family="微软雅黑" text-anchor="middle" font-size="13px" width="26px" fill="#323232" font-weight="400" align="top" lineHeight="16px" anchor="middle" family="微软雅黑" size="13px" weight="400" font-style="" opacity="1" y="311.325" transform="rotate(0)"><tspan id="SvgjsTspan1426" dy="16" x="850"><tspan id="SvgjsTspan1427" style="text-decoration:;">依赖</tspan></tspan></text></g><g id="SvgjsG1428"><path id="SvgjsPath1429" d="M850 410.75L850 435L850 435L850 457.25" stroke="#323232" stroke-width="2" fill="none" marker-end="url(#SvgjsMarker1430)"></path></g><g id="SvgjsG1432" transform="translate(729,132)"><path id="SvgjsPath1433" d="M 0 4Q 0 0 4 0L 238 0Q 242 0 242 4L 242 48Q 242 52 238 52L 4 52Q 0 52 0 48Z" stroke="rgba(50,50,50,1)" stroke-width="2" fill-opacity="1" fill="#ffffff"></path><g id="SvgjsG1434"><text id="SvgjsText1435" font-family="微软雅黑" text-anchor="middle" font-size="13px" width="222px" fill="#323232" font-weight="400" align="middle" lineHeight="125%" anchor="middle" family="微软雅黑" size="13px" weight="400" font-style="" opacity="1" y="15.375" transform="rotate(0)"><tspan id="SvgjsTspan1436" dy="16" x="121"><tspan id="SvgjsTspan1437" style="text-decoration:;">WebMvcConfigurer</tspan></tspan></text></g></g><g id="SvgjsG1438"><path id="SvgjsPath1439" d="M594 158L661 158L661 158L725.4 158" stroke="#323232" stroke-width="2" fill="none" marker-end="url(#SvgjsMarker1440)"></path><rect id="SvgjsRect1442" width="78" height="16" x="620.7" y="150" fill="#ffffff"></rect><text id="SvgjsText1443" font-family="微软雅黑" text-anchor="middle" font-size="13px" width="78px" fill="#323232" font-weight="400" align="top" lineHeight="16px" anchor="middle" family="微软雅黑" size="13px" weight="400" font-style="" opacity="1" y="147.375" transform="rotate(0)"><tspan id="SvgjsTspan1444" dy="16" x="659.7"><tspan id="SvgjsTspan1445" style="text-decoration:;">实现配置接口</tspan></tspan></text></g><g id="SvgjsG1446"><path id="SvgjsPath1447" d="M850 131L850 108.75L850 108.75L850 88.5" stroke="#323232" stroke-width="2" fill="none" marker-end="url(#SvgjsMarker1448)"></path></g></svg>