<svg id="SvgjsSvg1006" width="757" height="317" xmlns="http://www.w3.org/2000/svg" version="1.1" xmlns:xlink="http://www.w3.org/1999/xlink" xmlns:svgjs="http://svgjs.com/svgjs"><defs id="SvgjsDefs1007"></defs><g id="SvgjsG1008" transform="translate(24.999999999999943,24.999999999999886)"><path id="SvgjsPath1009" d="M 0 4Q 0 0 4 0L 703.25 0Q 707.25 0 707.25 4L 707.25 254.0000000000001Q 707.25 258.0000000000001 703.25 258.0000000000001L 4 258.0000000000001Q 0 258.0000000000001 0 254.0000000000001Z" stroke-dasharray="10,6" stroke="rgba(50,50,50,1)" stroke-width="2" fill-opacity="1" fill="#ffffff"></path><g id="SvgjsG1010"><text id="SvgjsText1011" font-family="微软雅黑" text-anchor="middle" font-size="13px" width="688px" fill="#323232" font-weight="400" align="middle" lineHeight="125%" anchor="middle" family="微软雅黑" size="13px" weight="400" font-style="" opacity="1" y="119.37500000000006" transform="rotate(0)"></text></g></g><g id="SvgjsG1012" transform="translate(51.25,80.99999999999974)"><path id="SvgjsPath1013" d="M 0 4Q 0 0 4 0L 261.9999999999999 0Q 265.9999999999999 0 265.9999999999999 4L 265.9999999999999 127.00000000000026Q 265.9999999999999 131.00000000000026 261.9999999999999 131.00000000000026L 4 131.00000000000026Q 0 131.00000000000026 0 127.00000000000026Z" stroke="rgba(50,50,50,1)" stroke-width="2" fill-opacity="1" fill="#64b5f6"></path><g id="SvgjsG1014"><text id="SvgjsText1015" font-family="微软雅黑" text-anchor="middle" font-size="13px" width="246px" fill="#323232" font-weight="400" align="middle" lineHeight="125%" anchor="middle" family="微软雅黑" size="13px" weight="400" font-style="" opacity="1" y="55.87500000000013" transform="rotate(0)"></text></g></g><g id="SvgjsG1016" transform="translate(64.25,163)"><path id="SvgjsPath1017" d="M 0 0L 93 0L 93 40L 0 40Z" stroke="rgba(50,50,50,1)" stroke-width="2" fill-opacity="1" fill="#00bcd4"></path><g id="SvgjsG1018"><text id="SvgjsText1019" font-family="微软雅黑" text-anchor="middle" font-size="13px" width="73px" fill="#323232" font-weight="400" align="middle" lineHeight="125%" anchor="middle" family="微软雅黑" size="13px" weight="400" font-style="" opacity="1" y="2.375" transform="rotate(0)"><tspan id="SvgjsTspan1020" dy="16" x="46.5"><tspan id="SvgjsTspan1021" style="text-decoration:;">survivor0</tspan></tspan><tspan id="SvgjsTspan1022" dy="16" x="46.5"><tspan id="SvgjsTspan1023" style="text-decoration:;">幸存区</tspan></tspan></text></g></g><g id="SvgjsG1024" transform="translate(203.2499999999999,163)"><path id="SvgjsPath1025" d="M 0 0L 94 0L 94 40L 0 40Z" stroke="rgba(50,50,50,1)" stroke-width="2" fill-opacity="1" fill="#00bcd4"></path><g id="SvgjsG1026"><text id="SvgjsText1027" font-family="微软雅黑" text-anchor="middle" font-size="13px" width="74px" fill="#323232" font-weight="400" align="middle" lineHeight="125%" anchor="middle" family="微软雅黑" size="13px" weight="400" font-style="" opacity="1" y="2.375" transform="rotate(0)"><tspan id="SvgjsTspan1028" dy="16" x="47"><tspan id="SvgjsTspan1029" style="text-decoration:;">survivor1</tspan></tspan><tspan id="SvgjsTspan1030" dy="16" x="47"><tspan id="SvgjsTspan1031" style="text-decoration:;">幸存区</tspan></tspan></text></g></g><g id="SvgjsG1032" transform="translate(65.25,116)"><path id="SvgjsPath1033" d="M 0 0L 234 0L 234 39L 0 39Z" stroke="rgba(50,50,50,1)" stroke-width="2" fill-opacity="1" fill="#bbdefb"></path><g id="SvgjsG1034"><text id="SvgjsText1035" font-family="微软雅黑" text-anchor="middle" font-size="13px" width="214px" fill="#323232" font-weight="400" align="middle" lineHeight="125%" anchor="middle" family="微软雅黑" size="13px" weight="400" font-style="" opacity="1" y="1.875" transform="rotate(0)"><tspan id="SvgjsTspan1036" dy="16" x="117"><tspan id="SvgjsTspan1037" style="text-decoration:;">eden</tspan></tspan><tspan id="SvgjsTspan1038" dy="16" x="117"><tspan id="SvgjsTspan1039" style="text-decoration:;">伊甸园区</tspan></tspan></text></g></g><g id="SvgjsG1040" transform="translate(317.25,79.99999999999989)"><path id="SvgjsPath1041" d="M 0 4Q 0 0 4 0L 398 0Q 402 0 402 4L 402 129Q 402 133 398 133L 4 133Q 0 133 0 129Z" stroke="rgba(50,50,50,1)" stroke-width="2" fill-opacity="1" fill="#ff9800"></path><g id="SvgjsG1042"><text id="SvgjsText1043" font-family="微软雅黑" text-anchor="middle" font-size="13px" width="382px" fill="#323232" font-weight="400" align="middle" lineHeight="125%" anchor="middle" family="微软雅黑" size="13px" weight="400" font-style="" opacity="1" y="56.875" transform="rotate(0)"><tspan id="SvgjsTspan1044" dy="16" x="201"><tspan id="SvgjsTspan1045" style="text-decoration:;">tenured</tspan></tspan></text></g></g><g id="SvgjsG1046" transform="translate(139.25,79)"><path id="SvgjsPath1047" d="M 0 0L 90 0L 90 27L 0 27Z" stroke="none" fill="none"></path><g id="SvgjsG1048"><text id="SvgjsText1049" font-family="微软雅黑" text-anchor="middle" font-size="13px" width="90px" fill="#323232" font-weight="700" align="middle" lineHeight="125%" anchor="middle" family="微软雅黑" size="13px" weight="700" font-style="" opacity="1" y="3.875" transform="rotate(0)"><tspan id="SvgjsTspan1050" dy="16" x="45"><tspan id="SvgjsTspan1051" style="text-decoration:;">young 新生代</tspan></tspan></text></g></g><g id="SvgjsG1052" transform="translate(473.25,79.99999999999989)"><path id="SvgjsPath1053" d="M 0 0L 90 0L 90 27L 0 27Z" stroke="none" fill="none"></path><g id="SvgjsG1054"><text id="SvgjsText1055" font-family="微软雅黑" text-anchor="middle" font-size="13px" width="90px" fill="#323232" font-weight="700" align="middle" lineHeight="125%" anchor="middle" family="微软雅黑" size="13px" weight="700" font-style="" opacity="1" y="3.875" transform="rotate(0)"><tspan id="SvgjsTspan1056" dy="16" x="45"><tspan id="SvgjsTspan1057" style="text-decoration:;">old 老年代</tspan></tspan></text></g></g><g id="SvgjsG1058" transform="translate(182.25,41.99999999999926)"><path id="SvgjsPath1059" d="M 0 0L 198 0L 198 38.000000000000625L 0 38.000000000000625Z" stroke="none" fill="none"></path><g id="SvgjsG1060"><text id="SvgjsText1061" font-family="微软雅黑" text-anchor="middle" font-size="16px" width="198px" fill="#ba68c8" font-weight="700" align="middle" lineHeight="125%" anchor="middle" family="微软雅黑" size="16px" weight="700" font-style="" opacity="1" y="7.000000000000313" transform="rotate(0)"><tspan id="SvgjsTspan1062" dy="20" x="99"><tspan id="SvgjsTspan1063" style="text-decoration:;">新生代 ：老年代 = 1 ：2</tspan></tspan></text></g></g><g id="SvgjsG1064" transform="translate(51.25,215)"><path id="SvgjsPath1065" d="M 0 0L 266 0L 266 36L 0 36Z" stroke="none" fill="none"></path><g id="SvgjsG1066"><text id="SvgjsText1067" font-family="微软雅黑" text-anchor="middle" font-size="13px" width="266px" fill="#2196f3" font-weight="700" align="middle" lineHeight="125%" anchor="middle" family="微软雅黑" size="13px" weight="700" font-style="" opacity="1" y="8.375" transform="rotate(0)"><tspan id="SvgjsTspan1068" dy="16" x="133"><tspan id="SvgjsTspan1069" style="text-decoration:;">eden : survivor0 : survivor1 = 8 : 1 : 1</tspan></tspan></text></g></g><g id="SvgjsG1070" transform="translate(207.25,236.9999999999999)"><path id="SvgjsPath1071" d="M 0 0L 311.0000000000001 0L 311.0000000000001 55L 0 55Z" stroke="none" fill="none"></path><g id="SvgjsG1072"><text id="SvgjsText1073" font-family="微软雅黑" text-anchor="middle" font-size="20px" width="312px" fill="#323232" font-weight="700" align="middle" lineHeight="125%" anchor="middle" family="微软雅黑" size="20px" weight="700" font-style="" opacity="1" y="12.5" transform="rotate(0)"><tspan id="SvgjsTspan1074" dy="25" x="156"><tspan id="SvgjsTspan1075" style="text-decoration:;">Heap （jvm默认各区域比例）</tspan></tspan></text></g></g><g id="SvgjsG1076" transform="translate(492.25,208)"><path id="SvgjsPath1077" d="M 0 0L 211 0L 211 64L 0 64Z" stroke="none" fill="none"></path><g id="SvgjsG1078"><text id="SvgjsText1079" font-family="微软雅黑" text-anchor="middle" font-size="17px" width="211px" fill="#cfcfcf" font-weight="700" align="middle" lineHeight="125%" anchor="middle" family="微软雅黑" size="17px" weight="700" font-style="" opacity="1" y="19.375" transform="rotate(0)"><tspan id="SvgjsTspan1080" dy="21" x="105.5"><tspan id="SvgjsTspan1081" style="text-decoration:;">@WindShadow</tspan></tspan></text></g></g></svg>