<svg id="SvgjsSvg1158" width="768.875" height="521" xmlns="http://www.w3.org/2000/svg" version="1.1" xmlns:xlink="http://www.w3.org/1999/xlink" xmlns:svgjs="http://svgjs.com/svgjs"><defs id="SvgjsDefs1159"><marker id="SvgjsMarker1190" markerWidth="16" markerHeight="12" refX="16" refY="6" viewBox="0 0 16 12" orient="auto" markerUnits="userSpaceOnUse" stroke-dasharray="0,0"><path id="SvgjsPath1191" d="M0,2 L14,6 L0,11 L0,2" fill="#323232" stroke="#323232" stroke-width="2"></path></marker><marker id="SvgjsMarker1198" markerWidth="16" markerHeight="12" refX="16" refY="6" viewBox="0 0 16 12" orient="auto" markerUnits="userSpaceOnUse" stroke-dasharray="0,0"><path id="SvgjsPath1199" d="M0,2 L14,6 L0,11 L0,2" fill="#323232" stroke="#323232" stroke-width="2"></path></marker><marker id="SvgjsMarker1210" markerWidth="16" markerHeight="12" refX="16" refY="6" viewBox="0 0 16 12" orient="auto" markerUnits="userSpaceOnUse" stroke-dasharray="0,0"><path id="SvgjsPath1211" d="M0,2 L14,6 L0,11 L0,2" fill="#323232" stroke="#323232" stroke-width="2"></path></marker><marker id="SvgjsMarker1262" markerWidth="16" markerHeight="12" refX="16" refY="6" viewBox="0 0 16 12" orient="auto" markerUnits="userSpaceOnUse" stroke-dasharray="0,0"><path id="SvgjsPath1263" d="M0,2 L14,6 L0,11 L0,2" fill="#323232" stroke="#323232" stroke-width="2"></path></marker><marker id="SvgjsMarker1278" markerWidth="16" markerHeight="12" refX="16" refY="6" viewBox="0 0 16 12" orient="auto" markerUnits="userSpaceOnUse" stroke-dasharray="0,0"><path id="SvgjsPath1279" d="M0,2 L14,6 L0,11 L0,2" fill="#323232" stroke="#323232" stroke-width="2"></path></marker><marker id="SvgjsMarker1298" markerWidth="16" markerHeight="12" refX="16" refY="6" viewBox="0 0 16 12" orient="auto" markerUnits="userSpaceOnUse" stroke-dasharray="0,0"><path id="SvgjsPath1299" d="M0,2 L14,6 L0,11 L0,2" fill="#323232" stroke="#323232" stroke-width="2"></path></marker><marker id="SvgjsMarker1302" markerWidth="16" markerHeight="12" refX="16" refY="6" viewBox="0 0 16 12" orient="auto" markerUnits="userSpaceOnUse" stroke-dasharray="0,0"><path id="SvgjsPath1303" d="M0,2 L14,6 L0,11 L0,2" fill="#323232" stroke="#323232" stroke-width="2"></path></marker><marker id="SvgjsMarker1306" markerWidth="16" markerHeight="12" refX="16" refY="6" viewBox="0 0 16 12" orient="auto" markerUnits="userSpaceOnUse" stroke-dasharray="0,0"><path id="SvgjsPath1307" d="M0,2 L14,6 L0,11 L0,2" fill="#323232" stroke="#323232" stroke-width="2"></path></marker></defs><g id="SvgjsG1160" transform="translate(545.875,367)"><path id="SvgjsPath1161" d="M 0 0L 198.5 0L 198.5 79L 0 79Z" stroke-dasharray="10,6" stroke="rgba(50,50,50,1)" stroke-width="2" fill-opacity="1" fill="#ffffff"></path><g id="SvgjsG1162"><text id="SvgjsText1163" font-family="微软雅黑" text-anchor="middle" font-size="13px" width="179px" fill="#323232" font-weight="400" align="middle" lineHeight="125%" anchor="middle" family="微软雅黑" size="13px" weight="400" font-style="" opacity="1" y="29.875" transform="rotate(0)"></text></g></g><g id="SvgjsG1164" transform="translate(228.125,43)"><path id="SvgjsPath1165" d="M 0 0L 154 0L 154 46L 0 46Z" stroke="rgba(50,50,50,1)" stroke-width="2" fill-opacity="1" fill="#ffffff"></path><g id="SvgjsG1166"><text id="SvgjsText1167" font-family="微软雅黑" text-anchor="middle" font-size="13px" width="134px" fill="#323232" font-weight="400" align="middle" lineHeight="125%" anchor="middle" family="微软雅黑" size="13px" weight="400" font-style="" opacity="1" y="5.375" transform="rotate(0)"><tspan id="SvgjsTspan1168" dy="16" x="77"><tspan id="SvgjsTspan1169" style="text-decoration:;">Method Area</tspan></tspan><tspan id="SvgjsTspan1170" dy="16" x="77"><tspan id="SvgjsTspan1171" style="text-decoration:;">方法区（逻辑概念）</tspan></tspan></text></g></g><g id="SvgjsG1172" transform="translate(82.12500000000006,171.50000000000085)"><path id="SvgjsPath1173" d="M 0 4Q 0 0 4 0L 141.9999999999999 0Q 145.9999999999999 0 145.9999999999999 4L 145.9999999999999 66.99999999999989Q 145.9999999999999 70.99999999999989 141.9999999999999 70.99999999999989L 4 70.99999999999989Q 0 70.99999999999989 0 66.99999999999989Z" stroke="rgba(50,50,50,1)" stroke-width="2" fill-opacity="1" fill="#81c784"></path><g id="SvgjsG1174"><text id="SvgjsText1175" font-family="微软雅黑" text-anchor="middle" font-size="13px" width="126px" fill="#ffffff" font-weight="400" align="middle" lineHeight="125%" anchor="middle" family="微软雅黑" size="13px" weight="400" font-style="" opacity="1" y="17.874999999999943" transform="rotate(0)"><tspan id="SvgjsTspan1176" dy="16" x="73"><tspan id="SvgjsTspan1177" style="text-decoration:;">Permanent </tspan></tspan><tspan id="SvgjsTspan1178" dy="16" x="73"><tspan id="SvgjsTspan1179" style="text-decoration:;">永久代</tspan></tspan></text></g></g><g id="SvgjsG1180" transform="translate(357.125,171.50000000000085)"><path id="SvgjsPath1181" d="M 0 4Q 0 0 4 0L 141.9999999999999 0Q 145.9999999999999 0 145.9999999999999 4L 145.9999999999999 66.99999999999989Q 145.9999999999999 70.99999999999989 141.9999999999999 70.99999999999989L 4 70.99999999999989Q 0 70.99999999999989 0 66.99999999999989Z" stroke="rgba(50,50,50,1)" stroke-width="2" fill-opacity="1" fill="#1b5e20"></path><g id="SvgjsG1182"><text id="SvgjsText1183" font-family="微软雅黑" text-anchor="middle" font-size="13px" width="126px" fill="#ffffff" font-weight="400" align="middle" lineHeight="125%" anchor="middle" family="微软雅黑" size="13px" weight="400" font-style="" opacity="1" y="17.874999999999943" transform="rotate(0)"><tspan id="SvgjsTspan1184" dy="16" x="73"><tspan id="SvgjsTspan1185" style="text-decoration:;">Metaspace</tspan></tspan><tspan id="SvgjsTspan1186" dy="16" x="73"><tspan id="SvgjsTspan1187" style="text-decoration:;">元空间</tspan></tspan></text></g></g><g id="SvgjsG1188"><path id="SvgjsPath1189" d="M155.125 171.50000000000085C 155.125 103.02372673692071 305.125 157.47627326308015 305.125 89" stroke-dasharray="3,3" stroke="#323232" stroke-width="2" fill="none" marker-end="url(#SvgjsMarker1190)"></path><rect id="SvgjsRect1192" width="26" height="16" x="217.125" y="122.25000000000043" fill="#ffffff"></rect><text id="SvgjsText1193" font-family="微软雅黑" text-anchor="middle" font-size="13px" width="26px" fill="#323232" font-weight="400" align="top" lineHeight="16px" anchor="middle" family="微软雅黑" size="13px" weight="400" font-style="" opacity="1" y="120.62500000000043" transform="rotate(0)"><tspan id="SvgjsTspan1194" dy="16" x="230.125"><tspan id="SvgjsTspan1195" style="text-decoration:;">实现</tspan></tspan></text></g><g id="SvgjsG1196"><path id="SvgjsPath1197" d="M430.125 171.50000000000085C 430.125 111.59173679700004 305.125 148.9082632030008 305.125 89" stroke-dasharray="3,3" stroke="#323232" stroke-width="2" fill="none" marker-end="url(#SvgjsMarker1198)"></path><rect id="SvgjsRect1200" width="26" height="16" x="354.625" y="122.25000000000043" fill="#ffffff"></rect><text id="SvgjsText1201" font-family="微软雅黑" text-anchor="middle" font-size="13px" width="26px" fill="#323232" font-weight="400" align="top" lineHeight="16px" anchor="middle" family="微软雅黑" size="13px" weight="400" font-style="" opacity="1" y="120.62500000000043" transform="rotate(0)"><tspan id="SvgjsTspan1202" dy="16" x="367.625"><tspan id="SvgjsTspan1203" style="text-decoration:;">实现</tspan></tspan></text></g><g id="SvgjsG1204" transform="translate(54.625,367)"><path id="SvgjsPath1205" d="M 0 0L 201 0L 201 129L 0 129Z" stroke-dasharray="10,6" stroke="rgba(50,50,50,1)" stroke-width="2" fill-opacity="1" fill="#ffffff"></path><g id="SvgjsG1206"><text id="SvgjsText1207" font-family="微软雅黑" text-anchor="middle" font-size="13px" width="181px" fill="#323232" font-weight="400" align="middle" lineHeight="125%" anchor="middle" family="微软雅黑" size="13px" weight="400" font-style="" opacity="1" y="54.875" transform="rotate(0)"></text></g></g><g id="SvgjsG1208"><path id="SvgjsPath1209" d="M155.125 242.50000000000074L155.125 304.75000000000034L155.125 304.75000000000034L155.125 367" stroke="#323232" stroke-width="2" fill="none" marker-end="url(#SvgjsMarker1210)"></path><rect id="SvgjsRect1212" width="26" height="16" x="142.125" y="296.7500000000004" fill="#ffffff"></rect><text id="SvgjsText1213" font-family="微软雅黑" text-anchor="middle" font-size="13px" width="26px" fill="#323232" font-weight="400" align="top" lineHeight="16px" anchor="middle" family="微软雅黑" size="13px" weight="400" font-style="" opacity="1" y="295.1250000000004" transform="rotate(0)"><tspan id="SvgjsTspan1214" dy="16" x="155.125"><tspan id="SvgjsTspan1215" style="text-decoration:;">存储</tspan></tspan></text></g><g id="SvgjsG1216" transform="translate(78.125,386)"><path id="SvgjsPath1217" d="M 0 4Q 0 0 4 0L 150 0Q 154 0 154 4L 154 37Q 154 41 150 41L 4 41Q 0 41 0 37Z" stroke="rgba(50,50,50,1)" stroke-width="2" fill-opacity="1" fill="#00bcd4"></path><g id="SvgjsG1218"><text id="SvgjsText1219" font-family="微软雅黑" text-anchor="middle" font-size="13px" width="134px" fill="#ffffff" font-weight="400" align="middle" lineHeight="125%" anchor="middle" family="微软雅黑" size="13px" weight="400" font-style="" opacity="1" y="2.875" transform="rotate(0)"><tspan id="SvgjsTspan1220" dy="16" x="77"><tspan id="SvgjsTspan1221" style="text-decoration:;">类的元信息Class</tspan></tspan></text></g></g><g id="SvgjsG1222" transform="translate(163.125,437)"><path id="SvgjsPath1223" d="M 0 4Q 0 0 4 0L 65 0Q 69 0 69 4L 69 35Q 69 39 65 39L 4 39Q 0 39 0 35Z" stroke="rgba(50,50,50,1)" stroke-width="2" fill-opacity="1" fill="#2196f3"></path><g id="SvgjsG1224"><text id="SvgjsText1225" font-family="微软雅黑" text-anchor="middle" font-size="13px" width="49px" fill="#ffffff" font-weight="400" align="middle" lineHeight="125%" anchor="middle" family="微软雅黑" size="13px" weight="400" font-style="" opacity="1" y="1.875" transform="rotate(0)"><tspan id="SvgjsTspan1226" dy="16" x="34.5"><tspan id="SvgjsTspan1227" style="text-decoration:;">String</tspan></tspan><tspan id="SvgjsTspan1228" dy="16" x="34.5"><tspan id="SvgjsTspan1229" style="text-decoration:;">常量池</tspan></tspan></text></g></g><g id="SvgjsG1230" transform="translate(78.125,437)"><path id="SvgjsPath1231" d="M 0 4Q 0 0 4 0L 72 0Q 76 0 76 4L 76 35Q 76 39 72 39L 4 39Q 0 39 0 35Z" stroke="rgba(50,50,50,1)" stroke-width="2" fill-opacity="1" fill="#ff00ff"></path><g id="SvgjsG1232"><text id="SvgjsText1233" font-family="微软雅黑" text-anchor="middle" font-size="13px" width="56px" fill="#ffffff" font-weight="400" align="middle" lineHeight="125%" anchor="middle" family="微软雅黑" size="13px" weight="400" font-style="" opacity="1" y="9.875" transform="rotate(0)"><tspan id="SvgjsTspan1234" dy="16" x="38"><tspan id="SvgjsTspan1235" style="text-decoration:;">静态变量</tspan></tspan></text></g></g><g id="SvgjsG1236" transform="translate(332.875,367)"><path id="SvgjsPath1237" d="M 0 0L 194.5 0L 194.5 79L 0 79Z" stroke-dasharray="10,6" stroke="rgba(50,50,50,1)" stroke-width="2" fill-opacity="1" fill="#ffffff"></path><g id="SvgjsG1238"><text id="SvgjsText1239" font-family="微软雅黑" text-anchor="middle" font-size="13px" width="175px" fill="#323232" font-weight="400" align="middle" lineHeight="125%" anchor="middle" family="微软雅黑" size="13px" weight="400" font-style="" opacity="1" y="29.875" transform="rotate(0)"></text></g></g><g id="SvgjsG1240" transform="translate(353.125,386)"><path id="SvgjsPath1241" d="M 0 4Q 0 0 4 0L 150 0Q 154 0 154 4L 154 37Q 154 41 150 41L 4 41Q 0 41 0 37Z" stroke="rgba(50,50,50,1)" stroke-width="2" fill-opacity="1" fill="#00bcd4"></path><g id="SvgjsG1242"><text id="SvgjsText1243" font-family="微软雅黑" text-anchor="middle" font-size="13px" width="134px" fill="#ffffff" font-weight="400" align="middle" lineHeight="125%" anchor="middle" family="微软雅黑" size="13px" weight="400" font-style="" opacity="1" y="2.875" transform="rotate(0)"><tspan id="SvgjsTspan1244" dy="16" x="77"><tspan id="SvgjsTspan1245" style="text-decoration:;">类的元信息Class</tspan></tspan></text></g></g><g id="SvgjsG1246" transform="translate(652.125,387)"><path id="SvgjsPath1247" d="M 0 4Q 0 0 4 0L 65 0Q 69 0 69 4L 69 35Q 69 39 65 39L 4 39Q 0 39 0 35Z" stroke="rgba(50,50,50,1)" stroke-width="2" fill-opacity="1" fill="#2196f3"></path><g id="SvgjsG1248"><text id="SvgjsText1249" font-family="微软雅黑" text-anchor="middle" font-size="13px" width="49px" fill="#ffffff" font-weight="400" align="middle" lineHeight="125%" anchor="middle" family="微软雅黑" size="13px" weight="400" font-style="" opacity="1" y="1.875" transform="rotate(0)"><tspan id="SvgjsTspan1250" dy="16" x="34.5"><tspan id="SvgjsTspan1251" style="text-decoration:;">String</tspan></tspan><tspan id="SvgjsTspan1252" dy="16" x="34.5"><tspan id="SvgjsTspan1253" style="text-decoration:;">常量池</tspan></tspan></text></g></g><g id="SvgjsG1254" transform="translate(567.125,387)"><path id="SvgjsPath1255" d="M 0 4Q 0 0 4 0L 72 0Q 76 0 76 4L 76 35Q 76 39 72 39L 4 39Q 0 39 0 35Z" stroke="rgba(50,50,50,1)" stroke-width="2" fill-opacity="1" fill="#ff00ff"></path><g id="SvgjsG1256"><text id="SvgjsText1257" font-family="微软雅黑" text-anchor="middle" font-size="13px" width="56px" fill="#ffffff" font-weight="400" align="middle" lineHeight="125%" anchor="middle" family="微软雅黑" size="13px" weight="400" font-style="" opacity="1" y="9.875" transform="rotate(0)"><tspan id="SvgjsTspan1258" dy="16" x="38"><tspan id="SvgjsTspan1259" style="text-decoration:;">静态变量</tspan></tspan></text></g></g><g id="SvgjsG1260"><path id="SvgjsPath1261" d="M430.125 242.50000000000074L430.125 304.75000000000034L430.125 304.75000000000034L430.125 367" stroke="#323232" stroke-width="2" fill="none" marker-end="url(#SvgjsMarker1262)"></path><rect id="SvgjsRect1264" width="26" height="16" x="417.125" y="296.7500000000004" fill="#ffffff"></rect><text id="SvgjsText1265" font-family="微软雅黑" text-anchor="middle" font-size="13px" width="26px" fill="#323232" font-weight="400" align="top" lineHeight="16px" anchor="middle" family="微软雅黑" size="13px" weight="400" font-style="" opacity="1" y="295.1250000000004" transform="rotate(0)"><tspan id="SvgjsTspan1266" dy="16" x="430.125"><tspan id="SvgjsTspan1267" style="text-decoration:;">存储</tspan></tspan></text></g><g id="SvgjsG1268" transform="translate(585.25,172.0000000000008)"><path id="SvgjsPath1269" d="M 0 4Q 0 0 4 0L 115.75 0Q 119.75 0 119.75 4L 119.75 66Q 119.75 70 115.75 70L 4 70Q 0 70 0 66Z" stroke="rgba(50,50,50,1)" stroke-width="2" fill-opacity="1" fill="#ffffff"></path><g id="SvgjsG1270"><text id="SvgjsText1271" font-family="微软雅黑" text-anchor="middle" font-size="13px" width="100px" fill="#323232" font-weight="400" align="middle" lineHeight="125%" anchor="middle" family="微软雅黑" size="13px" weight="400" font-style="" opacity="1" y="17.375" transform="rotate(0)"><tspan id="SvgjsTspan1272" dy="16" x="60"><tspan id="SvgjsTspan1273" style="text-decoration:;">Heap</tspan></tspan><tspan id="SvgjsTspan1274" dy="16" x="60"><tspan id="SvgjsTspan1275" style="text-decoration:;">堆</tspan></tspan></text></g></g><g id="SvgjsG1276"><path id="SvgjsPath1277" d="M645.125 242.0000000000008L645.125 304.5000000000004L645.125 304.5000000000004L645.125 367" stroke="#323232" stroke-width="2" fill="none" marker-end="url(#SvgjsMarker1278)"></path><rect id="SvgjsRect1280" width="26" height="16" x="632.125" y="296.5000000000004" fill="#ffffff"></rect><text id="SvgjsText1281" font-family="微软雅黑" text-anchor="middle" font-size="13px" width="26px" fill="#323232" font-weight="400" align="top" lineHeight="16px" anchor="middle" family="微软雅黑" size="13px" weight="400" font-style="" opacity="1" y="294.8750000000004" transform="rotate(0)"><tspan id="SvgjsTspan1282" dy="16" x="645.125"><tspan id="SvgjsTspan1283" style="text-decoration:;">存储</tspan></tspan></text></g><g id="SvgjsG1284" transform="translate(25,38)"><path id="SvgjsPath1285" d="M 0 33.75C 0 -11.25 78.125 -11.25 78.125 33.75C 78.125 78.75 0 78.75 0 33.75Z" stroke="rgba(50,50,50,1)" stroke-width="2" fill-opacity="1" fill="#ffcdd2"></path><g id="SvgjsG1286"><text id="SvgjsText1287" font-family="微软雅黑" text-anchor="middle" font-size="13px" width="59px" fill="#323232" font-weight="400" align="middle" lineHeight="125%" anchor="middle" family="微软雅黑" size="13px" weight="400" font-style="" opacity="1" y="24.125" transform="rotate(0)"><tspan id="SvgjsTspan1288" dy="16" x="39.5"><tspan id="SvgjsTspan1289" style="text-decoration:;">JDK1.7前</tspan></tspan></text></g></g><g id="SvgjsG1290" transform="translate(516.25,25)"><path id="SvgjsPath1291" d="M 0 35.75C 0 -11.916666666666666 78.875 -11.916666666666666 78.875 35.75C 78.875 83.41666666666667 0 83.41666666666667 0 35.75Z" stroke="rgba(50,50,50,1)" stroke-width="2" fill-opacity="1" fill="#ba68c8"></path><g id="SvgjsG1292"><text id="SvgjsText1293" font-family="微软雅黑" text-anchor="middle" font-size="13px" width="59px" fill="#323232" font-weight="400" align="middle" lineHeight="125%" anchor="middle" family="微软雅黑" size="13px" weight="400" font-style="" opacity="1" y="26.125" transform="rotate(0)"><tspan id="SvgjsTspan1294" dy="16" x="39.5"><tspan id="SvgjsTspan1295" style="text-decoration:;">JDK1.8后</tspan></tspan></text></g></g><g id="SvgjsG1296"><path id="SvgjsPath1297" d="M155.125 171.50000000000085C 155.125 126.5139952318508 67.9832886588178 150.31481943836104 64.0625 105.5" stroke-dasharray="3,3" stroke="#323232" stroke-width="2" fill="none" marker-end="url(#SvgjsMarker1298)"></path></g><g id="SvgjsG1300"><path id="SvgjsPath1301" d="M430.125 171.50000000000085C 430.125 112.99743061198149 560.7863348876592 154.77994944908934 555.6875 96.5" stroke-dasharray="3,3" stroke="#323232" stroke-width="2" fill="none" marker-end="url(#SvgjsMarker1302)"></path></g><g id="SvgjsG1304"><path id="SvgjsPath1305" d="M645.125 172.0000000000008C 645.125 125.18236843880348 559.7679254524023 143.13947633847755 555.6875 96.5" stroke-dasharray="3,3" stroke="#323232" stroke-width="2" fill="none" marker-end="url(#SvgjsMarker1306)"></path></g><g id="SvgjsG1308" transform="translate(191.12499999999994,204.5)"><path id="SvgjsPath1309" d="M 0 0L 152 0L 152 47L 0 47Z" stroke="none" fill="none"></path><g id="SvgjsG1310"><text id="SvgjsText1311" font-family="微软雅黑" text-anchor="middle" font-size="17px" width="152px" fill="#cfcfcf" font-weight="700" align="middle" lineHeight="125%" anchor="middle" family="微软雅黑" size="17px" weight="700" font-style="" opacity="1" y="10.875" transform="rotate(0)"><tspan id="SvgjsTspan1312" dy="21" x="76"><tspan id="SvgjsTspan1313" style="text-decoration:;">@WindShadow</tspan></tspan></text></g></g></svg>