<svg id="SvgjsSvg1006" width="1104" height="610.125" xmlns="http://www.w3.org/2000/svg" version="1.1" xmlns:xlink="http://www.w3.org/1999/xlink" xmlns:svgjs="http://svgjs.com/svgjs"><defs id="SvgjsDefs1007"><marker id="SvgjsMarker1056" markerWidth="16" markerHeight="12" refX="16" refY="6" viewBox="0 0 16 12" orient="auto" markerUnits="userSpaceOnUse" stroke-dasharray="0,0"><path id="SvgjsPath1057" d="M0,2 L14,6 L0,11 L0,2" fill="#323232" stroke="#323232" stroke-width="2"></path></marker><marker id="SvgjsMarker1150" markerWidth="16" markerHeight="12" refX="16" refY="6" viewBox="0 0 16 12" orient="auto" markerUnits="userSpaceOnUse" stroke-dasharray="0,0"><path id="SvgjsPath1151" d="M0,2 L14,6 L0,11 L0,2" fill="#323232" stroke="#323232" stroke-width="2"></path></marker><marker id="SvgjsMarker1166" markerWidth="16" markerHeight="12" refX="16" refY="6" viewBox="0 0 16 12" orient="auto" markerUnits="userSpaceOnUse" stroke-dasharray="0,0"><path id="SvgjsPath1167" d="M0,2 L14,6 L0,11 L0,2" fill="#323232" stroke="#323232" stroke-width="2"></path></marker><marker id="SvgjsMarker1170" markerWidth="16" markerHeight="12" refX="16" refY="6" viewBox="0 0 16 12" orient="auto" markerUnits="userSpaceOnUse" stroke-dasharray="0,0"><path id="SvgjsPath1171" d="M0,2 L14,6 L0,11 L0,2" fill="#323232" stroke="#323232" stroke-width="2"></path></marker></defs><g id="SvgjsG1008" transform="translate(674,250.125)"><path id="SvgjsPath1009" d="M 0 0L 404 0L 404 335L 0 335Z" stroke-dasharray="3,4" stroke="rgba(50,50,50,1)" stroke-width="2" fill-opacity="1" fill="#ffffff"></path><g id="SvgjsG1010"><text id="SvgjsText1011" font-family="微软雅黑" text-anchor="middle" font-size="13px" width="384px" fill="#323232" font-weight="400" align="middle" lineHeight="125%" anchor="middle" family="微软雅黑" size="13px" weight="400" font-style="" opacity="1" y="157.875" transform="rotate(0)"></text></g></g><g id="SvgjsG1012" transform="translate(673,25)"><path id="SvgjsPath1013" d="M 0 0L 406 0L 406 195.375L 0 195.375Z" stroke-dasharray="3,4" stroke="rgba(50,50,50,1)" stroke-width="2" fill-opacity="1" fill="#ffffff"></path><g id="SvgjsG1014"><text id="SvgjsText1015" font-family="微软雅黑" text-anchor="middle" font-size="13px" width="386px" fill="#323232" font-weight="400" align="middle" lineHeight="125%" anchor="middle" family="微软雅黑" size="13px" weight="400" font-style="" opacity="1" y="88.0625" transform="rotate(0)"></text></g></g><g id="SvgjsG1016" transform="translate(25,189.75)"><path id="SvgjsPath1017" d="M 0 0L 406 0L 406 195.375L 0 195.375Z" stroke-dasharray="3,4" stroke="rgba(50,50,50,1)" stroke-width="2" fill-opacity="1" fill="#ffffff"></path><g id="SvgjsG1018"><text id="SvgjsText1019" font-family="微软雅黑" text-anchor="middle" font-size="13px" width="386px" fill="#323232" font-weight="400" align="middle" lineHeight="125%" anchor="middle" family="微软雅黑" size="13px" weight="400" font-style="" opacity="1" y="88.0625" transform="rotate(0)"></text></g></g><g id="SvgjsG1020" transform="translate(276,253.75)"><path id="SvgjsPath1021" d="M 0 0L 134 0L 134 113L 0 113Z" stroke="rgba(50,50,50,1)" stroke-width="2" fill-opacity="1" fill="#ffffff"></path><g id="SvgjsG1022"><text id="SvgjsText1023" font-family="微软雅黑" text-anchor="middle" font-size="13px" width="114px" fill="#323232" font-weight="400" align="middle" lineHeight="125%" anchor="middle" family="微软雅黑" size="13px" weight="400" font-style="" opacity="1" y="46.875" transform="rotate(0)"></text></g></g><g id="SvgjsG1024" transform="translate(41,289.75)"><path id="SvgjsPath1025" d="M 0 4Q 0 0 4 0L 110 0Q 114 0 114 4L 114 37Q 114 41 110 41L 4 41Q 0 41 0 37Z" stroke="rgba(50,50,50,1)" stroke-width="2" fill-opacity="1" fill="#ffcdd2"></path><g id="SvgjsG1026"><text id="SvgjsText1027" font-family="微软雅黑" text-anchor="middle" font-size="13px" width="94px" fill="#323232" font-weight="400" align="middle" lineHeight="125%" anchor="middle" family="微软雅黑" size="13px" weight="400" font-style="" opacity="1" y="10.875" transform="rotate(0)"><tspan id="SvgjsTspan1028" dy="16" x="57"><tspan id="SvgjsTspan1029" style="text-decoration:;">admin</tspan></tspan></text></g></g><g id="SvgjsG1030" transform="translate(86,212.75)"><path id="SvgjsPath1031" d="M 0 0L 284 0L 284 31L 0 31Z" stroke="none" fill="none"></path><g id="SvgjsG1032"><text id="SvgjsText1033" font-family="微软雅黑" text-anchor="middle" font-size="15px" width="284px" fill="#323232" font-weight="400" align="middle" lineHeight="125%" anchor="middle" family="微软雅黑" size="15px" weight="400" font-style="" opacity="1" y="4.625" transform="rotate(0)"><tspan id="SvgjsTspan1034" dy="18" x="142"><tspan id="SvgjsTspan1035" style="text-decoration:;">User admin = new User("tom",18)；</tspan></tspan></text></g></g><g id="SvgjsG1036" transform="translate(284,262)"><path id="SvgjsPath1037" d="M 0 0L 118 0L 118 32.5L 0 32.5Z" stroke="rgba(50,50,50,1)" stroke-width="2" fill-opacity="1" fill="#ffcdd2"></path><g id="SvgjsG1038"><text id="SvgjsText1039" font-family="微软雅黑" text-anchor="middle" font-size="13px" width="98px" fill="#323232" font-weight="400" align="middle" lineHeight="125%" anchor="middle" family="微软雅黑" size="13px" weight="400" font-style="" opacity="1" y="6.625" transform="rotate(0)"><tspan id="SvgjsTspan1040" dy="16" x="59"><tspan id="SvgjsTspan1041" style="text-decoration:;">name: "tom"</tspan></tspan></text></g></g><g id="SvgjsG1042" transform="translate(284,294)"><path id="SvgjsPath1043" d="M 0 0L 118 0L 118 32.5L 0 32.5Z" stroke="rgba(50,50,50,1)" stroke-width="2" fill-opacity="1" fill="#ffcdd2"></path><g id="SvgjsG1044"><text id="SvgjsText1045" font-family="微软雅黑" text-anchor="middle" font-size="13px" width="98px" fill="#323232" font-weight="400" align="middle" lineHeight="125%" anchor="middle" family="微软雅黑" size="13px" weight="400" font-style="" opacity="1" y="6.625" transform="rotate(0)"><tspan id="SvgjsTspan1046" dy="16" x="59"><tspan id="SvgjsTspan1047" style="text-decoration:;">age: 18</tspan></tspan></text></g></g><g id="SvgjsG1048" transform="translate(284,327)"><path id="SvgjsPath1049" d="M 0 0L 118 0L 118 32.5L 0 32.5Z" stroke="rgba(50,50,50,1)" stroke-width="2" fill-opacity="1" fill="#ba68c8"></path><g id="SvgjsG1050"><text id="SvgjsText1051" font-family="微软雅黑" text-anchor="middle" font-size="13px" width="98px" fill="#323232" font-weight="400" align="middle" lineHeight="125%" anchor="middle" family="微软雅黑" size="13px" weight="400" font-style="" opacity="1" y="6.625" transform="rotate(0)"><tspan id="SvgjsTspan1052" dy="16" x="59"><tspan id="SvgjsTspan1053" style="text-decoration:;">RC: 1</tspan></tspan></text></g></g><g id="SvgjsG1054"><path id="SvgjsPath1055" d="M155 310.25L215.5 310.25L215.5 310.25L276 310.25" stroke="#323232" stroke-width="2" fill="none" marker-end="url(#SvgjsMarker1056)"></path></g><g id="SvgjsG1058" transform="translate(929,70.375)"><path id="SvgjsPath1059" d="M 0 0L 134 0L 134 113L 0 113Z" stroke="rgba(50,50,50,1)" stroke-width="2" fill-opacity="1" fill="#ffffff"></path><g id="SvgjsG1060"><text id="SvgjsText1061" font-family="微软雅黑" text-anchor="middle" font-size="13px" width="114px" fill="#323232" font-weight="400" align="middle" lineHeight="125%" anchor="middle" family="微软雅黑" size="13px" weight="400" font-style="" opacity="1" y="46.875" transform="rotate(0)"></text></g></g><g id="SvgjsG1062" transform="translate(694,106.375)"><path id="SvgjsPath1063" d="M 0 4Q 0 0 4 0L 110 0Q 114 0 114 4L 114 37Q 114 41 110 41L 4 41Q 0 41 0 37Z" stroke="rgba(50,50,50,1)" stroke-width="2" fill-opacity="1" fill="#ffcdd2"></path><g id="SvgjsG1064"><text id="SvgjsText1065" font-family="微软雅黑" text-anchor="middle" font-size="13px" width="94px" fill="#323232" font-weight="400" align="middle" lineHeight="125%" anchor="middle" family="微软雅黑" size="13px" weight="400" font-style="" opacity="1" y="10.875" transform="rotate(0)"><tspan id="SvgjsTspan1066" dy="16" x="57"><tspan id="SvgjsTspan1067" style="text-decoration:;">admin</tspan></tspan></text></g></g><g id="SvgjsG1068" transform="translate(734,35.375)"><path id="SvgjsPath1069" d="M 0 0L 284 0L 284 31L 0 31Z" stroke="none" fill="none"></path><g id="SvgjsG1070"><text id="SvgjsText1071" font-family="微软雅黑" text-anchor="middle" font-size="15px" width="284px" fill="#323232" font-weight="400" align="middle" lineHeight="125%" anchor="middle" family="微软雅黑" size="15px" weight="400" font-style="" opacity="1" y="4.625" transform="rotate(0)"><tspan id="SvgjsTspan1072" dy="18" x="142"><tspan id="SvgjsTspan1073" style="text-decoration:;">admin = null；</tspan></tspan></text></g></g><g id="SvgjsG1074" transform="translate(937,78.625)"><path id="SvgjsPath1075" d="M 0 0L 118 0L 118 32.5L 0 32.5Z" stroke="rgba(50,50,50,1)" stroke-width="2" fill-opacity="1" fill="#ffcdd2"></path><g id="SvgjsG1076"><text id="SvgjsText1077" font-family="微软雅黑" text-anchor="middle" font-size="13px" width="98px" fill="#323232" font-weight="400" align="middle" lineHeight="125%" anchor="middle" family="微软雅黑" size="13px" weight="400" font-style="" opacity="1" y="6.625" transform="rotate(0)"><tspan id="SvgjsTspan1078" dy="16" x="59"><tspan id="SvgjsTspan1079" style="text-decoration:;">name: "tom"</tspan></tspan></text></g></g><g id="SvgjsG1080" transform="translate(937,110.625)"><path id="SvgjsPath1081" d="M 0 0L 118 0L 118 32.5L 0 32.5Z" stroke="rgba(50,50,50,1)" stroke-width="2" fill-opacity="1" fill="#ffcdd2"></path><g id="SvgjsG1082"><text id="SvgjsText1083" font-family="微软雅黑" text-anchor="middle" font-size="13px" width="98px" fill="#323232" font-weight="400" align="middle" lineHeight="125%" anchor="middle" family="微软雅黑" size="13px" weight="400" font-style="" opacity="1" y="6.625" transform="rotate(0)"><tspan id="SvgjsTspan1084" dy="16" x="59"><tspan id="SvgjsTspan1085" style="text-decoration:;">age: 18</tspan></tspan></text></g></g><g id="SvgjsG1086" transform="translate(937,143.625)"><path id="SvgjsPath1087" d="M 0 0L 118 0L 118 32.5L 0 32.5Z" stroke="rgba(50,50,50,1)" stroke-width="2" fill-opacity="1" fill="#ba68c8"></path><g id="SvgjsG1088"><text id="SvgjsText1089" font-family="微软雅黑" text-anchor="middle" font-size="13px" width="98px" fill="#323232" font-weight="400" align="middle" lineHeight="125%" anchor="middle" family="微软雅黑" size="13px" weight="400" font-style="" opacity="1" y="6.625" transform="rotate(0)"><tspan id="SvgjsTspan1090" dy="16" x="59"><tspan id="SvgjsTspan1091" style="text-decoration:;">RC: 0</tspan></tspan></text></g></g><g id="SvgjsG1092" transform="translate(925,455.125)"><path id="SvgjsPath1093" d="M 0 0L 134 0L 134 113L 0 113Z" stroke="rgba(50,50,50,1)" stroke-width="2" fill-opacity="1" fill="#ffffff"></path><g id="SvgjsG1094"><text id="SvgjsText1095" font-family="微软雅黑" text-anchor="middle" font-size="13px" width="114px" fill="#323232" font-weight="400" align="middle" lineHeight="125%" anchor="middle" family="微软雅黑" size="13px" weight="400" font-style="" opacity="1" y="46.875" transform="rotate(0)"></text></g></g><g id="SvgjsG1096" transform="translate(690,491.125)"><path id="SvgjsPath1097" d="M 0 4Q 0 0 4 0L 110 0Q 114 0 114 4L 114 37Q 114 41 110 41L 4 41Q 0 41 0 37Z" stroke="rgba(50,50,50,1)" stroke-width="2" fill-opacity="1" fill="#ffcdd2"></path><g id="SvgjsG1098"><text id="SvgjsText1099" font-family="微软雅黑" text-anchor="middle" font-size="13px" width="94px" fill="#323232" font-weight="400" align="middle" lineHeight="125%" anchor="middle" family="微软雅黑" size="13px" weight="400" font-style="" opacity="1" y="10.875" transform="rotate(0)"><tspan id="SvgjsTspan1100" dy="16" x="57"><tspan id="SvgjsTspan1101" style="text-decoration:;">admin</tspan></tspan></text></g></g><g id="SvgjsG1102" transform="translate(659,415.125)"><path id="SvgjsPath1103" d="M 0 0L 284 0L 284 31L 0 31Z" stroke="none" fill="none"></path><g id="SvgjsG1104"><text id="SvgjsText1105" font-family="微软雅黑" text-anchor="middle" font-size="15px" width="284px" fill="#323232" font-weight="400" align="middle" lineHeight="125%" anchor="middle" family="微软雅黑" size="15px" weight="400" font-style="" opacity="1" y="4.625" transform="rotate(0)"><tspan id="SvgjsTspan1106" dy="18" x="142"><tspan id="SvgjsTspan1107" style="text-decoration:;">admin = new User("jerry",16)；</tspan></tspan></text></g></g><g id="SvgjsG1108" transform="translate(933,463.375)"><path id="SvgjsPath1109" d="M 0 0L 118 0L 118 32.5L 0 32.5Z" stroke="rgba(50,50,50,1)" stroke-width="2" fill-opacity="1" fill="#ffcdd2"></path><g id="SvgjsG1110"><text id="SvgjsText1111" font-family="微软雅黑" text-anchor="middle" font-size="13px" width="98px" fill="#323232" font-weight="400" align="middle" lineHeight="125%" anchor="middle" family="微软雅黑" size="13px" weight="400" font-style="" opacity="1" y="6.625" transform="rotate(0)"><tspan id="SvgjsTspan1112" dy="16" x="59"><tspan id="SvgjsTspan1113" style="text-decoration:;">name: "jerry"</tspan></tspan></text></g></g><g id="SvgjsG1114" transform="translate(933,495.375)"><path id="SvgjsPath1115" d="M 0 0L 118 0L 118 32.5L 0 32.5Z" stroke="rgba(50,50,50,1)" stroke-width="2" fill-opacity="1" fill="#ffcdd2"></path><g id="SvgjsG1116"><text id="SvgjsText1117" font-family="微软雅黑" text-anchor="middle" font-size="13px" width="98px" fill="#323232" font-weight="400" align="middle" lineHeight="125%" anchor="middle" family="微软雅黑" size="13px" weight="400" font-style="" opacity="1" y="6.625" transform="rotate(0)"><tspan id="SvgjsTspan1118" dy="16" x="59"><tspan id="SvgjsTspan1119" style="text-decoration:;">age: 16</tspan></tspan></text></g></g><g id="SvgjsG1120" transform="translate(933,528.375)"><path id="SvgjsPath1121" d="M 0 0L 118 0L 118 32.5L 0 32.5Z" stroke="rgba(50,50,50,1)" stroke-width="2" fill-opacity="1" fill="#ba68c8"></path><g id="SvgjsG1122"><text id="SvgjsText1123" font-family="微软雅黑" text-anchor="middle" font-size="13px" width="98px" fill="#323232" font-weight="400" align="middle" lineHeight="125%" anchor="middle" family="微软雅黑" size="13px" weight="400" font-style="" opacity="1" y="6.625" transform="rotate(0)"><tspan id="SvgjsTspan1124" dy="16" x="59"><tspan id="SvgjsTspan1125" style="text-decoration:;">RC: 1</tspan></tspan></text></g></g><g id="SvgjsG1126" transform="translate(925,296.25)"><path id="SvgjsPath1127" d="M 0 0L 134 0L 134 113L 0 113Z" stroke="rgba(50,50,50,1)" stroke-width="2" fill-opacity="1" fill="#ffffff"></path><g id="SvgjsG1128"><text id="SvgjsText1129" font-family="微软雅黑" text-anchor="middle" font-size="13px" width="114px" fill="#323232" font-weight="400" align="middle" lineHeight="125%" anchor="middle" family="微软雅黑" size="13px" weight="400" font-style="" opacity="1" y="46.875" transform="rotate(0)"></text></g></g><g id="SvgjsG1130" transform="translate(933,304.5)"><path id="SvgjsPath1131" d="M 0 0L 118 0L 118 32.5L 0 32.5Z" stroke="rgba(50,50,50,1)" stroke-width="2" fill-opacity="1" fill="#ffcdd2"></path><g id="SvgjsG1132"><text id="SvgjsText1133" font-family="微软雅黑" text-anchor="middle" font-size="13px" width="98px" fill="#323232" font-weight="400" align="middle" lineHeight="125%" anchor="middle" family="微软雅黑" size="13px" weight="400" font-style="" opacity="1" y="6.625" transform="rotate(0)"><tspan id="SvgjsTspan1134" dy="16" x="59"><tspan id="SvgjsTspan1135" style="text-decoration:;">name: "tom"</tspan></tspan></text></g></g><g id="SvgjsG1136" transform="translate(933,336.5)"><path id="SvgjsPath1137" d="M 0 0L 118 0L 118 32.5L 0 32.5Z" stroke="rgba(50,50,50,1)" stroke-width="2" fill-opacity="1" fill="#ffcdd2"></path><g id="SvgjsG1138"><text id="SvgjsText1139" font-family="微软雅黑" text-anchor="middle" font-size="13px" width="98px" fill="#323232" font-weight="400" align="middle" lineHeight="125%" anchor="middle" family="微软雅黑" size="13px" weight="400" font-style="" opacity="1" y="6.625" transform="rotate(0)"><tspan id="SvgjsTspan1140" dy="16" x="59"><tspan id="SvgjsTspan1141" style="text-decoration:;">age: 18</tspan></tspan></text></g></g><g id="SvgjsG1142" transform="translate(933,369.5)"><path id="SvgjsPath1143" d="M 0 0L 118 0L 118 32.5L 0 32.5Z" stroke="rgba(50,50,50,1)" stroke-width="2" fill-opacity="1" fill="#ba68c8"></path><g id="SvgjsG1144"><text id="SvgjsText1145" font-family="微软雅黑" text-anchor="middle" font-size="13px" width="98px" fill="#323232" font-weight="400" align="middle" lineHeight="125%" anchor="middle" family="微软雅黑" size="13px" weight="400" font-style="" opacity="1" y="6.625" transform="rotate(0)"><tspan id="SvgjsTspan1146" dy="16" x="59"><tspan id="SvgjsTspan1147" style="text-decoration:;">RC: 0</tspan></tspan></text></g></g><g id="SvgjsG1148"><path id="SvgjsPath1149" d="M804 511.625L864.5 511.625L864.5 511.625L925 511.625" stroke="#323232" stroke-width="2" fill="none" marker-end="url(#SvgjsMarker1150)"></path></g><g id="SvgjsG1152" transform="translate(1005,35.375)"><path id="SvgjsPath1153" d="M 0 17.125C 0 -5.708333333333333 56 -5.708333333333333 56 17.125Q 54.879999999999995 33.565 28 34.25Q 18.666666666666668 34.25 9.333333333333334 30.825L 0 34.25L 6.5520000000000005 29.352249999999998Q 0 23.974999999999998 0 17.125" stroke="rgba(50,50,50,1)" stroke-width="2" fill-opacity="1" fill="#7b1fa2"></path><g id="SvgjsG1154"><text id="SvgjsText1155" font-family="微软雅黑" text-anchor="middle" font-size="13px" width="36px" fill="#ffffff" font-weight="400" align="middle" lineHeight="125%" anchor="middle" family="微软雅黑" size="13px" weight="400" font-style="" opacity="1" y="7.5" transform="rotate(0)"><tspan id="SvgjsTspan1156" dy="16" x="28"><tspan id="SvgjsTspan1157" style="text-decoration:;">垃圾</tspan></tspan></text></g></g><g id="SvgjsG1158" transform="translate(995,261.125)"><path id="SvgjsPath1159" d="M 0 17.125C 0 -5.708333333333333 56 -5.708333333333333 56 17.125Q 54.879999999999995 33.565 28 34.25Q 18.666666666666668 34.25 9.333333333333334 30.825L 0 34.25L 6.5520000000000005 29.352249999999998Q 0 23.974999999999998 0 17.125" stroke="rgba(50,50,50,1)" stroke-width="2" fill-opacity="1" fill="#7b1fa2"></path><g id="SvgjsG1160"><text id="SvgjsText1161" font-family="微软雅黑" text-anchor="middle" font-size="13px" width="36px" fill="#ffffff" font-weight="400" align="middle" lineHeight="125%" anchor="middle" family="微软雅黑" size="13px" weight="400" font-style="" opacity="1" y="7.5" transform="rotate(0)"><tspan id="SvgjsTspan1162" dy="16" x="28"><tspan id="SvgjsTspan1163" style="text-decoration:;">垃圾</tspan></tspan></text></g></g><g id="SvgjsG1164"><path id="SvgjsPath1165" d="M431 287.4375C 548.1027326752028 287.4375 555.8972673247972 122.6875 673 122.6875" stroke="#323232" stroke-width="2" fill="none" marker-end="url(#SvgjsMarker1166)"></path></g><g id="SvgjsG1168"><path id="SvgjsPath1169" d="M431 287.4375C 538.6933870996729 287.4375 551.3066129003271 430.625 659 430.625" stroke="#323232" stroke-width="2" fill="none" marker-end="url(#SvgjsMarker1170)"></path></g><g id="SvgjsG1172" transform="translate(439,249.4375)"><path id="SvgjsPath1173" d="M 0 0L 283 0L 283 76L 0 76Z" stroke="none" fill="none"></path><g id="SvgjsG1174"><text id="SvgjsText1175" font-family="微软雅黑" text-anchor="middle" font-size="19px" width="283px" fill="#cfcfcf" font-weight="700" align="middle" lineHeight="125%" anchor="middle" family="微软雅黑" size="19px" weight="700" font-style="" opacity="1" y="24.125" transform="rotate(0)"><tspan id="SvgjsTspan1176" dy="23" x="141.5"><tspan id="SvgjsTspan1177" style="text-decoration:;">@WindShadow</tspan></tspan></text></g></g></svg>