<svg id="SvgjsSvg1356" width="1137.984375" height="505" xmlns="http://www.w3.org/2000/svg" version="1.1" xmlns:xlink="http://www.w3.org/1999/xlink" xmlns:svgjs="http://svgjs.com/svgjs"><defs id="SvgjsDefs1357"><marker id="SvgjsMarker1396" markerWidth="16" markerHeight="12" refX="16" refY="6" viewBox="0 0 16 12" orient="auto" markerUnits="userSpaceOnUse" stroke-dasharray="0,0"><path id="SvgjsPath1397" d="M0,2 L14,6 L0,11 L0,2" fill="#323232" stroke="#323232" stroke-width="2"></path></marker><marker id="SvgjsMarker1440" markerWidth="16" markerHeight="12" refX="16" refY="6" viewBox="0 0 16 12" orient="auto" markerUnits="userSpaceOnUse" stroke-dasharray="0,0"><path id="SvgjsPath1441" d="M0,2 L14,6 L0,11 L0,2" fill="#323232" stroke="#323232" stroke-width="2"></path></marker><marker id="SvgjsMarker1522" markerWidth="16" markerHeight="12" refX="16" refY="6" viewBox="0 0 16 12" orient="auto" markerUnits="userSpaceOnUse" stroke-dasharray="0,0"><path id="SvgjsPath1523" d="M0,2 L14,6 L0,11 L0,2" fill="#323232" stroke="#323232" stroke-width="2"></path></marker><marker id="SvgjsMarker1526" markerWidth="16" markerHeight="12" refX="16" refY="6" viewBox="0 0 16 12" orient="auto" markerUnits="userSpaceOnUse" stroke-dasharray="0,0"><path id="SvgjsPath1527" d="M0,2 L14,6 L0,11 L0,2" fill="#323232" stroke="#323232" stroke-width="2"></path></marker></defs><g id="SvgjsG1358" transform="translate(656,25)"><path id="SvgjsPath1359" d="M 0 0L 443 0L 443 455.375L 0 455.375Z" stroke-dasharray="3,4" stroke="rgba(50,50,50,1)" stroke-width="2" fill-opacity="1" fill="#ffffff"></path><g id="SvgjsG1360"><text id="SvgjsText1361" font-family="微软雅黑" text-anchor="middle" font-size="13px" width="423px" fill="#323232" font-weight="400" align="middle" lineHeight="125%" anchor="middle" family="微软雅黑" size="13px" weight="400" font-style="" opacity="1" y="218.0625" transform="rotate(0)"></text></g></g><g id="SvgjsG1362" transform="translate(25,25)"><path id="SvgjsPath1363" d="M 0 0L 382 0L 382 455.375L 0 455.375Z" stroke-dasharray="3,4" stroke="rgba(50,50,50,1)" stroke-width="2" fill-opacity="1" fill="#ffffff"></path><g id="SvgjsG1364"><text id="SvgjsText1365" font-family="微软雅黑" text-anchor="middle" font-size="13px" width="362px" fill="#323232" font-weight="400" align="middle" lineHeight="125%" anchor="middle" family="微软雅黑" size="13px" weight="400" font-style="" opacity="1" y="218.0625" transform="rotate(0)"></text></g></g><g id="SvgjsG1366" transform="translate(253,43.375)"><path id="SvgjsPath1367" d="M 0 0L 134 0L 134 158.625L 0 158.625Z" stroke="rgba(50,50,50,1)" stroke-width="2" fill-opacity="1" fill="#ffffff"></path><g id="SvgjsG1368"><text id="SvgjsText1369" font-family="微软雅黑" text-anchor="middle" font-size="13px" width="114px" fill="#323232" font-weight="400" align="middle" lineHeight="125%" anchor="middle" family="微软雅黑" size="13px" weight="400" font-style="" opacity="1" y="69.6875" transform="rotate(0)"></text></g></g><g id="SvgjsG1370" transform="translate(43,102.1875)"><path id="SvgjsPath1371" d="M 0 4Q 0 0 4 0L 110 0Q 114 0 114 4L 114 37Q 114 41 110 41L 4 41Q 0 41 0 37Z" stroke="rgba(50,50,50,1)" stroke-width="2" fill-opacity="1" fill="#ffb74d"></path><g id="SvgjsG1372"><text id="SvgjsText1373" font-family="微软雅黑" text-anchor="middle" font-size="13px" width="94px" fill="#323232" font-weight="400" align="middle" lineHeight="125%" anchor="middle" family="微软雅黑" size="13px" weight="400" font-style="" opacity="1" y="10.875" transform="rotate(0)"><tspan id="SvgjsTspan1374" dy="16" x="57"><tspan id="SvgjsTspan1375" style="text-decoration:;">cat</tspan></tspan></text></g></g><g id="SvgjsG1376" transform="translate(261,97.25)"><path id="SvgjsPath1377" d="M 0 0L 118 0L 118 32.5L 0 32.5Z" stroke="rgba(50,50,50,1)" stroke-width="2" fill-opacity="1" fill="#ffcdd2"></path><g id="SvgjsG1378"><text id="SvgjsText1379" font-family="微软雅黑" text-anchor="middle" font-size="13px" width="98px" fill="#323232" font-weight="400" align="middle" lineHeight="125%" anchor="middle" family="微软雅黑" size="13px" weight="400" font-style="" opacity="1" y="6.625" transform="rotate(0)"><tspan id="SvgjsTspan1380" dy="16" x="59"><tspan id="SvgjsTspan1381" style="text-decoration:;">age: 18</tspan></tspan></text></g></g><g id="SvgjsG1382" transform="translate(261,129.25)"><path id="SvgjsPath1383" d="M 0 0L 118 0L 118 32.5L 0 32.5Z" stroke="rgba(50,50,50,1)" stroke-width="2" fill-opacity="1" fill="#ffb74d"></path><g id="SvgjsG1384"><text id="SvgjsText1385" font-family="微软雅黑" text-anchor="middle" font-size="13px" width="98px" fill="#323232" font-weight="400" align="middle" lineHeight="125%" anchor="middle" family="微软雅黑" size="13px" weight="400" font-style="" opacity="1" y="6.625" transform="rotate(0)"><tspan id="SvgjsTspan1386" dy="16" x="59"><tspan id="SvgjsTspan1387" style="text-decoration:;">friend: null</tspan></tspan></text></g></g><g id="SvgjsG1388" transform="translate(261,161.75)"><path id="SvgjsPath1389" d="M 0 0L 118 0L 118 32.5L 0 32.5Z" stroke="rgba(50,50,50,1)" stroke-width="2" fill-opacity="1" fill="#ba68c8"></path><g id="SvgjsG1390"><text id="SvgjsText1391" font-family="微软雅黑" text-anchor="middle" font-size="13px" width="98px" fill="#323232" font-weight="400" align="middle" lineHeight="125%" anchor="middle" family="微软雅黑" size="13px" weight="400" font-style="" opacity="1" y="6.625" transform="rotate(0)"><tspan id="SvgjsTspan1392" dy="16" x="59"><tspan id="SvgjsTspan1393" style="text-decoration:;">RC: 1</tspan></tspan></text></g></g><g id="SvgjsG1394"><path id="SvgjsPath1395" d="M157 122.6875L205 122.6875L205 122.6875L253 122.6875" stroke="#323232" stroke-width="2" fill="none" marker-end="url(#SvgjsMarker1396)"></path></g><g id="SvgjsG1398" transform="translate(1021,415)"><path id="SvgjsPath1399" d="M 0 17.125C 0 -5.708333333333333 56 -5.708333333333333 56 17.125Q 54.879999999999995 33.565 28 34.25Q 18.666666666666668 34.25 9.333333333333334 30.825L 0 34.25L 6.5520000000000005 29.352249999999998Q 0 23.974999999999998 0 17.125" stroke="rgba(50,50,50,1)" stroke-width="2" fill-opacity="1" fill="#7b1fa2"></path><g id="SvgjsG1400"><text id="SvgjsText1401" font-family="微软雅黑" text-anchor="middle" font-size="13px" width="36px" fill="#ffffff" font-weight="400" align="middle" lineHeight="125%" anchor="middle" family="微软雅黑" size="13px" weight="400" font-style="" opacity="1" y="7.5" transform="rotate(0)"><tspan id="SvgjsTspan1402" dy="16" x="28"><tspan id="SvgjsTspan1403" style="text-decoration:;">垃圾</tspan></tspan></text></g></g><g id="SvgjsG1404" transform="translate(261,65.25)"><path id="SvgjsPath1405" d="M 0 0L 118 0L 118 32.5L 0 32.5Z" stroke="rgba(50,50,50,1)" stroke-width="2" fill-opacity="1" fill="#ffcdd2"></path><g id="SvgjsG1406"><text id="SvgjsText1407" font-family="微软雅黑" text-anchor="middle" font-size="13px" width="98px" fill="#323232" font-weight="400" align="middle" lineHeight="125%" anchor="middle" family="微软雅黑" size="13px" weight="400" font-style="" opacity="1" y="6.625" transform="rotate(0)"><tspan id="SvgjsTspan1408" dy="16" x="59"><tspan id="SvgjsTspan1409" style="text-decoration:;">name: "tom"</tspan></tspan></text></g></g><g id="SvgjsG1410" transform="translate(253,305.375)"><path id="SvgjsPath1411" d="M 0 0L 134 0L 134 158.625L 0 158.625Z" stroke="rgba(50,50,50,1)" stroke-width="2" fill-opacity="1" fill="#ffffff"></path><g id="SvgjsG1412"><text id="SvgjsText1413" font-family="微软雅黑" text-anchor="middle" font-size="13px" width="114px" fill="#323232" font-weight="400" align="middle" lineHeight="125%" anchor="middle" family="微软雅黑" size="13px" weight="400" font-style="" opacity="1" y="69.6875" transform="rotate(0)"></text></g></g><g id="SvgjsG1414" transform="translate(43,364.1875)"><path id="SvgjsPath1415" d="M 0 4Q 0 0 4 0L 110 0Q 114 0 114 4L 114 37Q 114 41 110 41L 4 41Q 0 41 0 37Z" stroke="rgba(50,50,50,1)" stroke-width="2" fill-opacity="1" fill="#ffb74d"></path><g id="SvgjsG1416"><text id="SvgjsText1417" font-family="微软雅黑" text-anchor="middle" font-size="13px" width="94px" fill="#323232" font-weight="400" align="middle" lineHeight="125%" anchor="middle" family="微软雅黑" size="13px" weight="400" font-style="" opacity="1" y="10.875" transform="rotate(0)"><tspan id="SvgjsTspan1418" dy="16" x="57"><tspan id="SvgjsTspan1419" style="text-decoration:;">mouse</tspan></tspan></text></g></g><g id="SvgjsG1420" transform="translate(261,359.25)"><path id="SvgjsPath1421" d="M 0 0L 118 0L 118 32.5L 0 32.5Z" stroke="rgba(50,50,50,1)" stroke-width="2" fill-opacity="1" fill="#ffcdd2"></path><g id="SvgjsG1422"><text id="SvgjsText1423" font-family="微软雅黑" text-anchor="middle" font-size="13px" width="98px" fill="#323232" font-weight="400" align="middle" lineHeight="125%" anchor="middle" family="微软雅黑" size="13px" weight="400" font-style="" opacity="1" y="6.625" transform="rotate(0)"><tspan id="SvgjsTspan1424" dy="16" x="59"><tspan id="SvgjsTspan1425" style="text-decoration:;">age: 16</tspan></tspan></text></g></g><g id="SvgjsG1426" transform="translate(261,391.75)"><path id="SvgjsPath1427" d="M 0 0L 118 0L 118 32.5L 0 32.5Z" stroke="rgba(50,50,50,1)" stroke-width="2" fill-opacity="1" fill="#ffb74d"></path><g id="SvgjsG1428"><text id="SvgjsText1429" font-family="微软雅黑" text-anchor="middle" font-size="13px" width="98px" fill="#323232" font-weight="400" align="middle" lineHeight="125%" anchor="middle" family="微软雅黑" size="13px" weight="400" font-style="" opacity="1" y="6.625" transform="rotate(0)"><tspan id="SvgjsTspan1430" dy="16" x="59"><tspan id="SvgjsTspan1431" style="text-decoration:;">friend: null</tspan></tspan></text></g></g><g id="SvgjsG1432" transform="translate(261,424.25)"><path id="SvgjsPath1433" d="M 0 0L 118 0L 118 32.5L 0 32.5Z" stroke="rgba(50,50,50,1)" stroke-width="2" fill-opacity="1" fill="#ba68c8"></path><g id="SvgjsG1434"><text id="SvgjsText1435" font-family="微软雅黑" text-anchor="middle" font-size="13px" width="98px" fill="#323232" font-weight="400" align="middle" lineHeight="125%" anchor="middle" family="微软雅黑" size="13px" weight="400" font-style="" opacity="1" y="6.625" transform="rotate(0)"><tspan id="SvgjsTspan1436" dy="16" x="59"><tspan id="SvgjsTspan1437" style="text-decoration:;">RC: 1</tspan></tspan></text></g></g><g id="SvgjsG1438"><path id="SvgjsPath1439" d="M157 384.6875L205 384.6875L205 384.6875L253 384.6875" stroke="#323232" stroke-width="2" fill="none" marker-end="url(#SvgjsMarker1440)"></path></g><g id="SvgjsG1442" transform="translate(261,327.25)"><path id="SvgjsPath1443" d="M 0 0L 118 0L 118 32.5L 0 32.5Z" stroke="rgba(50,50,50,1)" stroke-width="2" fill-opacity="1" fill="#ffcdd2"></path><g id="SvgjsG1444"><text id="SvgjsText1445" font-family="微软雅黑" text-anchor="middle" font-size="13px" width="98px" fill="#323232" font-weight="400" align="middle" lineHeight="125%" anchor="middle" family="微软雅黑" size="13px" weight="400" font-style="" opacity="1" y="6.625" transform="rotate(0)"><tspan id="SvgjsTspan1446" dy="16" x="59"><tspan id="SvgjsTspan1447" style="text-decoration:;">name: "jerry"</tspan></tspan></text></g></g><g id="SvgjsG1448" transform="translate(880,43.375)"><path id="SvgjsPath1449" d="M 0 0L 134 0L 134 158.625L 0 158.625Z" stroke="rgba(50,50,50,1)" stroke-width="2" fill-opacity="1" fill="#ffffff"></path><g id="SvgjsG1450"><text id="SvgjsText1451" font-family="微软雅黑" text-anchor="middle" font-size="13px" width="114px" fill="#323232" font-weight="400" align="middle" lineHeight="125%" anchor="middle" family="微软雅黑" size="13px" weight="400" font-style="" opacity="1" y="69.6875" transform="rotate(0)"></text></g></g><g id="SvgjsG1452" transform="translate(670,102.1875)"><path id="SvgjsPath1453" d="M 0 4Q 0 0 4 0L 110 0Q 114 0 114 4L 114 37Q 114 41 110 41L 4 41Q 0 41 0 37Z" stroke="rgba(50,50,50,1)" stroke-width="2" fill-opacity="1" fill="#ffb74d"></path><g id="SvgjsG1454"><text id="SvgjsText1455" font-family="微软雅黑" text-anchor="middle" font-size="13px" width="94px" fill="#323232" font-weight="400" align="middle" lineHeight="125%" anchor="middle" family="微软雅黑" size="13px" weight="400" font-style="" opacity="1" y="10.875" transform="rotate(0)"><tspan id="SvgjsTspan1456" dy="16" x="57"><tspan id="SvgjsTspan1457" style="text-decoration:;">cat</tspan></tspan></text></g></g><g id="SvgjsG1458" transform="translate(888,97.25)"><path id="SvgjsPath1459" d="M 0 0L 118 0L 118 32.5L 0 32.5Z" stroke="rgba(50,50,50,1)" stroke-width="2" fill-opacity="1" fill="#ffcdd2"></path><g id="SvgjsG1460"><text id="SvgjsText1461" font-family="微软雅黑" text-anchor="middle" font-size="13px" width="98px" fill="#323232" font-weight="400" align="middle" lineHeight="125%" anchor="middle" family="微软雅黑" size="13px" weight="400" font-style="" opacity="1" y="6.625" transform="rotate(0)"><tspan id="SvgjsTspan1462" dy="16" x="59"><tspan id="SvgjsTspan1463" style="text-decoration:;">age: 18</tspan></tspan></text></g></g><g id="SvgjsG1464" transform="translate(888,129.25)"><path id="SvgjsPath1465" d="M 0 0L 118 0L 118 32.5L 0 32.5Z" stroke="rgba(50,50,50,1)" stroke-width="2" fill-opacity="1" fill="#ffb74d"></path><g id="SvgjsG1466"><text id="SvgjsText1467" font-family="微软雅黑" text-anchor="middle" font-size="13px" width="98px" fill="#323232" font-weight="400" align="middle" lineHeight="125%" anchor="middle" family="微软雅黑" size="13px" weight="400" font-style="" opacity="1" y="6.625" transform="rotate(0)"><tspan id="SvgjsTspan1468" dy="16" x="59"><tspan id="SvgjsTspan1469" style="text-decoration:;">friend</tspan></tspan></text></g></g><g id="SvgjsG1470" transform="translate(888,161.75)"><path id="SvgjsPath1471" d="M 0 0L 118 0L 118 32.5L 0 32.5Z" stroke="rgba(50,50,50,1)" stroke-width="2" fill-opacity="1" fill="#ba68c8"></path><g id="SvgjsG1472"><text id="SvgjsText1473" font-family="微软雅黑" text-anchor="middle" font-size="13px" width="98px" fill="#323232" font-weight="400" align="middle" lineHeight="125%" anchor="middle" family="微软雅黑" size="13px" weight="400" font-style="" opacity="1" y="6.625" transform="rotate(0)"><tspan id="SvgjsTspan1474" dy="16" x="59"><tspan id="SvgjsTspan1475" style="text-decoration:;">RC: 1</tspan></tspan></text></g></g><g id="SvgjsG1476" transform="translate(888,65.25)"><path id="SvgjsPath1477" d="M 0 0L 118 0L 118 32.5L 0 32.5Z" stroke="rgba(50,50,50,1)" stroke-width="2" fill-opacity="1" fill="#ffcdd2"></path><g id="SvgjsG1478"><text id="SvgjsText1479" font-family="微软雅黑" text-anchor="middle" font-size="13px" width="98px" fill="#323232" font-weight="400" align="middle" lineHeight="125%" anchor="middle" family="微软雅黑" size="13px" weight="400" font-style="" opacity="1" y="6.625" transform="rotate(0)"><tspan id="SvgjsTspan1480" dy="16" x="59"><tspan id="SvgjsTspan1481" style="text-decoration:;">name: "tom"</tspan></tspan></text></g></g><g id="SvgjsG1482" transform="translate(670,364.1875)"><path id="SvgjsPath1483" d="M 0 4Q 0 0 4 0L 110 0Q 114 0 114 4L 114 37Q 114 41 110 41L 4 41Q 0 41 0 37Z" stroke="rgba(50,50,50,1)" stroke-width="2" fill-opacity="1" fill="#ffb74d"></path><g id="SvgjsG1484"><text id="SvgjsText1485" font-family="微软雅黑" text-anchor="middle" font-size="13px" width="94px" fill="#323232" font-weight="400" align="middle" lineHeight="125%" anchor="middle" family="微软雅黑" size="13px" weight="400" font-style="" opacity="1" y="10.875" transform="rotate(0)"><tspan id="SvgjsTspan1486" dy="16" x="57"><tspan id="SvgjsTspan1487" style="text-decoration:;">mouse</tspan></tspan></text></g></g><g id="SvgjsG1488" transform="translate(486.5,222.6875)"><path id="SvgjsPath1489" d="M 0 19.8L 60 19.8L 60 0L 90 30L 60 60L 60 40.2L 0 40.2L 0 19.8Z" stroke-dasharray="10,6,3,6" stroke="rgba(50,50,50,1)" stroke-width="2" fill-opacity="1" fill="#ffffff"></path><g id="SvgjsG1490"><text id="SvgjsText1491" font-family="微软雅黑" text-anchor="middle" font-size="13px" width="90px" fill="#323232" font-weight="400" align="middle" lineHeight="125%" anchor="middle" family="微软雅黑" size="13px" weight="400" font-style="" opacity="1" y="20.375" transform="rotate(0)"></text></g></g><g id="SvgjsG1492" transform="translate(883,305.375)"><path id="SvgjsPath1493" d="M 0 0L 134 0L 134 158.625L 0 158.625Z" stroke="rgba(50,50,50,1)" stroke-width="2" fill-opacity="1" fill="#ffffff"></path><g id="SvgjsG1494"><text id="SvgjsText1495" font-family="微软雅黑" text-anchor="middle" font-size="13px" width="114px" fill="#323232" font-weight="400" align="middle" lineHeight="125%" anchor="middle" family="微软雅黑" size="13px" weight="400" font-style="" opacity="1" y="69.6875" transform="rotate(0)"></text></g></g><g id="SvgjsG1496" transform="translate(891,359.25)"><path id="SvgjsPath1497" d="M 0 0L 118 0L 118 32.5L 0 32.5Z" stroke="rgba(50,50,50,1)" stroke-width="2" fill-opacity="1" fill="#ffcdd2"></path><g id="SvgjsG1498"><text id="SvgjsText1499" font-family="微软雅黑" text-anchor="middle" font-size="13px" width="98px" fill="#323232" font-weight="400" align="middle" lineHeight="125%" anchor="middle" family="微软雅黑" size="13px" weight="400" font-style="" opacity="1" y="6.625" transform="rotate(0)"><tspan id="SvgjsTspan1500" dy="16" x="59"><tspan id="SvgjsTspan1501" style="text-decoration:;">age: 16</tspan></tspan></text></g></g><g id="SvgjsG1502" transform="translate(891,391.75)"><path id="SvgjsPath1503" d="M 0 0L 118 0L 118 32.5L 0 32.5Z" stroke="rgba(50,50,50,1)" stroke-width="2" fill-opacity="1" fill="#ffb74d"></path><g id="SvgjsG1504"><text id="SvgjsText1505" font-family="微软雅黑" text-anchor="middle" font-size="13px" width="98px" fill="#323232" font-weight="400" align="middle" lineHeight="125%" anchor="middle" family="微软雅黑" size="13px" weight="400" font-style="" opacity="1" y="6.625" transform="rotate(0)"><tspan id="SvgjsTspan1506" dy="16" x="59"><tspan id="SvgjsTspan1507" style="text-decoration:;">friend</tspan></tspan></text></g></g><g id="SvgjsG1508" transform="translate(891,424.25)"><path id="SvgjsPath1509" d="M 0 0L 118 0L 118 32.5L 0 32.5Z" stroke="rgba(50,50,50,1)" stroke-width="2" fill-opacity="1" fill="#ba68c8"></path><g id="SvgjsG1510"><text id="SvgjsText1511" font-family="微软雅黑" text-anchor="middle" font-size="13px" width="98px" fill="#323232" font-weight="400" align="middle" lineHeight="125%" anchor="middle" family="微软雅黑" size="13px" weight="400" font-style="" opacity="1" y="6.625" transform="rotate(0)"><tspan id="SvgjsTspan1512" dy="16" x="59"><tspan id="SvgjsTspan1513" style="text-decoration:;">RC: 1</tspan></tspan></text></g></g><g id="SvgjsG1514" transform="translate(891,327.25)"><path id="SvgjsPath1515" d="M 0 0L 118 0L 118 32.5L 0 32.5Z" stroke="rgba(50,50,50,1)" stroke-width="2" fill-opacity="1" fill="#ffcdd2"></path><g id="SvgjsG1516"><text id="SvgjsText1517" font-family="微软雅黑" text-anchor="middle" font-size="13px" width="98px" fill="#323232" font-weight="400" align="middle" lineHeight="125%" anchor="middle" family="微软雅黑" size="13px" weight="400" font-style="" opacity="1" y="6.625" transform="rotate(0)"><tspan id="SvgjsTspan1518" dy="16" x="59"><tspan id="SvgjsTspan1519" style="text-decoration:;">name: "jerry"</tspan></tspan></text></g></g><g id="SvgjsG1520"><path id="SvgjsPath1521" d="M1006 145.5C 1101.776122415767 145.5 1112.776122415767 384.6875 1017 384.6875" stroke="#323232" stroke-width="2" fill="none" marker-end="url(#SvgjsMarker1522)"></path></g><g id="SvgjsG1524"><path id="SvgjsPath1525" d="M891 408C 776.7902122189171 408 765.7902122189171 122.6875 880 122.6875" stroke="#323232" stroke-width="2" fill="none" marker-end="url(#SvgjsMarker1526)"></path></g><g id="SvgjsG1528" transform="translate(104,201.625)"><path id="SvgjsPath1529" d="M 0 0L 291 0L 291 102.125L 0 102.125Z" stroke="none" fill="none"></path><g id="SvgjsG1530"><text id="SvgjsText1531" font-family="微软雅黑" text-anchor="middle" font-size="19px" width="291px" fill="#cfcfcf" font-weight="700" align="middle" lineHeight="125%" anchor="middle" family="微软雅黑" size="19px" weight="700" font-style="" opacity="1" y="37.1875" transform="rotate(0)"><tspan id="SvgjsTspan1532" dy="23" x="145.5"><tspan id="SvgjsTspan1533" style="text-decoration:;">@WindShadow</tspan></tspan></text></g></g><g id="SvgjsG1534" transform="translate(1017,45)"><path id="SvgjsPath1535" d="M 0 17.125C 0 -5.708333333333333 56 -5.708333333333333 56 17.125Q 54.879999999999995 33.565 28 34.25Q 18.666666666666668 34.25 9.333333333333334 30.825L 0 34.25L 6.5520000000000005 29.352249999999998Q 0 23.974999999999998 0 17.125" stroke="rgba(50,50,50,1)" stroke-width="2" fill-opacity="1" fill="#7b1fa2"></path><g id="SvgjsG1536"><text id="SvgjsText1537" font-family="微软雅黑" text-anchor="middle" font-size="13px" width="36px" fill="#ffffff" font-weight="400" align="middle" lineHeight="125%" anchor="middle" family="微软雅黑" size="13px" weight="400" font-style="" opacity="1" y="7.5" transform="rotate(0)"><tspan id="SvgjsTspan1538" dy="16" x="28"><tspan id="SvgjsTspan1539" style="text-decoration:;">垃圾</tspan></tspan></text></g></g></svg>