<svg id="SvgjsSvg1092" width="819" height="343.578125" xmlns="http://www.w3.org/2000/svg" version="1.1" xmlns:xlink="http://www.w3.org/1999/xlink" xmlns:svgjs="http://svgjs.com/svgjs"><defs id="SvgjsDefs1093"><marker id="SvgjsMarker1126" markerWidth="16" markerHeight="12" refX="16" refY="6" viewBox="0 0 16 12" orient="auto" markerUnits="userSpaceOnUse" stroke-dasharray="0,0"><path id="SvgjsPath1127" d="M0,2 L14,6 L0,11 L0,2" fill="#323232" stroke="#323232" stroke-width="2"></path></marker><marker id="SvgjsMarker1130" markerWidth="16" markerHeight="12" refX="16" refY="6" viewBox="0 0 16 12" orient="auto" markerUnits="userSpaceOnUse" stroke-dasharray="0,0"><path id="SvgjsPath1131" d="M0,2 L14,6 L0,11 L0,2" fill="#323232" stroke="#323232" stroke-width="2"></path></marker><marker id="SvgjsMarker1134" markerWidth="16" markerHeight="12" refX="16" refY="6" viewBox="0 0 16 12" orient="auto" markerUnits="userSpaceOnUse" stroke-dasharray="0,0"><path id="SvgjsPath1135" d="M0,2 L14,6 L0,11 L0,2" fill="#323232" stroke="#323232" stroke-width="2"></path></marker><marker id="SvgjsMarker1138" markerWidth="16" markerHeight="12" refX="16" refY="6" viewBox="0 0 16 12" orient="auto" markerUnits="userSpaceOnUse" stroke-dasharray="0,0"><path id="SvgjsPath1139" d="M0,2 L14,6 L0,11 L0,2" fill="#323232" stroke="#323232" stroke-width="2"></path></marker><marker id="SvgjsMarker1154" markerWidth="16" markerHeight="12" refX="16" refY="6" viewBox="0 0 16 12" orient="auto" markerUnits="userSpaceOnUse" stroke-dasharray="0,0"><path id="SvgjsPath1155" d="M0,2 L14,6 L0,11 L0,2" fill="#323232" stroke="#323232" stroke-width="2"></path></marker></defs><g id="SvgjsG1094" transform="translate(25,166)"><path id="SvgjsPath1095" d="M 0 4Q 0 0 4 0L 90 0Q 94 0 94 4L 94 39Q 94 43 90 43L 4 43Q 0 43 0 39Z" stroke="rgba(50,50,50,1)" stroke-width="2" fill-opacity="1" fill="#4caf50"></path><g id="SvgjsG1096"><text id="SvgjsText1097" font-family="微软雅黑" text-anchor="middle" font-size="12px" width="74px" fill="#ffffff" font-weight="700" align="middle" lineHeight="125%" anchor="middle" family="微软雅黑" size="12px" weight="700" font-style="" opacity="1" y="12.5" transform="rotate(0)"><tspan id="SvgjsTspan1098" dy="15" x="47"><tspan id="SvgjsTspan1099" style="text-decoration:;">Running</tspan></tspan></text></g></g><g id="SvgjsG1100" transform="translate(471,166)"><path id="SvgjsPath1101" d="M 0 4Q 0 0 4 0L 90 0Q 94 0 94 4L 94 39Q 94 43 90 43L 4 43Q 0 43 0 39Z" stroke="rgba(50,50,50,1)" stroke-width="2" fill-opacity="1" fill="#7b1fa2"></path><g id="SvgjsG1102"><text id="SvgjsText1103" font-family="微软雅黑" text-anchor="middle" font-size="12px" width="74px" fill="#ffffff" font-weight="700" align="middle" lineHeight="125%" anchor="middle" family="微软雅黑" size="12px" weight="700" font-style="" opacity="1" y="12.5" transform="rotate(0)"><tspan id="SvgjsTspan1104" dy="15" x="47"><tspan id="SvgjsTspan1105" style="text-decoration:;">Tidying</tspan></tspan></text></g></g><g id="SvgjsG1106" transform="translate(248,275.5)"><path id="SvgjsPath1107" d="M 0 4Q 0 0 4 0L 90 0Q 94 0 94 4L 94 39Q 94 43 90 43L 4 43Q 0 43 0 39Z" stroke="rgba(50,50,50,1)" stroke-width="2" fill-opacity="1" fill="#e57373"></path><g id="SvgjsG1108"><text id="SvgjsText1109" font-family="微软雅黑" text-anchor="middle" font-size="12px" width="74px" fill="#323232" font-weight="700" align="middle" lineHeight="125%" anchor="middle" family="微软雅黑" size="12px" weight="700" font-style="" opacity="1" y="12.5" transform="rotate(0)"><tspan id="SvgjsTspan1110" dy="15" x="47"><tspan id="SvgjsTspan1111" style="text-decoration:;">Stop</tspan></tspan></text></g></g><g id="SvgjsG1112" transform="translate(248,56.5)"><path id="SvgjsPath1113" d="M 0 4Q 0 0 4 0L 90 0Q 94 0 94 4L 94 39Q 94 43 90 43L 4 43Q 0 43 0 39Z" stroke="rgba(50,50,50,1)" stroke-width="2" fill-opacity="1" fill="#ffb74d"></path><g id="SvgjsG1114"><text id="SvgjsText1115" font-family="微软雅黑" text-anchor="middle" font-size="12px" width="74px" fill="#323232" font-weight="700" align="middle" lineHeight="125%" anchor="middle" family="微软雅黑" size="12px" weight="700" font-style="" opacity="1" y="12.5" transform="rotate(0)"><tspan id="SvgjsTspan1116" dy="15" x="47"><tspan id="SvgjsTspan1117" style="text-decoration:;">Shutdown</tspan></tspan></text></g></g><g id="SvgjsG1118" transform="translate(700,166)"><path id="SvgjsPath1119" d="M 0 4Q 0 0 4 0L 90 0Q 94 0 94 4L 94 39Q 94 43 90 43L 4 43Q 0 43 0 39Z" stroke="rgba(50,50,50,1)" stroke-width="2" fill-opacity="1" fill="#212121"></path><g id="SvgjsG1120"><text id="SvgjsText1121" font-family="微软雅黑" text-anchor="middle" font-size="12px" width="74px" fill="#ffffff" font-weight="700" align="middle" lineHeight="125%" anchor="middle" family="微软雅黑" size="12px" weight="700" font-style="" opacity="1" y="12.5" transform="rotate(0)"><tspan id="SvgjsTspan1122" dy="15" x="47"><tspan id="SvgjsTspan1123" style="text-decoration:;">Terminated</tspan></tspan></text></g></g><g id="SvgjsG1124"><path id="SvgjsPath1125" d="M565 187.5L632.5 187.5L632.5 187.5L700 187.5" stroke="#323232" stroke-width="2" fill="none" marker-end="url(#SvgjsMarker1126)"></path></g><g id="SvgjsG1128"><path id="SvgjsPath1129" d="M119 187.5C 186.68308503607085 187.5 180.31691496392915 78 248 78" stroke="#323232" stroke-width="2" fill="none" marker-end="url(#SvgjsMarker1130)"></path></g><g id="SvgjsG1132"><path id="SvgjsPath1133" d="M342 78C 409.6830850360709 78 403.3169149639291 187.5 471 187.5" stroke="#323232" stroke-width="2" fill="none" marker-end="url(#SvgjsMarker1134)"></path></g><g id="SvgjsG1136"><path id="SvgjsPath1137" d="M342 297C 409.6830850360709 297 403.3169149639291 187.5 471 187.5" stroke="#323232" stroke-width="2" fill="none" marker-end="url(#SvgjsMarker1138)"></path></g><g id="SvgjsG1140" transform="translate(582.5,166)"><path id="SvgjsPath1141" d="M 0 0L 100 0L 100 20L 0 20Z" stroke="none" fill="none"></path><g id="SvgjsG1142"><text id="SvgjsText1143" font-family="微软雅黑" text-anchor="middle" font-size="13px" width="100px" fill="#323232" font-weight="700" align="middle" lineHeight="125%" anchor="middle" family="微软雅黑" size="13px" weight="700" font-style="" opacity="1" y="0.375" transform="rotate(0)"><tspan id="SvgjsTspan1144" dy="16" x="50"><tspan id="SvgjsTspan1145" style="text-decoration:;">terminated()</tspan></tspan></text></g></g><g id="SvgjsG1146" transform="matrix(0.6427876096865393,-0.7660444431189781,0.7660444431189781,0.6427876096865393,132.70017508448325,145.8743460590835)"><path id="SvgjsPath1147" d="M 0 0L 100 0L 100 20L 0 20Z" stroke="none" fill="none"></path><g id="SvgjsG1148"><text id="SvgjsText1149" font-family="微软雅黑" text-anchor="middle" font-size="13px" width="100px" fill="#323232" font-weight="700" align="middle" lineHeight="125%" anchor="middle" family="微软雅黑" size="13px" weight="700" font-style="" opacity="1" y="0.375" transform="rotate(0)"><tspan id="SvgjsTspan1150" dy="16" x="50"><tspan id="SvgjsTspan1151" style="text-decoration:;">shutdown()</tspan></tspan></text></g></g><g id="SvgjsG1152"><path id="SvgjsPath1153" d="M119 187.5C 186.68308503607085 187.5 180.31691496392915 297 248 297" stroke="#323232" stroke-width="2" fill="none" marker-end="url(#SvgjsMarker1154)"></path></g><g id="SvgjsG1156" transform="matrix(0.573576436351046,0.8191520442889918,-0.8191520442889918,0.573576436351046,155.01013614070476,207.5911729237888)"><path id="SvgjsPath1157" d="M 0 0L 122.5 0L 122.5 20L 0 20Z" stroke="none" fill="none"></path><g id="SvgjsG1158"><text id="SvgjsText1159" font-family="微软雅黑" text-anchor="middle" font-size="13px" width="123px" fill="#000000" font-weight="700" align="middle" lineHeight="125%" anchor="middle" family="微软雅黑" size="13px" weight="700" font-style="" opacity="1" y="0.375" transform="rotate(0)"><tspan id="SvgjsTspan1160" dy="16" x="61.5"><tspan id="SvgjsTspan1161" style="text-decoration:;">shutdownNow()</tspan></tspan></text></g></g><g id="SvgjsG1162" transform="translate(394,25)"><path id="SvgjsPath1163" d="M 0 32.5C 0 -10.833333333333334 123 -10.833333333333334 123 32.5Q 120.53999999999999 63.699999999999996 61.5 65Q 41 65 20.5 58.5L 0 65L 14.391 55.705Q 0 45.5 0 32.5" stroke="rgba(50,50,50,1)" stroke-width="2" fill-opacity="1" fill="#ffffff"></path><g id="SvgjsG1164"><text id="SvgjsText1165" font-family="微软雅黑" text-anchor="middle" font-size="13px" width="103px" fill="#323232" font-weight="400" align="middle" lineHeight="125%" anchor="middle" family="微软雅黑" size="13px" weight="400" font-style="" opacity="1" y="6.875" transform="rotate(0)"><tspan id="SvgjsTspan1166" dy="16" x="61.5"><tspan id="SvgjsTspan1167" style="text-decoration:;">工作队列为空，</tspan></tspan><tspan id="SvgjsTspan1168" dy="16" x="61.5"><tspan id="SvgjsTspan1169" style="text-decoration:;">线程池工作线程</tspan></tspan><tspan id="SvgjsTspan1170" dy="16" x="61.5"><tspan id="SvgjsTspan1171" style="text-decoration:;">数量为0</tspan></tspan></text></g></g><g id="SvgjsG1172" transform="translate(409,236.5)"><path id="SvgjsPath1173" d="M 0 16.75C 0 -5.583333333333333 162 -5.583333333333333 162 16.75Q 158.76 32.83 81 33.5Q 54 33.5 27 30.150000000000002L 0 33.5L 18.954 28.7095Q 0 23.45 0 16.75" stroke="rgba(50,50,50,1)" stroke-width="2" fill-opacity="1" fill="#ffffff"></path><g id="SvgjsG1174"><text id="SvgjsText1175" font-family="微软雅黑" text-anchor="middle" font-size="13px" width="142px" fill="#323232" font-weight="400" align="middle" lineHeight="125%" anchor="middle" family="微软雅黑" size="13px" weight="400" font-style="" opacity="1" y="7.125" transform="rotate(0)"><tspan id="SvgjsTspan1176" dy="16" x="81"><tspan id="SvgjsTspan1177" style="text-decoration:;">线程池工作线程数量为0</tspan></tspan></text></g></g><g id="SvgjsG1178" transform="translate(216.00000000000006,146)"><path id="SvgjsPath1179" d="M 0 0L 178 0L 178 70.73009825281429L 0 70.73009825281429Z" stroke="none" fill="none"></path><g id="SvgjsG1180"><text id="SvgjsText1181" font-family="微软雅黑" text-anchor="middle" font-size="18px" width="178px" fill="#cfcfcf" font-weight="700" align="middle" lineHeight="125%" anchor="middle" family="微软雅黑" size="18px" weight="700" font-style="" opacity="1" y="22.115049126407143" transform="rotate(0)"><tspan id="SvgjsTspan1182" dy="22" x="89"><tspan id="SvgjsTspan1183" style="text-decoration:;">@WindShadow</tspan></tspan></text></g></g></svg>