<svg id="SvgjsSvg1186" width="792" height="204" xmlns="http://www.w3.org/2000/svg" version="1.1" xmlns:xlink="http://www.w3.org/1999/xlink" xmlns:svgjs="http://svgjs.com/svgjs"><defs id="SvgjsDefs1187"><marker id="SvgjsMarker1220" markerWidth="16" markerHeight="12" refX="16" refY="6" viewBox="0 0 16 12" orient="auto" markerUnits="userSpaceOnUse" stroke-dasharray="0,0"><path id="SvgjsPath1221" d="M0,2 L14,6 L0,11 L0,2" fill="#323232" stroke="#323232" stroke-width="2"></path></marker><marker id="SvgjsMarker1224" markerWidth="16" markerHeight="12" refX="16" refY="6" viewBox="0 0 16 12" orient="auto" markerUnits="userSpaceOnUse" stroke-dasharray="0,0"><path id="SvgjsPath1225" d="M0,2 L14,6 L0,11 L0,2" fill="#323232" stroke="#323232" stroke-width="2"></path></marker><marker id="SvgjsMarker1228" markerWidth="16" markerHeight="12" refX="16" refY="6" viewBox="0 0 16 12" orient="auto" markerUnits="userSpaceOnUse" stroke-dasharray="0,0"><path id="SvgjsPath1229" d="M0,2 L14,6 L0,11 L0,2" fill="#323232" stroke="#323232" stroke-width="2"></path></marker><marker id="SvgjsMarker1232" markerWidth="16" markerHeight="12" refX="16" refY="6" viewBox="0 0 16 12" orient="auto" markerUnits="userSpaceOnUse" stroke-dasharray="0,0"><path id="SvgjsPath1233" d="M0,2 L14,6 L0,11 L0,2" fill="#323232" stroke="#323232" stroke-width="2"></path></marker><marker id="SvgjsMarker1254" markerWidth="16" markerHeight="12" refX="16" refY="6" viewBox="0 0 16 12" orient="auto" markerUnits="userSpaceOnUse" stroke-dasharray="0,0"><path id="SvgjsPath1255" d="M0,2 L14,6 L0,11 L0,2" fill="#323232" stroke="#323232" stroke-width="2"></path></marker><marker id="SvgjsMarker1262" markerWidth="16" markerHeight="12" refX="16" refY="6" viewBox="0 0 16 12" orient="auto" markerUnits="userSpaceOnUse" stroke-dasharray="0,0"><path id="SvgjsPath1263" d="M0,2 L14,6 L0,11 L0,2" fill="#323232" stroke="#323232" stroke-width="2"></path></marker></defs><g id="SvgjsG1188" transform="translate(25,130)"><path id="SvgjsPath1189" d="M 0 4Q 0 0 4 0L 106 0Q 110 0 110 4L 110 45Q 110 49 106 49L 4 49Q 0 49 0 45Z" stroke="rgba(50,50,50,1)" stroke-width="2" fill-opacity="1" fill="#ffffff"></path><g id="SvgjsG1190"><text id="SvgjsText1191" font-family="微软雅黑" text-anchor="middle" font-size="13px" width="90px" fill="#323232" font-weight="400" align="middle" lineHeight="125%" anchor="middle" family="微软雅黑" size="13px" weight="400" font-style="" opacity="1" y="14.875" transform="rotate(0)"><tspan id="SvgjsTspan1192" dy="16" x="55"><tspan id="SvgjsTspan1193" style="text-decoration:;">new(新生)</tspan></tspan></text></g></g><g id="SvgjsG1194" transform="translate(195,130)"><path id="SvgjsPath1195" d="M 0 4Q 0 0 4 0L 106 0Q 110 0 110 4L 110 45Q 110 49 106 49L 4 49Q 0 49 0 45Z" stroke="rgba(50,50,50,1)" stroke-width="2" fill-opacity="1" fill="#4dd0e1"></path><g id="SvgjsG1196"><text id="SvgjsText1197" font-family="微软雅黑" text-anchor="middle" font-size="13px" width="90px" fill="#ffffff" font-weight="400" align="middle" lineHeight="125%" anchor="middle" family="微软雅黑" size="13px" weight="400" font-style="" opacity="1" y="14.875" transform="rotate(0)"><tspan id="SvgjsTspan1198" dy="16" x="55"><tspan id="SvgjsTspan1199" style="text-decoration:;">就绪态</tspan></tspan></text></g></g><g id="SvgjsG1200" transform="translate(327,25)"><path id="SvgjsPath1201" d="M 0 4Q 0 0 4 0L 152 0Q 156 0 156 4L 156 53Q 156 57 152 57L 4 57Q 0 57 0 53Z" stroke="rgba(50,50,50,1)" stroke-width="2" fill-opacity="1" fill="#f44336"></path><g id="SvgjsG1202"><text id="SvgjsText1203" font-family="微软雅黑" text-anchor="middle" font-size="13px" width="136px" fill="#ffffff" font-weight="400" align="bottom" lineHeight="125%" anchor="middle" family="微软雅黑" size="13px" weight="400" font-style="" opacity="1" y="39.375" transform="rotate(0)"><tspan id="SvgjsTspan1204" dy="16" x="78"><tspan id="SvgjsTspan1205" style="text-decoration:;">阻塞</tspan></tspan></text></g></g><g id="SvgjsG1206" transform="translate(483,130)"><path id="SvgjsPath1207" d="M 0 4Q 0 0 4 0L 106 0Q 110 0 110 4L 110 45Q 110 49 106 49L 4 49Q 0 49 0 45Z" stroke="rgba(50,50,50,1)" stroke-width="2" fill-opacity="1" fill="#4caf50"></path><g id="SvgjsG1208"><text id="SvgjsText1209" font-family="微软雅黑" text-anchor="middle" font-size="13px" width="90px" fill="#ffffff" font-weight="400" align="middle" lineHeight="125%" anchor="middle" family="微软雅黑" size="13px" weight="400" font-style="" opacity="1" y="14.875" transform="rotate(0)"><tspan id="SvgjsTspan1210" dy="16" x="55"><tspan id="SvgjsTspan1211" style="text-decoration:;">运行态</tspan></tspan></text></g></g><g id="SvgjsG1212" transform="translate(657,130)"><path id="SvgjsPath1213" d="M 0 4Q 0 0 4 0L 106 0Q 110 0 110 4L 110 45Q 110 49 106 49L 4 49Q 0 49 0 45Z" stroke="rgba(50,50,50,1)" stroke-width="2" fill-opacity="1" fill="#616161"></path><g id="SvgjsG1214"><text id="SvgjsText1215" font-family="微软雅黑" text-anchor="middle" font-size="13px" width="90px" fill="#ffffff" font-weight="400" align="middle" lineHeight="125%" anchor="middle" family="微软雅黑" size="13px" weight="400" font-style="" opacity="1" y="14.875" transform="rotate(0)"><tspan id="SvgjsTspan1216" dy="16" x="55"><tspan id="SvgjsTspan1217" style="text-decoration:;">死亡</tspan></tspan></text></g></g><g id="SvgjsG1218"><path id="SvgjsPath1219" d="M135 154.5L165 154.5L165 154.5L195 154.5" stroke="#323232" stroke-width="2" fill="none" marker-end="url(#SvgjsMarker1220)"></path></g><g id="SvgjsG1222"><path id="SvgjsPath1223" d="M593 154.5L625 154.5L625 154.5L657 154.5" stroke="#323232" stroke-width="2" fill="none" marker-end="url(#SvgjsMarker1224)"></path></g><g id="SvgjsG1226"><path id="SvgjsPath1227" d="M538 130L405 82" stroke="#323232" stroke-width="2" fill="none" marker-end="url(#SvgjsMarker1228)"></path></g><g id="SvgjsG1230"><path id="SvgjsPath1231" d="M405 82L250 130" stroke="#323232" stroke-width="2" fill="none" marker-end="url(#SvgjsMarker1232)"></path></g><g id="SvgjsG1234" transform="translate(337,90)"><path id="SvgjsPath1235" d="M 0 0L 120 0L 120 40L 0 40Z" stroke="none" fill="none"></path><g id="SvgjsG1236"><text id="SvgjsText1237" font-family="微软雅黑" text-anchor="middle" font-size="13px" width="120px" fill="#cfcfcf" font-weight="400" align="middle" lineHeight="125%" anchor="middle" family="微软雅黑" size="13px" weight="400" font-style="" opacity="1" y="10.375" transform="rotate(0)"><tspan id="SvgjsTspan1238" dy="16" x="60"><tspan id="SvgjsTspan1239" style="text-decoration:;">@WindShadow</tspan></tspan></text></g></g><g id="SvgjsG1240" transform="translate(334,33)"><path id="SvgjsPath1241" d="M 0 0L 66 0L 66 25L 0 25Z" stroke="rgba(50,50,50,1)" stroke-width="2" fill-opacity="1" fill="#ff00ff"></path><g id="SvgjsG1242"><text id="SvgjsText1243" font-family="微软雅黑" text-anchor="middle" font-size="13px" width="46px" fill="#323232" font-weight="400" align="middle" lineHeight="125%" anchor="middle" family="微软雅黑" size="13px" weight="400" font-style="" opacity="1" y="2.875" transform="rotate(0)"><tspan id="SvgjsTspan1244" dy="16" x="33"><tspan id="SvgjsTspan1245" style="text-decoration:;">休眠</tspan></tspan></text></g></g><g id="SvgjsG1246" transform="translate(409,33)"><path id="SvgjsPath1247" d="M 0 0L 66 0L 66 25L 0 25Z" stroke="rgba(50,50,50,1)" stroke-width="2" fill-opacity="1" fill="#ba68c8"></path><g id="SvgjsG1248"><text id="SvgjsText1249" font-family="微软雅黑" text-anchor="middle" font-size="13px" width="46px" fill="#323232" font-weight="400" align="middle" lineHeight="125%" anchor="middle" family="微软雅黑" size="13px" weight="400" font-style="" opacity="1" y="2.875" transform="rotate(0)"><tspan id="SvgjsTspan1250" dy="16" x="33"><tspan id="SvgjsTspan1251" style="text-decoration:;">等待</tspan></tspan></text></g></g><g id="SvgjsG1252"><path id="SvgjsPath1253" d="M305 142L483 141" stroke="#323232" stroke-width="2" fill="none" marker-end="url(#SvgjsMarker1254)"></path><rect id="SvgjsRect1256" width="75" height="16" x="356.5" y="133.5" fill="#ffffff"></rect><text id="SvgjsText1257" font-family="微软雅黑" text-anchor="middle" font-size="13px" width="75px" fill="#323232" font-weight="400" align="top" lineHeight="16px" anchor="middle" family="微软雅黑" size="13px" weight="400" font-style="" opacity="1" y="131.875" transform="rotate(0)"><tspan id="SvgjsTspan1258" dy="16" x="394"><tspan id="SvgjsTspan1259" style="text-decoration:;">获得cpu时间</tspan></tspan></text></g><g id="SvgjsG1260"><path id="SvgjsPath1261" d="M483 165L312 165" stroke="#323232" stroke-width="2" fill="none" marker-end="url(#SvgjsMarker1262)"></path><rect id="SvgjsRect1264" width="75" height="16" x="360" y="157" fill="#ffffff"></rect><text id="SvgjsText1265" font-family="微软雅黑" text-anchor="middle" font-size="13px" width="75px" fill="#323232" font-weight="400" align="top" lineHeight="16px" anchor="middle" family="微软雅黑" size="13px" weight="400" font-style="" opacity="1" y="155.375" transform="rotate(0)"><tspan id="SvgjsTspan1266" dy="16" x="397.5"><tspan id="SvgjsTspan1267" style="text-decoration:;">失去cpu时间</tspan></tspan></text></g></svg>