<svg id="SvgjsSvg1150" width="876" height="462" xmlns="http://www.w3.org/2000/svg" version="1.1" xmlns:xlink="http://www.w3.org/1999/xlink" xmlns:svgjs="http://svgjs.com/svgjs"><defs id="SvgjsDefs1151"><marker id="SvgjsMarker1190" markerWidth="14" markerHeight="10" refX="10" refY="5" viewBox="0 0 14 10" orient="auto" markerUnits="userSpaceOnUse" stroke-dasharray="0,0"><path id="SvgjsPath1191" d="M0,0 L14,5 L0,10 L0,0" fill="#323232" stroke="#323232" stroke-width="1"></path></marker><marker id="SvgjsMarker1198" markerWidth="14" markerHeight="10" refX="10" refY="5" viewBox="0 0 14 10" orient="auto" markerUnits="userSpaceOnUse" stroke-dasharray="0,0"><path id="SvgjsPath1199" d="M0,0 L14,5 L0,10 L0,0" fill="#323232" stroke="#323232" stroke-width="1"></path></marker><marker id="SvgjsMarker1206" markerWidth="14" markerHeight="10" refX="10" refY="5" viewBox="0 0 14 10" orient="auto" markerUnits="userSpaceOnUse" stroke-dasharray="0,0"><path id="SvgjsPath1207" d="M0,0 L14,5 L0,10 L0,0" fill="#323232" stroke="#323232" stroke-width="1"></path></marker><marker id="SvgjsMarker1226" markerWidth="14" markerHeight="10" refX="10" refY="5" viewBox="0 0 14 10" orient="auto" markerUnits="userSpaceOnUse" stroke-dasharray="0,0"><path id="SvgjsPath1227" d="M0,0 L14,5 L0,10 L0,0" fill="#323232" stroke="#323232" stroke-width="1"></path></marker><marker id="SvgjsMarker1236" markerWidth="14" markerHeight="10" refX="10" refY="5" viewBox="0 0 14 10" orient="auto" markerUnits="userSpaceOnUse" stroke-dasharray="0,0"><path id="SvgjsPath1237" d="M0,0 L14,5 L0,10 L0,0" fill="#323232" stroke="#323232" stroke-width="1"></path></marker><marker id="SvgjsMarker1246" markerWidth="14" markerHeight="10" refX="10" refY="5" viewBox="0 0 14 10" orient="auto" markerUnits="userSpaceOnUse" stroke-dasharray="0,0"><path id="SvgjsPath1247" d="M0,0 L14,5 L0,10 L0,0" fill="#323232" stroke="#323232" stroke-width="1"></path></marker><marker id="SvgjsMarker1272" markerWidth="14" markerHeight="10" refX="10" refY="5" viewBox="0 0 14 10" orient="auto" markerUnits="userSpaceOnUse" stroke-dasharray="0,0"><path id="SvgjsPath1273" d="M0,0 L14,5 L0,10 L0,0" fill="#323232" stroke="#323232" stroke-width="1"></path></marker><marker id="SvgjsMarker1276" markerWidth="14" markerHeight="10" refX="10" refY="5" viewBox="0 0 14 10" orient="auto" markerUnits="userSpaceOnUse" stroke-dasharray="0,0"><path id="SvgjsPath1277" d="M0,0 L14,5 L0,10 L0,0" fill="#323232" stroke="#323232" stroke-width="1"></path></marker><marker id="SvgjsMarker1286" markerWidth="14" markerHeight="10" refX="4" refY="5" viewBox="0 0 14 10" orient="auto" markerUnits="userSpaceOnUse" stroke-dasharray="0,0"><path id="SvgjsPath1287" d="M14,0 L0,5 L14,10 L14,0" fill="#323232" stroke="#323232" stroke-width="1"></path></marker><marker id="SvgjsMarker1288" markerWidth="14" markerHeight="10" refX="10" refY="5" viewBox="0 0 14 10" orient="auto" markerUnits="userSpaceOnUse" stroke-dasharray="0,0"><path id="SvgjsPath1289" d="M0,0 L14,5 L0,10 L0,0" fill="#323232" stroke="#323232" stroke-width="1"></path></marker></defs><g id="SvgjsG1152" transform="translate(25,251)"><path id="SvgjsPath1153" d="M 0 0L 619 0L 619 186L 0 186Z" stroke-dasharray="3,4" stroke="rgba(50,50,50,1)" stroke-width="2" fill-opacity="1" fill="#ffffff"></path><g id="SvgjsG1154"><text id="SvgjsText1155" font-family="微软雅黑" text-anchor="middle" font-size="17px" width="599px" fill="#323232" font-weight="700" align="top" lineHeight="125%" anchor="middle" family="微软雅黑" size="17px" weight="700" font-style="" opacity="1" y="-4.125" transform="rotate(0)"><tspan id="SvgjsTspan1156" dy="21" x="309.5"><tspan id="SvgjsTspan1157" style="text-decoration:;">私钥+证书-&gt;密钥库</tspan></tspan></text></g></g><g id="SvgjsG1158" transform="translate(674,25)"><path id="SvgjsPath1159" d="M 0 0L 177 0L 177 412L 0 412Z" stroke-dasharray="3,4" stroke="rgba(50,50,50,1)" stroke-width="2" fill-opacity="1" fill="#ffffff"></path><g id="SvgjsG1160"><text id="SvgjsText1161" font-family="微软雅黑" text-anchor="middle" font-size="17px" width="157px" fill="#323232" font-weight="700" align="top" lineHeight="125%" anchor="middle" family="微软雅黑" size="17px" weight="700" font-style="" opacity="1" y="-4.125" transform="rotate(0)"><tspan id="SvgjsTspan1162" dy="21" x="88.5"><tspan id="SvgjsTspan1163" style="text-decoration:;">根CA签发证书</tspan></tspan></text></g></g><g id="SvgjsG1164" transform="translate(25,25)"><path id="SvgjsPath1165" d="M 0 0L 406 0L 406 196L 0 196Z" stroke-dasharray="3,4" stroke="rgba(50,50,50,1)" stroke-width="2" fill-opacity="1" fill="#ffffff"></path><g id="SvgjsG1166"><text id="SvgjsText1167" font-family="微软雅黑" text-anchor="middle" font-size="17px" width="386px" fill="#323232" font-weight="700" align="top" lineHeight="125%" anchor="middle" family="微软雅黑" size="17px" weight="700" font-style="" opacity="1" y="-4.125" transform="rotate(0)"><tspan id="SvgjsTspan1168" dy="21" x="203"><tspan id="SvgjsTspan1169" style="text-decoration:;">自签根CA</tspan></tspan></text></g></g><g id="SvgjsG1170" transform="translate(72,167)"><path id="SvgjsPath1171" d="M 0 4Q 0 0 4 0L 123 0Q 127 0 127 4L 127 32Q 127 36 123 36L 4 36Q 0 36 0 32Z" stroke="rgba(50,50,50,1)" stroke-width="2" fill-opacity="1" fill="#ffb74d"></path><g id="SvgjsG1172"><text id="SvgjsText1173" font-family="微软雅黑" text-anchor="middle" font-size="13px" width="107px" fill="#000000" font-weight="400" align="middle" lineHeight="125%" anchor="middle" family="微软雅黑" size="13px" weight="400" font-style="" opacity="1" y="7.375" transform="rotate(0)"><tspan id="SvgjsTspan1174" dy="16" x="63.5"><tspan id="SvgjsTspan1175" style="text-decoration:;">根CA-签名请求</tspan></tspan></text></g></g><g id="SvgjsG1176" transform="translate(72,75)"><path id="SvgjsPath1177" d="M 0 4Q 0 0 4 0L 123 0Q 127 0 127 4L 127 32Q 127 36 123 36L 4 36Q 0 36 0 32Z" stroke="rgba(50,50,50,1)" stroke-width="2" fill-opacity="1" fill="#9c27b0"></path><g id="SvgjsG1178"><text id="SvgjsText1179" font-family="微软雅黑" text-anchor="middle" font-size="13px" width="107px" fill="#000000" font-weight="400" align="middle" lineHeight="125%" anchor="middle" family="微软雅黑" size="13px" weight="400" font-style="" opacity="1" y="7.375" transform="rotate(0)"><tspan id="SvgjsTspan1180" dy="16" x="63.5"><tspan id="SvgjsTspan1181" style="text-decoration:;">根CA-私钥</tspan></tspan></text></g></g><g id="SvgjsG1182" transform="translate(287,75)"><path id="SvgjsPath1183" d="M 0 4Q 0 0 4 0L 123 0Q 127 0 127 4L 127 32Q 127 36 123 36L 4 36Q 0 36 0 32Z" stroke="rgba(0,0,0,1)" stroke-width="2" fill-opacity="1" fill="#388e3c"></path><g id="SvgjsG1184"><text id="SvgjsText1185" font-family="微软雅黑" text-anchor="middle" font-size="13px" width="107px" fill="#000000" font-weight="400" align="middle" lineHeight="125%" anchor="middle" family="微软雅黑" size="13px" weight="400" font-style="" opacity="1" y="7.375" transform="rotate(0)"><tspan id="SvgjsTspan1186" dy="16" x="63.5"><tspan id="SvgjsTspan1187" style="text-decoration:;">根CA-自签证书</tspan></tspan></text></g></g><g id="SvgjsG1188"><path id="SvgjsPath1189" d="M135.5 112L135.5 139L135.5 139L135.5 163.39999999999998" stroke="#323232" stroke-width="2" fill="none" marker-end="url(#SvgjsMarker1190)"></path><rect id="SvgjsRect1192" width="8" height="16" x="131.5" y="129.7" fill="#ffffff"></rect><text id="SvgjsText1193" font-family="微软雅黑" text-anchor="middle" font-size="13px" width="8px" fill="#000000" font-weight="400" align="top" lineHeight="16px" anchor="middle" family="微软雅黑" size="13px" weight="400" font-style="" opacity="1" y="127.07499999999999" transform="rotate(0)"><tspan id="SvgjsTspan1194" dy="16" x="135.5"><tspan id="SvgjsTspan1195" style="text-decoration:;">1</tspan></tspan></text></g><g id="SvgjsG1196"><path id="SvgjsPath1197" d="M200 93L243 93L243 93L283.4 93" stroke="#323232" stroke-width="2" fill="none" marker-end="url(#SvgjsMarker1198)"></path><rect id="SvgjsRect1200" width="8" height="16" x="237.69999999999996" y="85" fill="#ffffff"></rect><text id="SvgjsText1201" font-family="微软雅黑" text-anchor="middle" font-size="13px" width="8px" fill="#000000" font-weight="400" align="top" lineHeight="16px" anchor="middle" family="微软雅黑" size="13px" weight="400" font-style="" opacity="1" y="82.375" transform="rotate(0)"><tspan id="SvgjsTspan1202" dy="16" x="241.69999999999996"><tspan id="SvgjsTspan1203" style="text-decoration:;">3</tspan></tspan></text></g><g id="SvgjsG1204"><path id="SvgjsPath1205" d="M71 185L42 185L42 93L68.4 93" stroke="#323232" stroke-width="2" fill="none" marker-end="url(#SvgjsMarker1206)"></path><rect id="SvgjsRect1208" width="8" height="16" x="38" y="132.3" fill="#ffffff"></rect><text id="SvgjsText1209" font-family="微软雅黑" text-anchor="middle" font-size="13px" width="8px" fill="#000000" font-weight="400" align="top" lineHeight="16px" anchor="middle" family="微软雅黑" size="13px" weight="400" font-style="" opacity="1" y="129.675" transform="rotate(0)"><tspan id="SvgjsTspan1210" dy="16" x="42"><tspan id="SvgjsTspan1211" style="text-decoration:;">2</tspan></tspan></text></g><g id="SvgjsG1212" transform="translate(699,190)"><path id="SvgjsPath1213" d="M 0 4Q 0 0 4 0L 123 0Q 127 0 127 4L 127 32Q 127 36 123 36L 4 36Q 0 36 0 32Z" stroke="rgba(50,50,50,1)" stroke-width="2" fill-opacity="1" fill="#ffe0b2"></path><g id="SvgjsG1214"><text id="SvgjsText1215" font-family="微软雅黑" text-anchor="middle" font-size="13px" width="107px" fill="#000000" font-weight="400" align="middle" lineHeight="125%" anchor="middle" family="微软雅黑" size="13px" weight="400" font-style="" opacity="1" y="7.375" transform="rotate(0)"><tspan id="SvgjsTspan1216" dy="16" x="63.5"><tspan id="SvgjsTspan1217" style="text-decoration:;">server-签名请求</tspan></tspan></text></g></g><g id="SvgjsG1218" transform="translate(699,98)"><path id="SvgjsPath1219" d="M 0 4Q 0 0 4 0L 123 0Q 127 0 127 4L 127 32Q 127 36 123 36L 4 36Q 0 36 0 32Z" stroke="rgba(50,50,50,1)" stroke-width="2" fill-opacity="1" fill="#e1bee7"></path><g id="SvgjsG1220"><text id="SvgjsText1221" font-family="微软雅黑" text-anchor="middle" font-size="13px" width="107px" fill="#000000" font-weight="400" align="middle" lineHeight="125%" anchor="middle" family="微软雅黑" size="13px" weight="400" font-style="" opacity="1" y="7.375" transform="rotate(0)"><tspan id="SvgjsTspan1222" dy="16" x="63.5"><tspan id="SvgjsTspan1223" style="text-decoration:;">server-私钥</tspan></tspan></text></g></g><g id="SvgjsG1224"><path id="SvgjsPath1225" d="M762.5 135L762.5 162L762.5 162L762.5 186.39999999999998" stroke="#323232" stroke-width="2" fill="none" marker-end="url(#SvgjsMarker1226)"></path></g><g id="SvgjsG1228" transform="translate(699,282)"><path id="SvgjsPath1229" d="M 0 4Q 0 0 4 0L 123 0Q 127 0 127 4L 127 32Q 127 36 123 36L 4 36Q 0 36 0 32Z" stroke="rgba(50,50,50,1)" stroke-width="2" fill-opacity="1" fill="#9c27b0"></path><g id="SvgjsG1230"><text id="SvgjsText1231" font-family="微软雅黑" text-anchor="middle" font-size="13px" width="107px" fill="#000000" font-weight="400" align="middle" lineHeight="125%" anchor="middle" family="微软雅黑" size="13px" weight="400" font-style="" opacity="1" y="7.375" transform="rotate(0)"><tspan id="SvgjsTspan1232" dy="16" x="63.5"><tspan id="SvgjsTspan1233" style="text-decoration:;">根CA-私钥</tspan></tspan></text></g></g><g id="SvgjsG1234"><path id="SvgjsPath1235" d="M762.5 227L762.5 254L762.5 254L762.5 278.4" stroke="#323232" stroke-width="2" fill="none" marker-end="url(#SvgjsMarker1236)"></path></g><g id="SvgjsG1238" transform="translate(699,382)"><path id="SvgjsPath1239" d="M 0 4Q 0 0 4 0L 123 0Q 127 0 127 4L 127 32Q 127 36 123 36L 4 36Q 0 36 0 32Z" stroke="rgba(0,0,0,1)" stroke-width="2" fill-opacity="1" fill="#81c784"></path><g id="SvgjsG1240"><text id="SvgjsText1241" font-family="微软雅黑" text-anchor="middle" font-size="13px" width="107px" fill="#000000" font-weight="400" align="middle" lineHeight="125%" anchor="middle" family="微软雅黑" size="13px" weight="400" font-style="" opacity="1" y="7.375" transform="rotate(0)"><tspan id="SvgjsTspan1242" dy="16" x="63.5"><tspan id="SvgjsTspan1243" style="text-decoration:;">server-自签证书</tspan></tspan></text></g></g><g id="SvgjsG1244"><path id="SvgjsPath1245" d="M762.5 319L762.5 350L762.5 350L762.5 378.4" stroke="#323232" stroke-width="2" fill="none" marker-end="url(#SvgjsMarker1246)"></path><rect id="SvgjsRect1248" width="26" height="16" x="749.5" y="340.7" fill="#ffffff"></rect><text id="SvgjsText1249" font-family="微软雅黑" text-anchor="middle" font-size="13px" width="26px" fill="#000000" font-weight="400" align="top" lineHeight="16px" anchor="middle" family="微软雅黑" size="13px" weight="400" font-style="" opacity="1" y="338.075" transform="rotate(0)"><tspan id="SvgjsTspan1250" dy="16" x="762.5"><tspan id="SvgjsTspan1251" style="text-decoration:;">签名</tspan></tspan></text></g><g id="SvgjsG1252" transform="translate(43,308)"><path id="SvgjsPath1253" d="M 0 4Q 0 0 4 0L 123 0Q 127 0 127 4L 127 32Q 127 36 123 36L 4 36Q 0 36 0 32Z" stroke="rgba(50,50,50,1)" stroke-width="2" fill-opacity="1" fill="#e1bee7"></path><g id="SvgjsG1254"><text id="SvgjsText1255" font-family="微软雅黑" text-anchor="middle" font-size="13px" width="107px" fill="#000000" font-weight="400" align="middle" lineHeight="125%" anchor="middle" family="微软雅黑" size="13px" weight="400" font-style="" opacity="1" y="7.375" transform="rotate(0)"><tspan id="SvgjsTspan1256" dy="16" x="63.5"><tspan id="SvgjsTspan1257" style="text-decoration:;">私钥(key)</tspan></tspan></text></g></g><g id="SvgjsG1258" transform="translate(43,380)"><path id="SvgjsPath1259" d="M 0 4Q 0 0 4 0L 123 0Q 127 0 127 4L 127 32Q 127 36 123 36L 4 36Q 0 36 0 32Z" stroke="rgba(0,0,0,1)" stroke-width="2" fill-opacity="1" fill="#81c784"></path><g id="SvgjsG1260"><text id="SvgjsText1261" font-family="微软雅黑" text-anchor="middle" font-size="13px" width="107px" fill="#000000" font-weight="400" align="middle" lineHeight="125%" anchor="middle" family="微软雅黑" size="13px" weight="400" font-style="" opacity="1" y="7.375" transform="rotate(0)"><tspan id="SvgjsTspan1262" dy="16" x="63.5"><tspan id="SvgjsTspan1263" style="text-decoration:;">证书(crt)</tspan></tspan></text></g></g><g id="SvgjsG1264" transform="translate(262,344)"><path id="SvgjsPath1265" d="M 0 4Q 0 0 4 0L 123 0Q 127 0 127 4L 127 32Q 127 36 123 36L 4 36Q 0 36 0 32Z" stroke="rgba(50,50,50,1)" stroke-width="2" fill-opacity="1" fill="#4dd0e1"></path><g id="SvgjsG1266"><text id="SvgjsText1267" font-family="微软雅黑" text-anchor="middle" font-size="13px" width="107px" fill="#000000" font-weight="400" align="middle" lineHeight="125%" anchor="middle" family="微软雅黑" size="13px" weight="400" font-style="" opacity="1" y="7.375" transform="rotate(0)"><tspan id="SvgjsTspan1268" dy="16" x="63.5"><tspan id="SvgjsTspan1269" style="text-decoration:;">通用密钥库(p12)</tspan></tspan></text></g></g><g id="SvgjsG1270"><path id="SvgjsPath1271" d="M171 326L216 326L216 362L258.4 362" stroke="#323232" stroke-width="2" fill="none" marker-end="url(#SvgjsMarker1272)"></path></g><g id="SvgjsG1274"><path id="SvgjsPath1275" d="M171 398L216 398L216 362L258.4 362" stroke="#323232" stroke-width="2" fill="none" marker-end="url(#SvgjsMarker1276)"></path></g><g id="SvgjsG1278" transform="translate(500,344)"><path id="SvgjsPath1279" d="M 0 4Q 0 0 4 0L 123 0Q 127 0 127 4L 127 32Q 127 36 123 36L 4 36Q 0 36 0 32Z" stroke="rgba(50,50,50,1)" stroke-width="2" fill-opacity="1" fill="#4dd0e1"></path><g id="SvgjsG1280"><text id="SvgjsText1281" font-family="微软雅黑" text-anchor="middle" font-size="13px" width="107px" fill="#000000" font-weight="400" align="middle" lineHeight="125%" anchor="middle" family="微软雅黑" size="13px" weight="400" font-style="" opacity="1" y="7.375" transform="rotate(0)"><tspan id="SvgjsTspan1282" dy="16" x="63.5"><tspan id="SvgjsTspan1283" style="text-decoration:;">java密钥库(jks)</tspan></tspan></text></g></g><g id="SvgjsG1284"><path id="SvgjsPath1285" d="M392.6 362L444.5 362L444.5 362L496.4 362" stroke="#323232" stroke-width="2" fill="none" marker-start="url(#SvgjsMarker1286)" marker-end="url(#SvgjsMarker1288)"></path><rect id="SvgjsRect1290" width="26" height="16" x="431.5" y="354" fill="#ffffff"></rect><text id="SvgjsText1291" font-family="微软雅黑" text-anchor="middle" font-size="13px" width="26px" fill="#323232" font-weight="400" align="top" lineHeight="16px" anchor="middle" family="微软雅黑" size="13px" weight="400" font-style="" opacity="1" y="351.375" transform="rotate(0)"><tspan id="SvgjsTspan1292" dy="16" x="444.5"><tspan id="SvgjsTspan1293" style="text-decoration:;">互转</tspan></tspan></text></g></svg>