<svg id="SvgjsSvg1006" width="1332" height="405.5" xmlns="http://www.w3.org/2000/svg" version="1.1" xmlns:xlink="http://www.w3.org/1999/xlink" xmlns:svgjs="http://svgjs.com/svgjs"><defs id="SvgjsDefs1007"><marker id="SvgjsMarker1066" markerWidth="14" markerHeight="12" refX="16" refY="6" viewBox="0 0 14 12" orient="auto" markerUnits="userSpaceOnUse" stroke-dasharray="0,0"><path id="SvgjsPath1067" d="M1,1 L14,6 L1,11L1,1" fill="#ffffff" stroke="#323232" stroke-width="2"></path></marker><marker id="SvgjsMarker1142" markerWidth="20" markerHeight="12" refX="0" refY="6" viewBox="0 0 20 12" orient="auto" markerUnits="userSpaceOnUse" stroke-dasharray="0,0"><path id="SvgjsPath1143" d="M2,6 L10,2 L18,6 L10,10L2,6" fill="#ffffff" stroke="#323232" stroke-width="2"></path></marker><marker id="SvgjsMarker1144" markerWidth="20" markerHeight="12" refX="20" refY="6" viewBox="0 0 20 12" orient="auto" markerUnits="userSpaceOnUse" stroke-dasharray="0,0"><path id="SvgjsPath1145" d="M2,6 L10,2 L18,6 L10,10L2,6" fill="#ffffff" stroke="#323232" stroke-width="2"></path></marker><marker id="SvgjsMarker1148" markerWidth="20" markerHeight="12" refX="0" refY="6" viewBox="0 0 20 12" orient="auto" markerUnits="userSpaceOnUse" stroke-dasharray="0,0"><path id="SvgjsPath1149" d="M2,6 L10,2 L18,6 L10,10L2,6" fill="#ffffff" stroke="#323232" stroke-width="2"></path></marker><marker id="SvgjsMarker1150" markerWidth="20" markerHeight="12" refX="20" refY="6" viewBox="0 0 20 12" orient="auto" markerUnits="userSpaceOnUse" stroke-dasharray="0,0"><path id="SvgjsPath1151" d="M2,6 L10,2 L18,6 L10,10L2,6" fill="#ffffff" stroke="#323232" stroke-width="2"></path></marker><marker id="SvgjsMarker1154" markerWidth="20" markerHeight="12" refX="0" refY="6" viewBox="0 0 20 12" orient="auto" markerUnits="userSpaceOnUse" stroke-dasharray="0,0"><path id="SvgjsPath1155" d="M2,6 L10,2 L18,6 L10,10L2,6" fill="#ffffff" stroke="#323232" stroke-width="2"></path></marker><marker id="SvgjsMarker1156" markerWidth="20" markerHeight="12" refX="20" refY="6" viewBox="0 0 20 12" orient="auto" markerUnits="userSpaceOnUse" stroke-dasharray="0,0"><path id="SvgjsPath1157" d="M2,6 L10,2 L18,6 L10,10L2,6" fill="#ffffff" stroke="#323232" stroke-width="2"></path></marker><marker id="SvgjsMarker1202" markerWidth="14" markerHeight="12" refX="16" refY="6" viewBox="0 0 14 12" orient="auto" markerUnits="userSpaceOnUse" stroke-dasharray="0,0"><path id="SvgjsPath1203" d="M1,1 L14,6 L1,11L1,1" fill="#ffffff" stroke="#323232" stroke-width="2"></path></marker><marker id="SvgjsMarker1206" markerWidth="20" markerHeight="12" refX="0" refY="6" viewBox="0 0 20 12" orient="auto" markerUnits="userSpaceOnUse" stroke-dasharray="0,0"><path id="SvgjsPath1207" d="M2,6 L10,2 L18,6 L10,10L2,6" fill="#ffffff" stroke="#323232" stroke-width="2"></path></marker><marker id="SvgjsMarker1208" markerWidth="20" markerHeight="12" refX="20" refY="6" viewBox="0 0 20 12" orient="auto" markerUnits="userSpaceOnUse" stroke-dasharray="0,0"><path id="SvgjsPath1209" d="M2,6 L10,2 L18,6 L10,10L2,6" fill="#ffffff" stroke="#323232" stroke-width="2"></path></marker><marker id="SvgjsMarker1212" markerWidth="16" markerHeight="12" refX="16" refY="6" viewBox="0 0 16 12" orient="auto" markerUnits="userSpaceOnUse" stroke-dasharray="0,0"><path id="SvgjsPath1213" d="M0,2 L14,6 L0,11 L0,2" fill="#323232" stroke="#323232" stroke-width="2"></path></marker><marker id="SvgjsMarker1228" markerWidth="16" markerHeight="12" refX="16" refY="6" viewBox="0 0 16 12" orient="auto" markerUnits="userSpaceOnUse" stroke-dasharray="0,0"><path id="SvgjsPath1229" d="M0,2 L14,6 L0,11 L0,2" fill="#323232" stroke="#323232" stroke-width="2"></path></marker><marker id="SvgjsMarker1236" markerWidth="16" markerHeight="12" refX="16" refY="6" viewBox="0 0 16 12" orient="auto" markerUnits="userSpaceOnUse" stroke-dasharray="0,0"><path id="SvgjsPath1237" d="M0,2 L14,6 L0,11 L0,2" fill="#323232" stroke="#323232" stroke-width="2"></path></marker><marker id="SvgjsMarker1244" markerWidth="16" markerHeight="12" refX="16" refY="6" viewBox="0 0 16 12" orient="auto" markerUnits="userSpaceOnUse" stroke-dasharray="0,0"><path id="SvgjsPath1245" d="M0,2 L14,6 L0,11 L0,2" fill="#323232" stroke="#323232" stroke-width="2"></path></marker><marker id="SvgjsMarker1252" markerWidth="16" markerHeight="12" refX="16" refY="6" viewBox="0 0 16 12" orient="auto" markerUnits="userSpaceOnUse" stroke-dasharray="0,0"><path id="SvgjsPath1253" d="M0,2 L14,6 L0,11 L0,2" fill="#323232" stroke="#323232" stroke-width="2"></path></marker><marker id="SvgjsMarker1256" markerWidth="20" markerHeight="12" refX="0" refY="6" viewBox="0 0 20 12" orient="auto" markerUnits="userSpaceOnUse" stroke-dasharray="0,0"><path id="SvgjsPath1257" d="M2,6 L10,2 L18,6 L10,10L2,6" fill="#ffffff" stroke="#323232" stroke-width="2"></path></marker><marker id="SvgjsMarker1258" markerWidth="20" markerHeight="12" refX="20" refY="6" viewBox="0 0 20 12" orient="auto" markerUnits="userSpaceOnUse" stroke-dasharray="0,0"><path id="SvgjsPath1259" d="M2,6 L10,2 L18,6 L10,10L2,6" fill="#ffffff" stroke="#323232" stroke-width="2"></path></marker><marker id="SvgjsMarker1274" markerWidth="14" markerHeight="12" refX="16" refY="6" viewBox="0 0 14 12" orient="auto" markerUnits="userSpaceOnUse" stroke-dasharray="0,0"><path id="SvgjsPath1275" d="M1,1 L14,6 L1,11L1,1" fill="#ffffff" stroke="#323232" stroke-width="2"></path></marker><marker id="SvgjsMarker1278" markerWidth="16" markerHeight="12" refX="16" refY="6" viewBox="0 0 16 12" orient="auto" markerUnits="userSpaceOnUse" stroke-dasharray="0,0"><path id="SvgjsPath1279" d="M0,2 L14,6 L0,11 L0,2" fill="#323232" stroke="#323232" stroke-width="2"></path></marker><marker id="SvgjsMarker1288" markerWidth="16" markerHeight="12" refX="0" refY="6" viewBox="0 0 16 12" orient="auto" markerUnits="userSpaceOnUse" stroke-dasharray="0,0"><path id="SvgjsPath1289" d="M15,1.5 L2,6 L15,10.5" fill="#323232" stroke="#323232" stroke-width="2"></path></marker></defs><g id="SvgjsG1008" transform="translate(797,78.5)"><path id="SvgjsPath1009" d="M 0 0L 510 0L 510 302L 0 302Z" stroke="rgba(50,50,50,1)" stroke-width="2" fill-opacity="1" fill="#f57f17"></path><g id="SvgjsG1010"><text id="SvgjsText1011" font-family="微软雅黑" text-anchor="middle" font-size="13px" width="490px" fill="#323232" font-weight="400" align="middle" lineHeight="125%" anchor="middle" family="微软雅黑" size="13px" weight="400" font-style="" opacity="1" y="141.375" transform="rotate(0)"></text></g></g><g id="SvgjsG1012" transform="translate(851.75,196.5)"><path id="SvgjsPath1013" d="M 0 4Q 0 0 4 0L 352.25 0Q 356.25 0 356.25 4L 356.25 74Q 356.25 78 352.25 78L 4 78Q 0 78 0 74Z" stroke-dasharray="3,4" stroke="rgba(255,255,255,1)" stroke-width="2" fill-opacity="1" fill="#f57f17"></path><g id="SvgjsG1014"><text id="SvgjsText1015" font-family="微软雅黑" text-anchor="middle" font-size="13px" width="337px" fill="#ff0000" font-weight="400" align="top" lineHeight="125%" anchor="middle" family="微软雅黑" size="13px" weight="400" font-style="" opacity="1" y="-1.625" transform="rotate(0)"><tspan id="SvgjsTspan1016" dy="16" x="178.5"><tspan id="SvgjsTspan1017" style="text-decoration:;font-style: italic;fill: rgb(255, 255, 255);">关键方法</tspan></tspan></text></g></g><g id="SvgjsG1018" transform="translate(374,176.5)"><path id="SvgjsPath1019" d="M 0 0L 347 0L 347 204L 0 204Z" stroke="rgba(50,50,50,1)" stroke-width="2" fill-opacity="1" fill="#9c27b0"></path><g id="SvgjsG1020"><text id="SvgjsText1021" font-family="微软雅黑" text-anchor="middle" font-size="13px" width="327px" fill="#000000" font-weight="400" align="middle" lineHeight="125%" anchor="middle" family="微软雅黑" size="13px" weight="400" font-style="" opacity="1" y="92.375" transform="rotate(0)"></text></g></g><g id="SvgjsG1022" transform="translate(385,184.5)"><path id="SvgjsPath1023" d="M 0 0L 281 0L 281 78L 0 78Z" stroke-dasharray="3,4" stroke="rgba(50,50,50,1)" stroke-width="2" fill-opacity="1" fill="#ffffff"></path><g id="SvgjsG1024"><text id="SvgjsText1025" font-family="微软雅黑" text-anchor="middle" font-size="13px" width="261px" fill="#323232" font-weight="400" align="middle" lineHeight="125%" anchor="middle" family="微软雅黑" size="13px" weight="400" font-style="" opacity="1" y="29.375" transform="rotate(0)"></text></g></g><g id="SvgjsG1026" transform="translate(25,237.5)"><path id="SvgjsPath1027" d="M 0 0L 274 0L 274 143L 0 143Z" stroke="rgba(50,50,50,1)" stroke-width="2" fill-opacity="1" fill="#616161"></path><g id="SvgjsG1028"><text id="SvgjsText1029" font-family="微软雅黑" text-anchor="start" font-size="22px" width="254px" fill="#0eed19" font-weight="400" align="middle" lineHeight="125%" anchor="start" family="微软雅黑" size="22px" weight="400" font-style="" opacity="1" y="39.75" transform="rotate(0)"><tspan id="SvgjsTspan1030" dy="27" x="10"><tspan id="SvgjsTspan1031" style="text-decoration:;">Caching</tspan></tspan><tspan id="SvgjsTspan1032" dy="27" x="10"><tspan id="SvgjsTspan1033" style="text-decoration:;">Executor</tspan></tspan></text></g></g><g id="SvgjsG1034" transform="translate(483,25)"><path id="SvgjsPath1035" d="M 0 4Q 0 0 4 0L 156 0Q 160 0 160 4L 160 43Q 160 47 156 47L 4 47Q 0 47 0 43Z" stroke="rgba(50,50,50,1)" stroke-width="2" fill-opacity="1" fill="#616161"></path><g id="SvgjsG1036"><text id="SvgjsText1037" font-family="微软雅黑" text-anchor="middle" font-size="13px" width="140px" fill="#ffffff" font-weight="400" align="middle" lineHeight="125%" anchor="middle" family="微软雅黑" size="13px" weight="400" font-style="" opacity="1" y="13.875" transform="rotate(0)"><tspan id="SvgjsTspan1038" dy="16" x="80"><tspan id="SvgjsTspan1039" style="text-decoration:;">MappedStatement</tspan></tspan></text></g></g><g id="SvgjsG1040" transform="translate(530,65.5)"><path id="SvgjsPath1041" d="M 0 0L 66 0L 66 25L 0 25Z" stroke="rgba(50,50,50,1)" stroke-width="2" fill-opacity="1" fill="#2196f3"></path><g id="SvgjsG1042"><text id="SvgjsText1043" font-family="微软雅黑" text-anchor="middle" font-size="13px" width="46px" fill="#ffffff" font-weight="400" align="middle" lineHeight="125%" anchor="middle" family="微软雅黑" size="13px" weight="400" font-style="" opacity="1" y="2.875" transform="rotate(0)"><tspan id="SvgjsTspan1044" dy="16" x="33"><tspan id="SvgjsTspan1045" style="text-decoration:;">cache</tspan></tspan></text></g></g><g id="SvgjsG1046" transform="translate(170,254.5)"><path id="SvgjsPath1047" d="M 0 0L 117 0L 117 25L 0 25Z" stroke="rgba(50,50,50,1)" stroke-width="2" fill-opacity="1" fill="#ffffff"></path><g id="SvgjsG1048"><text id="SvgjsText1049" font-family="微软雅黑" text-anchor="middle" font-size="13px" width="97px" fill="#323232" font-weight="400" align="middle" lineHeight="125%" anchor="middle" family="微软雅黑" size="13px" weight="400" font-style="" opacity="1" y="2.875" transform="rotate(0)"><tspan id="SvgjsTspan1050" dy="16" x="58.5"><tspan id="SvgjsTspan1051" style="text-decoration:;">读缓存</tspan></tspan></text></g></g><g id="SvgjsG1052" transform="translate(170,289.5)"><path id="SvgjsPath1053" d="M 0 0L 117 0L 117 25L 0 25Z" stroke="rgba(50,50,50,1)" stroke-width="2" fill-opacity="1" fill="#ffffff"></path><g id="SvgjsG1054"><text id="SvgjsText1055" font-family="微软雅黑" text-anchor="middle" font-size="13px" width="97px" fill="#323232" font-weight="400" align="middle" lineHeight="125%" anchor="middle" family="微软雅黑" size="13px" weight="400" font-style="" opacity="1" y="2.875" transform="rotate(0)"><tspan id="SvgjsTspan1056" dy="16" x="58.5"><tspan id="SvgjsTspan1057" style="text-decoration:;">写缓存</tspan></tspan></text></g></g><g id="SvgjsG1058" transform="translate(170,341.5)"><path id="SvgjsPath1059" d="M 0 4Q 0 0 4 0L 113 0Q 117 0 117 4L 117 29Q 117 33 113 33L 4 33Q 0 33 0 29Z" stroke="rgba(50,50,50,1)" stroke-width="2" fill-opacity="1" fill="#9c27b0"></path><g id="SvgjsG1060"><text id="SvgjsText1061" font-family="微软雅黑" text-anchor="middle" font-size="13px" width="97px" fill="#ffffff" font-weight="400" align="middle" lineHeight="125%" anchor="middle" family="微软雅黑" size="13px" weight="400" font-style="" opacity="1" y="6.875" transform="rotate(0)"><tspan id="SvgjsTspan1062" dy="16" x="58.5"><tspan id="SvgjsTspan1063" style="text-decoration:;">tcm</tspan></tspan></text></g></g><g id="SvgjsG1064"><path id="SvgjsPath1065" d="M228.5 314.5L228.5 328L228.5 328L228.5 341.5" stroke="#323232" stroke-width="2" fill="none" marker-end="url(#SvgjsMarker1066)"></path></g><g id="SvgjsG1068" transform="translate(464.25,153.5)"><path id="SvgjsPath1069" d="M 0 0L 203.5 0L 203.5 20L 0 20Z" stroke="none" fill="none"></path><g id="SvgjsG1070"><text id="SvgjsText1071" font-family="微软雅黑" text-anchor="middle" font-size="13px" width="204px" fill="#323232" font-weight="700" align="middle" lineHeight="125%" anchor="middle" family="微软雅黑" size="13px" weight="700" font-style="" opacity="1" y="0.375" transform="rotate(0)"><tspan id="SvgjsTspan1072" dy="16" x="102"><tspan id="SvgjsTspan1073" style="text-decoration:;">TransactionalCacheManager</tspan></tspan></text></g></g><g id="SvgjsG1074" transform="translate(385,299.5)"><path id="SvgjsPath1075" d="M 0 0L 84 0L 84 23L 0 23Z" stroke="rgba(50,50,50,1)" stroke-width="2" fill-opacity="1" fill="#2196f3"></path><g id="SvgjsG1076"><text id="SvgjsText1077" font-family="微软雅黑" text-anchor="middle" font-size="13px" width="64px" fill="#ffffff" font-weight="400" align="middle" lineHeight="125%" anchor="middle" family="微软雅黑" size="13px" weight="400" font-style="" opacity="1" y="1.875" transform="rotate(0)"><tspan id="SvgjsTspan1078" dy="16" x="42"><tspan id="SvgjsTspan1079" style="text-decoration:;">cache</tspan></tspan></text></g></g><g id="SvgjsG1080" transform="translate(469,299.5)"><path id="SvgjsPath1081" d="M 0 0L 174 0L 174 23L 0 23Z" stroke="rgba(0,0,0,1)" stroke-width="2" fill-opacity="1" fill="#f57f17"></path><g id="SvgjsG1082"><text id="SvgjsText1083" font-family="微软雅黑" text-anchor="middle" font-size="13px" width="154px" fill="#ffffff" font-weight="400" align="middle" lineHeight="125%" anchor="middle" family="微软雅黑" size="13px" weight="400" font-style="" opacity="1" y="1.875" transform="rotate(0)"><tspan id="SvgjsTspan1084" dy="16" x="87"><tspan id="SvgjsTspan1085" style="text-decoration:;">TransactionalCache</tspan></tspan></text></g></g><g id="SvgjsG1086" transform="translate(385,322.5)"><path id="SvgjsPath1087" d="M 0 0L 84 0L 84 23L 0 23Z" stroke="rgba(50,50,50,1)" stroke-width="2" fill-opacity="1" fill="#2196f3"></path><g id="SvgjsG1088"><text id="SvgjsText1089" font-family="微软雅黑" text-anchor="middle" font-size="13px" width="64px" fill="#ffffff" font-weight="400" align="middle" lineHeight="125%" anchor="middle" family="微软雅黑" size="13px" weight="400" font-style="" opacity="1" y="1.875" transform="rotate(0)"><tspan id="SvgjsTspan1090" dy="16" x="42"><tspan id="SvgjsTspan1091" style="text-decoration:;">cache</tspan></tspan></text></g></g><g id="SvgjsG1092" transform="translate(469,322.5)"><path id="SvgjsPath1093" d="M 0 0L 174 0L 174 23L 0 23Z" stroke="rgba(0,0,0,1)" stroke-width="2" fill-opacity="1" fill="#f57f17"></path><g id="SvgjsG1094"><text id="SvgjsText1095" font-family="微软雅黑" text-anchor="middle" font-size="13px" width="154px" fill="#ffffff" font-weight="400" align="middle" lineHeight="125%" anchor="middle" family="微软雅黑" size="13px" weight="400" font-style="" opacity="1" y="1.875" transform="rotate(0)"><tspan id="SvgjsTspan1096" dy="16" x="87"><tspan id="SvgjsTspan1097" style="text-decoration:;">TransactionalCache</tspan></tspan></text></g></g><g id="SvgjsG1098" transform="translate(385,345.5)"><path id="SvgjsPath1099" d="M 0 0L 84 0L 84 23L 0 23Z" stroke="rgba(50,50,50,1)" stroke-width="2" fill-opacity="1" fill="#2196f3"></path><g id="SvgjsG1100"><text id="SvgjsText1101" font-family="微软雅黑" text-anchor="middle" font-size="13px" width="64px" fill="#ffffff" font-weight="400" align="middle" lineHeight="125%" anchor="middle" family="微软雅黑" size="13px" weight="400" font-style="" opacity="1" y="1.875" transform="rotate(0)"><tspan id="SvgjsTspan1102" dy="16" x="42"><tspan id="SvgjsTspan1103" style="text-decoration:;">cache</tspan></tspan></text></g></g><g id="SvgjsG1104" transform="translate(469,345.5)"><path id="SvgjsPath1105" d="M 0 0L 174 0L 174 23L 0 23Z" stroke="rgba(0,0,0,1)" stroke-width="2" fill-opacity="1" fill="#f57f17"></path><g id="SvgjsG1106"><text id="SvgjsText1107" font-family="微软雅黑" text-anchor="middle" font-size="13px" width="154px" fill="#ffffff" font-weight="400" align="middle" lineHeight="125%" anchor="middle" family="微软雅黑" size="13px" weight="400" font-style="" opacity="1" y="1.875" transform="rotate(0)"><tspan id="SvgjsTspan1108" dy="16" x="87"><tspan id="SvgjsTspan1109" style="text-decoration:;">TransactionalCache</tspan></tspan></text></g></g><g id="SvgjsG1110" transform="translate(392.5,193.5)"><path id="SvgjsPath1111" d="M 0 0L 69 0L 69 23L 0 23Z" stroke="rgba(50,50,50,1)" stroke-width="2" fill-opacity="1" fill="#ffffff"></path><g id="SvgjsG1112"><text id="SvgjsText1113" font-family="微软雅黑" text-anchor="middle" font-size="13px" width="49px" fill="#323232" font-weight="400" align="middle" lineHeight="125%" anchor="middle" family="微软雅黑" size="13px" weight="400" font-style="" opacity="1" y="1.875" transform="rotate(0)"><tspan id="SvgjsTspan1114" dy="16" x="34.5"><tspan id="SvgjsTspan1115" style="text-decoration:;">提交</tspan></tspan></text></g></g><g id="SvgjsG1116" transform="translate(392.5,227.5)"><path id="SvgjsPath1117" d="M 0 0L 69 0L 69 23L 0 23Z" stroke="rgba(50,50,50,1)" stroke-width="2" fill-opacity="1" fill="#ffffff"></path><g id="SvgjsG1118"><text id="SvgjsText1119" font-family="微软雅黑" text-anchor="middle" font-size="13px" width="49px" fill="#323232" font-weight="400" align="middle" lineHeight="125%" anchor="middle" family="微软雅黑" size="13px" weight="400" font-style="" opacity="1" y="1.875" transform="rotate(0)"><tspan id="SvgjsTspan1120" dy="16" x="34.5"><tspan id="SvgjsTspan1121" style="text-decoration:;">回滚</tspan></tspan></text></g></g><g id="SvgjsG1122" transform="translate(588,193.5)"><path id="SvgjsPath1123" d="M 0 0L 69 0L 69 23L 0 23Z" stroke="rgba(50,50,50,1)" stroke-width="2" fill-opacity="1" fill="#ffffff"></path><g id="SvgjsG1124"><text id="SvgjsText1125" font-family="微软雅黑" text-anchor="middle" font-size="13px" width="49px" fill="#323232" font-weight="400" align="middle" lineHeight="125%" anchor="middle" family="微软雅黑" size="13px" weight="400" font-style="" opacity="1" y="1.875" transform="rotate(0)"><tspan id="SvgjsTspan1126" dy="16" x="34.5"><tspan id="SvgjsTspan1127" style="text-decoration:;">清除</tspan></tspan></text></g></g><g id="SvgjsG1128" transform="translate(491,193.5)"><path id="SvgjsPath1129" d="M 0 0L 69 0L 69 23L 0 23Z" stroke="rgba(50,50,50,1)" stroke-width="2" fill-opacity="1" fill="#ffffff"></path><g id="SvgjsG1130"><text id="SvgjsText1131" font-family="微软雅黑" text-anchor="middle" font-size="13px" width="49px" fill="#323232" font-weight="400" align="middle" lineHeight="125%" anchor="middle" family="微软雅黑" size="13px" weight="400" font-style="" opacity="1" y="1.875" transform="rotate(0)"><tspan id="SvgjsTspan1132" dy="16" x="34.5"><tspan id="SvgjsTspan1133" style="text-decoration:;">get</tspan></tspan></text></g></g><g id="SvgjsG1134" transform="translate(491,227.5)"><path id="SvgjsPath1135" d="M 0 0L 69 0L 69 23L 0 23Z" stroke="rgba(50,50,50,1)" stroke-width="2" fill-opacity="1" fill="#ffffff"></path><g id="SvgjsG1136"><text id="SvgjsText1137" font-family="微软雅黑" text-anchor="middle" font-size="13px" width="49px" fill="#323232" font-weight="400" align="middle" lineHeight="125%" anchor="middle" family="微软雅黑" size="13px" weight="400" font-style="" opacity="1" y="1.875" transform="rotate(0)"><tspan id="SvgjsTspan1138" dy="16" x="34.5"><tspan id="SvgjsTspan1139" style="text-decoration:;">set</tspan></tspan></text></g></g><g id="SvgjsG1140"><path id="SvgjsPath1141" d="M643 311L696 311L696 223.5L666 223.5" stroke="#323232" stroke-width="2" fill="none" marker-start="url(#SvgjsMarker1142)" marker-end="url(#SvgjsMarker1144)"></path></g><g id="SvgjsG1146"><path id="SvgjsPath1147" d="M643 334L696 334L696 223.5L666 223.5" stroke="#323232" stroke-width="2" fill="none" marker-start="url(#SvgjsMarker1148)" marker-end="url(#SvgjsMarker1150)"></path></g><g id="SvgjsG1152"><path id="SvgjsPath1153" d="M643 357L696 357L696 223.5L666 223.5" stroke="#323232" stroke-width="2" fill="none" marker-start="url(#SvgjsMarker1154)" marker-end="url(#SvgjsMarker1156)"></path></g><g id="SvgjsG1158" transform="translate(945.5,55)"><path id="SvgjsPath1159" d="M 0 0L 162 0L 162 21L 0 21Z" stroke="none" fill="none"></path><g id="SvgjsG1160"><text id="SvgjsText1161" font-family="微软雅黑" text-anchor="middle" font-size="13px" width="162px" fill="#323232" font-weight="700" align="middle" lineHeight="125%" anchor="middle" family="微软雅黑" size="13px" weight="700" font-style="" opacity="1" y="0.875" transform="rotate(0)"><tspan id="SvgjsTspan1162" dy="16" x="81"><tspan id="SvgjsTspan1163" style="text-decoration:;">TransactionalCache</tspan></tspan></text></g></g><g id="SvgjsG1164" transform="translate(809,90.5)"><path id="SvgjsPath1165" d="M 0 0L 213 0L 213 56L 0 56Z" stroke="rgba(50,50,50,1)" stroke-width="2" fill-opacity="1" fill="#2196f3"></path><g id="SvgjsG1166"><text id="SvgjsText1167" font-family="微软雅黑" text-anchor="middle" font-size="13px" width="193px" fill="#ffffff" font-weight="400" align="middle" lineHeight="125%" anchor="middle" family="微软雅黑" size="13px" weight="400" font-style="" opacity="1" y="10.375" transform="rotate(0)"><tspan id="SvgjsTspan1168" dy="16" x="106.5"><tspan id="SvgjsTspan1169" style="text-decoration:;">delegate</tspan></tspan><tspan id="SvgjsTspan1170" dy="16" x="106.5"><tspan id="SvgjsTspan1171" style="text-decoration:;">最终存储缓存数据的cache对象</tspan></tspan></text></g></g><g id="SvgjsG1172" transform="translate(1034,90.5)"><path id="SvgjsPath1173" d="M 0 0L 215 0L 215 56L 0 56Z" stroke="rgba(50,50,50,1)" stroke-width="2" fill-opacity="1" fill="#e57373"></path><g id="SvgjsG1174"><text id="SvgjsText1175" font-family="微软雅黑" text-anchor="middle" font-size="13px" width="195px" fill="#ffffff" font-weight="400" align="middle" lineHeight="125%" anchor="middle" family="微软雅黑" size="13px" weight="400" font-style="" opacity="1" y="10.375" transform="rotate(0)"><tspan id="SvgjsTspan1176" dy="16" x="107.5"><tspan id="SvgjsTspan1177" style="text-decoration:;">clearOnCommit</tspan></tspan><tspan id="SvgjsTspan1178" dy="16" x="107.5"><tspan id="SvgjsTspan1179" style="text-decoration:;">提交时清除缓冲的标志位</tspan></tspan></text></g></g><g id="SvgjsG1180" transform="translate(809,300.5)"><path id="SvgjsPath1181" d="M 0 0L 213 0L 213 68L 0 68Z" stroke="rgba(50,50,50,1)" stroke-width="2" fill-opacity="1" fill="#4caf50"></path><g id="SvgjsG1182"><text id="SvgjsText1183" font-family="微软雅黑" text-anchor="middle" font-size="13px" width="193px" fill="#ffffff" font-weight="400" align="middle" lineHeight="125%" anchor="middle" family="微软雅黑" size="13px" weight="400" font-style="" opacity="1" y="8.375" transform="rotate(0)"><tspan id="SvgjsTspan1184" dy="16" x="106.5"><tspan id="SvgjsTspan1185" style="text-decoration:;">entriesToAddOnCommit</tspan></tspan><tspan id="SvgjsTspan1186" dy="16" x="106.5"><tspan id="SvgjsTspan1187" style="text-decoration:;">提交时要添加的数据的暂存区</tspan></tspan><tspan id="SvgjsTspan1188" dy="16" x="106.5"><tspan id="SvgjsTspan1189" style="text-decoration:;">(HashMap)</tspan></tspan></text></g></g><g id="SvgjsG1190" transform="translate(1034,300.5)"><path id="SvgjsPath1191" d="M 0 0L 215 0L 215 68L 0 68Z" stroke="rgba(50,50,50,1)" stroke-width="2" fill-opacity="1" fill="#616161"></path><g id="SvgjsG1192"><text id="SvgjsText1193" font-family="微软雅黑" text-anchor="middle" font-size="13px" width="195px" fill="#ffffff" font-weight="400" align="middle" lineHeight="125%" anchor="middle" family="微软雅黑" size="13px" weight="400" font-style="" opacity="1" y="8.375" transform="rotate(0)"><tspan id="SvgjsTspan1194" dy="16" x="107.5"><tspan id="SvgjsTspan1195" style="text-decoration:;">entriesMissedInCache</tspan></tspan><tspan id="SvgjsTspan1196" dy="16" x="107.5"><tspan id="SvgjsTspan1197" style="text-decoration:;">记录未命中缓存的key的缓冲区</tspan></tspan><tspan id="SvgjsTspan1198" dy="16" x="107.5"><tspan id="SvgjsTspan1199" style="text-decoration:;">(HashSet)</tspan></tspan></text></g></g><g id="SvgjsG1200"><path id="SvgjsPath1201" d="M530 78L228.5 78L228.5 254.5" stroke="#323232" stroke-width="2" fill="none" marker-end="url(#SvgjsMarker1202)"></path></g><g id="SvgjsG1204"><path id="SvgjsPath1205" d="M385 311L355 311L355 120.5L563 120.5L563 90.5" stroke-dasharray="8,5" stroke="#323232" stroke-width="2" fill="none" marker-start="url(#SvgjsMarker1206)" marker-end="url(#SvgjsMarker1208)"></path></g><g id="SvgjsG1210"><path id="SvgjsPath1211" d="M287 358L330.5 358L330.5 358.5L374 358.5" stroke="#323232" stroke-width="2" fill="none" marker-end="url(#SvgjsMarker1212)"></path></g><g id="SvgjsG1214" transform="translate(851.75,203.5)"><path id="SvgjsPath1215" d="M 0 19L 63.75 0L 127.5 19L 63.75 38Z" stroke="rgba(50,50,50,1)" stroke-width="2" fill-opacity="1" fill="#ffffff"></path><g id="SvgjsG1216"><text id="SvgjsText1217" font-family="微软雅黑" text-anchor="middle" font-size="13px" width="108px" fill="#323232" font-weight="400" align="middle" lineHeight="125%" anchor="middle" family="微软雅黑" size="13px" weight="400" font-style="" opacity="1" y="9.565000000000001" transform="rotate(0)"><tspan id="SvgjsTspan1218" dy="16" x="64"><tspan id="SvgjsTspan1219" style="text-decoration:;">commit提交</tspan></tspan></text></g></g><g id="SvgjsG1220" transform="translate(1077.75,203.5)"><path id="SvgjsPath1221" d="M 0 19L 63.75 0L 127.5 19L 63.75 38Z" stroke="rgba(50,50,50,1)" stroke-width="2" fill-opacity="1" fill="#ffffff"></path><g id="SvgjsG1222"><text id="SvgjsText1223" font-family="微软雅黑" text-anchor="middle" font-size="13px" width="108px" fill="#323232" font-weight="400" align="middle" lineHeight="125%" anchor="middle" family="微软雅黑" size="13px" weight="400" font-style="" opacity="1" y="9.565000000000001" transform="rotate(0)"><tspan id="SvgjsTspan1224" dy="16" x="64"><tspan id="SvgjsTspan1225" style="text-decoration:;">rollback回滚</tspan></tspan></text></g></g><g id="SvgjsG1226"><path id="SvgjsPath1227" d="M1141.5 203.5L1141.5 175L985 175L985 146.5" stroke="#323232" stroke-width="2" fill="none" marker-end="url(#SvgjsMarker1228)"></path><rect id="SvgjsRect1230" width="99" height="16" x="1013.75" y="167" fill="#ffffff"></rect><text id="SvgjsText1231" font-family="微软雅黑" text-anchor="middle" font-size="13px" width="99px" fill="#323232" font-weight="400" align="top" lineHeight="16px" anchor="middle" family="微软雅黑" size="13px" weight="400" font-style="" opacity="1" y="165.375" transform="rotate(0)"><tspan id="SvgjsTspan1232" dy="16" x="1063.25"><tspan id="SvgjsTspan1233" style="text-decoration:;">根据key删除缓存</tspan></tspan></text></g><g id="SvgjsG1234"><path id="SvgjsPath1235" d="M915.5 300.5L915.5 271L915.5 271L915.5 241.5" stroke="#323232" stroke-width="2" fill="none" marker-end="url(#SvgjsMarker1236)"></path><rect id="SvgjsRect1238" width="25" height="16" x="903" y="263" fill="#ffffff"></rect><text id="SvgjsText1239" font-family="微软雅黑" text-anchor="middle" font-size="13px" width="25px" fill="#323232" font-weight="400" align="top" lineHeight="16px" anchor="middle" family="微软雅黑" size="13px" weight="400" font-style="" opacity="1" y="261.375" transform="rotate(0)"><tspan id="SvgjsTspan1240" dy="16" x="915.5"><tspan id="SvgjsTspan1241" style="text-decoration:;">k : v</tspan></tspan></text></g><g id="SvgjsG1242"><path id="SvgjsPath1243" d="M915.5 203.5L915.5 175L915.5 175L915.5 146.5" stroke="#323232" stroke-width="2" fill="none" marker-end="url(#SvgjsMarker1244)"></path><rect id="SvgjsRect1246" width="52" height="16" x="889.5" y="167" fill="#ffffff"></rect><text id="SvgjsText1247" font-family="微软雅黑" text-anchor="middle" font-size="13px" width="52px" fill="#323232" font-weight="400" align="top" lineHeight="16px" anchor="middle" family="微软雅黑" size="13px" weight="400" font-style="" opacity="1" y="165.375" transform="rotate(0)"><tspan id="SvgjsTspan1248" dy="16" x="915.5"><tspan id="SvgjsTspan1249" style="text-decoration:;">存入数据</tspan></tspan></text></g><g id="SvgjsG1250"><path id="SvgjsPath1251" d="M556 299.5L556 279.5L789 279.5" stroke="#323232" stroke-width="2" fill="none" marker-end="url(#SvgjsMarker1252)"></path></g><g id="SvgjsG1254"><path id="SvgjsPath1255" d="M809 118.5L563 118.5L563 90.5" stroke-dasharray="8,5" stroke="#323232" stroke-width="2" fill="none" marker-start="url(#SvgjsMarker1256)" marker-end="url(#SvgjsMarker1258)"></path></g><g id="SvgjsG1260" transform="translate(649,173.5)"><path id="SvgjsPath1261" d="M 0 0L 212 0L 212 37L 0 37Z" stroke="none" fill="none"></path><g id="SvgjsG1262"><text id="SvgjsText1263" font-family="微软雅黑" text-anchor="middle" font-size="19px" width="212px" fill="#cfcfcf" font-weight="400" align="middle" lineHeight="125%" anchor="middle" family="微软雅黑" size="19px" weight="400" font-style="" opacity="1" y="4.625" transform="rotate(0)"><tspan id="SvgjsTspan1264" dy="23" x="106"><tspan id="SvgjsTspan1265" style="text-decoration:;">@WindShadow</tspan></tspan></text></g></g><g id="SvgjsG1266" transform="translate(43,254.5)"><path id="SvgjsPath1267" d="M 0 0L 117 0L 117 25L 0 25Z" stroke="rgba(50,50,50,1)" stroke-width="2" fill-opacity="1" fill="#ffffff"></path><g id="SvgjsG1268"><text id="SvgjsText1269" font-family="微软雅黑" text-anchor="middle" font-size="13px" width="97px" fill="#323232" font-weight="400" align="middle" lineHeight="125%" anchor="middle" family="微软雅黑" size="13px" weight="400" font-style="" opacity="1" y="2.875" transform="rotate(0)"><tspan id="SvgjsTspan1270" dy="16" x="58.5"><tspan id="SvgjsTspan1271" style="text-decoration:;">清缓存</tspan></tspan></text></g></g><g id="SvgjsG1272"><path id="SvgjsPath1273" d="M138 279.5L138 358L170 358" stroke="#323232" stroke-width="2" fill="none" marker-end="url(#SvgjsMarker1274)"></path></g><g id="SvgjsG1276"><path id="SvgjsPath1277" d="M1141.5 300.5L1141.5 271L1141.5 271L1141.5 241.5" stroke="#323232" stroke-width="2" fill="none" marker-end="url(#SvgjsMarker1278)"></path></g><g id="SvgjsG1280"><path id="SvgjsPath1281" d="M1141.5 300.5L1141.5 268.5L1006 268.5" stroke="#323232" stroke-width="2" fill="none"></path><rect id="SvgjsRect1282" width="41" height="16" x="1069.25" y="260.5" fill="#ffffff"></rect><text id="SvgjsText1283" font-family="微软雅黑" text-anchor="middle" font-size="13px" width="41px" fill="#323232" font-weight="400" align="top" lineHeight="16px" anchor="middle" family="微软雅黑" size="13px" weight="400" font-style="" opacity="1" y="258.875" transform="rotate(0)"><tspan id="SvgjsTspan1284" dy="16" x="1089.75"><tspan id="SvgjsTspan1285" style="text-decoration:;">k : null</tspan></tspan></text></g><g id="SvgjsG1286"><path id="SvgjsPath1287" d="M979.25 222.5L1007 222.5L1007 267.5" stroke="#323232" stroke-width="2" fill="none" marker-start="url(#SvgjsMarker1288)"></path></g></svg>