<svg id="SvgjsSvg1444" width="787" height="497" xmlns="http://www.w3.org/2000/svg" version="1.1" xmlns:xlink="http://www.w3.org/1999/xlink" xmlns:svgjs="http://svgjs.com/svgjs"><defs id="SvgjsDefs1445"></defs><g id="SvgjsG1446" transform="translate(244,25)"><path id="SvgjsPath1447" d="M 0 0L 104 0L 104 31L 0 31Z" stroke="rgba(0,0,0,1)" stroke-width="2" fill-opacity="1" fill="#e57373"></path><g id="SvgjsG1448"><text id="SvgjsText1449" font-family="微软雅黑" text-anchor="middle" font-size="13px" width="84px" fill="#323232" font-weight="400" align="middle" lineHeight="125%" anchor="middle" family="微软雅黑" size="13px" weight="400" font-style="" opacity="1" y="5.875" transform="rotate(0)"><tspan id="SvgjsTspan1450" dy="16" x="52"><tspan id="SvgjsTspan1451" style="text-decoration:;">O1</tspan></tspan></text></g></g><g id="SvgjsG1452" transform="translate(347,25)"><path id="SvgjsPath1453" d="M 0 0L 104 0L 104 31L 0 31Z" stroke="rgba(0,0,0,1)" stroke-width="2" fill-opacity="1" fill="#e57373"></path><g id="SvgjsG1454"><text id="SvgjsText1455" font-family="微软雅黑" text-anchor="middle" font-size="13px" width="84px" fill="#323232" font-weight="400" align="middle" lineHeight="125%" anchor="middle" family="微软雅黑" size="13px" weight="400" font-style="" opacity="1" y="5.875" transform="rotate(0)"><tspan id="SvgjsTspan1456" dy="16" x="52"><tspan id="SvgjsTspan1457" style="text-decoration:;">O2</tspan></tspan></text></g></g><g id="SvgjsG1458" transform="translate(451,25)"><path id="SvgjsPath1459" d="M 0 0L 104 0L 104 31L 0 31Z" stroke="rgba(0,0,0,1)" stroke-width="2" fill-opacity="1" fill="#9c27b0"></path><g id="SvgjsG1460"><text id="SvgjsText1461" font-family="微软雅黑" text-anchor="middle" font-size="13px" width="84px" fill="#323232" font-weight="400" align="middle" lineHeight="125%" anchor="middle" family="微软雅黑" size="13px" weight="400" font-style="" opacity="1" y="5.875" transform="rotate(0)"></text></g></g><g id="SvgjsG1462" transform="translate(554,25)"><path id="SvgjsPath1463" d="M 0 0L 104 0L 104 31L 0 31Z" stroke="rgba(0,0,0,1)" stroke-width="2" fill-opacity="1" fill="#9c27b0"></path><g id="SvgjsG1464"><text id="SvgjsText1465" font-family="微软雅黑" text-anchor="middle" font-size="13px" width="84px" fill="#323232" font-weight="400" align="middle" lineHeight="125%" anchor="middle" family="微软雅黑" size="13px" weight="400" font-style="" opacity="1" y="5.875" transform="rotate(0)"></text></g></g><g id="SvgjsG1466" transform="translate(658,25)"><path id="SvgjsPath1467" d="M 0 0L 104 0L 104 31L 0 31Z" stroke="rgba(0,0,0,1)" stroke-width="2" fill-opacity="1" fill="#e57373"></path><g id="SvgjsG1468"><text id="SvgjsText1469" font-family="微软雅黑" text-anchor="middle" font-size="13px" width="84px" fill="#323232" font-weight="400" align="middle" lineHeight="125%" anchor="middle" family="微软雅黑" size="13px" weight="400" font-style="" opacity="1" y="5.875" transform="rotate(0)"><tspan id="SvgjsTspan1470" dy="16" x="52"><tspan id="SvgjsTspan1471" style="text-decoration:;">O3</tspan></tspan></text></g></g><g id="SvgjsG1472" transform="translate(140,25)"><path id="SvgjsPath1473" d="M 0 0L 104 0L 104 31L 0 31Z" stroke="rgba(0,0,0,1)" stroke-width="2" fill-opacity="1" fill="#9c27b0"></path><g id="SvgjsG1474"><text id="SvgjsText1475" font-family="微软雅黑" text-anchor="middle" font-size="13px" width="84px" fill="#323232" font-weight="400" align="middle" lineHeight="125%" anchor="middle" family="微软雅黑" size="13px" weight="400" font-style="" opacity="1" y="5.875" transform="rotate(0)"></text></g></g><g id="SvgjsG1476" transform="translate(244,55)"><path id="SvgjsPath1477" d="M 0 0L 104 0L 104 31L 0 31Z" stroke="rgba(0,0,0,1)" stroke-width="2" fill-opacity="1" fill="#9c27b0"></path><g id="SvgjsG1478"><text id="SvgjsText1479" font-family="微软雅黑" text-anchor="middle" font-size="13px" width="84px" fill="#323232" font-weight="400" align="middle" lineHeight="125%" anchor="middle" family="微软雅黑" size="13px" weight="400" font-style="" opacity="1" y="5.875" transform="rotate(0)"></text></g></g><g id="SvgjsG1480" transform="translate(348,56)"><path id="SvgjsPath1481" d="M 0 0L 104 0L 104 31L 0 31Z" stroke="rgba(0,0,0,1)" stroke-width="2" fill-opacity="1" fill="#e57373"></path><g id="SvgjsG1482"><text id="SvgjsText1483" font-family="微软雅黑" text-anchor="middle" font-size="13px" width="84px" fill="#323232" font-weight="400" align="middle" lineHeight="125%" anchor="middle" family="微软雅黑" size="13px" weight="400" font-style="" opacity="1" y="5.875" transform="rotate(0)"><tspan id="SvgjsTspan1484" dy="16" x="52"><tspan id="SvgjsTspan1485" style="text-decoration:;">O5</tspan></tspan></text></g></g><g id="SvgjsG1486" transform="translate(451,55)"><path id="SvgjsPath1487" d="M 0 0L 104 0L 104 31L 0 31Z" stroke="rgba(0,0,0,1)" stroke-width="2" fill-opacity="1" fill="#9c27b0"></path><g id="SvgjsG1488"><text id="SvgjsText1489" font-family="微软雅黑" text-anchor="middle" font-size="13px" width="84px" fill="#323232" font-weight="400" align="middle" lineHeight="125%" anchor="middle" family="微软雅黑" size="13px" weight="400" font-style="" opacity="1" y="5.875" transform="rotate(0)"></text></g></g><g id="SvgjsG1490" transform="translate(555,56)"><path id="SvgjsPath1491" d="M 0 0L 104 0L 104 31L 0 31Z" stroke="rgba(0,0,0,1)" stroke-width="2" fill-opacity="1" fill="#e57373"></path><g id="SvgjsG1492"><text id="SvgjsText1493" font-family="微软雅黑" text-anchor="middle" font-size="13px" width="84px" fill="#323232" font-weight="400" align="middle" lineHeight="125%" anchor="middle" family="微软雅黑" size="13px" weight="400" font-style="" opacity="1" y="5.875" transform="rotate(0)"><tspan id="SvgjsTspan1494" dy="16" x="52"><tspan id="SvgjsTspan1495" style="text-decoration:;">O6</tspan></tspan></text></g></g><g id="SvgjsG1496" transform="translate(658,55)"><path id="SvgjsPath1497" d="M 0 0L 104 0L 104 31L 0 31Z" stroke="rgba(0,0,0,1)" stroke-width="2" fill-opacity="1" fill="#9c27b0"></path><g id="SvgjsG1498"><text id="SvgjsText1499" font-family="微软雅黑" text-anchor="middle" font-size="13px" width="84px" fill="#323232" font-weight="400" align="middle" lineHeight="125%" anchor="middle" family="微软雅黑" size="13px" weight="400" font-style="" opacity="1" y="5.875" transform="rotate(0)"></text></g></g><g id="SvgjsG1500" transform="translate(140,56)"><path id="SvgjsPath1501" d="M 0 0L 104 0L 104 31L 0 31Z" stroke="rgba(0,0,0,1)" stroke-width="2" fill-opacity="1" fill="#e57373"></path><g id="SvgjsG1502"><text id="SvgjsText1503" font-family="微软雅黑" text-anchor="middle" font-size="13px" width="84px" fill="#323232" font-weight="400" align="middle" lineHeight="125%" anchor="middle" family="微软雅黑" size="13px" weight="400" font-style="" opacity="1" y="5.875" transform="rotate(0)"><tspan id="SvgjsTspan1504" dy="16" x="52"><tspan id="SvgjsTspan1505" style="text-decoration:;">O4</tspan></tspan></text></g></g><g id="SvgjsG1506" transform="translate(244,85)"><path id="SvgjsPath1507" d="M 0 0L 104 0L 104 31L 0 31Z" stroke="rgba(50,50,50,1)" stroke-width="2" fill-opacity="1" fill="#4caf50"></path><g id="SvgjsG1508"><text id="SvgjsText1509" font-family="微软雅黑" text-anchor="middle" font-size="13px" width="84px" fill="#323232" font-weight="400" align="middle" lineHeight="125%" anchor="middle" family="微软雅黑" size="13px" weight="400" font-style="" opacity="1" y="5.875" transform="rotate(0)"></text></g></g><g id="SvgjsG1510" transform="translate(347,85)"><path id="SvgjsPath1511" d="M 0 0L 104 0L 104 31L 0 31Z" stroke="rgba(50,50,50,1)" stroke-width="2" fill-opacity="1" fill="#4caf50"></path><g id="SvgjsG1512"><text id="SvgjsText1513" font-family="微软雅黑" text-anchor="middle" font-size="13px" width="84px" fill="#323232" font-weight="400" align="middle" lineHeight="125%" anchor="middle" family="微软雅黑" size="13px" weight="400" font-style="" opacity="1" y="5.875" transform="rotate(0)"></text></g></g><g id="SvgjsG1514" transform="translate(451,85)"><path id="SvgjsPath1515" d="M 0 0L 104 0L 104 31L 0 31Z" stroke="rgba(50,50,50,1)" stroke-width="2" fill-opacity="1" fill="#4caf50"></path><g id="SvgjsG1516"><text id="SvgjsText1517" font-family="微软雅黑" text-anchor="middle" font-size="13px" width="84px" fill="#323232" font-weight="400" align="middle" lineHeight="125%" anchor="middle" family="微软雅黑" size="13px" weight="400" font-style="" opacity="1" y="5.875" transform="rotate(0)"></text></g></g><g id="SvgjsG1518" transform="translate(554,85)"><path id="SvgjsPath1519" d="M 0 0L 104 0L 104 31L 0 31Z" stroke="rgba(50,50,50,1)" stroke-width="2" fill-opacity="1" fill="#4caf50"></path><g id="SvgjsG1520"><text id="SvgjsText1521" font-family="微软雅黑" text-anchor="middle" font-size="13px" width="84px" fill="#323232" font-weight="400" align="middle" lineHeight="125%" anchor="middle" family="微软雅黑" size="13px" weight="400" font-style="" opacity="1" y="5.875" transform="rotate(0)"></text></g></g><g id="SvgjsG1522" transform="translate(658,85)"><path id="SvgjsPath1523" d="M 0 0L 104 0L 104 31L 0 31Z" stroke="rgba(50,50,50,1)" stroke-width="2" fill-opacity="1" fill="#4caf50"></path><g id="SvgjsG1524"><text id="SvgjsText1525" font-family="微软雅黑" text-anchor="middle" font-size="13px" width="84px" fill="#323232" font-weight="400" align="middle" lineHeight="125%" anchor="middle" family="微软雅黑" size="13px" weight="400" font-style="" opacity="1" y="5.875" transform="rotate(0)"></text></g></g><g id="SvgjsG1526" transform="translate(140,85)"><path id="SvgjsPath1527" d="M 0 0L 104 0L 104 31L 0 31Z" stroke="rgba(50,50,50,1)" stroke-width="2" fill-opacity="1" fill="#4caf50"></path><g id="SvgjsG1528"><text id="SvgjsText1529" font-family="微软雅黑" text-anchor="middle" font-size="13px" width="84px" fill="#323232" font-weight="400" align="middle" lineHeight="125%" anchor="middle" family="微软雅黑" size="13px" weight="400" font-style="" opacity="1" y="5.875" transform="rotate(0)"></text></g></g><g id="SvgjsG1530" transform="translate(244,115)"><path id="SvgjsPath1531" d="M 0 0L 104 0L 104 31L 0 31Z" stroke="rgba(50,50,50,1)" stroke-width="2" fill-opacity="1" fill="#4caf50"></path><g id="SvgjsG1532"><text id="SvgjsText1533" font-family="微软雅黑" text-anchor="middle" font-size="13px" width="84px" fill="#323232" font-weight="400" align="middle" lineHeight="125%" anchor="middle" family="微软雅黑" size="13px" weight="400" font-style="" opacity="1" y="5.875" transform="rotate(0)"></text></g></g><g id="SvgjsG1534" transform="translate(347,115)"><path id="SvgjsPath1535" d="M 0 0L 104 0L 104 31L 0 31Z" stroke="rgba(50,50,50,1)" stroke-width="2" fill-opacity="1" fill="#4caf50"></path><g id="SvgjsG1536"><text id="SvgjsText1537" font-family="微软雅黑" text-anchor="middle" font-size="13px" width="84px" fill="#323232" font-weight="400" align="middle" lineHeight="125%" anchor="middle" family="微软雅黑" size="13px" weight="400" font-style="" opacity="1" y="5.875" transform="rotate(0)"></text></g></g><g id="SvgjsG1538" transform="translate(451,115)"><path id="SvgjsPath1539" d="M 0 0L 104 0L 104 31L 0 31Z" stroke="rgba(50,50,50,1)" stroke-width="2" fill-opacity="1" fill="#4caf50"></path><g id="SvgjsG1540"><text id="SvgjsText1541" font-family="微软雅黑" text-anchor="middle" font-size="13px" width="84px" fill="#323232" font-weight="400" align="middle" lineHeight="125%" anchor="middle" family="微软雅黑" size="13px" weight="400" font-style="" opacity="1" y="5.875" transform="rotate(0)"></text></g></g><g id="SvgjsG1542" transform="translate(554,115)"><path id="SvgjsPath1543" d="M 0 0L 104 0L 104 31L 0 31Z" stroke="rgba(50,50,50,1)" stroke-width="2" fill-opacity="1" fill="#4caf50"></path><g id="SvgjsG1544"><text id="SvgjsText1545" font-family="微软雅黑" text-anchor="middle" font-size="13px" width="84px" fill="#323232" font-weight="400" align="middle" lineHeight="125%" anchor="middle" family="微软雅黑" size="13px" weight="400" font-style="" opacity="1" y="5.875" transform="rotate(0)"></text></g></g><g id="SvgjsG1546" transform="translate(658,115)"><path id="SvgjsPath1547" d="M 0 0L 104 0L 104 31L 0 31Z" stroke="rgba(50,50,50,1)" stroke-width="2" fill-opacity="1" fill="#4caf50"></path><g id="SvgjsG1548"><text id="SvgjsText1549" font-family="微软雅黑" text-anchor="middle" font-size="13px" width="84px" fill="#323232" font-weight="400" align="middle" lineHeight="125%" anchor="middle" family="微软雅黑" size="13px" weight="400" font-style="" opacity="1" y="5.875" transform="rotate(0)"></text></g></g><g id="SvgjsG1550" transform="translate(140,115)"><path id="SvgjsPath1551" d="M 0 0L 104 0L 104 31L 0 31Z" stroke="rgba(50,50,50,1)" stroke-width="2" fill-opacity="1" fill="#4caf50"></path><g id="SvgjsG1552"><text id="SvgjsText1553" font-family="微软雅黑" text-anchor="middle" font-size="13px" width="84px" fill="#323232" font-weight="400" align="middle" lineHeight="125%" anchor="middle" family="微软雅黑" size="13px" weight="400" font-style="" opacity="1" y="5.875" transform="rotate(0)"></text></g></g><g id="SvgjsG1554" transform="translate(168,441)"><path id="SvgjsPath1555" d="M 0 0L 104 0L 104 31L 0 31Z" stroke="rgba(50,50,50,1)" stroke-width="2" fill-opacity="1" fill="#9c27b0"></path><g id="SvgjsG1556"><text id="SvgjsText1557" font-family="微软雅黑" text-anchor="middle" font-size="13px" width="84px" fill="#ffffff" font-weight="400" align="middle" lineHeight="125%" anchor="middle" family="微软雅黑" size="13px" weight="400" font-style="" opacity="1" y="5.875" transform="rotate(0)"><tspan id="SvgjsTspan1558" dy="16" x="52"><tspan id="SvgjsTspan1559" style="text-decoration:;">可回收</tspan></tspan></text></g></g><g id="SvgjsG1560" transform="translate(400.5,441)"><path id="SvgjsPath1561" d="M 0 0L 104 0L 104 31L 0 31Z" stroke="rgba(0,0,0,1)" stroke-width="2" fill-opacity="1" fill="#e57373"></path><g id="SvgjsG1562"><text id="SvgjsText1563" font-family="微软雅黑" text-anchor="middle" font-size="13px" width="84px" fill="#ffffff" font-weight="400" align="middle" lineHeight="125%" anchor="middle" family="微软雅黑" size="13px" weight="400" font-style="" opacity="1" y="5.875" transform="rotate(0)"><tspan id="SvgjsTspan1564" dy="16" x="52"><tspan id="SvgjsTspan1565" style="text-decoration:;">已使用</tspan></tspan></text></g></g><g id="SvgjsG1566" transform="translate(633,441)"><path id="SvgjsPath1567" d="M 0 0L 104 0L 104 31L 0 31Z" stroke="rgba(50,50,50,1)" stroke-width="2" fill-opacity="1" fill="#4caf50"></path><g id="SvgjsG1568"><text id="SvgjsText1569" font-family="微软雅黑" text-anchor="middle" font-size="13px" width="84px" fill="#ffffff" font-weight="400" align="middle" lineHeight="125%" anchor="middle" family="微软雅黑" size="13px" weight="400" font-style="" opacity="1" y="5.875" transform="rotate(0)"><tspan id="SvgjsTspan1570" dy="16" x="52"><tspan id="SvgjsTspan1571" style="text-decoration:;">未使用</tspan></tspan></text></g></g><g id="SvgjsG1572" transform="translate(244,235)"><path id="SvgjsPath1573" d="M 0 0L 104 0L 104 31L 0 31Z" stroke="rgba(0,0,0,1)" stroke-width="2" fill-opacity="1" fill="#4caf50"></path><g id="SvgjsG1574"><text id="SvgjsText1575" font-family="微软雅黑" text-anchor="middle" font-size="13px" width="84px" fill="#323232" font-weight="400" align="middle" lineHeight="125%" anchor="middle" family="微软雅黑" size="13px" weight="400" font-style="" opacity="1" y="5.875" transform="rotate(0)"></text></g></g><g id="SvgjsG1576" transform="translate(347,235)"><path id="SvgjsPath1577" d="M 0 0L 104 0L 104 31L 0 31Z" stroke="rgba(0,0,0,1)" stroke-width="2" fill-opacity="1" fill="#4caf50"></path><g id="SvgjsG1578"><text id="SvgjsText1579" font-family="微软雅黑" text-anchor="middle" font-size="13px" width="84px" fill="#323232" font-weight="400" align="middle" lineHeight="125%" anchor="middle" family="微软雅黑" size="13px" weight="400" font-style="" opacity="1" y="5.875" transform="rotate(0)"></text></g></g><g id="SvgjsG1580" transform="translate(451,235)"><path id="SvgjsPath1581" d="M 0 0L 104 0L 104 31L 0 31Z" stroke="rgba(0,0,0,1)" stroke-width="2" fill-opacity="1" fill="#4caf50"></path><g id="SvgjsG1582"><text id="SvgjsText1583" font-family="微软雅黑" text-anchor="middle" font-size="13px" width="84px" fill="#323232" font-weight="400" align="middle" lineHeight="125%" anchor="middle" family="微软雅黑" size="13px" weight="400" font-style="" opacity="1" y="5.875" transform="rotate(0)"></text></g></g><g id="SvgjsG1584" transform="translate(554,235)"><path id="SvgjsPath1585" d="M 0 0L 104 0L 104 31L 0 31Z" stroke="rgba(0,0,0,1)" stroke-width="2" fill-opacity="1" fill="#4caf50"></path><g id="SvgjsG1586"><text id="SvgjsText1587" font-family="微软雅黑" text-anchor="middle" font-size="13px" width="84px" fill="#323232" font-weight="400" align="middle" lineHeight="125%" anchor="middle" family="微软雅黑" size="13px" weight="400" font-style="" opacity="1" y="5.875" transform="rotate(0)"></text></g></g><g id="SvgjsG1588" transform="translate(658,235)"><path id="SvgjsPath1589" d="M 0 0L 104 0L 104 31L 0 31Z" stroke="rgba(0,0,0,1)" stroke-width="2" fill-opacity="1" fill="#4caf50"></path><g id="SvgjsG1590"><text id="SvgjsText1591" font-family="微软雅黑" text-anchor="middle" font-size="13px" width="84px" fill="#323232" font-weight="400" align="middle" lineHeight="125%" anchor="middle" family="微软雅黑" size="13px" weight="400" font-style="" opacity="1" y="5.875" transform="rotate(0)"></text></g></g><g id="SvgjsG1592" transform="translate(140,235)"><path id="SvgjsPath1593" d="M 0 0L 104 0L 104 31L 0 31Z" stroke="rgba(0,0,0,1)" stroke-width="2" fill-opacity="1" fill="#4caf50"></path><g id="SvgjsG1594"><text id="SvgjsText1595" font-family="微软雅黑" text-anchor="middle" font-size="13px" width="84px" fill="#323232" font-weight="400" align="middle" lineHeight="125%" anchor="middle" family="微软雅黑" size="13px" weight="400" font-style="" opacity="1" y="5.875" transform="rotate(0)"></text></g></g><g id="SvgjsG1596" transform="translate(244,265)"><path id="SvgjsPath1597" d="M 0 0L 104 0L 104 31L 0 31Z" stroke="rgba(0,0,0,1)" stroke-width="2" fill-opacity="1" fill="#4caf50"></path><g id="SvgjsG1598"><text id="SvgjsText1599" font-family="微软雅黑" text-anchor="middle" font-size="13px" width="84px" fill="#323232" font-weight="400" align="middle" lineHeight="125%" anchor="middle" family="微软雅黑" size="13px" weight="400" font-style="" opacity="1" y="5.875" transform="rotate(0)"></text></g></g><g id="SvgjsG1600" transform="translate(347,265)"><path id="SvgjsPath1601" d="M 0 0L 104 0L 104 31L 0 31Z" stroke="rgba(0,0,0,1)" stroke-width="2" fill-opacity="1" fill="#4caf50"></path><g id="SvgjsG1602"><text id="SvgjsText1603" font-family="微软雅黑" text-anchor="middle" font-size="13px" width="84px" fill="#323232" font-weight="400" align="middle" lineHeight="125%" anchor="middle" family="微软雅黑" size="13px" weight="400" font-style="" opacity="1" y="5.875" transform="rotate(0)"></text></g></g><g id="SvgjsG1604" transform="translate(451,265)"><path id="SvgjsPath1605" d="M 0 0L 104 0L 104 31L 0 31Z" stroke="rgba(0,0,0,1)" stroke-width="2" fill-opacity="1" fill="#4caf50"></path><g id="SvgjsG1606"><text id="SvgjsText1607" font-family="微软雅黑" text-anchor="middle" font-size="13px" width="84px" fill="#323232" font-weight="400" align="middle" lineHeight="125%" anchor="middle" family="微软雅黑" size="13px" weight="400" font-style="" opacity="1" y="5.875" transform="rotate(0)"></text></g></g><g id="SvgjsG1608" transform="translate(554,265)"><path id="SvgjsPath1609" d="M 0 0L 104 0L 104 31L 0 31Z" stroke="rgba(0,0,0,1)" stroke-width="2" fill-opacity="1" fill="#4caf50"></path><g id="SvgjsG1610"><text id="SvgjsText1611" font-family="微软雅黑" text-anchor="middle" font-size="13px" width="84px" fill="#323232" font-weight="400" align="middle" lineHeight="125%" anchor="middle" family="微软雅黑" size="13px" weight="400" font-style="" opacity="1" y="5.875" transform="rotate(0)"></text></g></g><g id="SvgjsG1612" transform="translate(658,265)"><path id="SvgjsPath1613" d="M 0 0L 104 0L 104 31L 0 31Z" stroke="rgba(0,0,0,1)" stroke-width="2" fill-opacity="1" fill="#4caf50"></path><g id="SvgjsG1614"><text id="SvgjsText1615" font-family="微软雅黑" text-anchor="middle" font-size="13px" width="84px" fill="#323232" font-weight="400" align="middle" lineHeight="125%" anchor="middle" family="微软雅黑" size="13px" weight="400" font-style="" opacity="1" y="5.875" transform="rotate(0)"></text></g></g><g id="SvgjsG1616" transform="translate(140,265)"><path id="SvgjsPath1617" d="M 0 0L 104 0L 104 31L 0 31Z" stroke="rgba(0,0,0,1)" stroke-width="2" fill-opacity="1" fill="#4caf50"></path><g id="SvgjsG1618"><text id="SvgjsText1619" font-family="微软雅黑" text-anchor="middle" font-size="13px" width="84px" fill="#323232" font-weight="400" align="middle" lineHeight="125%" anchor="middle" family="微软雅黑" size="13px" weight="400" font-style="" opacity="1" y="5.875" transform="rotate(0)"></text></g></g><g id="SvgjsG1620" transform="translate(244,295)"><path id="SvgjsPath1621" d="M 0 0L 104 0L 104 31L 0 31Z" stroke="rgba(50,50,50,1)" stroke-width="2" fill-opacity="1" fill="#e57373"></path><g id="SvgjsG1622"><text id="SvgjsText1623" font-family="微软雅黑" text-anchor="middle" font-size="13px" width="84px" fill="#323232" font-weight="400" align="middle" lineHeight="125%" anchor="middle" family="微软雅黑" size="13px" weight="400" font-style="" opacity="1" y="5.875" transform="rotate(0)"><tspan id="SvgjsTspan1624" dy="16" x="52"><tspan id="SvgjsTspan1625" style="text-decoration:;">O2</tspan></tspan></text></g></g><g id="SvgjsG1626" transform="translate(347,295)"><path id="SvgjsPath1627" d="M 0 0L 104 0L 104 31L 0 31Z" stroke="rgba(50,50,50,1)" stroke-width="2" fill-opacity="1" fill="#e57373"></path><g id="SvgjsG1628"><text id="SvgjsText1629" font-family="微软雅黑" text-anchor="middle" font-size="13px" width="84px" fill="#323232" font-weight="400" align="middle" lineHeight="125%" anchor="middle" family="微软雅黑" size="13px" weight="400" font-style="" opacity="1" y="5.875" transform="rotate(0)"><tspan id="SvgjsTspan1630" dy="16" x="52"><tspan id="SvgjsTspan1631" style="text-decoration:;">O3</tspan></tspan></text></g></g><g id="SvgjsG1632" transform="translate(451,295)"><path id="SvgjsPath1633" d="M 0 0L 104 0L 104 31L 0 31Z" stroke="rgba(50,50,50,1)" stroke-width="2" fill-opacity="1" fill="#e57373"></path><g id="SvgjsG1634"><text id="SvgjsText1635" font-family="微软雅黑" text-anchor="middle" font-size="13px" width="84px" fill="#323232" font-weight="400" align="middle" lineHeight="125%" anchor="middle" family="微软雅黑" size="13px" weight="400" font-style="" opacity="1" y="5.875" transform="rotate(0)"><tspan id="SvgjsTspan1636" dy="16" x="52"><tspan id="SvgjsTspan1637" style="text-decoration:;">O4</tspan></tspan></text></g></g><g id="SvgjsG1638" transform="translate(555,295)"><path id="SvgjsPath1639" d="M 0 0L 104 0L 104 31L 0 31Z" stroke="rgba(50,50,50,1)" stroke-width="2" fill-opacity="1" fill="#e57373"></path><g id="SvgjsG1640"><text id="SvgjsText1641" font-family="微软雅黑" text-anchor="middle" font-size="13px" width="84px" fill="#323232" font-weight="400" align="middle" lineHeight="125%" anchor="middle" family="微软雅黑" size="13px" weight="400" font-style="" opacity="1" y="5.875" transform="rotate(0)"><tspan id="SvgjsTspan1642" dy="16" x="52"><tspan id="SvgjsTspan1643" style="text-decoration:;">O5</tspan></tspan></text></g></g><g id="SvgjsG1644" transform="translate(658,295)"><path id="SvgjsPath1645" d="M 0 0L 104 0L 104 31L 0 31Z" stroke="rgba(50,50,50,1)" stroke-width="2" fill-opacity="1" fill="#e57373"></path><g id="SvgjsG1646"><text id="SvgjsText1647" font-family="微软雅黑" text-anchor="middle" font-size="13px" width="84px" fill="#323232" font-weight="400" align="middle" lineHeight="125%" anchor="middle" family="微软雅黑" size="13px" weight="400" font-style="" opacity="1" y="5.875" transform="rotate(0)"><tspan id="SvgjsTspan1648" dy="16" x="52"><tspan id="SvgjsTspan1649" style="text-decoration:;">O6</tspan></tspan></text></g></g><g id="SvgjsG1650" transform="translate(140,296)"><path id="SvgjsPath1651" d="M 0 0L 104 0L 104 31L 0 31Z" stroke="rgba(50,50,50,1)" stroke-width="2" fill-opacity="1" fill="#e57373"></path><g id="SvgjsG1652"><text id="SvgjsText1653" font-family="微软雅黑" text-anchor="middle" font-size="13px" width="84px" fill="#323232" font-weight="400" align="middle" lineHeight="125%" anchor="middle" family="微软雅黑" size="13px" weight="400" font-style="" opacity="1" y="5.875" transform="rotate(0)"><tspan id="SvgjsTspan1654" dy="16" x="52"><tspan id="SvgjsTspan1655" style="text-decoration:;">O1</tspan></tspan></text></g></g><g id="SvgjsG1656" transform="translate(244,325)"><path id="SvgjsPath1657" d="M 0 0L 104 0L 104 31L 0 31Z" stroke="rgba(50,50,50,1)" stroke-width="2" fill-opacity="1" fill="#4caf50"></path><g id="SvgjsG1658"><text id="SvgjsText1659" font-family="微软雅黑" text-anchor="middle" font-size="13px" width="84px" fill="#323232" font-weight="400" align="middle" lineHeight="125%" anchor="middle" family="微软雅黑" size="13px" weight="400" font-style="" opacity="1" y="5.875" transform="rotate(0)"></text></g></g><g id="SvgjsG1660" transform="translate(347,325)"><path id="SvgjsPath1661" d="M 0 0L 104 0L 104 31L 0 31Z" stroke="rgba(50,50,50,1)" stroke-width="2" fill-opacity="1" fill="#4caf50"></path><g id="SvgjsG1662"><text id="SvgjsText1663" font-family="微软雅黑" text-anchor="middle" font-size="13px" width="84px" fill="#323232" font-weight="400" align="middle" lineHeight="125%" anchor="middle" family="微软雅黑" size="13px" weight="400" font-style="" opacity="1" y="5.875" transform="rotate(0)"></text></g></g><g id="SvgjsG1664" transform="translate(451,325)"><path id="SvgjsPath1665" d="M 0 0L 104 0L 104 31L 0 31Z" stroke="rgba(50,50,50,1)" stroke-width="2" fill-opacity="1" fill="#4caf50"></path><g id="SvgjsG1666"><text id="SvgjsText1667" font-family="微软雅黑" text-anchor="middle" font-size="13px" width="84px" fill="#323232" font-weight="400" align="middle" lineHeight="125%" anchor="middle" family="微软雅黑" size="13px" weight="400" font-style="" opacity="1" y="5.875" transform="rotate(0)"></text></g></g><g id="SvgjsG1668" transform="translate(554,325)"><path id="SvgjsPath1669" d="M 0 0L 104 0L 104 31L 0 31Z" stroke="rgba(50,50,50,1)" stroke-width="2" fill-opacity="1" fill="#4caf50"></path><g id="SvgjsG1670"><text id="SvgjsText1671" font-family="微软雅黑" text-anchor="middle" font-size="13px" width="84px" fill="#323232" font-weight="400" align="middle" lineHeight="125%" anchor="middle" family="微软雅黑" size="13px" weight="400" font-style="" opacity="1" y="5.875" transform="rotate(0)"></text></g></g><g id="SvgjsG1672" transform="translate(658,325)"><path id="SvgjsPath1673" d="M 0 0L 104 0L 104 31L 0 31Z" stroke="rgba(50,50,50,1)" stroke-width="2" fill-opacity="1" fill="#4caf50"></path><g id="SvgjsG1674"><text id="SvgjsText1675" font-family="微软雅黑" text-anchor="middle" font-size="13px" width="84px" fill="#323232" font-weight="400" align="middle" lineHeight="125%" anchor="middle" family="微软雅黑" size="13px" weight="400" font-style="" opacity="1" y="5.875" transform="rotate(0)"></text></g></g><g id="SvgjsG1676" transform="translate(140,325)"><path id="SvgjsPath1677" d="M 0 0L 104 0L 104 31L 0 31Z" stroke="rgba(50,50,50,1)" stroke-width="2" fill-opacity="1" fill="#4caf50"></path><g id="SvgjsG1678"><text id="SvgjsText1679" font-family="微软雅黑" text-anchor="middle" font-size="13px" width="84px" fill="#323232" font-weight="400" align="middle" lineHeight="125%" anchor="middle" family="微软雅黑" size="13px" weight="400" font-style="" opacity="1" y="5.875" transform="rotate(0)"></text></g></g><g id="SvgjsG1680" transform="translate(429,165.5)"><path id="SvgjsPath1681" d="M 15.510000000000002 0L 31.490000000000002 0L 31.490000000000002 27.5L 47 27.5L 23.5 50L 0 27.5L 15.510000000000002 27.5L 15.510000000000002 0Z" stroke-dasharray="10,6" stroke="rgba(50,50,50,1)" stroke-width="2" fill-opacity="1" fill="#ffffff"></path><g id="SvgjsG1682"><text id="SvgjsText1683" font-family="微软雅黑" text-anchor="middle" font-size="13px" width="66px" fill="#323232" font-weight="400" align="middle" lineHeight="125%" anchor="middle" family="微软雅黑" size="13px" weight="400" font-style="" opacity="1" y="12.875" transform="rotate(0)"></text></g></g><g id="SvgjsG1684" transform="translate(307,318.75)"><path id="SvgjsPath1685" d="M 0 0L 273 0L 273 43.5L 0 43.5Z" stroke="none" fill="none"></path><g id="SvgjsG1686"><text id="SvgjsText1687" font-family="微软雅黑" text-anchor="middle" font-size="19px" width="273px" fill="#cfcfcf" font-weight="700" align="middle" lineHeight="125%" anchor="middle" family="微软雅黑" size="19px" weight="700" font-style="" opacity="1" y="7.875" transform="rotate(0)"><tspan id="SvgjsTspan1688" dy="23" x="136.5"><tspan id="SvgjsTspan1689" style="text-decoration:;">@WindShadow</tspan></tspan></text></g></g><g id="SvgjsG1690" transform="translate(25,25)"><path id="SvgjsPath1691" d="M 109 0Q 100 0 100 6L 100 24Q 100 30 87 30Q 100 30 100 36L 100 54Q 100 60 109 60" stroke="rgba(50,50,50,1)" stroke-width="2" fill="none"></path><path id="SvgjsPath1692" d="M 0 0L 109 0L 109 60L 0 60Z" stroke="none" fill="none"></path><g id="SvgjsG1693"><text id="SvgjsText1694" font-family="微软雅黑" text-anchor="end" font-size="13px" width="82px" fill="#323232" font-weight="400" align="middle" lineHeight="125%" anchor="end" family="微软雅黑" size="13px" weight="400" font-style="" opacity="1" y="20.375" transform="rotate(0)"><tspan id="SvgjsTspan1695" dy="16" x="82"><tspan id="SvgjsTspan1696" style="text-decoration:;">use</tspan></tspan></text></g></g><g id="SvgjsG1697" transform="translate(25,87)"><path id="SvgjsPath1698" d="M 109 0Q 100 0 100 6L 100 24Q 100 30 87 30Q 100 30 100 36L 100 54Q 100 60 109 60" stroke="rgba(50,50,50,1)" stroke-width="2" fill="none"></path><path id="SvgjsPath1699" d="M 0 0L 109 0L 109 60L 0 60Z" stroke="none" fill="none"></path><g id="SvgjsG1700"><text id="SvgjsText1701" font-family="微软雅黑" text-anchor="end" font-size="13px" width="82px" fill="#323232" font-weight="400" align="middle" lineHeight="125%" anchor="end" family="微软雅黑" size="13px" weight="400" font-style="" opacity="1" y="20.375" transform="rotate(0)"><tspan id="SvgjsTspan1702" dy="16" x="82"><tspan id="SvgjsTspan1703" style="text-decoration:;">free</tspan></tspan></text></g></g><g id="SvgjsG1704" transform="translate(25,235)"><path id="SvgjsPath1705" d="M 109 0Q 100 0 100 6L 100 24Q 100 30 87 30Q 100 30 100 36L 100 54Q 100 60 109 60" stroke="rgba(50,50,50,1)" stroke-width="2" fill="none"></path><path id="SvgjsPath1706" d="M 0 0L 109 0L 109 60L 0 60Z" stroke="none" fill="none"></path><g id="SvgjsG1707"><text id="SvgjsText1708" font-family="微软雅黑" text-anchor="end" font-size="13px" width="82px" fill="#323232" font-weight="400" align="middle" lineHeight="125%" anchor="end" family="微软雅黑" size="13px" weight="400" font-style="" opacity="1" y="20.375" transform="rotate(0)"><tspan id="SvgjsTspan1709" dy="16" x="82"><tspan id="SvgjsTspan1710" style="text-decoration:;">free</tspan></tspan></text></g></g><g id="SvgjsG1711" transform="translate(25,296)"><path id="SvgjsPath1712" d="M 109 0Q 100 0 100 6L 100 24Q 100 30 87 30Q 100 30 100 36L 100 54Q 100 60 109 60" stroke="rgba(50,50,50,1)" stroke-width="2" fill="none"></path><path id="SvgjsPath1713" d="M 0 0L 109 0L 109 60L 0 60Z" stroke="none" fill="none"></path><g id="SvgjsG1714"><text id="SvgjsText1715" font-family="微软雅黑" text-anchor="end" font-size="13px" width="82px" fill="#323232" font-weight="400" align="middle" lineHeight="125%" anchor="end" family="微软雅黑" size="13px" weight="400" font-style="" opacity="1" y="20.375" transform="rotate(0)"><tspan id="SvgjsTspan1716" dy="16" x="82"><tspan id="SvgjsTspan1717" style="text-decoration:;">use</tspan></tspan></text></g></g></svg>