<svg id="SvgjsSvg1718" width="672" height="497" xmlns="http://www.w3.org/2000/svg" version="1.1" xmlns:xlink="http://www.w3.org/1999/xlink" xmlns:svgjs="http://svgjs.com/svgjs"><defs id="SvgjsDefs1719"></defs><g id="SvgjsG1720" transform="translate(129,25)"><path id="SvgjsPath1721" d="M 0 0L 104 0L 104 31L 0 31Z" stroke="rgba(0,0,0,1)" stroke-width="2" fill-opacity="1" fill="#e57373"></path><g id="SvgjsG1722"><text id="SvgjsText1723" font-family="微软雅黑" text-anchor="middle" font-size="13px" width="84px" fill="#323232" font-weight="400" align="middle" lineHeight="125%" anchor="middle" family="微软雅黑" size="13px" weight="400" font-style="" opacity="1" y="5.875" transform="rotate(0)"><tspan id="SvgjsTspan1724" dy="16" x="52"><tspan id="SvgjsTspan1725" style="text-decoration:;">O2</tspan></tspan></text></g></g><g id="SvgjsG1726" transform="translate(233,25)"><path id="SvgjsPath1727" d="M 0 0L 104 0L 104 31L 0 31Z" stroke="rgba(0,0,0,1)" stroke-width="2" fill-opacity="1" fill="#9c27b0"></path><g id="SvgjsG1728"><text id="SvgjsText1729" font-family="微软雅黑" text-anchor="middle" font-size="13px" width="84px" fill="#323232" font-weight="400" align="middle" lineHeight="125%" anchor="middle" family="微软雅黑" size="13px" weight="400" font-style="" opacity="1" y="5.875" transform="rotate(0)"></text></g></g><g id="SvgjsG1730" transform="translate(336,25)"><path id="SvgjsPath1731" d="M 0 0L 104 0L 104 31L 0 31Z" stroke="rgba(0,0,0,1)" stroke-width="2" fill-opacity="1" fill="#4caf50"></path><g id="SvgjsG1732"><text id="SvgjsText1733" font-family="微软雅黑" text-anchor="middle" font-size="13px" width="84px" fill="#323232" font-weight="400" align="middle" lineHeight="125%" anchor="middle" family="微软雅黑" size="13px" weight="400" font-style="" opacity="1" y="5.875" transform="rotate(0)"></text></g></g><g id="SvgjsG1734" transform="translate(440,25)"><path id="SvgjsPath1735" d="M 0 0L 104 0L 104 31L 0 31Z" stroke="rgba(0,0,0,1)" stroke-width="2" fill-opacity="1" fill="#e57373"></path><g id="SvgjsG1736"><text id="SvgjsText1737" font-family="微软雅黑" text-anchor="middle" font-size="13px" width="84px" fill="#323232" font-weight="400" align="middle" lineHeight="125%" anchor="middle" family="微软雅黑" size="13px" weight="400" font-style="" opacity="1" y="5.875" transform="rotate(0)"><tspan id="SvgjsTspan1738" dy="16" x="52"><tspan id="SvgjsTspan1739" style="text-decoration:;">O3</tspan></tspan></text></g></g><g id="SvgjsG1740" transform="translate(543,25)"><path id="SvgjsPath1741" d="M 0 0L 104 0L 104 31L 0 31Z" stroke="rgba(0,0,0,1)" stroke-width="2" fill-opacity="1" fill="#9c27b0"></path><g id="SvgjsG1742"><text id="SvgjsText1743" font-family="微软雅黑" text-anchor="middle" font-size="13px" width="84px" fill="#323232" font-weight="400" align="middle" lineHeight="125%" anchor="middle" family="微软雅黑" size="13px" weight="400" font-style="" opacity="1" y="5.875" transform="rotate(0)"></text></g></g><g id="SvgjsG1744" transform="translate(25,25)"><path id="SvgjsPath1745" d="M 0 0L 104 0L 104 31L 0 31Z" stroke="rgba(0,0,0,1)" stroke-width="2" fill-opacity="1" fill="#e57373"></path><g id="SvgjsG1746"><text id="SvgjsText1747" font-family="微软雅黑" text-anchor="middle" font-size="13px" width="84px" fill="#323232" font-weight="400" align="middle" lineHeight="125%" anchor="middle" family="微软雅黑" size="13px" weight="400" font-style="" opacity="1" y="5.875" transform="rotate(0)"><tspan id="SvgjsTspan1748" dy="16" x="52"><tspan id="SvgjsTspan1749" style="text-decoration:;">O1</tspan></tspan></text></g></g><g id="SvgjsG1750" transform="translate(129,56)"><path id="SvgjsPath1751" d="M 0 0L 104 0L 104 31L 0 31Z" stroke="rgba(0,0,0,1)" stroke-width="2" fill-opacity="1" fill="#4caf50"></path><g id="SvgjsG1752"><text id="SvgjsText1753" font-family="微软雅黑" text-anchor="middle" font-size="13px" width="84px" fill="#323232" font-weight="400" align="middle" lineHeight="125%" anchor="middle" family="微软雅黑" size="13px" weight="400" font-style="" opacity="1" y="5.875" transform="rotate(0)"></text></g></g><g id="SvgjsG1754" transform="translate(233,56)"><path id="SvgjsPath1755" d="M 0 0L 104 0L 104 31L 0 31Z" stroke="rgba(0,0,0,1)" stroke-width="2" fill-opacity="1" fill="#9c27b0"></path><g id="SvgjsG1756"><text id="SvgjsText1757" font-family="微软雅黑" text-anchor="middle" font-size="13px" width="84px" fill="#323232" font-weight="400" align="middle" lineHeight="125%" anchor="middle" family="微软雅黑" size="13px" weight="400" font-style="" opacity="1" y="5.875" transform="rotate(0)"></text></g></g><g id="SvgjsG1758" transform="translate(336,56)"><path id="SvgjsPath1759" d="M 0 0L 104 0L 104 31L 0 31Z" stroke="rgba(0,0,0,1)" stroke-width="2" fill-opacity="1" fill="#e57373"></path><g id="SvgjsG1760"><text id="SvgjsText1761" font-family="微软雅黑" text-anchor="middle" font-size="13px" width="84px" fill="#323232" font-weight="400" align="middle" lineHeight="125%" anchor="middle" family="微软雅黑" size="13px" weight="400" font-style="" opacity="1" y="5.875" transform="rotate(0)"><tspan id="SvgjsTspan1762" dy="16" x="52"><tspan id="SvgjsTspan1763" style="text-decoration:;">O4</tspan></tspan></text></g></g><g id="SvgjsG1764" transform="translate(439,56)"><path id="SvgjsPath1765" d="M 0 0L 104 0L 104 31L 0 31Z" stroke="rgba(0,0,0,1)" stroke-width="2" fill-opacity="1" fill="#4caf50"></path><g id="SvgjsG1766"><text id="SvgjsText1767" font-family="微软雅黑" text-anchor="middle" font-size="13px" width="84px" fill="#323232" font-weight="400" align="middle" lineHeight="125%" anchor="middle" family="微软雅黑" size="13px" weight="400" font-style="" opacity="1" y="5.875" transform="rotate(0)"></text></g></g><g id="SvgjsG1768" transform="translate(543,56)"><path id="SvgjsPath1769" d="M 0 0L 104 0L 104 31L 0 31Z" stroke="rgba(0,0,0,1)" stroke-width="2" fill-opacity="1" fill="#4caf50"></path><g id="SvgjsG1770"><text id="SvgjsText1771" font-family="微软雅黑" text-anchor="middle" font-size="13px" width="84px" fill="#323232" font-weight="400" align="middle" lineHeight="125%" anchor="middle" family="微软雅黑" size="13px" weight="400" font-style="" opacity="1" y="5.875" transform="rotate(0)"></text></g></g><g id="SvgjsG1772" transform="translate(25,56)"><path id="SvgjsPath1773" d="M 0 0L 104 0L 104 31L 0 31Z" stroke="rgba(0,0,0,1)" stroke-width="2" fill-opacity="1" fill="#9c27b0"></path><g id="SvgjsG1774"><text id="SvgjsText1775" font-family="微软雅黑" text-anchor="middle" font-size="13px" width="84px" fill="#323232" font-weight="400" align="middle" lineHeight="125%" anchor="middle" family="微软雅黑" size="13px" weight="400" font-style="" opacity="1" y="5.875" transform="rotate(0)"></text></g></g><g id="SvgjsG1776" transform="translate(129,85)"><path id="SvgjsPath1777" d="M 0 0L 104 0L 104 31L 0 31Z" stroke="rgba(50,50,50,1)" stroke-width="2" fill-opacity="1" fill="#4caf50"></path><g id="SvgjsG1778"><text id="SvgjsText1779" font-family="微软雅黑" text-anchor="middle" font-size="13px" width="84px" fill="#323232" font-weight="400" align="middle" lineHeight="125%" anchor="middle" family="微软雅黑" size="13px" weight="400" font-style="" opacity="1" y="5.875" transform="rotate(0)"></text></g></g><g id="SvgjsG1780" transform="translate(232,85)"><path id="SvgjsPath1781" d="M 0 0L 104 0L 104 31L 0 31Z" stroke="rgba(50,50,50,1)" stroke-width="2" fill-opacity="1" fill="#4caf50"></path><g id="SvgjsG1782"><text id="SvgjsText1783" font-family="微软雅黑" text-anchor="middle" font-size="13px" width="84px" fill="#323232" font-weight="400" align="middle" lineHeight="125%" anchor="middle" family="微软雅黑" size="13px" weight="400" font-style="" opacity="1" y="5.875" transform="rotate(0)"></text></g></g><g id="SvgjsG1784" transform="translate(336,85)"><path id="SvgjsPath1785" d="M 0 0L 104 0L 104 31L 0 31Z" stroke="rgba(50,50,50,1)" stroke-width="2" fill-opacity="1" fill="#4caf50"></path><g id="SvgjsG1786"><text id="SvgjsText1787" font-family="微软雅黑" text-anchor="middle" font-size="13px" width="84px" fill="#323232" font-weight="400" align="middle" lineHeight="125%" anchor="middle" family="微软雅黑" size="13px" weight="400" font-style="" opacity="1" y="5.875" transform="rotate(0)"></text></g></g><g id="SvgjsG1788" transform="translate(439,85)"><path id="SvgjsPath1789" d="M 0 0L 104 0L 104 31L 0 31Z" stroke="rgba(50,50,50,1)" stroke-width="2" fill-opacity="1" fill="#4caf50"></path><g id="SvgjsG1790"><text id="SvgjsText1791" font-family="微软雅黑" text-anchor="middle" font-size="13px" width="84px" fill="#323232" font-weight="400" align="middle" lineHeight="125%" anchor="middle" family="微软雅黑" size="13px" weight="400" font-style="" opacity="1" y="5.875" transform="rotate(0)"></text></g></g><g id="SvgjsG1792" transform="translate(543,85)"><path id="SvgjsPath1793" d="M 0 0L 104 0L 104 31L 0 31Z" stroke="rgba(50,50,50,1)" stroke-width="2" fill-opacity="1" fill="#4caf50"></path><g id="SvgjsG1794"><text id="SvgjsText1795" font-family="微软雅黑" text-anchor="middle" font-size="13px" width="84px" fill="#323232" font-weight="400" align="middle" lineHeight="125%" anchor="middle" family="微软雅黑" size="13px" weight="400" font-style="" opacity="1" y="5.875" transform="rotate(0)"></text></g></g><g id="SvgjsG1796" transform="translate(25,85)"><path id="SvgjsPath1797" d="M 0 0L 104 0L 104 31L 0 31Z" stroke="rgba(50,50,50,1)" stroke-width="2" fill-opacity="1" fill="#e57373"></path><g id="SvgjsG1798"><text id="SvgjsText1799" font-family="微软雅黑" text-anchor="middle" font-size="13px" width="84px" fill="#323232" font-weight="400" align="middle" lineHeight="125%" anchor="middle" family="微软雅黑" size="13px" weight="400" font-style="" opacity="1" y="5.875" transform="rotate(0)"><tspan id="SvgjsTspan1800" dy="16" x="52"><tspan id="SvgjsTspan1801" style="text-decoration:;">O5</tspan></tspan></text></g></g><g id="SvgjsG1802" transform="translate(129,116)"><path id="SvgjsPath1803" d="M 0 0L 104 0L 104 31L 0 31Z" stroke="rgba(50,50,50,1)" stroke-width="2" fill-opacity="1" fill="#e57373"></path><g id="SvgjsG1804"><text id="SvgjsText1805" font-family="微软雅黑" text-anchor="middle" font-size="13px" width="84px" fill="#323232" font-weight="400" align="middle" lineHeight="125%" anchor="middle" family="微软雅黑" size="13px" weight="400" font-style="" opacity="1" y="5.875" transform="rotate(0)"><tspan id="SvgjsTspan1806" dy="16" x="52"><tspan id="SvgjsTspan1807" style="text-decoration:;">O6</tspan></tspan></text></g></g><g id="SvgjsG1808" transform="translate(232,116)"><path id="SvgjsPath1809" d="M 0 0L 104 0L 104 31L 0 31Z" stroke="rgba(50,50,50,1)" stroke-width="2" fill-opacity="1" fill="#e57373"></path><g id="SvgjsG1810"><text id="SvgjsText1811" font-family="微软雅黑" text-anchor="middle" font-size="13px" width="84px" fill="#323232" font-weight="400" align="middle" lineHeight="125%" anchor="middle" family="微软雅黑" size="13px" weight="400" font-style="" opacity="1" y="5.875" transform="rotate(0)"><tspan id="SvgjsTspan1812" dy="16" x="52"><tspan id="SvgjsTspan1813" style="text-decoration:;">O7</tspan></tspan></text></g></g><g id="SvgjsG1814" transform="translate(335,116)"><path id="SvgjsPath1815" d="M 0 0L 104 0L 104 31L 0 31Z" stroke="rgba(50,50,50,1)" stroke-width="2" fill-opacity="1" fill="#4caf50"></path><g id="SvgjsG1816"><text id="SvgjsText1817" font-family="微软雅黑" text-anchor="middle" font-size="13px" width="84px" fill="#323232" font-weight="400" align="middle" lineHeight="125%" anchor="middle" family="微软雅黑" size="13px" weight="400" font-style="" opacity="1" y="5.875" transform="rotate(0)"></text></g></g><g id="SvgjsG1818" transform="translate(439,115)"><path id="SvgjsPath1819" d="M 0 0L 104 0L 104 31L 0 31Z" stroke="rgba(50,50,50,1)" stroke-width="2" fill-opacity="1" fill="#4caf50"></path><g id="SvgjsG1820"><text id="SvgjsText1821" font-family="微软雅黑" text-anchor="middle" font-size="13px" width="84px" fill="#323232" font-weight="400" align="middle" lineHeight="125%" anchor="middle" family="微软雅黑" size="13px" weight="400" font-style="" opacity="1" y="5.875" transform="rotate(0)"></text></g></g><g id="SvgjsG1822" transform="translate(543,115)"><path id="SvgjsPath1823" d="M 0 0L 104 0L 104 31L 0 31Z" stroke="rgba(50,50,50,1)" stroke-width="2" fill-opacity="1" fill="#4caf50"></path><g id="SvgjsG1824"><text id="SvgjsText1825" font-family="微软雅黑" text-anchor="middle" font-size="13px" width="84px" fill="#323232" font-weight="400" align="middle" lineHeight="125%" anchor="middle" family="微软雅黑" size="13px" weight="400" font-style="" opacity="1" y="5.875" transform="rotate(0)"></text></g></g><g id="SvgjsG1826" transform="translate(25,116)"><path id="SvgjsPath1827" d="M 0 0L 104 0L 104 31L 0 31Z" stroke="rgba(50,50,50,1)" stroke-width="2" fill-opacity="1" fill="#4caf50"></path><g id="SvgjsG1828"><text id="SvgjsText1829" font-family="微软雅黑" text-anchor="middle" font-size="13px" width="84px" fill="#323232" font-weight="400" align="middle" lineHeight="125%" anchor="middle" family="微软雅黑" size="13px" weight="400" font-style="" opacity="1" y="5.875" transform="rotate(0)"></text></g></g><g id="SvgjsG1830" transform="translate(53,441)"><path id="SvgjsPath1831" d="M 0 0L 104 0L 104 31L 0 31Z" stroke="rgba(50,50,50,1)" stroke-width="2" fill-opacity="1" fill="#9c27b0"></path><g id="SvgjsG1832"><text id="SvgjsText1833" font-family="微软雅黑" text-anchor="middle" font-size="13px" width="84px" fill="#ffffff" font-weight="400" align="middle" lineHeight="125%" anchor="middle" family="微软雅黑" size="13px" weight="400" font-style="" opacity="1" y="5.875" transform="rotate(0)"><tspan id="SvgjsTspan1834" dy="16" x="52"><tspan id="SvgjsTspan1835" style="text-decoration:;">可回收</tspan></tspan></text></g></g><g id="SvgjsG1836" transform="translate(285.5,441)"><path id="SvgjsPath1837" d="M 0 0L 104 0L 104 31L 0 31Z" stroke="rgba(0,0,0,1)" stroke-width="2" fill-opacity="1" fill="#e57373"></path><g id="SvgjsG1838"><text id="SvgjsText1839" font-family="微软雅黑" text-anchor="middle" font-size="13px" width="84px" fill="#ffffff" font-weight="400" align="middle" lineHeight="125%" anchor="middle" family="微软雅黑" size="13px" weight="400" font-style="" opacity="1" y="5.875" transform="rotate(0)"><tspan id="SvgjsTspan1840" dy="16" x="52"><tspan id="SvgjsTspan1841" style="text-decoration:;">已使用</tspan></tspan></text></g></g><g id="SvgjsG1842" transform="translate(518,441)"><path id="SvgjsPath1843" d="M 0 0L 104 0L 104 31L 0 31Z" stroke="rgba(50,50,50,1)" stroke-width="2" fill-opacity="1" fill="#4caf50"></path><g id="SvgjsG1844"><text id="SvgjsText1845" font-family="微软雅黑" text-anchor="middle" font-size="13px" width="84px" fill="#ffffff" font-weight="400" align="middle" lineHeight="125%" anchor="middle" family="微软雅黑" size="13px" weight="400" font-style="" opacity="1" y="5.875" transform="rotate(0)"><tspan id="SvgjsTspan1846" dy="16" x="52"><tspan id="SvgjsTspan1847" style="text-decoration:;">未使用</tspan></tspan></text></g></g><g id="SvgjsG1848" transform="translate(314,165.5)"><path id="SvgjsPath1849" d="M 15.510000000000002 0L 31.490000000000002 0L 31.490000000000002 27.5L 47 27.5L 23.5 50L 0 27.5L 15.510000000000002 27.5L 15.510000000000002 0Z" stroke-dasharray="10,6" stroke="rgba(50,50,50,1)" stroke-width="2" fill-opacity="1" fill="#ffffff"></path><g id="SvgjsG1850"><text id="SvgjsText1851" font-family="微软雅黑" text-anchor="middle" font-size="13px" width="66px" fill="#323232" font-weight="400" align="middle" lineHeight="125%" anchor="middle" family="微软雅黑" size="13px" weight="400" font-style="" opacity="1" y="12.875" transform="rotate(0)"></text></g></g><g id="SvgjsG1852" transform="translate(129,235)"><path id="SvgjsPath1853" d="M 0 0L 104 0L 104 31L 0 31Z" stroke="rgba(0,0,0,1)" stroke-width="2" fill-opacity="1" fill="#e57373"></path><g id="SvgjsG1854"><text id="SvgjsText1855" font-family="微软雅黑" text-anchor="middle" font-size="13px" width="84px" fill="#323232" font-weight="400" align="middle" lineHeight="125%" anchor="middle" family="微软雅黑" size="13px" weight="400" font-style="" opacity="1" y="5.875" transform="rotate(0)"><tspan id="SvgjsTspan1856" dy="16" x="52"><tspan id="SvgjsTspan1857" style="text-decoration:;">O2</tspan></tspan></text></g></g><g id="SvgjsG1858" transform="translate(233,235)"><path id="SvgjsPath1859" d="M 0 0L 104 0L 104 31L 0 31Z" stroke="rgba(0,0,0,1)" stroke-width="2" fill-opacity="1" fill="#e57373"></path><g id="SvgjsG1860"><text id="SvgjsText1861" font-family="微软雅黑" text-anchor="middle" font-size="13px" width="84px" fill="#323232" font-weight="400" align="middle" lineHeight="125%" anchor="middle" family="微软雅黑" size="13px" weight="400" font-style="" opacity="1" y="5.875" transform="rotate(0)"><tspan id="SvgjsTspan1862" dy="16" x="52"><tspan id="SvgjsTspan1863" style="text-decoration:;">O6</tspan></tspan></text></g></g><g id="SvgjsG1864" transform="translate(336,235)"><path id="SvgjsPath1865" d="M 0 0L 104 0L 104 31L 0 31Z" stroke="rgba(0,0,0,1)" stroke-width="2" fill-opacity="1" fill="#e57373"></path><g id="SvgjsG1866"><text id="SvgjsText1867" font-family="微软雅黑" text-anchor="middle" font-size="13px" width="84px" fill="#323232" font-weight="400" align="middle" lineHeight="125%" anchor="middle" family="微软雅黑" size="13px" weight="400" font-style="" opacity="1" y="5.875" transform="rotate(0)"><tspan id="SvgjsTspan1868" dy="16" x="52"><tspan id="SvgjsTspan1869" style="text-decoration:;">O7</tspan></tspan></text></g></g><g id="SvgjsG1870" transform="translate(440,235)"><path id="SvgjsPath1871" d="M 0 0L 104 0L 104 31L 0 31Z" stroke="rgba(0,0,0,1)" stroke-width="2" fill-opacity="1" fill="#e57373"></path><g id="SvgjsG1872"><text id="SvgjsText1873" font-family="微软雅黑" text-anchor="middle" font-size="13px" width="84px" fill="#323232" font-weight="400" align="middle" lineHeight="125%" anchor="middle" family="微软雅黑" size="13px" weight="400" font-style="" opacity="1" y="5.875" transform="rotate(0)"><tspan id="SvgjsTspan1874" dy="16" x="52"><tspan id="SvgjsTspan1875" style="text-decoration:;">O3</tspan></tspan></text></g></g><g id="SvgjsG1876" transform="translate(543,235)"><path id="SvgjsPath1877" d="M 0 0L 104 0L 104 31L 0 31Z" stroke="rgba(0,0,0,1)" stroke-width="2" fill-opacity="1" fill="#e57373"></path><g id="SvgjsG1878"><text id="SvgjsText1879" font-family="微软雅黑" text-anchor="middle" font-size="13px" width="84px" fill="#323232" font-weight="400" align="middle" lineHeight="125%" anchor="middle" family="微软雅黑" size="13px" weight="400" font-style="" opacity="1" y="5.875" transform="rotate(0)"><tspan id="SvgjsTspan1880" dy="16" x="52"><tspan id="SvgjsTspan1881" style="text-decoration:;">O5</tspan></tspan></text></g></g><g id="SvgjsG1882" transform="translate(25,235)"><path id="SvgjsPath1883" d="M 0 0L 104 0L 104 31L 0 31Z" stroke="rgba(0,0,0,1)" stroke-width="2" fill-opacity="1" fill="#e57373"></path><g id="SvgjsG1884"><text id="SvgjsText1885" font-family="微软雅黑" text-anchor="middle" font-size="13px" width="84px" fill="#323232" font-weight="400" align="middle" lineHeight="125%" anchor="middle" family="微软雅黑" size="13px" weight="400" font-style="" opacity="1" y="5.875" transform="rotate(0)"><tspan id="SvgjsTspan1886" dy="16" x="52"><tspan id="SvgjsTspan1887" style="text-decoration:;">O1</tspan></tspan></text></g></g><g id="SvgjsG1888" transform="translate(129,266)"><path id="SvgjsPath1889" d="M 0 0L 104 0L 104 31L 0 31Z" stroke="rgba(0,0,0,1)" stroke-width="2" fill-opacity="1" fill="#4caf50"></path><g id="SvgjsG1890"><text id="SvgjsText1891" font-family="微软雅黑" text-anchor="middle" font-size="13px" width="84px" fill="#323232" font-weight="400" align="middle" lineHeight="125%" anchor="middle" family="微软雅黑" size="13px" weight="400" font-style="" opacity="1" y="5.875" transform="rotate(0)"></text></g></g><g id="SvgjsG1892" transform="translate(233,266)"><path id="SvgjsPath1893" d="M 0 0L 104 0L 104 31L 0 31Z" stroke="rgba(0,0,0,1)" stroke-width="2" fill-opacity="1" fill="#4caf50"></path><g id="SvgjsG1894"><text id="SvgjsText1895" font-family="微软雅黑" text-anchor="middle" font-size="13px" width="84px" fill="#323232" font-weight="400" align="middle" lineHeight="125%" anchor="middle" family="微软雅黑" size="13px" weight="400" font-style="" opacity="1" y="5.875" transform="rotate(0)"></text></g></g><g id="SvgjsG1896" transform="translate(336,266)"><path id="SvgjsPath1897" d="M 0 0L 104 0L 104 31L 0 31Z" stroke="rgba(0,0,0,1)" stroke-width="2" fill-opacity="1" fill="#4caf50"></path><g id="SvgjsG1898"><text id="SvgjsText1899" font-family="微软雅黑" text-anchor="middle" font-size="13px" width="84px" fill="#323232" font-weight="400" align="middle" lineHeight="125%" anchor="middle" family="微软雅黑" size="13px" weight="400" font-style="" opacity="1" y="5.875" transform="rotate(0)"></text></g></g><g id="SvgjsG1900" transform="translate(439,266)"><path id="SvgjsPath1901" d="M 0 0L 104 0L 104 31L 0 31Z" stroke="rgba(0,0,0,1)" stroke-width="2" fill-opacity="1" fill="#4caf50"></path><g id="SvgjsG1902"><text id="SvgjsText1903" font-family="微软雅黑" text-anchor="middle" font-size="13px" width="84px" fill="#323232" font-weight="400" align="middle" lineHeight="125%" anchor="middle" family="微软雅黑" size="13px" weight="400" font-style="" opacity="1" y="5.875" transform="rotate(0)"></text></g></g><g id="SvgjsG1904" transform="translate(543,266)"><path id="SvgjsPath1905" d="M 0 0L 104 0L 104 31L 0 31Z" stroke="rgba(0,0,0,1)" stroke-width="2" fill-opacity="1" fill="#4caf50"></path><g id="SvgjsG1906"><text id="SvgjsText1907" font-family="微软雅黑" text-anchor="middle" font-size="13px" width="84px" fill="#323232" font-weight="400" align="middle" lineHeight="125%" anchor="middle" family="微软雅黑" size="13px" weight="400" font-style="" opacity="1" y="5.875" transform="rotate(0)"></text></g></g><g id="SvgjsG1908" transform="translate(25,266)"><path id="SvgjsPath1909" d="M 0 0L 104 0L 104 31L 0 31Z" stroke="rgba(0,0,0,1)" stroke-width="2" fill-opacity="1" fill="#e57373"></path><g id="SvgjsG1910"><text id="SvgjsText1911" font-family="微软雅黑" text-anchor="middle" font-size="13px" width="84px" fill="#323232" font-weight="400" align="middle" lineHeight="125%" anchor="middle" family="微软雅黑" size="13px" weight="400" font-style="" opacity="1" y="5.875" transform="rotate(0)"><tspan id="SvgjsTspan1912" dy="16" x="52"><tspan id="SvgjsTspan1913" style="text-decoration:;">O4</tspan></tspan></text></g></g><g id="SvgjsG1914" transform="translate(129,295)"><path id="SvgjsPath1915" d="M 0 0L 104 0L 104 31L 0 31Z" stroke="rgba(50,50,50,1)" stroke-width="2" fill-opacity="1" fill="#4caf50"></path><g id="SvgjsG1916"><text id="SvgjsText1917" font-family="微软雅黑" text-anchor="middle" font-size="13px" width="84px" fill="#323232" font-weight="400" align="middle" lineHeight="125%" anchor="middle" family="微软雅黑" size="13px" weight="400" font-style="" opacity="1" y="5.875" transform="rotate(0)"></text></g></g><g id="SvgjsG1918" transform="translate(232,295)"><path id="SvgjsPath1919" d="M 0 0L 104 0L 104 31L 0 31Z" stroke="rgba(50,50,50,1)" stroke-width="2" fill-opacity="1" fill="#4caf50"></path><g id="SvgjsG1920"><text id="SvgjsText1921" font-family="微软雅黑" text-anchor="middle" font-size="13px" width="84px" fill="#323232" font-weight="400" align="middle" lineHeight="125%" anchor="middle" family="微软雅黑" size="13px" weight="400" font-style="" opacity="1" y="5.875" transform="rotate(0)"></text></g></g><g id="SvgjsG1922" transform="translate(336,295)"><path id="SvgjsPath1923" d="M 0 0L 104 0L 104 31L 0 31Z" stroke="rgba(50,50,50,1)" stroke-width="2" fill-opacity="1" fill="#4caf50"></path><g id="SvgjsG1924"><text id="SvgjsText1925" font-family="微软雅黑" text-anchor="middle" font-size="13px" width="84px" fill="#323232" font-weight="400" align="middle" lineHeight="125%" anchor="middle" family="微软雅黑" size="13px" weight="400" font-style="" opacity="1" y="5.875" transform="rotate(0)"></text></g></g><g id="SvgjsG1926" transform="translate(439,295)"><path id="SvgjsPath1927" d="M 0 0L 104 0L 104 31L 0 31Z" stroke="rgba(50,50,50,1)" stroke-width="2" fill-opacity="1" fill="#4caf50"></path><g id="SvgjsG1928"><text id="SvgjsText1929" font-family="微软雅黑" text-anchor="middle" font-size="13px" width="84px" fill="#323232" font-weight="400" align="middle" lineHeight="125%" anchor="middle" family="微软雅黑" size="13px" weight="400" font-style="" opacity="1" y="5.875" transform="rotate(0)"></text></g></g><g id="SvgjsG1930" transform="translate(543,295)"><path id="SvgjsPath1931" d="M 0 0L 104 0L 104 31L 0 31Z" stroke="rgba(50,50,50,1)" stroke-width="2" fill-opacity="1" fill="#4caf50"></path><g id="SvgjsG1932"><text id="SvgjsText1933" font-family="微软雅黑" text-anchor="middle" font-size="13px" width="84px" fill="#323232" font-weight="400" align="middle" lineHeight="125%" anchor="middle" family="微软雅黑" size="13px" weight="400" font-style="" opacity="1" y="5.875" transform="rotate(0)"></text></g></g><g id="SvgjsG1934" transform="translate(25,295)"><path id="SvgjsPath1935" d="M 0 0L 104 0L 104 31L 0 31Z" stroke="rgba(50,50,50,1)" stroke-width="2" fill-opacity="1" fill="#4caf50"></path><g id="SvgjsG1936"><text id="SvgjsText1937" font-family="微软雅黑" text-anchor="middle" font-size="13px" width="84px" fill="#323232" font-weight="400" align="middle" lineHeight="125%" anchor="middle" family="微软雅黑" size="13px" weight="400" font-style="" opacity="1" y="5.875" transform="rotate(0)"></text></g></g><g id="SvgjsG1938" transform="translate(129,326)"><path id="SvgjsPath1939" d="M 0 0L 104 0L 104 31L 0 31Z" stroke="rgba(50,50,50,1)" stroke-width="2" fill-opacity="1" fill="#4caf50"></path><g id="SvgjsG1940"><text id="SvgjsText1941" font-family="微软雅黑" text-anchor="middle" font-size="13px" width="84px" fill="#323232" font-weight="400" align="middle" lineHeight="125%" anchor="middle" family="微软雅黑" size="13px" weight="400" font-style="" opacity="1" y="5.875" transform="rotate(0)"></text></g></g><g id="SvgjsG1942" transform="translate(233,326)"><path id="SvgjsPath1943" d="M 0 0L 104 0L 104 31L 0 31Z" stroke="rgba(50,50,50,1)" stroke-width="2" fill-opacity="1" fill="#4caf50"></path><g id="SvgjsG1944"><text id="SvgjsText1945" font-family="微软雅黑" text-anchor="middle" font-size="13px" width="84px" fill="#323232" font-weight="400" align="middle" lineHeight="125%" anchor="middle" family="微软雅黑" size="13px" weight="400" font-style="" opacity="1" y="5.875" transform="rotate(0)"></text></g></g><g id="SvgjsG1946" transform="translate(336,325)"><path id="SvgjsPath1947" d="M 0 0L 104 0L 104 31L 0 31Z" stroke="rgba(50,50,50,1)" stroke-width="2" fill-opacity="1" fill="#4caf50"></path><g id="SvgjsG1948"><text id="SvgjsText1949" font-family="微软雅黑" text-anchor="middle" font-size="13px" width="84px" fill="#323232" font-weight="400" align="middle" lineHeight="125%" anchor="middle" family="微软雅黑" size="13px" weight="400" font-style="" opacity="1" y="5.875" transform="rotate(0)"></text></g></g><g id="SvgjsG1950" transform="translate(439,325)"><path id="SvgjsPath1951" d="M 0 0L 104 0L 104 31L 0 31Z" stroke="rgba(50,50,50,1)" stroke-width="2" fill-opacity="1" fill="#4caf50"></path><g id="SvgjsG1952"><text id="SvgjsText1953" font-family="微软雅黑" text-anchor="middle" font-size="13px" width="84px" fill="#323232" font-weight="400" align="middle" lineHeight="125%" anchor="middle" family="微软雅黑" size="13px" weight="400" font-style="" opacity="1" y="5.875" transform="rotate(0)"></text></g></g><g id="SvgjsG1954" transform="translate(543,325)"><path id="SvgjsPath1955" d="M 0 0L 104 0L 104 31L 0 31Z" stroke="rgba(50,50,50,1)" stroke-width="2" fill-opacity="1" fill="#4caf50"></path><g id="SvgjsG1956"><text id="SvgjsText1957" font-family="微软雅黑" text-anchor="middle" font-size="13px" width="84px" fill="#323232" font-weight="400" align="middle" lineHeight="125%" anchor="middle" family="微软雅黑" size="13px" weight="400" font-style="" opacity="1" y="5.875" transform="rotate(0)"></text></g></g><g id="SvgjsG1958" transform="translate(25,326)"><path id="SvgjsPath1959" d="M 0 0L 104 0L 104 31L 0 31Z" stroke="rgba(50,50,50,1)" stroke-width="2" fill-opacity="1" fill="#4caf50"></path><g id="SvgjsG1960"><text id="SvgjsText1961" font-family="微软雅黑" text-anchor="middle" font-size="13px" width="84px" fill="#323232" font-weight="400" align="middle" lineHeight="125%" anchor="middle" family="微软雅黑" size="13px" weight="400" font-style="" opacity="1" y="5.875" transform="rotate(0)"></text></g></g><g id="SvgjsG1962" transform="translate(178,313.5)"><path id="SvgjsPath1963" d="M 0 0L 273 0L 273 43.5L 0 43.5Z" stroke="none" fill="none"></path><g id="SvgjsG1964"><text id="SvgjsText1965" font-family="微软雅黑" text-anchor="middle" font-size="19px" width="273px" fill="#cfcfcf" font-weight="700" align="middle" lineHeight="125%" anchor="middle" family="微软雅黑" size="19px" weight="700" font-style="" opacity="1" y="7.875" transform="rotate(0)"><tspan id="SvgjsTspan1966" dy="23" x="136.5"><tspan id="SvgjsTspan1967" style="text-decoration:;">@WindShadow</tspan></tspan></text></g></g></svg>