<svg id="SvgjsSvg1250" width="843" height="370" xmlns="http://www.w3.org/2000/svg" version="1.1" xmlns:xlink="http://www.w3.org/1999/xlink" xmlns:svgjs="http://svgjs.com/svgjs"><defs id="SvgjsDefs1251"><marker id="SvgjsMarker1306" markerWidth="16" markerHeight="12" refX="16" refY="6" viewBox="0 0 16 12" orient="auto" markerUnits="userSpaceOnUse" stroke-dasharray="0,0"><path id="SvgjsPath1307" d="M0,2 L14,6 L0,11 L0,2" fill="#323232" stroke="#323232" stroke-width="2"></path></marker><marker id="SvgjsMarker1310" markerWidth="16" markerHeight="12" refX="16" refY="6" viewBox="0 0 16 12" orient="auto" markerUnits="userSpaceOnUse" stroke-dasharray="0,0"><path id="SvgjsPath1311" d="M0,2 L14,6 L0,11 L0,2" fill="#323232" stroke="#323232" stroke-width="2"></path></marker><marker id="SvgjsMarker1314" markerWidth="16" markerHeight="12" refX="16" refY="6" viewBox="0 0 16 12" orient="auto" markerUnits="userSpaceOnUse" stroke-dasharray="0,0"><path id="SvgjsPath1315" d="M0,2 L14,6 L0,11 L0,2" fill="#323232" stroke="#323232" stroke-width="2"></path></marker><marker id="SvgjsMarker1318" markerWidth="16" markerHeight="12" refX="16" refY="6" viewBox="0 0 16 12" orient="auto" markerUnits="userSpaceOnUse" stroke-dasharray="0,0"><path id="SvgjsPath1319" d="M0,2 L14,6 L0,11 L0,2" fill="#323232" stroke="#323232" stroke-width="2"></path></marker><marker id="SvgjsMarker1328" markerWidth="16" markerHeight="12" refX="16" refY="6" viewBox="0 0 16 12" orient="auto" markerUnits="userSpaceOnUse" stroke-dasharray="0,0"><path id="SvgjsPath1329" d="M0,2 L14,6 L0,11 L0,2" fill="#323232" stroke="#323232" stroke-width="2"></path></marker><marker id="SvgjsMarker1344" markerWidth="16" markerHeight="12" refX="16" refY="6" viewBox="0 0 16 12" orient="auto" markerUnits="userSpaceOnUse" stroke-dasharray="0,0"><path id="SvgjsPath1345" d="M0,2 L14,6 L0,11 L0,2" fill="#323232" stroke="#323232" stroke-width="2"></path></marker><marker id="SvgjsMarker1360" markerWidth="16" markerHeight="12" refX="16" refY="6" viewBox="0 0 16 12" orient="auto" markerUnits="userSpaceOnUse" stroke-dasharray="0,0"><path id="SvgjsPath1361" d="M0,2 L14,6 L0,11 L0,2" fill="#323232" stroke="#323232" stroke-width="2"></path></marker><marker id="SvgjsMarker1364" markerWidth="16" markerHeight="12" refX="16" refY="6" viewBox="0 0 16 12" orient="auto" markerUnits="userSpaceOnUse" stroke-dasharray="0,0"><path id="SvgjsPath1365" d="M0,2 L14,6 L0,11 L0,2" fill="#323232" stroke="#323232" stroke-width="2"></path></marker></defs><g id="SvgjsG1252" transform="translate(150.5,88)"><path id="SvgjsPath1253" d="M 0 4Q 0 0 4 0L 663.5 0Q 667.5 0 667.5 4L 667.5 253Q 667.5 257 663.5 257L 4 257Q 0 257 0 253Z" stroke-dasharray="3,4" stroke="rgba(50,50,50,1)" stroke-width="2" fill-opacity="1" fill="#ffffff"></path><g id="SvgjsG1254"><text id="SvgjsText1255" font-family="微软雅黑" text-anchor="middle" font-size="13px" width="648px" fill="#ffffff" font-weight="400" align="middle" lineHeight="125%" anchor="middle" family="微软雅黑" size="13px" weight="400" font-style="" opacity="1" y="118.875" transform="rotate(0)"></text></g></g><g id="SvgjsG1256" transform="translate(25,25)"><path id="SvgjsPath1257" d="M 10.666666666666666 0L 99.33333333333333 0C 113.55555555555556 0 113.55555555555556 32 99.33333333333333 32L 10.666666666666666 32C -3.5555555555555554 32 -3.5555555555555554 0 10.666666666666666 0Z" stroke="rgba(50,50,50,1)" stroke-width="2" fill-opacity="1" fill="#388e3c"></path><g id="SvgjsG1258"><text id="SvgjsText1259" font-family="微软雅黑" text-anchor="middle" font-size="13px" width="90px" fill="#ffffff" font-weight="400" align="middle" lineHeight="125%" anchor="middle" family="微软雅黑" size="13px" weight="400" font-style="" opacity="1" y="6.375" transform="rotate(0)"><tspan id="SvgjsTspan1260" dy="16" x="55"><tspan id="SvgjsTspan1261" style="text-decoration:;">GC Roots</tspan></tspan></text></g></g><g id="SvgjsG1262" transform="translate(167,25)"><path id="SvgjsPath1263" d="M 0 4Q 0 0 4 0L 109 0Q 113 0 113 4L 113 29Q 113 33 109 33L 4 33Q 0 33 0 29Z" stroke="rgba(50,50,50,1)" stroke-width="2" fill-opacity="1" fill="#388e3c"></path><g id="SvgjsG1264"><text id="SvgjsText1265" font-family="微软雅黑" text-anchor="middle" font-size="13px" width="93px" fill="#ffffff" font-weight="400" align="middle" lineHeight="125%" anchor="middle" family="微软雅黑" size="13px" weight="400" font-style="" opacity="1" y="6.875" transform="rotate(0)"><tspan id="SvgjsTspan1266" dy="16" x="56.5"><tspan id="SvgjsTspan1267" style="text-decoration:;">线程栈变量</tspan></tspan></text></g></g><g id="SvgjsG1268" transform="translate(304,25)"><path id="SvgjsPath1269" d="M 0 4Q 0 0 4 0L 109 0Q 113 0 113 4L 113 29Q 113 33 109 33L 4 33Q 0 33 0 29Z" stroke="rgba(50,50,50,1)" stroke-width="2" fill-opacity="1" fill="#388e3c"></path><g id="SvgjsG1270"><text id="SvgjsText1271" font-family="微软雅黑" text-anchor="middle" font-size="13px" width="93px" fill="#ffffff" font-weight="400" align="middle" lineHeight="125%" anchor="middle" family="微软雅黑" size="13px" weight="400" font-style="" opacity="1" y="6.875" transform="rotate(0)"><tspan id="SvgjsTspan1272" dy="16" x="56.5"><tspan id="SvgjsTspan1273" style="text-decoration:;">静态变量</tspan></tspan></text></g></g><g id="SvgjsG1274" transform="translate(441,25)"><path id="SvgjsPath1275" d="M 0 4Q 0 0 4 0L 109 0Q 113 0 113 4L 113 29Q 113 33 109 33L 4 33Q 0 33 0 29Z" stroke="rgba(50,50,50,1)" stroke-width="2" fill-opacity="1" fill="#388e3c"></path><g id="SvgjsG1276"><text id="SvgjsText1277" font-family="微软雅黑" text-anchor="middle" font-size="13px" width="93px" fill="#ffffff" font-weight="400" align="middle" lineHeight="125%" anchor="middle" family="微软雅黑" size="13px" weight="400" font-style="" opacity="1" y="6.875" transform="rotate(0)"><tspan id="SvgjsTspan1278" dy="16" x="56.5"><tspan id="SvgjsTspan1279" style="text-decoration:;">常量池</tspan></tspan></text></g></g><g id="SvgjsG1280" transform="translate(578,25)"><path id="SvgjsPath1281" d="M 0 4Q 0 0 4 0L 109 0Q 113 0 113 4L 113 29Q 113 33 109 33L 4 33Q 0 33 0 29Z" stroke="rgba(50,50,50,1)" stroke-width="2" fill-opacity="1" fill="#388e3c"></path><g id="SvgjsG1282"><text id="SvgjsText1283" font-family="微软雅黑" text-anchor="middle" font-size="13px" width="93px" fill="#ffffff" font-weight="400" align="middle" lineHeight="125%" anchor="middle" family="微软雅黑" size="13px" weight="400" font-style="" opacity="1" y="6.875" transform="rotate(0)"><tspan id="SvgjsTspan1284" dy="16" x="56.5"><tspan id="SvgjsTspan1285" style="text-decoration:;">JNI指针</tspan></tspan></text></g></g><g id="SvgjsG1286" transform="translate(167,120)"><path id="SvgjsPath1287" d="M 0 0L 113 0L 113 33L 0 33Z" stroke="rgba(50,50,50,1)" stroke-width="2" fill-opacity="1" fill="#e57373"></path><g id="SvgjsG1288"><text id="SvgjsText1289" font-family="微软雅黑" text-anchor="middle" font-size="13px" width="93px" fill="#ffffff" font-weight="400" align="middle" lineHeight="125%" anchor="middle" family="微软雅黑" size="13px" weight="400" font-style="" opacity="1" y="6.875" transform="rotate(0)"><tspan id="SvgjsTspan1290" dy="16" x="56.5"><tspan id="SvgjsTspan1291" style="text-decoration:;">Object</tspan></tspan></text></g></g><g id="SvgjsG1292" transform="translate(304,120)"><path id="SvgjsPath1293" d="M 0 0L 113 0L 113 33L 0 33Z" stroke="rgba(50,50,50,1)" stroke-width="2" fill-opacity="1" fill="#e57373"></path><g id="SvgjsG1294"><text id="SvgjsText1295" font-family="微软雅黑" text-anchor="middle" font-size="13px" width="93px" fill="#ffffff" font-weight="400" align="middle" lineHeight="125%" anchor="middle" family="微软雅黑" size="13px" weight="400" font-style="" opacity="1" y="6.875" transform="rotate(0)"><tspan id="SvgjsTspan1296" dy="16" x="56.5"><tspan id="SvgjsTspan1297" style="text-decoration:;">Object</tspan></tspan></text></g></g><g id="SvgjsG1298" transform="translate(507,120)"><path id="SvgjsPath1299" d="M 0 0L 113 0L 113 33L 0 33Z" stroke="rgba(50,50,50,1)" stroke-width="2" fill-opacity="1" fill="#e57373"></path><g id="SvgjsG1300"><text id="SvgjsText1301" font-family="微软雅黑" text-anchor="middle" font-size="13px" width="93px" fill="#ffffff" font-weight="400" align="middle" lineHeight="125%" anchor="middle" family="微软雅黑" size="13px" weight="400" font-style="" opacity="1" y="6.875" transform="rotate(0)"><tspan id="SvgjsTspan1302" dy="16" x="56.5"><tspan id="SvgjsTspan1303" style="text-decoration:;">Object</tspan></tspan></text></g></g><g id="SvgjsG1304"><path id="SvgjsPath1305" d="M223.5 58L223.5 89L223.5 89L223.5 120" stroke="#323232" stroke-width="2" fill="none" marker-end="url(#SvgjsMarker1306)"></path></g><g id="SvgjsG1308"><path id="SvgjsPath1309" d="M360.5 58L360.5 89L360.5 89L360.5 120" stroke="#323232" stroke-width="2" fill="none" marker-end="url(#SvgjsMarker1310)"></path></g><g id="SvgjsG1312"><path id="SvgjsPath1313" d="M497.5 58L563.5 120" stroke="#323232" stroke-width="2" fill="none" marker-end="url(#SvgjsMarker1314)"></path></g><g id="SvgjsG1316"><path id="SvgjsPath1317" d="M634.5 58L563.5 120" stroke="#323232" stroke-width="2" fill="none" marker-end="url(#SvgjsMarker1318)"></path></g><g id="SvgjsG1320" transform="translate(167,215)"><path id="SvgjsPath1321" d="M 0 0L 113 0L 113 33L 0 33Z" stroke="rgba(50,50,50,1)" stroke-width="2" fill-opacity="1" fill="#e57373"></path><g id="SvgjsG1322"><text id="SvgjsText1323" font-family="微软雅黑" text-anchor="middle" font-size="13px" width="93px" fill="#ffffff" font-weight="400" align="middle" lineHeight="125%" anchor="middle" family="微软雅黑" size="13px" weight="400" font-style="" opacity="1" y="6.875" transform="rotate(0)"><tspan id="SvgjsTspan1324" dy="16" x="56.5"><tspan id="SvgjsTspan1325" style="text-decoration:;">Object</tspan></tspan></text></g></g><g id="SvgjsG1326"><path id="SvgjsPath1327" d="M223.5 153L223.5 184L223.5 184L223.5 215" stroke="#323232" stroke-width="2" fill="none" marker-end="url(#SvgjsMarker1328)"></path></g><g id="SvgjsG1330" transform="translate(167,297)"><path id="SvgjsPath1331" d="M 0 0L 113 0L 113 33L 0 33Z" stroke="rgba(50,50,50,1)" stroke-width="2" fill-opacity="1" fill="#e57373"></path><g id="SvgjsG1332"><text id="SvgjsText1333" font-family="微软雅黑" text-anchor="middle" font-size="13px" width="93px" fill="#ffffff" font-weight="400" align="middle" lineHeight="125%" anchor="middle" family="微软雅黑" size="13px" weight="400" font-style="" opacity="1" y="6.875" transform="rotate(0)"><tspan id="SvgjsTspan1334" dy="16" x="56.5"><tspan id="SvgjsTspan1335" style="text-decoration:;">Object</tspan></tspan></text></g></g><g id="SvgjsG1336" transform="translate(312,215)"><path id="SvgjsPath1337" d="M 0 0L 113 0L 113 33L 0 33Z" stroke="rgba(50,50,50,1)" stroke-width="2" fill-opacity="1" fill="#9c27b0"></path><g id="SvgjsG1338"><text id="SvgjsText1339" font-family="微软雅黑" text-anchor="middle" font-size="13px" width="93px" fill="#ffffff" font-weight="400" align="middle" lineHeight="125%" anchor="middle" family="微软雅黑" size="13px" weight="400" font-style="" opacity="1" y="6.875" transform="rotate(0)"><tspan id="SvgjsTspan1340" dy="16" x="56.5"><tspan id="SvgjsTspan1341" style="text-decoration:;">Object</tspan></tspan></text></g></g><g id="SvgjsG1342"><path id="SvgjsPath1343" d="M223.5 248L223.5 272.5L223.5 272.5L223.5 297" stroke="#323232" stroke-width="2" fill="none" marker-end="url(#SvgjsMarker1344)"></path></g><g id="SvgjsG1346" transform="translate(465,215)"><path id="SvgjsPath1347" d="M 0 0L 113 0L 113 33L 0 33Z" stroke="rgba(50,50,50,1)" stroke-width="2" fill-opacity="1" fill="#9c27b0"></path><g id="SvgjsG1348"><text id="SvgjsText1349" font-family="微软雅黑" text-anchor="middle" font-size="13px" width="93px" fill="#ffffff" font-weight="400" align="middle" lineHeight="125%" anchor="middle" family="微软雅黑" size="13px" weight="400" font-style="" opacity="1" y="6.875" transform="rotate(0)"><tspan id="SvgjsTspan1350" dy="16" x="56.5"><tspan id="SvgjsTspan1351" style="text-decoration:;">Object</tspan></tspan></text></g></g><g id="SvgjsG1352" transform="translate(620,215)"><path id="SvgjsPath1353" d="M 0 0L 113 0L 113 33L 0 33Z" stroke="rgba(50,50,50,1)" stroke-width="2" fill-opacity="1" fill="#9c27b0"></path><g id="SvgjsG1354"><text id="SvgjsText1355" font-family="微软雅黑" text-anchor="middle" font-size="13px" width="93px" fill="#ffffff" font-weight="400" align="middle" lineHeight="125%" anchor="middle" family="微软雅黑" size="13px" weight="400" font-style="" opacity="1" y="6.875" transform="rotate(0)"><tspan id="SvgjsTspan1356" dy="16" x="56.5"><tspan id="SvgjsTspan1357" style="text-decoration:;">Object</tspan></tspan></text></g></g><g id="SvgjsG1358"><path id="SvgjsPath1359" d="M368.5 215C 368.5 153.8 521.5 153.8 521.5 215" stroke="#323232" stroke-width="2" fill="none" marker-end="url(#SvgjsMarker1360)"></path></g><g id="SvgjsG1362"><path id="SvgjsPath1363" d="M521.5 248C 521.5 313 359 313 359 248" stroke="#323232" stroke-width="2" fill="none" marker-end="url(#SvgjsMarker1364)"></path></g><g id="SvgjsG1366" transform="translate(327.5,63)"><path id="SvgjsPath1367" d="M 0 0L 259.5 0L 259.5 77L 0 77Z" stroke="none" fill="none"></path><g id="SvgjsG1368"><text id="SvgjsText1369" font-family="微软雅黑" text-anchor="middle" font-size="20px" width="260px" fill="#cfcfcf" font-weight="700" align="middle" lineHeight="125%" anchor="middle" family="微软雅黑" size="20px" weight="700" font-style="" opacity="1" y="23.5" transform="rotate(0)"><tspan id="SvgjsTspan1370" dy="25" x="130"><tspan id="SvgjsTspan1371" style="text-decoration:;">@WindShadow</tspan></tspan></text></g></g><g id="SvgjsG1372" transform="translate(705,25)"><path id="SvgjsPath1373" d="M 0 4Q 0 0 4 0L 109 0Q 113 0 113 4L 113 29Q 113 33 109 33L 4 33Q 0 33 0 29Z" stroke="rgba(50,50,50,1)" stroke-width="2" fill-opacity="1" fill="#388e3c"></path><g id="SvgjsG1374"><text id="SvgjsText1375" font-family="微软雅黑" text-anchor="middle" font-size="13px" width="93px" fill="#ffffff" font-weight="400" align="middle" lineHeight="125%" anchor="middle" family="微软雅黑" size="13px" weight="400" font-style="" opacity="1" y="6.875" transform="rotate(0)"><tspan id="SvgjsTspan1376" dy="16" x="56.5"><tspan id="SvgjsTspan1377" style="text-decoration:;">……</tspan></tspan></text></g></g></svg>